<?xml version="1.0" encoding="UTF-8"?>
<svg width="239px" height="292px" viewBox="0 0 239 292" version="1.1" xmlns="http://www.w3.org/2000/svg" xmlns:xlink="http://www.w3.org/1999/xlink">
    <!-- Generator: Sketch 57.1 (83088) - https://sketch.com -->
    <title>Account Balance</title>
    <desc>Created with Sketch.</desc>
    <defs>
        <rect id="path-1" x="0" y="0" width="239" height="292" rx="10"></rect>
        <polygon id="path-3" points="0 0 52 0 52 36 0 36"></polygon>
        <linearGradient x1="50%" y1="-154.740377%" x2="50%" y2="57.014319%" id="linearGradient-5">
            <stop stop-color="#5265EB" offset="0%"></stop>
            <stop stop-color="#B9D1FF" stop-opacity="0" offset="100%"></stop>
        </linearGradient>
        <polygon id="path-6" points="0 0 52 0 52 36 0 36"></polygon>
        <linearGradient x1="50%" y1="-154.740377%" x2="50%" y2="57.014319%" id="linearGradient-8">
            <stop stop-color="#5265EB" offset="0%"></stop>
            <stop stop-color="#B9D1FF" stop-opacity="0" offset="100%"></stop>
        </linearGradient>
        <polygon id="path-9" points="0 0 52 0 52 36 0 36"></polygon>
        <polygon id="path-11" points="0 0 52 0 52 36 0 36"></polygon>
        <linearGradient x1="50%" y1="-9.68321682%" x2="50%" y2="93.2718387%" id="linearGradient-13">
            <stop stop-color="#FFFFFF" stop-opacity="0" offset="0%"></stop>
            <stop stop-color="#FFFFFF" stop-opacity="0.9" offset="100%"></stop>
        </linearGradient>
    </defs>
    <g id="Account-Balance" stroke="none" stroke-width="1" fill="none" fill-rule="evenodd">
        <g>
            <g id="Currency">
                <mask id="mask-2" fill="white">
                    <use xlink:href="#path-1"></use>
                </mask>
                <use id="Mask" fill="#FFFFFF" xlink:href="#path-1"></use>
                <g mask="url(#mask-2)">
                    <g transform="translate(0.000000, 245.000000)">
                        <g id="Group-2" stroke="none" fill-rule="evenodd" transform="translate(61.000000, 11.000000)">
                            <path d="M7.82226562,11.3710938 L4.91601562,11.3710938 L4.91601562,13 L3.91992188,13 L3.91992188,11.3710938 L1.01953125,11.3710938 L1.01953125,10.5742188 L3.91992188,10.5742188 L3.91992188,9.38476562 L1.01953125,9.38476562 L1.01953125,8.58789062 L3.63867188,8.58789062 L0.45703125,3.6015625 L1.64648438,3.6015625 L4.43554688,8.15429688 L7.25390625,3.6015625 L8.390625,3.6015625 L5.19140625,8.58789062 L7.82226562,8.58789062 L7.82226562,9.38476562 L4.91601562,9.38476562 L4.91601562,10.5742188 L7.82226562,10.5742188 L7.82226562,11.3710938 Z M9.4261875,13 L9.4261875,12.7070312 C9.4261875,11.6230469 9.93595312,10.4335938 11.6000156,9.40820312 L13.0238437,8.52929688 C13.9261875,7.97265625 14.6703281,7.3984375 14.6703281,6.296875 C14.6703281,5.3359375 13.8265781,4.41601562 12.6136875,4.41601562 C11.5824375,4.41601562 10.9320469,5.03710938 10.6800937,5.6171875 C10.5043125,6.015625 10.4925937,6.39648438 10.4867344,6.54296875 L9.50235937,6.40234375 C9.4965,5.07226562 10.6273594,3.50195312 12.6312656,3.50195312 C14.3773594,3.50195312 15.6898594,4.81445312 15.6898594,6.26757812 C15.6898594,7.59765625 14.9515781,8.38867188 13.71525,9.16210938 L12.2328281,10.0878906 C11.4359531,10.5859375 10.6742344,11.2421875 10.6215,12.0917969 L15.7718906,12.0917969 L15.7718906,13 L9.4261875,13 Z M17.3406562,14.7519531 L17.3406562,14.265625 C17.8621406,14.1660156 18.2957344,13.5859375 18.3015937,13.0175781 C18.1902656,13.0820312 18.0965156,13.09375 17.9969062,13.09375 C17.539875,13.09375 17.2293281,12.7480469 17.2293281,12.296875 C17.2293281,11.8398438 17.6277656,11.5058594 18.0672187,11.5058594 C18.6824531,11.5058594 18.9871406,12.0566406 18.9871406,12.6132812 C18.9871406,13.6445312 18.4129219,14.6054688 17.3406562,14.7519531 Z M22.442625,4.52734375 L21.7160625,7.65039062 C22.2961406,7.1171875 23.2336406,6.9765625 23.6789531,6.9765625 C25.4484844,6.9765625 26.7609844,8.13671875 26.7609844,10.0117188 C26.7609844,12.0507812 25.0910625,13.0878906 23.473875,13.0878906 C21.9211406,13.0878906 20.4562969,12.0917969 20.2629375,10.5214844 L21.2180156,10.3105469 C21.3820781,11.3886719 22.2961406,12.1796875 23.5031719,12.1796875 C24.4406719,12.1796875 25.7766094,11.5761719 25.7766094,10.0351562 C25.7766094,8.5 24.6340312,7.84960938 23.5031719,7.84960938 C22.8234844,7.84960938 22.0148906,8.20117188 21.5285625,8.8046875 L20.6086406,8.44726562 L21.7219219,3.6015625 L26.4094219,3.6015625 L26.4094219,4.52734375 L22.442625,4.52734375 Z M30.2926406,12.1503906 C32.4195937,12.1503906 33.5973281,10.5039062 33.7731094,8.3359375 C33.1402969,9.33789062 31.9039687,9.75390625 31.1070937,9.75390625 C29.1207656,9.75390625 27.9840469,8.2421875 27.9840469,6.71875 C27.9840469,4.58007812 29.64225,3.50195312 31.3180312,3.50195312 C32.3551406,3.50195312 33.5270156,4.08789062 34.0836562,5.08398438 C34.5348281,5.89257812 34.7164687,6.65429688 34.7164687,7.7265625 C34.7164687,10.796875 33.2281875,13.0878906 30.3336562,13.0878906 C29.8121719,13.0878906 28.7750625,12.9296875 28.1539687,12.5253906 L28.51725,11.6289062 C29.1442031,12.015625 29.9000625,12.1503906 30.2926406,12.1503906 Z M31.2535781,8.88671875 C31.8219375,8.88671875 32.4195937,8.66992188 32.8531875,8.30664062 C33.3102187,7.93164062 33.5973281,7.28710938 33.5973281,6.64257812 C33.5973281,5.23632812 32.4430312,4.41601562 31.2711562,4.41601562 C30.0934219,4.41601562 28.9625625,5.18945312 28.9625625,6.67773438 C28.9625625,7.82617188 29.7945937,8.88671875 31.2535781,8.88671875 Z M38.2305469,13 L38.2305469,4.64453125 L35.9688281,5.9921875 L35.5235156,5.2421875 L38.2539844,3.6015625 L39.2090625,3.6015625 L39.2090625,13 L38.2305469,13 Z M41.3930625,14.7519531 L41.3930625,14.265625 C41.9145469,14.1660156 42.3481406,13.5859375 42.354,13.0175781 C42.2426719,13.0820312 42.1489219,13.09375 42.0493125,13.09375 C41.5922812,13.09375 41.2817344,12.7480469 41.2817344,12.296875 C41.2817344,11.8398438 41.6801719,11.5058594 42.119625,11.5058594 C42.7348594,11.5058594 43.0395469,12.0566406 43.0395469,12.6132812 C43.0395469,13.6445312 42.4653281,14.6054688 41.3930625,14.7519531 Z M50.0282344,13 L49.0731562,13 L49.0731562,10.7441406 L44.1805781,10.7441406 L44.1805781,9.66601562 L48.7860469,3.6015625 L50.0282344,3.6015625 L50.0282344,9.89453125 L51.6044062,9.89453125 L51.6044062,10.7441406 L50.0282344,10.7441406 L50.0282344,13 Z M45.0594844,9.89453125 L49.0731562,9.89453125 L49.0731562,4.62695312 L45.0594844,9.89453125 Z M56.518875,13.0996094 C53.9348906,13.0996094 52.62825,10.6621094 52.62825,8.3359375 C52.62825,5.99804688 53.9641875,3.5078125 56.5598906,3.5078125 C59.143875,3.5078125 60.4446562,5.95703125 60.4446562,8.28320312 C60.4446562,10.6152344 59.1204375,13.0996094 56.518875,13.0996094 Z M56.5305937,4.41601562 C54.50325,4.41601562 53.6419219,6.59570312 53.6419219,8.28320312 C53.6419219,9.97070312 54.50325,12.1914062 56.5423125,12.1914062 C58.5696562,12.1914062 59.4309844,10.0175781 59.4309844,8.3359375 C59.4309844,6.65429688 58.5579375,4.41601562 56.5305937,4.41601562 Z M65.6638125,13.0996094 C63.0798281,13.0996094 61.7731875,10.6621094 61.7731875,8.3359375 C61.7731875,5.99804688 63.109125,3.5078125 65.7048281,3.5078125 C68.2888125,3.5078125 69.5895937,5.95703125 69.5895937,8.28320312 C69.5895937,10.6152344 68.265375,13.0996094 65.6638125,13.0996094 Z M65.6755312,4.41601562 C63.6481875,4.41601562 62.7868594,6.59570312 62.7868594,8.28320312 C62.7868594,9.97070312 63.6481875,12.1914062 65.68725,12.1914062 C67.7145937,12.1914062 68.5759219,10.0175781 68.5759219,8.3359375 C68.5759219,6.65429688 67.702875,4.41601562 65.6755312,4.41601562 Z M70.6427344,12.2441406 C70.6427344,11.7695312 71.0294531,11.3828125 71.5040625,11.3828125 C71.9786719,11.3828125 72.3653906,11.7695312 72.3653906,12.2441406 C72.3653906,12.71875 71.9786719,13.1054688 71.5040625,13.1054688 C71.0294531,13.1054688 70.6427344,12.71875 70.6427344,12.2441406 Z M75.7857187,4.52734375 L75.0591562,7.65039062 C75.6392344,7.1171875 76.5767344,6.9765625 77.0220469,6.9765625 C78.7915781,6.9765625 80.1040781,8.13671875 80.1040781,10.0117188 C80.1040781,12.0507812 78.4341562,13.0878906 76.8169687,13.0878906 C75.2642344,13.0878906 73.7993906,12.0917969 73.6060312,10.5214844 L74.5611094,10.3105469 C74.7251719,11.3886719 75.6392344,12.1796875 76.8462656,12.1796875 C77.7837656,12.1796875 79.1197031,11.5761719 79.1197031,10.0351562 C79.1197031,8.5 77.977125,7.84960938 76.8462656,7.84960938 C76.1665781,7.84960938 75.3579844,8.20117188 74.8716562,8.8046875 L73.9517344,8.44726562 L75.0650156,3.6015625 L79.7525156,3.6015625 L79.7525156,4.52734375 L75.7857187,4.52734375 Z M83.3427656,4.52734375 L82.6162031,7.65039062 C83.1962812,7.1171875 84.1337812,6.9765625 84.5790937,6.9765625 C86.348625,6.9765625 87.661125,8.13671875 87.661125,10.0117188 C87.661125,12.0507812 85.9912031,13.0878906 84.3740156,13.0878906 C82.8212812,13.0878906 81.3564375,12.0917969 81.1630781,10.5214844 L82.1181562,10.3105469 C82.2822187,11.3886719 83.1962812,12.1796875 84.4033125,12.1796875 C85.3408125,12.1796875 86.67675,11.5761719 86.67675,10.0351562 C86.67675,8.5 85.5341719,7.84960938 84.4033125,7.84960938 C83.723625,7.84960938 82.9150312,8.20117188 82.4287031,8.8046875 L81.5087812,8.44726562 L82.6220625,3.6015625 L87.3095625,3.6015625 L87.3095625,4.52734375 L83.3427656,4.52734375 Z" id="¥2,591,400.55" fill="#322D47" fill-rule="nonzero"></path>
                            <path d="M4.70214844,20.9511719 L4.70214844,25.8027344 C4.70214844,27.1123047 3.81005859,28.0703125 2.56201172,28.0703125 C1.21728516,28.0703125 0.360351562,27.1870117 0.360351562,25.8203125 L0.360351562,25.1259766 L1.09423828,25.1259766 L1.09423828,25.7939453 C1.09423828,26.9057617 1.81933594,27.3759766 2.53564453,27.3759766 C3.36181641,27.3759766 3.96386719,26.6992188 3.96386719,25.8291016 L3.96386719,20.9511719 L4.70214844,20.9511719 Z M9.24493359,25.2270508 L9.24493359,24.9018555 C9.24493359,24.1328125 8.81866406,23.7373047 8.02325391,23.7373047 C7.21026562,23.7373047 6.83673047,24.2558594 6.75762891,24.7172852 L6.08526562,24.5722656 C6.12481641,24.1679688 6.65655469,23.1088867 8.04083203,23.1088867 C9.05596875,23.1088867 9.55694531,23.5703125 9.78985547,24.1020508 C9.90411328,24.3613281 9.934875,24.7436523 9.934875,24.8974609 L9.934875,26.2509766 C9.934875,27.0639648 9.94366406,27.5209961 10.0139766,28 L9.31085156,28 C9.27130078,27.793457 9.24932812,27.3979492 9.24932812,27.15625 L9.24493359,27.15625 C8.86260937,27.7451172 8.34405469,28.0834961 7.62335156,28.0834961 C6.65216016,28.0834961 6.01055859,27.4770508 6.01055859,26.668457 L6.01055859,26.6157227 C6.01055859,25.5742188 7.05645703,25.2270508 7.91339062,25.2270508 L9.24493359,25.2270508 Z M9.24493359,25.8071289 L7.90460156,25.8071289 C7.38604687,25.8071289 6.71807812,25.9697266 6.71807812,26.6113281 C6.71807812,27.15625 7.17510937,27.4638672 7.74639844,27.4638672 C8.60333203,27.4638672 9.24493359,26.8530273 9.24493359,25.9741211 L9.24493359,25.8071289 Z M16.2266836,25.5917969 C16.2266836,26.8881836 15.3389883,28.0703125 13.9635,28.0703125 C13.0758047,28.0703125 12.5045156,27.6264648 12.1134023,27.0112305 L12.1134023,30.3686523 L11.4146719,30.3686523 L11.4146719,23.1967773 L12.1002187,23.1967773 L12.1002187,24.2382812 C12.4957266,23.6318359 13.0582266,23.1088867 13.9635,23.1088867 C15.3389883,23.1088867 16.2266836,24.3393555 16.2266836,25.5917969 Z M13.8272695,27.4550781 C14.8863516,27.4550781 15.510375,26.6201172 15.510375,25.609375 C15.510375,24.6074219 14.8863516,23.7373047 13.8272695,23.7373047 C12.8341055,23.7373047 12.1046133,24.6162109 12.1046133,25.5830078 C12.1046133,26.5673828 12.8033437,27.4550781 13.8272695,27.4550781 Z M20.316832,25.2270508 L20.316832,24.9018555 C20.316832,24.1328125 19.8905625,23.7373047 19.0951523,23.7373047 C18.2821641,23.7373047 17.9086289,24.2558594 17.8295273,24.7172852 L17.1571641,24.5722656 C17.1967148,24.1679688 17.7284531,23.1088867 19.1127305,23.1088867 C20.1278672,23.1088867 20.6288437,23.5703125 20.8617539,24.1020508 C20.9760117,24.3613281 21.0067734,24.7436523 21.0067734,24.8974609 L21.0067734,26.2509766 C21.0067734,27.0639648 21.0155625,27.5209961 21.085875,28 L20.38275,28 C20.3431992,27.793457 20.3212266,27.3979492 20.3212266,27.15625 L20.316832,27.15625 C19.9345078,27.7451172 19.4159531,28.0834961 18.69525,28.0834961 C17.7240586,28.0834961 17.082457,27.4770508 17.082457,26.668457 L17.082457,26.6157227 C17.082457,25.5742188 18.1283555,25.2270508 18.9852891,25.2270508 L20.316832,25.2270508 Z M20.316832,25.8071289 L18.9765,25.8071289 C18.4579453,25.8071289 17.7899766,25.9697266 17.7899766,26.6113281 C17.7899766,27.15625 18.2470078,27.4638672 18.8182969,27.4638672 C19.6752305,27.4638672 20.316832,26.8530273 20.316832,25.9741211 L20.316832,25.8071289 Z M25.9494609,28 L25.9494609,25.2050781 C25.9494609,24.3481445 25.5100078,23.7460938 24.617918,23.7460938 C23.782957,23.7460938 23.1853008,24.4052734 23.1853008,25.262207 L23.1853008,28 L22.4865703,28 L22.4865703,23.1967773 L23.1721172,23.1967773 L23.1721172,24.0756836 C23.5544414,23.425293 24.1213359,23.1044922 24.8288555,23.1044922 C26.0109844,23.1044922 26.6481914,23.9086914 26.6481914,25.0292969 L26.6481914,28 L25.9494609,28 Z M32.3731055,25.815918 L28.4839453,25.815918 C28.5366797,26.7519531 29.2661719,27.4594727 30.2066016,27.4594727 C30.9141211,27.4594727 31.467832,27.1123047 31.6919531,26.4311523 L32.3159766,26.6289062 C32.0347266,27.5605469 31.1646094,28.0834961 30.2153906,28.0834961 C28.8179297,28.0834961 27.7764258,26.9716797 27.7764258,25.5917969 C27.7764258,24.2822266 28.7651953,23.1088867 30.1143164,23.1088867 C31.599668,23.1088867 32.3818945,24.1723633 32.3818945,25.5786133 C32.3818945,25.6577148 32.3775,25.7368164 32.3731055,25.815918 Z M28.4927344,25.2182617 L31.6699805,25.2182617 C31.5776953,24.34375 31.0283789,23.7285156 30.1143164,23.7285156 C29.2793555,23.7285156 28.6069922,24.418457 28.4927344,25.2182617 Z M36.7137422,26.6333008 C36.7137422,27.512207 35.9315156,28.0791016 35.0086641,28.0791016 C33.7034883,28.0791016 33.246457,27.1826172 33.1805391,26.6508789 L33.8221406,26.4838867 C33.9012422,26.9233398 34.230832,27.4638672 35.0042695,27.4638672 C35.5184297,27.4638672 36.0018281,27.1782227 36.0018281,26.6728516 C36.0018281,26.2509766 35.5667695,26.0356445 35.215207,25.956543 L34.4813203,25.7939453 C33.8880586,25.6621094 33.2860078,25.3632812 33.2860078,24.5415039 C33.2860078,23.4824219 34.3099336,23.1088867 34.9119844,23.1088867 C36.1468477,23.1088867 36.5643281,23.9350586 36.6434297,24.3964844 L36.0062227,24.5766602 C35.9315156,24.2646484 35.6766328,23.7241211 34.9163789,23.7241211 C34.3890352,23.7241211 33.9891328,24.0712891 33.9891328,24.4931641 C33.9891328,24.90625 34.3231172,25.0600586 34.6834687,25.1435547 L35.4613008,25.3193359 C36.0897187,25.4599609 36.7137422,25.8642578 36.7137422,26.6333008 Z M42.1618008,25.815918 L38.2726406,25.815918 C38.325375,26.7519531 39.0548672,27.4594727 39.9952969,27.4594727 C40.7028164,27.4594727 41.2565273,27.1123047 41.4806484,26.4311523 L42.1046719,26.6289062 C41.8234219,27.5605469 40.9533047,28.0834961 40.0040859,28.0834961 C38.606625,28.0834961 37.5651211,26.9716797 37.5651211,25.5917969 C37.5651211,24.2822266 38.5538906,23.1088867 39.9030117,23.1088867 C41.3883633,23.1088867 42.1705898,24.1723633 42.1705898,25.5786133 C42.1705898,25.6577148 42.1661953,25.7368164 42.1618008,25.815918 Z M38.2814297,25.2182617 L41.4586758,25.2182617 C41.3663906,24.34375 40.8170742,23.7285156 39.9030117,23.7285156 C39.0680508,23.7285156 38.3956875,24.418457 38.2814297,25.2182617 Z M50.2981523,20.9511719 L51.1462969,20.9511719 L48.4128984,25.0249023 L48.4128984,28 L47.6658281,28 L47.6658281,25.0292969 L44.9368242,20.9511719 L45.8245195,20.9511719 L48.0525469,24.3217773 L50.2981523,20.9511719 Z M55.3023633,25.815918 L51.4132031,25.815918 C51.4659375,26.7519531 52.1954297,27.4594727 53.1358594,27.4594727 C53.8433789,27.4594727 54.3970898,27.1123047 54.6212109,26.4311523 L55.2452344,26.6289062 C54.9639844,27.5605469 54.0938672,28.0834961 53.1446484,28.0834961 C51.7471875,28.0834961 50.7056836,26.9716797 50.7056836,25.5917969 C50.7056836,24.2822266 51.6944531,23.1088867 53.0435742,23.1088867 C54.5289258,23.1088867 55.3111523,24.1723633 55.3111523,25.5786133 C55.3111523,25.6577148 55.3067578,25.7368164 55.3023633,25.815918 Z M51.4219922,25.2182617 L54.5992383,25.2182617 C54.5069531,24.34375 53.9576367,23.7285156 53.0435742,23.7285156 C52.2086133,23.7285156 51.53625,24.418457 51.4219922,25.2182617 Z M59.9374336,28 L59.9374336,25.2050781 C59.9374336,24.3481445 59.4979805,23.7460938 58.6058906,23.7460938 C57.7709297,23.7460938 57.1732734,24.4052734 57.1732734,25.262207 L57.1732734,28 L56.474543,28 L56.474543,23.1967773 L57.1600898,23.1967773 L57.1600898,24.0756836 C57.5424141,23.425293 58.1093086,23.1044922 58.8168281,23.1044922 C59.998957,23.1044922 60.6361641,23.9086914 60.6361641,25.0292969 L60.6361641,28 L59.9374336,28 Z" id="JapaneseYen" fill="#322D47" fill-rule="nonzero"></path>
                        </g>
                        <g id="Graph" stroke="none" fill-rule="evenodd" transform="translate(169.000000, 8.000000)">
                            <mask id="mask-4" fill="white">
                                <use xlink:href="#path-3"></use>
                            </mask>
                            <use id="Mask" fill="#FFFFFF" xlink:href="#path-3"></use>
                            <path d="M44.3587292,17.0299948 C48.0091286,17.0299948 55,22.2955698 55,22.2955698 L55,40.0846254 L-73.8015211,42 C-73.8015211,42 -74.8678361,38.4767838 -72.0573467,33.3601201 C-69.2468572,28.2436952 -62.2408267,25.6262871 -61.3192126,24.9754297 C-60.3975986,24.3245723 -54.1226864,20.1500359 -48.9313813,20.1318807 C-43.7400763,20.1134866 -39.3569185,24.2170208 -34.0640964,23.0636981 C-28.7712742,21.9103753 -25.2618818,17.4486404 -22.0212934,17.0299948 C-18.7807049,16.6113491 -15.5259692,20.701734 -11.4060427,21.4039149 C-7.2861161,22.1060958 -3.99341574,19.7612544 1.95441188,20.1318807 C7.90223949,20.502507 18.269579,26.0213998 24.0616527,23.7376547 C29.8537264,21.4539096 40.7083298,17.0299948 44.3587292,17.0299948 Z" id="Shape" stroke="#8BA4FF" fill="url(#linearGradient-5)" mask="url(#mask-4)"></path>
                        </g>
                        <g id="japan" stroke="none" fill-rule="evenodd" transform="translate(25.000000, 16.000000)">
                            <circle id="Oval" fill="#F0F0F0" fill-rule="nonzero" cx="10.5" cy="10.5" r="10.5"></circle>
                            <circle id="Oval" fill="#D80027" fill-rule="nonzero" cx="10.5" cy="10.5" r="4.56520313"></circle>
                        </g>
                        <rect id="Rectangle" stroke="#E1E4EB" x="10.5" y="0.5" width="219" height="51" rx="4"></rect>
                    </g>
                </g>
            </g>
            <path d="M21.7636719,34 L20.0068359,34 L24.4638672,23.0351562 L26.5009766,23.0351562 L30.9375,34 L29.1396484,34 L28.1416016,31.4296875 L22.7753906,31.4296875 L21.7636719,34 Z M27.546875,29.8916016 L25.4619141,24.6894531 L23.3837891,29.8916016 L27.546875,29.8916016 Z M35.3175312,34.1298828 C33.1163594,34.1298828 31.4278828,32.4482422 31.4278828,30.2470703 C31.4278828,28.1142578 33.1163594,26.3710938 35.344875,26.3710938 C37.1974141,26.3710938 38.4894062,27.5195312 38.8038594,28.7841797 L37.2931172,29.2763672 C37.1222187,28.6953125 36.5753437,27.8818359 35.3380391,27.8818359 C34.1212422,27.8818359 33.1368672,28.8046875 33.1368672,30.2197266 C33.1368672,31.6142578 34.0802266,32.6123047 35.3517109,32.6123047 C36.6300312,32.6123047 37.1017109,31.7646484 37.3204609,31.1904297 L38.844875,31.6826172 C38.5099141,32.8173828 37.3546406,34.1298828 35.3175312,34.1298828 Z M43.7717812,34.1298828 C41.5706094,34.1298828 39.8821328,32.4482422 39.8821328,30.2470703 C39.8821328,28.1142578 41.5706094,26.3710938 43.799125,26.3710938 C45.6516641,26.3710938 46.9436562,27.5195312 47.2581094,28.7841797 L45.7473672,29.2763672 C45.5764687,28.6953125 45.0295937,27.8818359 43.7922891,27.8818359 C42.5754922,27.8818359 41.5911172,28.8046875 41.5911172,30.2197266 C41.5911172,31.6142578 42.5344766,32.6123047 43.8059609,32.6123047 C45.0842812,32.6123047 45.5559609,31.7646484 45.7747109,31.1904297 L47.299125,31.6826172 C46.9641641,32.8173828 45.8088906,34.1298828 43.7717812,34.1298828 Z M48.3295469,30.2539062 C48.3295469,28.0322266 50.1137266,26.3710938 52.2875547,26.3710938 C54.4340391,26.3710938 56.2113828,28.0253906 56.2113828,30.2197266 C56.2113828,32.4277344 54.4682187,34.1298828 52.2738828,34.1298828 C50.1137266,34.1298828 48.3295469,32.4550781 48.3295469,30.2539062 Z M50.0316953,30.2197266 C50.0316953,31.4980469 50.9340391,32.6191406 52.2875547,32.6191406 C53.6410703,32.6191406 54.5160703,31.5390625 54.5160703,30.2539062 C54.5160703,28.9550781 53.6273984,27.8818359 52.2738828,27.8818359 C50.9203672,27.8818359 50.0316953,28.9277344 50.0316953,30.2197266 Z M59.4429766,30.7119141 C59.4429766,31.7714844 59.942,32.578125 61.0904375,32.578125 C62.1500078,32.578125 62.8199297,31.8125 62.8199297,30.6845703 L62.8199297,26.5283203 L64.4878984,26.5283203 L64.4878984,34 L62.8609453,34 L62.8609453,32.9951172 C62.1431719,33.9589844 61.1656328,34.1572266 60.5777422,34.1572266 C58.7046953,34.1572266 57.7750078,32.8173828 57.7750078,31.1220703 L57.7750078,26.5283203 L59.4429766,26.5283203 L59.4429766,30.7119141 Z M71.6843359,29.8164062 C71.6843359,28.75 71.1853125,27.9501953 70.036875,27.9501953 C68.9773047,27.9501953 68.3073828,28.7089844 68.3073828,29.8369141 L68.3073828,34 L66.6394141,34 L66.6394141,26.5283203 L68.2663672,26.5283203 L68.2663672,27.5332031 C68.9841406,26.5693359 69.9616797,26.3710938 70.5495703,26.3710938 C72.4499609,26.3710938 73.3523047,27.6972656 73.3523047,29.3994141 L73.3523047,34 L71.6843359,34 L71.6843359,29.8164062 Z M79.5780391,28.0253906 L77.6776484,28.0253906 L77.6776484,31.59375 C77.6776484,32.2363281 77.9989375,32.5576172 78.8329219,32.5576172 C78.9833125,32.5576172 79.1883906,32.5439453 79.5096797,32.5029297 L79.5096797,33.9179688 C79.0516719,34.0546875 78.5184687,34.0683594 78.3133906,34.0683594 C76.8436641,34.0683594 76.0165156,33.5009766 76.0165156,31.6826172 L76.0165156,28.0253906 L74.5672969,28.0253906 L74.5672969,26.5283203 L76.0165156,26.5283203 L76.0165156,24.2109375 L77.6776484,24.2109375 L77.6776484,26.5283203 L79.5780391,26.5283203 L79.5780391,28.0253906 Z M89.3361484,23.0351562 C91.4279453,23.0351562 92.8634922,24.1220703 92.8634922,25.9199219 C92.8634922,26.5078125 92.5763828,27.7041016 91.2775547,28.2919922 C92.9455234,28.8251953 93.3556797,30.0693359 93.3556797,30.9306641 C93.3556797,32.6943359 92.0910312,34 89.4660312,34 L85.1388828,34 L85.1388828,23.0351562 L89.3361484,23.0351562 Z M89.0148594,27.6767578 C90.5050937,27.6767578 91.1408359,26.9453125 91.1408359,26.0976562 C91.1408359,25.2636719 90.5734531,24.5869141 89.1037266,24.5869141 L86.8478672,24.5869141 L86.8478672,27.6767578 L89.0148594,27.6767578 Z M89.493375,32.4482422 C90.9220859,32.4482422 91.6398594,31.7509766 91.6398594,30.8007812 C91.6398594,29.8916016 90.9631016,29.1875 89.3908359,29.1875 L86.8547031,29.1875 L86.8547031,32.4482422 L89.493375,32.4482422 Z M101.023797,34 L99.3900078,34 C99.3489922,33.8154297 99.3216484,33.2412109 99.3216484,32.9746094 C98.7747734,33.8837891 97.8245781,34.1298828 97.1273125,34.1298828 C95.6644219,34.1298828 94.6048516,33.2207031 94.6048516,31.9287109 L94.6048516,31.8466797 C94.6048516,30.1103516 96.4095391,29.5634766 97.7152031,29.5634766 L98.6380547,29.5634766 C99.1439141,29.5634766 99.3353203,29.296875 99.3353203,28.9345703 C99.3353203,28.3398438 98.8499687,27.7929688 97.8655937,27.7929688 C96.9564141,27.7929688 96.3548516,28.3125 96.2318047,29.0302734 L94.7210625,28.6884766 C94.7825859,28.0595703 95.3568047,27.1162109 96.3958672,26.6582031 C96.8265312,26.4667969 97.3665703,26.3710938 97.9134453,26.3710938 C99.1712578,26.3710938 100.217156,26.8154297 100.71618,27.9023438 C100.90075,28.2988281 100.969109,28.7294922 100.969109,29.2353516 L100.969109,32.796875 C100.969109,33.2548828 100.982781,33.6513672 101.023797,34 Z M99.3216484,30.9716797 L99.3216484,30.7324219 L97.7083672,30.7324219 C97.0794609,30.7324219 96.2728203,31.0742188 96.2728203,31.7783203 C96.2728203,32.3867188 96.7581719,32.796875 97.4622734,32.796875 C98.5970391,32.796875 99.3216484,32.0996094 99.3216484,30.9716797 Z M104.699727,34 L103.031758,34 L103.031758,22.5976562 L104.699727,22.5976562 L104.699727,34 Z M112.81218,34 L111.178391,34 C111.137375,33.8154297 111.110031,33.2412109 111.110031,32.9746094 C110.563156,33.8837891 109.612961,34.1298828 108.915695,34.1298828 C107.452805,34.1298828 106.393234,33.2207031 106.393234,31.9287109 L106.393234,31.8466797 C106.393234,30.1103516 108.197922,29.5634766 109.503586,29.5634766 L110.426437,29.5634766 C110.932297,29.5634766 111.123703,29.296875 111.123703,28.9345703 C111.123703,28.3398438 110.638352,27.7929688 109.653977,27.7929688 C108.744797,27.7929688 108.143234,28.3125 108.020187,29.0302734 L106.509445,28.6884766 C106.570969,28.0595703 107.145187,27.1162109 108.18425,26.6582031 C108.614914,26.4667969 109.154953,26.3710938 109.701828,26.3710938 C110.959641,26.3710938 112.005539,26.8154297 112.504562,27.9023438 C112.689133,28.2988281 112.757492,28.7294922 112.757492,29.2353516 L112.757492,32.796875 C112.757492,33.2548828 112.771164,33.6513672 112.81218,34 Z M111.110031,30.9716797 L111.110031,30.7324219 L109.49675,30.7324219 C108.867844,30.7324219 108.061203,31.0742188 108.061203,31.7783203 C108.061203,32.3867188 108.546555,32.796875 109.250656,32.796875 C110.385422,32.796875 111.110031,32.0996094 111.110031,30.9716797 Z M119.865062,29.8164062 C119.865062,28.75 119.366039,27.9501953 118.217602,27.9501953 C117.158031,27.9501953 116.488109,28.7089844 116.488109,29.8369141 L116.488109,34 L114.820141,34 L114.820141,26.5283203 L116.447094,26.5283203 L116.447094,27.5332031 C117.164867,26.5693359 118.142406,26.3710938 118.730297,26.3710938 C120.630687,26.3710938 121.533031,27.6972656 121.533031,29.3994141 L121.533031,34 L119.865062,34 L119.865062,29.8164062 Z M126.993141,34.1298828 C124.791969,34.1298828 123.103492,32.4482422 123.103492,30.2470703 C123.103492,28.1142578 124.791969,26.3710938 127.020484,26.3710938 C128.873023,26.3710938 130.165016,27.5195312 130.479469,28.7841797 L128.968727,29.2763672 C128.797828,28.6953125 128.250953,27.8818359 127.013648,27.8818359 C125.796852,27.8818359 124.812477,28.8046875 124.812477,30.2197266 C124.812477,31.6142578 125.755836,32.6123047 127.02732,32.6123047 C128.305641,32.6123047 128.77732,31.7646484 128.99607,31.1904297 L130.520484,31.6826172 C130.185523,32.8173828 129.03025,34.1298828 126.993141,34.1298828 Z M133.259891,30.7460938 C133.300906,31.8945312 134.353641,32.7011719 135.454227,32.7011719 C136.35657,32.7011719 137.135867,32.3457031 137.436648,31.4433594 L138.844852,31.8740234 C138.421023,33.3095703 136.958133,34.1367188 135.474734,34.1367188 C133.273562,34.1367188 131.557742,32.46875 131.557742,30.2539062 C131.557742,28.1279297 133.150516,26.3710938 135.317508,26.3710938 C137.648562,26.3710938 138.967898,27.984375 138.967898,30.2333984 C138.967898,30.4042969 138.961062,30.5751953 138.940555,30.7460938 L133.259891,30.7460938 Z M135.33118,27.7998047 C134.305789,27.7998047 133.499148,28.4697266 133.348758,29.4951172 L137.272586,29.4951172 C137.217898,28.421875 136.363406,27.7998047 135.33118,27.7998047 Z" id="AccountBalance" fill="#322D47" fill-rule="nonzero"></path>
            <g id="Currency" transform="translate(0.000000, 68.000000)">
                <g id="Group-4" transform="translate(61.000000, 11.000000)" fill="#322D47" fill-rule="nonzero">
                    <path d="M6.3046875,10.6972656 L7.23632812,10.7910156 C7.23632812,11.9042969 6.43359375,13 4.9453125,13 L0.7265625,13 L0.7265625,12.0859375 C1.58789062,11.6523438 2.24414062,10.6914062 2.24414062,9.71289062 C2.24414062,9.41992188 2.19726562,9.1328125 2.12695312,8.8515625 L0.76171875,8.8515625 L0.76171875,7.94921875 L1.828125,7.94921875 C1.61132812,7.35742188 1.39453125,6.75390625 1.39453125,6.09765625 C1.39453125,4.59765625 2.6484375,3.5078125 4.13671875,3.5078125 C5.8125,3.5078125 6.73828125,4.48632812 6.79101562,5.78125 L5.84765625,5.9453125 C5.81835938,5.25390625 5.46679688,4.41601562 4.16601562,4.41601562 C3.17578125,4.41601562 2.40820312,5.15429688 2.40820312,6.1328125 C2.40820312,6.6953125 2.6484375,7.31640625 2.87109375,7.94921875 L5.50195312,7.94921875 L5.50195312,8.8515625 L3.15234375,8.8515625 C3.22265625,9.12109375 3.26367188,9.390625 3.26367188,9.66015625 C3.26367188,10.65625 2.859375,11.4707031 2.07421875,12.0859375 L4.81640625,12.0859375 C6.04101562,12.0859375 6.3046875,11.265625 6.3046875,10.6972656 Z M8.35392187,13 L8.35392187,12.7070312 C8.35392187,11.6230469 8.8636875,10.4335938 10.52775,9.40820312 L11.9515781,8.52929688 C12.8539219,7.97265625 13.5980625,7.3984375 13.5980625,6.296875 C13.5980625,5.3359375 12.7543125,4.41601562 11.5414219,4.41601562 C10.5101719,4.41601562 9.85978125,5.03710938 9.60782812,5.6171875 C9.43204687,6.015625 9.42032812,6.39648438 9.41446875,6.54296875 L8.43009375,6.40234375 C8.42423437,5.07226562 9.55509375,3.50195312 11.559,3.50195312 C13.3050937,3.50195312 14.6175937,4.81445312 14.6175937,6.26757812 C14.6175937,7.59765625 13.8793125,8.38867188 12.6429844,9.16210938 L11.1605625,10.0878906 C10.3636875,10.5859375 9.60196875,11.2421875 9.54923437,12.0917969 L14.699625,12.0917969 L14.699625,13 L8.35392187,13 Z M20.9969062,4.515625 L15.664875,4.515625 L15.664875,3.6015625 L22.0574531,3.6015625 L22.0574531,4.515625 L17.727375,13 L16.6316719,13 L20.9969062,4.515625 Z M22.1555156,14.7519531 L22.1555156,14.265625 C22.677,14.1660156 23.1105937,13.5859375 23.1164531,13.0175781 C23.005125,13.0820312 22.911375,13.09375 22.8117656,13.09375 C22.3547344,13.09375 22.0441875,12.7480469 22.0441875,12.296875 C22.0441875,11.8398438 22.442625,11.5058594 22.8820781,11.5058594 C23.4973125,11.5058594 23.802,12.0566406 23.802,12.6132812 C23.802,13.6445312 23.2277812,14.6054688 22.1555156,14.7519531 Z M27.5504531,12.1503906 C29.6774062,12.1503906 30.8551406,10.5039062 31.0309219,8.3359375 C30.3981094,9.33789062 29.1617812,9.75390625 28.3649062,9.75390625 C26.3785781,9.75390625 25.2418594,8.2421875 25.2418594,6.71875 C25.2418594,4.58007812 26.9000625,3.50195312 28.5758437,3.50195312 C29.6129531,3.50195312 30.7848281,4.08789062 31.3414687,5.08398438 C31.7926406,5.89257812 31.9742812,6.65429688 31.9742812,7.7265625 C31.9742812,10.796875 30.486,13.0878906 27.5914687,13.0878906 C27.0699844,13.0878906 26.032875,12.9296875 25.4117812,12.5253906 L25.7750625,11.6289062 C26.4020156,12.015625 27.157875,12.1503906 27.5504531,12.1503906 Z M28.5113906,8.88671875 C29.07975,8.88671875 29.6774062,8.66992188 30.111,8.30664062 C30.5680312,7.93164062 30.8551406,7.28710938 30.8551406,6.64257812 C30.8551406,5.23632812 29.7008437,4.41601562 28.5289687,4.41601562 C27.3512344,4.41601562 26.220375,5.18945312 26.220375,6.67773438 C26.220375,7.82617188 27.0524062,8.88671875 28.5113906,8.88671875 Z M38.8340625,13 L37.8789844,13 L37.8789844,10.7441406 L32.9864062,10.7441406 L32.9864062,9.66601562 L37.591875,3.6015625 L38.8340625,3.6015625 L38.8340625,9.89453125 L40.4102344,9.89453125 L40.4102344,10.7441406 L38.8340625,10.7441406 L38.8340625,13 Z M33.8653125,9.89453125 L37.8789844,9.89453125 L37.8789844,4.62695312 L33.8653125,9.89453125 Z M41.3813437,13 L41.3813437,12.7070312 C41.3813437,11.6230469 41.8911094,10.4335938 43.5551719,9.40820312 L44.979,8.52929688 C45.8813437,7.97265625 46.6254844,7.3984375 46.6254844,6.296875 C46.6254844,5.3359375 45.7817344,4.41601562 44.5688437,4.41601562 C43.5375937,4.41601562 42.8872031,5.03710938 42.63525,5.6171875 C42.4594687,6.015625 42.44775,6.39648438 42.4418906,6.54296875 L41.4575156,6.40234375 C41.4516562,5.07226562 42.5825156,3.50195312 44.5864219,3.50195312 C46.3325156,3.50195312 47.6450156,4.81445312 47.6450156,6.26757812 C47.6450156,7.59765625 46.9067344,8.38867188 45.6704062,9.16210938 L44.1879844,10.0878906 C43.3911094,10.5859375 42.6293906,11.2421875 42.5766562,12.0917969 L47.7270469,12.0917969 L47.7270469,13 L41.3813437,13 Z M49.1669062,12.2441406 C49.1669062,11.7695312 49.553625,11.3828125 50.0282344,11.3828125 C50.5028437,11.3828125 50.8895625,11.7695312 50.8895625,12.2441406 C50.8895625,12.71875 50.5028437,13.1054688 50.0282344,13.1054688 C49.553625,13.1054688 49.1669062,12.71875 49.1669062,12.2441406 Z M55.6575469,13.0996094 C54.0520781,13.0996094 52.3587187,12.2207031 52.3587187,10.4335938 C52.3587187,9.44335938 53.050125,8.55859375 54.3274687,8.15429688 C53.1614531,7.8203125 52.581375,6.80664062 52.581375,6.00390625 C52.581375,4.36914062 54.2747344,3.5078125 55.6575469,3.5078125 C57.0696562,3.5078125 58.7395781,4.33398438 58.7395781,6.00390625 C58.7395781,6.89453125 58.1009062,7.8203125 56.987625,8.15429688 C58.2825469,8.5234375 58.956375,9.44335938 58.956375,10.4335938 C58.956375,12.15625 57.2923125,13.0996094 55.6575469,13.0996094 Z M55.6575469,4.39257812 C54.7669219,4.39257812 53.5540312,4.94335938 53.5540312,6.0390625 C53.5540312,7.22265625 54.8489531,7.76757812 55.6575469,7.76757812 C56.4661406,7.76757812 57.7669219,7.21679688 57.7669219,6.05664062 C57.7669219,4.95507812 56.5716094,4.39257812 55.6575469,4.39257812 Z M55.6575469,12.203125 C56.6477812,12.203125 57.9602812,11.6640625 57.9602812,10.4335938 C57.9602812,9.19726562 56.6712187,8.61132812 55.6575469,8.61132812 C54.6731719,8.61132812 53.3548125,9.18554688 53.3548125,10.4042969 C53.3548125,11.6757812 54.6380156,12.203125 55.6575469,12.203125 Z M65.8161562,13 L64.8610781,13 L64.8610781,10.7441406 L59.9685,10.7441406 L59.9685,9.66601562 L64.5739687,3.6015625 L65.8161562,3.6015625 L65.8161562,9.89453125 L67.3923281,9.89453125 L67.3923281,10.7441406 L65.8161562,10.7441406 L65.8161562,13 Z M60.8474062,9.89453125 L64.8610781,9.89453125 L64.8610781,4.62695312 L60.8474062,9.89453125 Z" id="£27,942.84"></path>
                    <path d="M0.979980469,28 L0.979980469,20.9511719 L3.51123047,20.9511719 C4.79443359,20.9511719 5.77880859,21.5708008 5.77880859,22.722168 C5.77880859,23.0429688 5.6953125,23.8999023 4.70654297,24.3349609 C5.75244141,24.6030273 6.09521484,25.5258789 6.09521484,26.0664062 C6.09521484,27.4199219 4.93066406,28 3.60351562,28 L0.979980469,28 Z M1.71386719,21.6279297 L1.71386719,24.0844727 L3.39257812,24.0844727 C4.55712891,24.0844727 5.02734375,23.5 5.02734375,22.8100586 C5.02734375,21.9487305 4.25830078,21.6279297 3.44970703,21.6279297 L1.71386719,21.6279297 Z M1.71386719,24.7436523 L1.71386719,27.3232422 L3.62109375,27.3232422 C4.38134766,27.3232422 5.33496094,27.015625 5.33496094,26.0136719 C5.33496094,25.0117188 4.29785156,24.7436523 3.48486328,24.7436523 L1.71386719,24.7436523 Z M8.02764844,23.1967773 L8.02764844,24.1459961 C8.39239453,23.4033203 9.02960156,23.1176758 9.57891797,23.1176758 C9.62286328,23.1176758 9.75909375,23.1220703 9.81622266,23.1352539 L9.81622266,23.8779297 C9.71954297,23.8647461 9.63604687,23.8603516 9.54376172,23.8603516 C8.40557812,23.8603516 8.04083203,24.7963867 8.04083203,25.6533203 L8.04083203,28 L7.34210156,28 L7.34210156,23.1967773 L8.02764844,23.1967773 Z M10.5357656,21.4741211 C10.5357656,21.1796875 10.7686758,20.9467773 11.0631094,20.9467773 C11.357543,20.9467773 11.5904531,21.1796875 11.5904531,21.4741211 C11.5904531,21.7641602 11.357543,22.0014648 11.0631094,22.0014648 C10.7686758,22.0014648 10.5357656,21.7641602 10.5357656,21.4741211 Z M10.7115469,23.1967773 L11.4146719,23.1967773 L11.4146719,28 L10.7115469,28 L10.7115469,23.1967773 Z M14.6347031,28.0395508 C13.5931992,28.0395508 13.2723984,27.4594727 13.2723984,26.7563477 L13.2723984,23.8164062 L12.3847031,23.8164062 L12.3847031,23.1967773 L13.2723984,23.1967773 L13.2723984,21.8081055 L13.9711289,21.8081055 L13.9711289,23.1967773 L15.1884141,23.1967773 L15.1884141,23.8164062 L13.9711289,23.8164062 L13.9711289,26.7387695 C13.9711289,27.1738281 14.2260117,27.4155273 14.7489609,27.4155273 C14.9027695,27.4155273 15.0741562,27.4023438 15.1840195,27.3803711 L15.1840195,27.9604492 C15.0433945,28.0087891 14.75775,28.0395508 14.6347031,28.0395508 Z M16.1540508,21.4741211 C16.1540508,21.1796875 16.3869609,20.9467773 16.6813945,20.9467773 C16.9758281,20.9467773 17.2087383,21.1796875 17.2087383,21.4741211 C17.2087383,21.7641602 16.9758281,22.0014648 16.6813945,22.0014648 C16.3869609,22.0014648 16.1540508,21.7641602 16.1540508,21.4741211 Z M16.329832,23.1967773 L17.032957,23.1967773 L17.032957,28 L16.329832,28 L16.329832,23.1967773 Z M21.7427344,26.6333008 C21.7427344,27.512207 20.9605078,28.0791016 20.0376562,28.0791016 C18.7324805,28.0791016 18.2754492,27.1826172 18.2095312,26.6508789 L18.8511328,26.4838867 C18.9302344,26.9233398 19.2598242,27.4638672 20.0332617,27.4638672 C20.5474219,27.4638672 21.0308203,27.1782227 21.0308203,26.6728516 C21.0308203,26.2509766 20.5957617,26.0356445 20.2441992,25.956543 L19.5103125,25.7939453 C18.9170508,25.6621094 18.315,25.3632812 18.315,24.5415039 C18.315,23.4824219 19.3389258,23.1088867 19.9409766,23.1088867 C21.1758398,23.1088867 21.5933203,23.9350586 21.6724219,24.3964844 L21.0352148,24.5766602 C20.9605078,24.2646484 20.705625,23.7241211 19.9453711,23.7241211 C19.4180273,23.7241211 19.018125,24.0712891 19.018125,24.4931641 C19.018125,24.90625 19.3521094,25.0600586 19.7124609,25.1435547 L20.490293,25.3193359 C21.1187109,25.4599609 21.7427344,25.8642578 21.7427344,26.6333008 Z M26.4085664,28 L26.4085664,25.2050781 C26.4085664,24.3481445 25.9691133,23.7460938 25.0770234,23.7460938 C24.2420625,23.7460938 23.6444062,24.4052734 23.6444062,25.262207 L23.6444062,28 L22.9456758,28 L22.9456758,20.6699219 L23.6444062,20.6699219 L23.6444062,24.0581055 C24.0267305,23.425293 24.5804414,23.1044922 25.2879609,23.1044922 C26.4700898,23.1044922 27.1072969,23.9086914 27.1072969,25.0292969 L27.1072969,28 L26.4085664,28 Z M31.9741172,25.2446289 L31.9741172,28 L31.2358359,28 L31.2358359,20.9511719 L33.5913047,20.9511719 C35.3095664,20.9511719 36.0654258,21.9707031 36.0654258,23.0649414 C36.0654258,24.269043 35.182125,25.2446289 33.4726523,25.2446289 L31.9741172,25.2446289 Z M31.9741172,21.6455078 L31.9741172,24.559082 L33.4990195,24.559082 C34.7954062,24.559082 35.3139609,23.8032227 35.3139609,23.0913086 C35.3139609,22.4013672 34.9140586,21.6455078 33.5341758,21.6455078 L31.9741172,21.6455078 Z M39.0789141,28.0834961 C37.6902422,28.0834961 36.6091875,26.9848633 36.6091875,25.6137695 C36.6091875,24.1943359 37.6814531,23.1088867 39.0964922,23.1088867 C40.4851641,23.1088867 41.5750078,24.1987305 41.5750078,25.5786133 C41.5750078,26.9980469 40.4851641,28.0834961 39.0789141,28.0834961 Z M39.0964922,27.4594727 C40.1248125,27.4594727 40.8586992,26.6157227 40.8586992,25.6137695 C40.8586992,24.6030273 40.1248125,23.7285156 39.0789141,23.7285156 C38.0418047,23.7285156 37.3254961,24.5722656 37.3254961,25.5786133 C37.3254961,26.5893555 38.0505937,27.4594727 39.0964922,27.4594727 Z M43.4019727,23.1967773 L43.4019727,25.9916992 C43.4019727,26.8486328 43.8414258,27.4506836 44.7335156,27.4506836 C45.5684766,27.4506836 46.1661328,26.7915039 46.1661328,25.9345703 L46.1661328,23.1967773 L46.8604687,23.1967773 L46.8604687,28 L46.1749219,28 L46.1749219,27.1210938 C45.7925977,27.7714844 45.2300977,28.0922852 44.5225781,28.0922852 C43.3492383,28.0922852 42.7032422,27.2880859 42.7032422,26.1674805 L42.7032422,23.1967773 L43.4019727,23.1967773 Z M51.8646797,28 L51.8646797,25.2050781 C51.8646797,24.3481445 51.4252266,23.7460938 50.5331367,23.7460938 C49.6981758,23.7460938 49.1005195,24.4052734 49.1005195,25.262207 L49.1005195,28 L48.4017891,28 L48.4017891,23.1967773 L49.0873359,23.1967773 L49.0873359,24.0756836 C49.4696602,23.425293 50.0365547,23.1044922 50.7440742,23.1044922 C51.9262031,23.1044922 52.5634102,23.9086914 52.5634102,25.0292969 L52.5634102,28 L51.8646797,28 Z M53.6960391,25.5917969 C53.6960391,24.3393555 54.5881289,23.1088867 55.9460391,23.1088867 C56.8776797,23.1088867 57.4226016,23.6362305 57.8093203,24.203125 L57.8093203,20.6699219 L58.5080508,20.6699219 L58.5080508,28 L57.8181094,28 L57.8225039,26.9716797 C57.4489687,27.5869141 56.8732852,28.0703125 55.9460391,28.0703125 C54.5705508,28.0703125 53.6960391,26.9057617 53.6960391,25.5917969 Z M56.0910586,27.4550781 C57.1061953,27.4550781 57.8181094,26.5673828 57.8181094,25.5830078 C57.8181094,24.6293945 57.0886172,23.7373047 56.0910586,23.7373047 C55.0363711,23.7373047 54.4123477,24.5678711 54.4123477,25.609375 C54.4123477,26.5981445 55.0363711,27.4550781 56.0910586,27.4550781 Z" id="BritishPound"></path>
                </g>
                <g id="Graph" transform="translate(169.000000, 8.000000)">
                    <mask id="mask-7" fill="white">
                        <use xlink:href="#path-6"></use>
                    </mask>
                    <use id="Mask" fill="#FFFFFF" xlink:href="#path-6"></use>
                    <path d="M77.4108766,17.0299948 C80.0142623,17.0299948 85,22.2955698 85,22.2955698 L85,40.0846254 L-6.85844915,42 C-6.85844915,42 -7.61892188,38.4767838 -5.61454182,33.3601201 C-3.61016175,28.2436952 1.38638718,25.6262871 2.04366232,24.9754297 C2.70093746,24.3245723 7.17606862,20.1500359 10.8783947,20.1318807 C14.5807208,20.1134866 17.7066938,24.2170208 21.4814196,23.0636981 C25.2561455,21.9103753 27.758968,17.4486404 30.0700853,17.0299948 C32.3812027,16.6113491 34.7024096,20.701734 37.6406518,21.4039149 C40.5788939,22.1060958 42.9271764,19.7612544 47.1690379,20.1318807 C51.4108995,20.502507 58.804661,26.0213998 62.9354422,23.7376547 C67.0662235,21.4539096 74.807491,17.0299948 77.4108766,17.0299948 Z" id="Shape" stroke="#8BA4FF" fill="url(#linearGradient-8)" mask="url(#mask-7)"></path>
                </g>
                <g id="united-kingdom" transform="translate(25.000000, 15.000000)" fill-rule="nonzero">
                    <circle id="Oval" fill="#F0F0F0" cx="10.5" cy="10.5" r="10.5"></circle>
                    <g id="Group" transform="translate(0.328125, 0.328125)" fill="#0052B4">
                        <path d="M1.84242188,3.77926172 C1.01763867,4.85235352 0.39571875,6.08917969 0.0335917969,7.43281055 L5.4959707,7.43281055 L1.84242188,3.77926172 Z" id="Path"></path>
                        <path d="M20.3101582,7.43281055 C19.9480312,6.0892207 19.3260703,4.85239453 18.5013281,3.77930273 L14.8478613,7.43281055 L20.3101582,7.43281055 Z" id="Path"></path>
                        <path d="M0.0335917969,12.9110625 C0.395759766,14.2546523 1.01767969,15.4914785 1.84242188,16.5645293 L5.49584766,12.9110625 L0.0335917969,12.9110625 L0.0335917969,12.9110625 Z" id="Path"></path>
                        <path d="M16.5644883,1.84246289 C15.4913965,1.01767969 14.2546113,0.395759766 12.9109805,0.0335917969 L12.9109805,5.49592969 L16.5644883,1.84246289 Z" id="Path"></path>
                        <path d="M3.77926172,18.5012871 C4.85235352,19.3260703 6.08917969,19.9479902 7.43276953,20.3101582 L7.43276953,14.8478613 L3.77926172,18.5012871 Z" id="Path"></path>
                        <path d="M7.43272852,0.0335917969 C6.08913867,0.395759766 4.8523125,1.01767969 3.77926172,1.84242188 L7.43272852,5.49588867 L7.43272852,0.0335917969 Z" id="Path"></path>
                        <path d="M12.9110215,20.3101582 C14.2546113,19.9479902 15.4914375,19.3260703 16.5644883,18.5013281 L12.9110215,14.8478613 L12.9110215,20.3101582 Z" id="Path"></path>
                        <path d="M14.8478613,12.9110625 L18.5013281,16.5645703 C19.3260703,15.4915195 19.9480312,14.2546523 20.3101582,12.9110625 L14.8478613,12.9110625 Z" id="Path"></path>
                    </g>
                    <g id="Group" fill="#D80027">
                        <path d="M20.9111191,9.13044727 L11.8696348,9.13044727 L11.8695938,9.13044727 L11.8695938,0.0888808594 C11.421252,0.030515625 10.9641738,0 10.5,0 C10.0357441,0 9.57874805,0.030515625 9.13044727,0.0888808594 L9.13044727,9.13036523 L9.13044727,9.13040625 L0.0888808594,9.13040625 C0.030515625,9.57874805 0,10.0358262 0,10.5 C0,10.9642559 0.030515625,11.421252 0.0888808594,11.8695527 L9.13036523,11.8695527 L9.13040625,11.8695527 L9.13040625,20.9111191 C9.57874805,20.9694844 10.0357441,21 10.5,21 C10.9641738,21 11.421252,20.9695254 11.8695527,20.9111191 L11.8695527,11.8696348 L11.8695527,11.8695938 L20.9111191,11.8695938 C20.9694844,11.421252 21,10.9642559 21,10.5 C21,10.0358262 20.9694844,9.57874805 20.9111191,9.13044727 Z" id="Path"></path>
                        <path d="M13.2391465,13.2391465 L13.2391465,13.2391465 L17.9246074,17.9246484 C18.1401035,17.7092344 18.3456738,17.4840176 18.5418105,17.2505566 L14.5304004,13.2391465 L13.2391465,13.2391465 L13.2391465,13.2391465 Z" id="Path"></path>
                        <path d="M7.76085352,13.2391875 L7.76077148,13.2391875 L3.07535156,17.9246074 C3.29076562,18.1401035 3.51598242,18.3456738 3.74944336,18.5418105 L7.76085352,14.5303184 L7.76085352,13.2391875 Z" id="Path"></path>
                        <path d="M7.76085352,7.76093555 L7.76085352,7.76085352 L3.07539258,3.07535156 C2.85989648,3.29076562 2.65432617,3.51598242 2.45818945,3.74944336 L6.46964063,7.76093555 L7.76085352,7.76093555 L7.76085352,7.76093555 Z" id="Path"></path>
                        <path d="M13.2391465,7.76093555 L13.2391465,7.76093555 L17.9246484,3.07539258 C17.7092344,2.85989648 17.4840176,2.65432617 17.2505566,2.45823047 L13.2391465,6.46968164 L13.2391465,7.76093555 L13.2391465,7.76093555 Z" id="Path"></path>
                    </g>
                </g>
                <rect id="Rectangle" stroke="#E1E4EB" x="10.5" y="0.5" width="219" height="51" rx="4"></rect>
            </g>
            <g id="Currency" transform="translate(0.000000, 127.000000)">
                <g id="Group-3" transform="translate(61.000000, 11.000000)" fill="#322D47" fill-rule="nonzero">
                    <path d="M6.9375,10.3398438 C6.9375,11.8867188 5.79492188,12.8945312 4.24804688,13.046875 L4.24804688,14.2246094 L3.42773438,14.2246094 L3.42773438,13.046875 C1.79882812,12.8769531 0.64453125,11.6464844 0.521484375,10.4160156 L1.4296875,10.1640625 C1.61132812,11.1308594 2.44335938,11.9453125 3.43359375,12.1152344 L3.43359375,8.6171875 L3.0234375,8.53515625 C2.6015625,8.453125 1.91015625,8.21875 1.41796875,7.74414062 C1.03125,7.36914062 0.767578125,6.84765625 0.767578125,6.12695312 C0.767578125,4.62695312 1.99804688,3.66601562 3.42773438,3.54296875 L3.42773438,2.30664062 L4.24804688,2.30664062 L4.24804688,3.56054688 C5.91796875,3.74804688 6.66210938,4.84960938 6.83789062,5.76367188 L5.94726562,6.0390625 C5.80664062,5.45898438 5.32617188,4.66796875 4.2421875,4.47460938 L4.2421875,7.78515625 L4.30078125,7.796875 C4.95703125,7.92578125 5.60742188,8.125 6.12304688,8.61132812 C6.76757812,9.20898438 6.9375,9.94140625 6.9375,10.3398438 Z M3.43359375,7.62695312 L3.43359375,4.4453125 C2.53710938,4.55664062 1.7578125,5.16601562 1.7578125,6.08007812 C1.7578125,6.77148438 2.16796875,7.36914062 3.1171875,7.5625 L3.43359375,7.62695312 Z M4.2421875,8.77539062 L4.2421875,12.1210938 C5.14453125,11.9980469 5.93554688,11.4648438 5.93554688,10.4394531 C5.93554688,9.08007812 4.41796875,8.81640625 4.265625,8.78125 L4.2421875,8.77539062 Z M10.1468906,4.52734375 L9.42032812,7.65039062 C10.0004062,7.1171875 10.9379062,6.9765625 11.3832187,6.9765625 C13.15275,6.9765625 14.46525,8.13671875 14.46525,10.0117188 C14.46525,12.0507812 12.7953281,13.0878906 11.1781406,13.0878906 C9.62540625,13.0878906 8.1605625,12.0917969 7.96720312,10.5214844 L8.92228125,10.3105469 C9.08634375,11.3886719 10.0004062,12.1796875 11.2074375,12.1796875 C12.1449375,12.1796875 13.480875,11.5761719 13.480875,10.0351562 C13.480875,8.5 12.3382969,7.84960938 11.2074375,7.84960938 C10.52775,7.84960938 9.71915625,8.20117188 9.23282812,8.8046875 L8.31290625,8.44726562 L9.4261875,3.6015625 L14.1136875,3.6015625 L14.1136875,4.52734375 L10.1468906,4.52734375 Z M15.9754219,14.7519531 L15.9754219,14.265625 C16.4969062,14.1660156 16.9305,13.5859375 16.9363594,13.0175781 C16.8250312,13.0820312 16.7312812,13.09375 16.6316719,13.09375 C16.1746406,13.09375 15.8640937,12.7480469 15.8640937,12.296875 C15.8640937,11.8398438 16.2625312,11.5058594 16.7019844,11.5058594 C17.3172187,11.5058594 17.6219062,12.0566406 17.6219062,12.6132812 C17.6219062,13.6445312 17.0476875,14.6054688 15.9754219,14.7519531 Z M22.6066875,13.0996094 C20.0227031,13.0996094 18.7160625,10.6621094 18.7160625,8.3359375 C18.7160625,5.99804688 20.052,3.5078125 22.6477031,3.5078125 C25.2316875,3.5078125 26.5324687,5.95703125 26.5324687,8.28320312 C26.5324687,10.6152344 25.20825,13.0996094 22.6066875,13.0996094 Z M22.6184062,4.41601562 C20.5910625,4.41601562 19.7297344,6.59570312 19.7297344,8.28320312 C19.7297344,9.97070312 20.5910625,12.1914062 22.630125,12.1914062 C24.6574687,12.1914062 25.5187969,10.0175781 25.5187969,8.3359375 C25.5187969,6.65429688 24.64575,4.41601562 22.6184062,4.41601562 Z M33.3688125,13 L32.4137344,13 L32.4137344,10.7441406 L27.5211562,10.7441406 L27.5211562,9.66601562 L32.126625,3.6015625 L33.3688125,3.6015625 L33.3688125,9.89453125 L34.9449844,9.89453125 L34.9449844,10.7441406 L33.3688125,10.7441406 L33.3688125,13 Z M28.4000625,9.89453125 L32.4137344,9.89453125 L32.4137344,4.62695312 L28.4000625,9.89453125 Z M39.2910937,13.0996094 C37.685625,13.0996094 35.9922656,12.2207031 35.9922656,10.4335938 C35.9922656,9.44335938 36.6836719,8.55859375 37.9610156,8.15429688 C36.795,7.8203125 36.2149219,6.80664062 36.2149219,6.00390625 C36.2149219,4.36914062 37.9082812,3.5078125 39.2910937,3.5078125 C40.7032031,3.5078125 42.373125,4.33398438 42.373125,6.00390625 C42.373125,6.89453125 41.7344531,7.8203125 40.6211719,8.15429688 C41.9160937,8.5234375 42.5899219,9.44335938 42.5899219,10.4335938 C42.5899219,12.15625 40.9258594,13.0996094 39.2910937,13.0996094 Z M39.2910937,4.39257812 C38.4004687,4.39257812 37.1875781,4.94335938 37.1875781,6.0390625 C37.1875781,7.22265625 38.4825,7.76757812 39.2910937,7.76757812 C40.0996875,7.76757812 41.4004687,7.21679688 41.4004687,6.05664062 C41.4004687,4.95507812 40.2051562,4.39257812 39.2910937,4.39257812 Z M39.2910937,12.203125 C40.2813281,12.203125 41.5938281,11.6640625 41.5938281,10.4335938 C41.5938281,9.19726562 40.3047656,8.61132812 39.2910937,8.61132812 C38.3067187,8.61132812 36.9883594,9.18554688 36.9883594,10.4042969 C36.9883594,11.6757812 38.2715625,12.203125 39.2910937,12.203125 Z M44.0590781,12.2441406 C44.0590781,11.7695312 44.4457969,11.3828125 44.9204062,11.3828125 C45.3950156,11.3828125 45.7817344,11.7695312 45.7817344,12.2441406 C45.7817344,12.71875 45.3950156,13.1054688 44.9204062,13.1054688 C44.4457969,13.1054688 44.0590781,12.71875 44.0590781,12.2441406 Z M48.5926875,13 L48.5926875,4.64453125 L46.3309687,5.9921875 L45.8856562,5.2421875 L48.616125,3.6015625 L49.5712031,3.6015625 L49.5712031,13 L48.5926875,13 Z M56.4837187,4.515625 L51.1516875,4.515625 L51.1516875,3.6015625 L57.5442656,3.6015625 L57.5442656,4.515625 L53.2141875,13 L52.1184844,13 L56.4837187,4.515625 Z" id="$5,048.17"></path>
                    <path d="M6.18310547,20.9511719 L6.18310547,25.2446289 C6.18310547,27.0244141 5.21191406,28.0703125 3.53320312,28.0703125 C1.82373047,28.0703125 0.887695312,26.9541016 0.887695312,25.2929688 L0.887695312,20.9511719 L1.62597656,20.9511719 L1.62597656,25.2578125 C1.62597656,26.7915039 2.47412109,27.3759766 3.56396484,27.3759766 C4.77685547,27.3759766 5.44482422,26.6113281 5.44482422,25.2973633 L5.44482422,20.9511719 L6.18310547,20.9511719 Z M11.2796016,28 L11.2796016,25.2050781 C11.2796016,24.3481445 10.8401484,23.7460938 9.94805859,23.7460938 C9.11309766,23.7460938 8.51544141,24.4052734 8.51544141,25.262207 L8.51544141,28 L7.81671094,28 L7.81671094,23.1967773 L8.50225781,23.1967773 L8.50225781,24.0756836 C8.88458203,23.425293 9.45147656,23.1044922 10.1589961,23.1044922 C11.341125,23.1044922 11.978332,23.9086914 11.978332,25.0292969 L11.978332,28 L11.2796016,28 Z M13.2823477,21.4741211 C13.2823477,21.1796875 13.5152578,20.9467773 13.8096914,20.9467773 C14.104125,20.9467773 14.3370352,21.1796875 14.3370352,21.4741211 C14.3370352,21.7641602 14.104125,22.0014648 13.8096914,22.0014648 C13.5152578,22.0014648 13.2823477,21.7641602 13.2823477,21.4741211 Z M13.4581289,23.1967773 L14.1612539,23.1967773 L14.1612539,28 L13.4581289,28 L13.4581289,23.1967773 Z M17.3812852,28.0395508 C16.3397812,28.0395508 16.0189805,27.4594727 16.0189805,26.7563477 L16.0189805,23.8164062 L15.1312852,23.8164062 L15.1312852,23.1967773 L16.0189805,23.1967773 L16.0189805,21.8081055 L16.7177109,21.8081055 L16.7177109,23.1967773 L17.9349961,23.1967773 L17.9349961,23.8164062 L16.7177109,23.8164062 L16.7177109,26.7387695 C16.7177109,27.1738281 16.9725937,27.4155273 17.495543,27.4155273 C17.6493516,27.4155273 17.8207383,27.4023438 17.9306016,27.3803711 L17.9306016,27.9604492 C17.7899766,28.0087891 17.504332,28.0395508 17.3812852,28.0395508 Z M23.2248516,25.815918 L19.3356914,25.815918 C19.3884258,26.7519531 20.117918,27.4594727 21.0583477,27.4594727 C21.7658672,27.4594727 22.3195781,27.1123047 22.5436992,26.4311523 L23.1677227,26.6289062 C22.8864727,27.5605469 22.0163555,28.0834961 21.0671367,28.0834961 C19.6696758,28.0834961 18.6281719,26.9716797 18.6281719,25.5917969 C18.6281719,24.2822266 19.6169414,23.1088867 20.9660625,23.1088867 C22.4514141,23.1088867 23.2336406,24.1723633 23.2336406,25.5786133 C23.2336406,25.6577148 23.2292461,25.7368164 23.2248516,25.815918 Z M19.3444805,25.2182617 L22.5217266,25.2182617 C22.4294414,24.34375 21.880125,23.7285156 20.9660625,23.7285156 C20.1311016,23.7285156 19.4587383,24.418457 19.3444805,25.2182617 Z M24.0498633,25.5917969 C24.0498633,24.3393555 24.9419531,23.1088867 26.2998633,23.1088867 C27.2315039,23.1088867 27.7764258,23.6362305 28.1631445,24.203125 L28.1631445,20.6699219 L28.861875,20.6699219 L28.861875,28 L28.1719336,28 L28.1763281,26.9716797 C27.802793,27.5869141 27.2271094,28.0703125 26.2998633,28.0703125 C24.924375,28.0703125 24.0498633,26.9057617 24.0498633,25.5917969 Z M26.4448828,27.4550781 C27.4600195,27.4550781 28.1719336,26.5673828 28.1719336,25.5830078 C28.1719336,24.6293945 27.4424414,23.7373047 26.4448828,23.7373047 C25.3901953,23.7373047 24.7661719,24.5678711 24.7661719,25.609375 C24.7661719,26.5981445 25.3901953,27.4550781 26.4448828,27.4550781 Z M34.9987148,28.0703125 C33.618832,28.0703125 32.6124844,27.0727539 32.5114102,26.0751953 L33.2057461,25.8818359 C33.3595547,26.7036133 34.1285977,27.3759766 34.9987148,27.3759766 C35.794125,27.3759766 36.5807461,26.9672852 36.5807461,26.0883789 C36.5807461,25.2578125 35.8380703,24.9414062 35.3239102,24.840332 L34.387875,24.6557617 C34.0714687,24.5942383 33.5617031,24.4140625 33.1925625,24.0581055 C32.9025234,23.7768555 32.700375,23.3813477 32.700375,22.8408203 C32.700375,21.6367188 33.7638516,20.8764648 34.9371914,20.8764648 C36.4533047,20.8764648 37.1168789,21.8081055 37.2618984,22.5639648 L36.5895352,22.7749023 C36.4664883,22.2739258 36.0138516,21.5576172 34.9196133,21.5576172 C34.1637539,21.5576172 33.4430508,22.0498047 33.4430508,22.8056641 C33.4430508,23.3242188 33.7550625,23.7768555 34.4669766,23.9174805 L35.3634609,24.0932617 C35.8556484,24.1899414 36.3390469,24.34375 36.7301602,24.7084961 C37.2135586,25.1567383 37.3366055,25.7060547 37.3366055,26.0048828 C37.3366055,27.2705078 36.3170742,28.0703125 34.9987148,28.0703125 Z M40.2665977,28.0395508 C39.2250937,28.0395508 38.904293,27.4594727 38.904293,26.7563477 L38.904293,23.8164062 L38.0165977,23.8164062 L38.0165977,23.1967773 L38.904293,23.1967773 L38.904293,21.8081055 L39.6030234,21.8081055 L39.6030234,23.1967773 L40.8203086,23.1967773 L40.8203086,23.8164062 L39.6030234,23.8164062 L39.6030234,26.7387695 C39.6030234,27.1738281 39.8579062,27.4155273 40.3808555,27.4155273 C40.5346641,27.4155273 40.7060508,27.4023438 40.8159141,27.3803711 L40.8159141,27.9604492 C40.6752891,28.0087891 40.3896445,28.0395508 40.2665977,28.0395508 Z M44.8577227,25.2270508 L44.8577227,24.9018555 C44.8577227,24.1328125 44.4314531,23.7373047 43.636043,23.7373047 C42.8230547,23.7373047 42.4495195,24.2558594 42.370418,24.7172852 L41.6980547,24.5722656 C41.7376055,24.1679688 42.2693437,23.1088867 43.6536211,23.1088867 C44.6687578,23.1088867 45.1697344,23.5703125 45.4026445,24.1020508 C45.5169023,24.3613281 45.5476641,24.7436523 45.5476641,24.8974609 L45.5476641,26.2509766 C45.5476641,27.0639648 45.5564531,27.5209961 45.6267656,28 L44.9236406,28 C44.8840898,27.793457 44.8621172,27.3979492 44.8621172,27.15625 L44.8577227,27.15625 C44.4753984,27.7451172 43.9568437,28.0834961 43.2361406,28.0834961 C42.2649492,28.0834961 41.6233477,27.4770508 41.6233477,26.668457 L41.6233477,26.6157227 C41.6233477,25.5742188 42.6692461,25.2270508 43.5261797,25.2270508 L44.8577227,25.2270508 Z M44.8577227,25.8071289 L43.5173906,25.8071289 C42.9988359,25.8071289 42.3308672,25.9697266 42.3308672,26.6113281 C42.3308672,27.15625 42.7878984,27.4638672 43.3591875,27.4638672 C44.2161211,27.4638672 44.8577227,26.8530273 44.8577227,25.9741211 L44.8577227,25.8071289 Z M48.657832,28.0395508 C47.6163281,28.0395508 47.2955273,27.4594727 47.2955273,26.7563477 L47.2955273,23.8164062 L46.407832,23.8164062 L46.407832,23.1967773 L47.2955273,23.1967773 L47.2955273,21.8081055 L47.9942578,21.8081055 L47.9942578,23.1967773 L49.211543,23.1967773 L49.211543,23.8164062 L47.9942578,23.8164062 L47.9942578,26.7387695 C47.9942578,27.1738281 48.2491406,27.4155273 48.7720898,27.4155273 C48.9258984,27.4155273 49.0972852,27.4023438 49.2071484,27.3803711 L49.2071484,27.9604492 C49.0665234,28.0087891 48.7808789,28.0395508 48.657832,28.0395508 Z M54.5013984,25.815918 L50.6122383,25.815918 C50.6649727,26.7519531 51.3944648,27.4594727 52.3348945,27.4594727 C53.0424141,27.4594727 53.596125,27.1123047 53.8202461,26.4311523 L54.4442695,26.6289062 C54.1630195,27.5605469 53.2929023,28.0834961 52.3436836,28.0834961 C50.9462227,28.0834961 49.9047187,26.9716797 49.9047187,25.5917969 C49.9047187,24.2822266 50.8934883,23.1088867 52.2426094,23.1088867 C53.7279609,23.1088867 54.5101875,24.1723633 54.5101875,25.5786133 C54.5101875,25.6577148 54.505793,25.7368164 54.5013984,25.815918 Z M50.6210273,25.2182617 L53.7982734,25.2182617 C53.7059883,24.34375 53.1566719,23.7285156 52.2426094,23.7285156 C51.4076484,23.7285156 50.7352852,24.418457 50.6210273,25.2182617 Z M58.8420352,26.6333008 C58.8420352,27.512207 58.0598086,28.0791016 57.136957,28.0791016 C55.8317812,28.0791016 55.37475,27.1826172 55.308832,26.6508789 L55.9504336,26.4838867 C56.0295352,26.9233398 56.359125,27.4638672 57.1325625,27.4638672 C57.6467227,27.4638672 58.1301211,27.1782227 58.1301211,26.6728516 C58.1301211,26.2509766 57.6950625,26.0356445 57.3435,25.956543 L56.6096133,25.7939453 C56.0163516,25.6621094 55.4143008,25.3632812 55.4143008,24.5415039 C55.4143008,23.4824219 56.4382266,23.1088867 57.0402773,23.1088867 C58.2751406,23.1088867 58.6926211,23.9350586 58.7717227,24.3964844 L58.1345156,24.5766602 C58.0598086,24.2646484 57.8049258,23.7241211 57.0446719,23.7241211 C56.5173281,23.7241211 56.1174258,24.0712891 56.1174258,24.4931641 C56.1174258,24.90625 56.4514102,25.0600586 56.8117617,25.1435547 L57.5895937,25.3193359 C58.2180117,25.4599609 58.8420352,25.8642578 58.8420352,26.6333008 Z M62.6937187,20.9511719 L64.7899102,20.9511719 C66.9871758,20.9511719 68.5120781,22.4716797 68.5120781,24.4624023 C68.5120781,26.5629883 66.8553398,28 64.7899102,28 L62.6937187,28 L62.6937187,20.9511719 Z M63.432,27.3056641 L64.763543,27.3056641 C66.5433281,27.3056641 67.7430352,26.1235352 67.7430352,24.4799805 C67.7430352,22.862793 66.5872734,21.6455078 64.7547539,21.6455078 L63.432,21.6455078 L63.432,27.3056641 Z M71.8595508,28.0834961 C70.4708789,28.0834961 69.3898242,26.9848633 69.3898242,25.6137695 C69.3898242,24.1943359 70.4620898,23.1088867 71.8771289,23.1088867 C73.2658008,23.1088867 74.3556445,24.1987305 74.3556445,25.5786133 C74.3556445,26.9980469 73.2658008,28.0834961 71.8595508,28.0834961 Z M71.8771289,27.4594727 C72.9054492,27.4594727 73.6393359,26.6157227 73.6393359,25.6137695 C73.6393359,24.6030273 72.9054492,23.7285156 71.8595508,23.7285156 C70.8224414,23.7285156 70.1061328,24.5722656 70.1061328,25.5786133 C70.1061328,26.5893555 70.8312305,27.4594727 71.8771289,27.4594727 Z M75.5454023,20.6655273 L76.2485273,20.6655273 L76.2485273,28 L75.5454023,28 L75.5454023,20.6655273 Z M77.7898477,20.6655273 L78.4929727,20.6655273 L78.4929727,28 L77.7898477,28 L77.7898477,20.6655273 Z M82.9302891,25.2270508 L82.9302891,24.9018555 C82.9302891,24.1328125 82.5040195,23.7373047 81.7086094,23.7373047 C80.8956211,23.7373047 80.5220859,24.2558594 80.4429844,24.7172852 L79.7706211,24.5722656 C79.8101719,24.1679688 80.3419102,23.1088867 81.7261875,23.1088867 C82.7413242,23.1088867 83.2423008,23.5703125 83.4752109,24.1020508 C83.5894687,24.3613281 83.6202305,24.7436523 83.6202305,24.8974609 L83.6202305,26.2509766 C83.6202305,27.0639648 83.6290195,27.5209961 83.699332,28 L82.996207,28 C82.9566562,27.793457 82.9346836,27.3979492 82.9346836,27.15625 L82.9302891,27.15625 C82.5479648,27.7451172 82.0294102,28.0834961 81.308707,28.0834961 C80.3375156,28.0834961 79.6959141,27.4770508 79.6959141,26.668457 L79.6959141,26.6157227 C79.6959141,25.5742188 80.7418125,25.2270508 81.5987461,25.2270508 L82.9302891,25.2270508 Z M82.9302891,25.8071289 L81.589957,25.8071289 C81.0714023,25.8071289 80.4034336,25.9697266 80.4034336,26.6113281 C80.4034336,27.15625 80.8604648,27.4638672 81.4317539,27.4638672 C82.2886875,27.4638672 82.9302891,26.8530273 82.9302891,25.9741211 L82.9302891,25.8071289 Z M85.7855742,23.1967773 L85.7855742,24.1459961 C86.1503203,23.4033203 86.7875273,23.1176758 87.3368437,23.1176758 C87.3807891,23.1176758 87.5170195,23.1220703 87.5741484,23.1352539 L87.5741484,23.8779297 C87.4774687,23.8647461 87.3939727,23.8603516 87.3016875,23.8603516 C86.1635039,23.8603516 85.7987578,24.7963867 85.7987578,25.6533203 L85.7987578,28 L85.1000273,28 L85.1000273,23.1967773 L85.7855742,23.1967773 Z" id="UnitedStatesDollar"></path>
                </g>
                <g id="Graph" transform="translate(169.000000, 11.000000)">
                    <mask id="mask-10" fill="white">
                        <use xlink:href="#path-9"></use>
                    </mask>
                    <use id="Mask" fill="#FFFFFF" xlink:href="#path-9"></use>
                    <path d="M56.4108766,17.0299948 C59.0142623,17.0299948 64,22.2955698 64,22.2955698 L64,40.0846254 L-27.8584492,42 C-27.8584492,42 -28.6189219,38.4767838 -26.6145418,33.3601201 C-24.6101618,28.2436952 -19.6136128,25.6262871 -18.9563377,24.9754297 C-18.2990625,24.3245723 -13.8239314,20.1500359 -10.1216053,20.1318807 C-6.4192792,20.1134866 -3.29330623,24.2170208 0.481419638,23.0636981 C4.25614551,21.9103753 6.75896799,17.4486404 9.07008533,17.0299948 C11.3812027,16.6113491 13.7024096,20.701734 16.6406518,21.4039149 C19.5788939,22.1060958 21.9271764,19.7612544 26.1690379,20.1318807 C30.4108995,20.502507 37.804661,26.0213998 41.9354422,23.7376547 C46.0662235,21.4539096 53.807491,17.0299948 56.4108766,17.0299948 Z" id="Shape" stroke="#8BA4FF" fill="url(#linearGradient-8)" mask="url(#mask-10)"></path>
                </g>
                <g id="united-states-of-america" transform="translate(25.000000, 16.000000)" fill-rule="nonzero">
                    <circle id="Oval" fill="#F0F0F0" cx="10" cy="10" r="10"></circle>
                    <g id="Group" transform="translate(0.312500, 2.148438)" fill="#D80027">
                        <path d="M9.25273437,7.8515625 L19.6875,7.8515625 C19.6875,6.94898438 19.5671875,6.07460937 19.3430078,5.24285156 L9.25273437,5.24285156 L9.25273437,7.8515625 Z" id="Path"></path>
                        <path d="M9.25273437,2.63417969 L18.2197656,2.63417969 C17.6076172,1.63527344 16.8249219,0.75234375 15.9123438,0.02546875 L9.25273437,0.02546875 L9.25273437,2.63417969 Z" id="Path"></path>
                        <path d="M9.6875,17.8515625 C12.0409766,17.8515625 14.2041406,17.038125 15.9123437,15.6776563 L3.46265625,15.6776563 C5.17085938,17.038125 7.33402344,17.8515625 9.6875,17.8515625 Z" id="Path"></path>
                        <path d="M1.15523437,13.0689453 L18.2197656,13.0689453 C18.7112109,12.2670313 19.0923437,11.3904688 19.3430078,10.4602344 L0.0319921875,10.4602344 C0.28265625,11.3904688 0.663789063,12.2670313 1.15523437,13.0689453 Z" id="Path"></path>
                    </g>
                    <path d="M4.6321875,1.56164063 L5.54347656,1.56164063 L4.69582031,2.17746094 L5.01960937,3.17390625 L4.17199219,2.55808594 L3.324375,3.17390625 L3.6040625,2.31308594 C2.85773438,2.93476562 2.20359375,3.663125 1.66453125,4.4746875 L1.95652344,4.4746875 L1.41695313,4.86667969 C1.33289063,5.00691406 1.25226562,5.149375 1.175,5.29394531 L1.43265625,6.08695312 L0.951953125,5.73769531 C0.832460938,5.99085937 0.723164063,6.24972656 0.624921875,6.51398437 L0.908789063,7.38773437 L1.95652344,7.38773437 L1.10886719,8.00355469 L1.43265625,9 L0.585039063,8.38417969 L0.0773046875,8.75308594 C0.026484375,9.16160156 0,9.57769531 0,10 L10,10 C10,4.4771875 10,3.82609375 10,0 C8.02453125,0 6.18300781,0.573046875 4.6321875,1.56164063 Z M5.01960937,9 L4.17199219,8.38417969 L3.324375,9 L3.64816406,8.00355469 L2.80050781,7.38773438 L3.84824219,7.38773438 L4.17199219,6.39128906 L4.49574219,7.38773438 L5.54347656,7.38773438 L4.69582031,8.00355469 L5.01960937,9 Z M4.69582031,5.09050781 L5.01960937,6.08695313 L4.17199219,5.47113281 L3.324375,6.08695313 L3.64816406,5.09050781 L2.80050781,4.4746875 L3.84824219,4.4746875 L4.17199219,3.47824219 L4.49574219,4.4746875 L5.54347656,4.4746875 L4.69582031,5.09050781 Z M8.6065625,9 L7.75894531,8.38417969 L6.91132813,9 L7.23511719,8.00355469 L6.38746094,7.38773438 L7.43519531,7.38773438 L7.75894531,6.39128906 L8.08269531,7.38773438 L9.13042969,7.38773438 L8.28277344,8.00355469 L8.6065625,9 Z M8.28277344,5.09050781 L8.6065625,6.08695313 L7.75894531,5.47113281 L6.91132812,6.08695313 L7.23511719,5.09050781 L6.38746094,4.4746875 L7.43519531,4.4746875 L7.75894531,3.47824219 L8.08269531,4.4746875 L9.13042969,4.4746875 L8.28277344,5.09050781 Z M8.28277344,2.17746094 L8.6065625,3.17390625 L7.75894531,2.55808594 L6.91132813,3.17390625 L7.23511719,2.17746094 L6.38746094,1.56164062 L7.43519531,1.56164062 L7.75894531,0.565195312 L8.08269531,1.56164062 L9.13042969,1.56164062 L8.28277344,2.17746094 Z" id="Shape" fill="#0052B4"></path>
                </g>
                <rect id="Rectangle" stroke="#E1E4EB" x="10.5" y="0.5" width="219" height="51" rx="4"></rect>
            </g>
            <g id="Currency" transform="translate(0.000000, 186.000000)">
                <g id="Group-2" transform="translate(61.000000, 11.000000)" fill="#322D47" fill-rule="nonzero">
                    <path d="M6.11132812,13.0996094 C3.95507812,13.0996094 2.15625,11.7695312 1.60546875,9.70703125 L0.5625,9.70703125 L0.5625,8.88671875 L1.453125,8.88671875 C1.43554688,8.70507812 1.4296875,8.51757812 1.4296875,8.33007812 C1.4296875,8.11914062 1.44140625,7.9140625 1.46484375,7.71484375 L0.5625,7.71484375 L0.5625,6.89453125 L1.62304688,6.89453125 C2.20898438,4.83789062 4.04882812,3.50195312 6.15820312,3.50195312 C8.71875,3.50195312 10.0371094,5.29492188 10.3535156,6.59570312 L9.41015625,6.9296875 C9.2578125,6.31445312 8.4609375,4.43945312 6.13476562,4.43945312 C4.5703125,4.43945312 3.17578125,5.39453125 2.671875,6.89453125 L6.99609375,6.89453125 L6.7265625,7.72070312 L2.484375,7.71484375 C2.4609375,7.89648438 2.44921875,8.08398438 2.44921875,8.27148438 C2.44921875,8.48242188 2.4609375,8.6875 2.49023438,8.88671875 L6.42773438,8.88671875 L6.16992187,9.70703125 L2.68359375,9.70703125 C3.16992188,11.1660156 4.5,12.1621094 6.140625,12.1621094 C8.40820312,12.1621094 9.16992188,10.4277344 9.43945312,9.64257812 L10.3828125,9.98242188 C10.0546875,11.1425781 8.83007812,13.0996094 6.11132812,13.0996094 Z M13.7797031,13 L13.7797031,4.64453125 L11.5179844,5.9921875 L11.0726719,5.2421875 L13.8031406,3.6015625 L14.7582187,3.6015625 L14.7582187,13 L13.7797031,13 Z M18.8582344,13 L18.8582344,4.64453125 L16.5965156,5.9921875 L16.1512031,5.2421875 L18.8816719,3.6015625 L19.83675,3.6015625 L19.83675,13 L18.8582344,13 Z M22.02075,14.7519531 L22.02075,14.265625 C22.5422344,14.1660156 22.9758281,13.5859375 22.9816875,13.0175781 C22.8703594,13.0820312 22.7766094,13.09375 22.677,13.09375 C22.2199687,13.09375 21.9094219,12.7480469 21.9094219,12.296875 C21.9094219,11.8398438 22.3078594,11.5058594 22.7473125,11.5058594 C23.3625469,11.5058594 23.6672344,12.0566406 23.6672344,12.6132812 C23.6672344,13.6445312 23.0930156,14.6054688 22.02075,14.7519531 Z M28.3180312,13.09375 C26.3844375,13.09375 25.2008437,11.7460938 25.0250625,10.3574219 L25.9801406,10.1816406 C26.07975,11.1601562 26.9410781,12.1855469 28.3180312,12.1855469 C29.1735,12.1855469 30.5621719,11.6523438 30.5621719,10.1640625 C30.5621719,9.08007812 29.6656875,8.359375 28.3356094,8.359375 C28.1129531,8.359375 27.7320937,8.39453125 27.4508437,8.5 L26.9879531,7.72070312 L30.0699844,4.50390625 L25.2477187,4.50390625 L25.2477187,3.6015625 L31.32975,3.6015625 L31.32975,4.46289062 L28.4176406,7.46289062 C29.1793594,7.42773438 29.8942031,7.65039062 30.439125,8.03125 C31.1246719,8.50585938 31.5582656,9.26757812 31.5582656,10.1289062 C31.5582656,11.9277344 30.0875625,13.09375 28.3180312,13.09375 Z M34.8672656,4.52734375 L34.1407031,7.65039062 C34.7207812,7.1171875 35.6582812,6.9765625 36.1035937,6.9765625 C37.873125,6.9765625 39.185625,8.13671875 39.185625,10.0117188 C39.185625,12.0507812 37.5157031,13.0878906 35.8985156,13.0878906 C34.3457812,13.0878906 32.8809375,12.0917969 32.6875781,10.5214844 L33.6426562,10.3105469 C33.8067187,11.3886719 34.7207812,12.1796875 35.9278125,12.1796875 C36.8653125,12.1796875 38.20125,11.5761719 38.20125,10.0351562 C38.20125,8.5 37.0586719,7.84960938 35.9278125,7.84960938 C35.248125,7.84960938 34.4395312,8.20117188 33.9532031,8.8046875 L33.0332812,8.44726562 L34.1465625,3.6015625 L38.8340625,3.6015625 L38.8340625,4.52734375 L34.8672656,4.52734375 Z M43.7719687,13.0996094 C42.1665,13.0996094 40.4731406,12.2207031 40.4731406,10.4335938 C40.4731406,9.44335938 41.1645469,8.55859375 42.4418906,8.15429688 C41.275875,7.8203125 40.6957969,6.80664062 40.6957969,6.00390625 C40.6957969,4.36914062 42.3891562,3.5078125 43.7719687,3.5078125 C45.1840781,3.5078125 46.854,4.33398438 46.854,6.00390625 C46.854,6.89453125 46.2153281,7.8203125 45.1020469,8.15429688 C46.3969687,8.5234375 47.0707969,9.44335938 47.0707969,10.4335938 C47.0707969,12.15625 45.4067344,13.0996094 43.7719687,13.0996094 Z M43.7719687,4.39257812 C42.8813437,4.39257812 41.6684531,4.94335938 41.6684531,6.0390625 C41.6684531,7.22265625 42.963375,7.76757812 43.7719687,7.76757812 C44.5805625,7.76757812 45.8813437,7.21679688 45.8813437,6.05664062 C45.8813437,4.95507812 44.6860312,4.39257812 43.7719687,4.39257812 Z M43.7719687,12.203125 C44.7622031,12.203125 46.0747031,11.6640625 46.0747031,10.4335938 C46.0747031,9.19726562 44.7856406,8.61132812 43.7719687,8.61132812 C42.7875937,8.61132812 41.4692344,9.18554688 41.4692344,10.4042969 C41.4692344,11.6757812 42.7524375,12.203125 43.7719687,12.203125 Z M48.5399531,12.2441406 C48.5399531,11.7695312 48.9266719,11.3828125 49.4012812,11.3828125 C49.8758906,11.3828125 50.2626094,11.7695312 50.2626094,12.2441406 C50.2626094,12.71875 49.8758906,13.1054688 49.4012812,13.1054688 C48.9266719,13.1054688 48.5399531,12.71875 48.5399531,12.2441406 Z M51.6555937,13 L51.6555937,12.7070312 C51.6555937,11.6230469 52.1653594,10.4335938 53.8294219,9.40820312 L55.25325,8.52929688 C56.1555937,7.97265625 56.8997344,7.3984375 56.8997344,6.296875 C56.8997344,5.3359375 56.0559844,4.41601562 54.8430937,4.41601562 C53.8118437,4.41601562 53.1614531,5.03710938 52.9095,5.6171875 C52.7337187,6.015625 52.722,6.39648438 52.7161406,6.54296875 L51.7317656,6.40234375 C51.7259062,5.07226562 52.8567656,3.50195312 54.8606719,3.50195312 C56.6067656,3.50195312 57.9192656,4.81445312 57.9192656,6.26757812 C57.9192656,7.59765625 57.1809844,8.38867188 55.9446562,9.16210938 L54.4622344,10.0878906 C53.6653594,10.5859375 52.9036406,11.2421875 52.8509062,12.0917969 L58.0012969,12.0917969 L58.0012969,13 L51.6555937,13 Z M61.5915469,12.1503906 C63.7185,12.1503906 64.8962344,10.5039062 65.0720156,8.3359375 C64.4392031,9.33789062 63.202875,9.75390625 62.406,9.75390625 C60.4196719,9.75390625 59.2829531,8.2421875 59.2829531,6.71875 C59.2829531,4.58007812 60.9411562,3.50195312 62.6169375,3.50195312 C63.6540469,3.50195312 64.8259219,4.08789062 65.3825625,5.08398438 C65.8337344,5.89257812 66.015375,6.65429688 66.015375,7.7265625 C66.015375,10.796875 64.5270937,13.0878906 61.6325625,13.0878906 C61.1110781,13.0878906 60.0739687,12.9296875 59.452875,12.5253906 L59.8161562,11.6289062 C60.4431094,12.015625 61.1989687,12.1503906 61.5915469,12.1503906 Z M62.5524844,8.88671875 C63.1208437,8.88671875 63.7185,8.66992188 64.1520937,8.30664062 C64.609125,7.93164062 64.8962344,7.28710938 64.8962344,6.64257812 C64.8962344,5.23632812 63.7419375,4.41601562 62.5700625,4.41601562 C61.3923281,4.41601562 60.2614687,5.18945312 60.2614687,6.67773438 C60.2614687,7.82617188 61.0935,8.88671875 62.5524844,8.88671875 Z" id="€11,358.29"></path>
                    <path d="M0.979980469,20.9511719 L5.38769531,20.9511719 L5.38769531,21.6367188 L1.71826172,21.6367188 L1.71826172,24.0756836 L5.07568359,24.0756836 L5.07568359,24.7568359 L1.71826172,24.7568359 L1.71826172,27.3144531 L5.42285156,27.3144531 L5.42285156,28 L0.979980469,28 L0.979980469,20.9511719 Z M7.30694531,23.1967773 L7.30694531,25.9916992 C7.30694531,26.8486328 7.74639844,27.4506836 8.63848828,27.4506836 C9.47344922,27.4506836 10.0711055,26.7915039 10.0711055,25.9345703 L10.0711055,23.1967773 L10.7654414,23.1967773 L10.7654414,28 L10.0798945,28 L10.0798945,27.1210938 C9.69757031,27.7714844 9.13507031,28.0922852 8.42755078,28.0922852 C7.25421094,28.0922852 6.60821484,27.2880859 6.60821484,26.1674805 L6.60821484,23.1967773 L7.30694531,23.1967773 Z M12.9923086,23.1967773 L12.9923086,24.1459961 C13.3570547,23.4033203 13.9942617,23.1176758 14.5435781,23.1176758 C14.5875234,23.1176758 14.7237539,23.1220703 14.7808828,23.1352539 L14.7808828,23.8779297 C14.6842031,23.8647461 14.600707,23.8603516 14.5084219,23.8603516 C13.3702383,23.8603516 13.0054922,24.7963867 13.0054922,25.6533203 L13.0054922,28 L12.3067617,28 L12.3067617,23.1967773 L12.9923086,23.1967773 Z M17.6273789,28.0834961 C16.238707,28.0834961 15.1576523,26.9848633 15.1576523,25.6137695 C15.1576523,24.1943359 16.229918,23.1088867 17.644957,23.1088867 C19.0336289,23.1088867 20.1234727,24.1987305 20.1234727,25.5786133 C20.1234727,26.9980469 19.0336289,28.0834961 17.6273789,28.0834961 Z M17.644957,27.4594727 C18.6732773,27.4594727 19.4071641,26.6157227 19.4071641,25.6137695 C19.4071641,24.6030273 18.6732773,23.7285156 17.6273789,23.7285156 C16.5902695,23.7285156 15.8739609,24.5722656 15.8739609,25.5786133 C15.8739609,26.5893555 16.5990586,27.4594727 17.644957,27.4594727 Z M26.1252422,25.5917969 C26.1252422,26.8881836 25.2375469,28.0703125 23.8620586,28.0703125 C22.9743633,28.0703125 22.4030742,27.6264648 22.0119609,27.0112305 L22.0119609,30.3686523 L21.3132305,30.3686523 L21.3132305,23.1967773 L21.9987773,23.1967773 L21.9987773,24.2382812 C22.3942852,23.6318359 22.9567852,23.1088867 23.8620586,23.1088867 C25.2375469,23.1088867 26.1252422,24.3393555 26.1252422,25.5917969 Z M23.7258281,27.4550781 C24.7849102,27.4550781 25.4089336,26.6201172 25.4089336,25.609375 C25.4089336,24.6074219 24.7849102,23.7373047 23.7258281,23.7373047 C22.7326641,23.7373047 22.0031719,24.6162109 22.0031719,25.5830078 C22.0031719,26.5673828 22.7019023,27.4550781 23.7258281,27.4550781 Z M31.5645117,25.815918 L27.6753516,25.815918 C27.7280859,26.7519531 28.4575781,27.4594727 29.3980078,27.4594727 C30.1055273,27.4594727 30.6592383,27.1123047 30.8833594,26.4311523 L31.5073828,26.6289062 C31.2261328,27.5605469 30.3560156,28.0834961 29.4067969,28.0834961 C28.0093359,28.0834961 26.967832,26.9716797 26.967832,25.5917969 C26.967832,24.2822266 27.9566016,23.1088867 29.3057227,23.1088867 C30.7910742,23.1088867 31.5733008,24.1723633 31.5733008,25.5786133 C31.5733008,25.6577148 31.5689062,25.7368164 31.5645117,25.815918 Z M27.6841406,25.2182617 L30.8613867,25.2182617 C30.7691016,24.34375 30.2197852,23.7285156 29.3057227,23.7285156 C28.4707617,23.7285156 27.7983984,24.418457 27.6841406,25.2182617 Z M35.6326875,25.2270508 L35.6326875,24.9018555 C35.6326875,24.1328125 35.206418,23.7373047 34.4110078,23.7373047 C33.5980195,23.7373047 33.2244844,24.2558594 33.1453828,24.7172852 L32.4730195,24.5722656 C32.5125703,24.1679688 33.0443086,23.1088867 34.4285859,23.1088867 C35.4437227,23.1088867 35.9446992,23.5703125 36.1776094,24.1020508 C36.2918672,24.3613281 36.3226289,24.7436523 36.3226289,24.8974609 L36.3226289,26.2509766 C36.3226289,27.0639648 36.331418,27.5209961 36.4017305,28 L35.6986055,28 C35.6590547,27.793457 35.637082,27.3979492 35.637082,27.15625 L35.6326875,27.15625 C35.2503633,27.7451172 34.7318086,28.0834961 34.0111055,28.0834961 C33.0399141,28.0834961 32.3983125,27.4770508 32.3983125,26.668457 L32.3983125,26.6157227 C32.3983125,25.5742188 33.4442109,25.2270508 34.3011445,25.2270508 L35.6326875,25.2270508 Z M35.6326875,25.8071289 L34.2923555,25.8071289 C33.7738008,25.8071289 33.105832,25.9697266 33.105832,26.6113281 C33.105832,27.15625 33.5628633,27.4638672 34.1341523,27.4638672 C34.9910859,27.4638672 35.6326875,26.8530273 35.6326875,25.9741211 L35.6326875,25.8071289 Z M41.2653164,28 L41.2653164,25.2050781 C41.2653164,24.3481445 40.8258633,23.7460938 39.9337734,23.7460938 C39.0988125,23.7460938 38.5011562,24.4052734 38.5011562,25.262207 L38.5011562,28 L37.8024258,28 L37.8024258,23.1967773 L38.4879727,23.1967773 L38.4879727,24.0756836 C38.8702969,23.425293 39.4371914,23.1044922 40.1447109,23.1044922 C41.3268398,23.1044922 41.9640469,23.9086914 41.9640469,25.0292969 L41.9640469,28 L41.2653164,28 Z M46.0925859,20.9511719 L50.5003008,20.9511719 L50.5003008,21.6367188 L46.8308672,21.6367188 L46.8308672,24.0756836 L50.1882891,24.0756836 L50.1882891,24.7568359 L46.8308672,24.7568359 L46.8308672,27.3144531 L50.535457,27.3144531 L50.535457,28 L46.0925859,28 L46.0925859,20.9511719 Z M52.4195508,23.1967773 L52.4195508,25.9916992 C52.4195508,26.8486328 52.8590039,27.4506836 53.7510937,27.4506836 C54.5860547,27.4506836 55.1837109,26.7915039 55.1837109,25.9345703 L55.1837109,23.1967773 L55.8780469,23.1967773 L55.8780469,28 L55.1925,28 L55.1925,27.1210938 C54.8101758,27.7714844 54.2476758,28.0922852 53.5401562,28.0922852 C52.3668164,28.0922852 51.7208203,27.2880859 51.7208203,26.1674805 L51.7208203,23.1967773 L52.4195508,23.1967773 Z M58.1049141,23.1967773 L58.1049141,24.1459961 C58.4696602,23.4033203 59.1068672,23.1176758 59.6561836,23.1176758 C59.7001289,23.1176758 59.8363594,23.1220703 59.8934883,23.1352539 L59.8934883,23.8779297 C59.7968086,23.8647461 59.7133125,23.8603516 59.6210273,23.8603516 C58.4828437,23.8603516 58.1180977,24.7963867 58.1180977,25.6533203 L58.1180977,28 L57.4193672,28 L57.4193672,23.1967773 L58.1049141,23.1967773 Z M62.7399844,28.0834961 C61.3513125,28.0834961 60.2702578,26.9848633 60.2702578,25.6137695 C60.2702578,24.1943359 61.3425234,23.1088867 62.7575625,23.1088867 C64.1462344,23.1088867 65.2360781,24.1987305 65.2360781,25.5786133 C65.2360781,26.9980469 64.1462344,28.0834961 62.7399844,28.0834961 Z M62.7575625,27.4594727 C63.7858828,27.4594727 64.5197695,26.6157227 64.5197695,25.6137695 C64.5197695,24.6030273 63.7858828,23.7285156 62.7399844,23.7285156 C61.702875,23.7285156 60.9865664,24.5722656 60.9865664,25.5786133 C60.9865664,26.5893555 61.7116641,27.4594727 62.7575625,27.4594727 Z" id="EuropeanEuro"></path>
                </g>
                <g id="Graph" transform="translate(169.000000, 9.000000)">
                    <mask id="mask-12" fill="white">
                        <use xlink:href="#path-11"></use>
                    </mask>
                    <use id="Mask" fill="#FFFFFF" xlink:href="#path-11"></use>
                    <path d="M74.3587292,17.0299948 C78.0091286,17.0299948 85,22.2955698 85,22.2955698 L85,40.0846254 L-43.8015211,42 C-43.8015211,42 -44.8678361,38.4767838 -42.0573467,33.3601201 C-39.2468572,28.2436952 -32.2408267,25.6262871 -31.3192126,24.9754297 C-30.3975986,24.3245723 -24.1226864,20.1500359 -18.9313813,20.1318807 C-13.7400763,20.1134866 -9.35691852,24.2170208 -4.06409638,23.0636981 C1.22872577,21.9103753 4.73811816,17.4486404 7.97870661,17.0299948 C11.2192951,16.6113491 14.4740308,20.701734 18.5939573,21.4039149 C22.7138839,22.1060958 26.0065843,19.7612544 31.9544119,20.1318807 C37.9022395,20.502507 48.269579,26.0213998 54.0616527,23.7376547 C59.8537264,21.4539096 70.7083298,17.0299948 74.3587292,17.0299948 Z" id="Shape" stroke="#8BA4FF" fill="url(#linearGradient-5)" mask="url(#mask-12)"></path>
                </g>
                <g id="european-union" transform="translate(25.000000, 16.000000)" fill-rule="nonzero">
                    <circle id="Oval" fill="#0052B4" cx="10.5" cy="10.5" r="10.5"></circle>
                    <g id="Group" transform="translate(4.101562, 4.101562)" fill="#FFDA44">
                        <polygon id="Path" points="6.39847852 0.00713671875 6.73845703 1.0534043 7.83849609 1.0534043 6.94849805 1.70001563 7.28847656 2.7462832 6.39847852 2.09963086 5.50843945 2.7462832 5.84841797 1.70001563 4.95841992 1.0534043 6.0585 1.0534043"></polygon>
                        <polygon id="Path" points="1.87908984 1.87908984 2.85936328 2.37849609 3.63722461 1.60067578 3.46508203 2.68717969 4.44531445 3.18662695 3.35876953 3.35872852 3.18666797 4.44531445 2.6872207 3.46508203 1.6007168 3.63722461 2.37857812 2.85936328"></polygon>
                        <polygon id="Path" points="0.00717773437 6.3984375 1.05344531 6.05845898 1.05344531 4.95837891 1.70001563 5.84841797 2.74632422 5.50843945 2.09963086 6.3984375 2.74632422 7.28843555 1.70001563 6.94849805 1.05344531 7.83849609 1.05344531 6.73841602"></polygon>
                        <polygon id="Path" points="1.87908984 10.9177852 2.37853711 9.93751172 1.6007168 9.15965039 2.68726172 9.33183398 3.18662695 8.35160156 3.35876953 9.43814648 4.44527344 9.61024805 3.46516406 10.1096953 3.63722461 11.1961992 2.85936328 10.4183379"></polygon>
                        <polygon id="Path" points="6.39847852 12.7897383 6.05845898 11.7434707 4.95841992 11.7434707 5.84845898 11.0968594 5.50843945 10.0506738 6.39847852 10.6972441 7.28847656 10.0506738 6.94849805 11.0968594 7.83849609 11.7434707 6.73841602 11.7434707"></polygon>
                        <polygon id="Path" points="10.9178262 10.9177852 9.93759375 10.4183789 9.15969141 11.1962402 9.33183398 10.1096543 8.35168359 9.61024805 9.4381875 9.43814648 9.61028906 8.35160156 10.1096953 9.33183398 11.1961992 9.15965039 10.4183379 9.93759375"></polygon>
                        <polygon id="Path" points="12.7897383 6.3984375 11.7434707 6.73841602 11.7434707 7.83849609 11.0968594 6.94845703 10.0506738 7.28843555 10.6972852 6.3984375 10.0506738 5.50843945 11.0969004 5.84841797 11.7434707 4.95837891 11.7434707 6.0585"></polygon>
                        <polygon id="Path" points="10.9178262 1.87908984 10.4183789 2.85936328 11.1962402 3.63722461 10.1096543 3.46504102 9.61028906 4.44527344 9.4381875 3.35872852 8.35168359 3.18658594 9.33183398 2.68717969 9.15969141 1.6007168 9.93763477 2.37853711"></polygon>
                    </g>
                </g>
                <rect id="Rectangle" stroke="#E1E4EB" x="10.5" y="0.5" width="219" height="51" rx="4"></rect>
            </g>
            <rect id="Rectangle" fill="url(#linearGradient-13)" x="10" y="201" width="220" height="91"></rect>
        </g>
    </g>
</svg>