<?xml version="1.0" encoding="UTF-8"?>
<svg width="239px" height="260px" viewBox="0 0 239 260" version="1.1" xmlns="http://www.w3.org/2000/svg" xmlns:xlink="http://www.w3.org/1999/xlink">
    <!-- Generator: Sketch 57.1 (83088) - https://sketch.com -->
    <title>Integrations</title>
    <desc>Created with Sketch.</desc>
    <defs>
        <rect id="path-1" x="0" y="0" width="239" height="260" rx="10"></rect>
        <linearGradient x1="50%" y1="-9.68321682%" x2="50%" y2="93.2718387%" id="linearGradient-3">
            <stop stop-color="#FFFFFF" stop-opacity="0" offset="0%"></stop>
            <stop stop-color="#FFFFFF" stop-opacity="0.9" offset="100%"></stop>
        </linearGradient>
    </defs>
    <g id="Integrations" stroke="none" stroke-width="1" fill="none" fill-rule="evenodd">
        <g>
            <g id="Entry-2">
                <mask id="mask-2" fill="white">
                    <use xlink:href="#path-1"></use>
                </mask>
                <use id="Mask" fill="#FFFFFF" xlink:href="#path-1"></use>
                <g mask="url(#mask-2)">
                    <g transform="translate(20.000000, 218.000000)">
                        <path d="M23,0 C35.7025492,0 46,10.2974508 46,23 C46,35.7025492 35.7025492,46 23,46 C10.2974508,46 0,35.7025492 0,23 C0,10.2974508 10.2974508,0 23,0 Z M12.25,29.6171875 L10,29.6171875 L10,34.1171875 L20.78425,34.1171875 L23.5,36.8335 L26.21575,34.1171875 L37,34.1171875 L37,29.6171875 L34.75,29.6171875 L34.75,31.8671875 L25.28425,31.8671875 L23.5,33.650875 L21.71575,31.8671875 L12.25,31.8671875 L12.25,29.6171875 Z M20.125,18.9296875 L13.375,18.9296875 L13.375,27.9296875 L15.625,27.9296875 L15.625,25.6796875 L17.875,25.6796875 L17.875,27.9296875 L20.125,27.9296875 L20.125,18.9296875 Z M29.125,18.9296875 L22.375,18.9296875 L22.375,27.9296875 L24.625,27.9296875 L24.625,25.6796875 L29.125,25.6796875 L29.125,18.9296875 Z M33.625,18.9296875 L31.375,18.9296875 L31.375,27.9296875 L33.625,27.9296875 L33.625,18.9296875 Z M17.875,21.1796875 L17.875,23.4296875 L15.625,23.4296875 L15.625,21.1796875 L17.875,21.1796875 Z M26.875,21.1796875 L26.875,23.4296875 L24.625,23.4296875 L24.625,21.1796875 L26.875,21.1796875 Z M23.5,10.025875 L20.78425,12.7421875 L10,12.7421875 L10,17.2421875 L12.25,17.2421875 L12.25,14.9921875 L21.71575,14.9921875 L23.5,13.2085 L25.28425,14.9921875 L34.75,14.9921875 L34.75,17.2421875 L37,17.2421875 L37,12.7421875 L26.21575,12.7421875 L23.5,10.025875 Z" id="Combined-Shape" fill="#3185EA" fill-rule="evenodd"></path>
                        <path d="M64.4189453,14.0927734 C62.4462891,14.0927734 60.4833984,12.6376953 60.4833984,10.1083984 C60.4833984,7.75 62.3388672,6.05566406 64.4677734,6.05566406 C66.6748047,6.05566406 67.8222656,7.54980469 68.0859375,8.61914062 L66.8798828,9.03417969 C66.7675781,8.54589844 66.2207031,7.21289062 64.453125,7.21289062 C63.0761719,7.21289062 61.7773438,8.31640625 61.7773438,10.0693359 C61.7773438,11.8125 63.0566406,12.9404297 64.4482422,12.9404297 C66.0693359,12.9404297 66.7333984,11.65625 66.8994141,11.0800781 L68.1103516,11.5 C67.8564453,12.4619141 66.71875,14.0927734 64.4189453,14.0927734 Z M70.3112109,11.6513672 C70.3112109,12.4082031 70.6676562,12.984375 71.4879687,12.984375 C72.2448047,12.984375 72.7233203,12.4375 72.7233203,11.6318359 L72.7233203,8.66308594 L73.9147266,8.66308594 L73.9147266,14 L72.7526172,14 L72.7526172,13.2822266 C72.2399219,13.9707031 71.5416797,14.1123047 71.1217578,14.1123047 C69.7838672,14.1123047 69.1198047,13.1552734 69.1198047,11.9443359 L69.1198047,8.66308594 L70.3112109,8.66308594 L70.3112109,11.6513672 Z M77.1946875,14.0927734 C75.7444922,14.0927734 75.1536719,13.1357422 75.0853125,12.5400391 L76.1058203,12.2714844 C76.2034766,12.7255859 76.5648047,13.1210938 77.1751562,13.1210938 C77.6683203,13.1210938 77.936875,12.8671875 77.936875,12.4960938 C77.936875,12.2080078 77.7513281,12.0175781 77.3021094,11.9101562 L76.6185156,11.7490234 C75.6468359,11.5195312 75.2073828,10.9140625 75.2073828,10.2158203 C75.2073828,9.33203125 76.0032812,8.54589844 77.0921484,8.54589844 C78.4935156,8.54589844 78.9720312,9.45898438 79.0648047,9.97167969 L78.0589453,10.2548828 C77.9808203,9.90820312 77.7220312,9.5078125 77.0921484,9.5078125 C76.7161719,9.5078125 76.3597266,9.75195312 76.3597266,10.1132812 C76.3597266,10.4257812 76.5989844,10.6015625 76.8968359,10.6650391 L77.6292578,10.8212891 C78.6058203,11.03125 79.1429297,11.6660156 79.1429297,12.4277344 C79.1429297,13.2529297 78.5228125,14.0927734 77.1946875,14.0927734 Z M83.2920312,9.73242188 L81.9346094,9.73242188 L81.9346094,12.28125 C81.9346094,12.7402344 82.1641016,12.9697266 82.7598047,12.9697266 C82.8672266,12.9697266 83.0137109,12.9599609 83.2432031,12.9306641 L83.2432031,13.9414062 C82.9160547,14.0390625 82.5351953,14.0488281 82.3887109,14.0488281 C81.3389062,14.0488281 80.7480859,13.6435547 80.7480859,12.3447266 L80.7480859,9.73242188 L79.7129297,9.73242188 L79.7129297,8.66308594 L80.7480859,8.66308594 L80.7480859,7.0078125 L81.9346094,7.0078125 L81.9346094,8.66308594 L83.2920312,8.66308594 L83.2920312,9.73242188 Z M84.0280469,11.3242188 C84.0280469,9.73730469 85.3024609,8.55078125 86.8551953,8.55078125 C88.3883984,8.55078125 89.6579297,9.73242188 89.6579297,11.2998047 C89.6579297,12.8769531 88.4128125,14.0927734 86.8454297,14.0927734 C85.3024609,14.0927734 84.0280469,12.8964844 84.0280469,11.3242188 Z M85.2438672,11.2998047 C85.2438672,12.2128906 85.8883984,13.0136719 86.8551953,13.0136719 C87.8219922,13.0136719 88.4469922,12.2421875 88.4469922,11.3242188 C88.4469922,10.3964844 87.8122266,9.62988281 86.8454297,9.62988281 C85.8786328,9.62988281 85.2438672,10.3769531 85.2438672,11.2998047 Z M94.3441406,11.0019531 C94.3441406,10.2451172 94.021875,9.66894531 93.2015625,9.66894531 C92.4642578,9.66894531 92.0248047,10.2207031 92.0248047,11.0263672 L92.0248047,14 L90.8333984,14 L90.8333984,8.66308594 L91.9955078,8.66308594 L91.9955078,9.38085938 C92.5082031,8.69726562 93.1673828,8.54101562 93.5921875,8.54101562 C94.4027344,8.54101562 94.9349609,8.8828125 95.2376953,9.41503906 C95.7552734,8.84375 96.2777344,8.54101562 97.0931641,8.54101562 C98.4505859,8.54101562 99.0414062,9.49316406 99.0414062,10.7041016 L99.0414062,14 L97.85,14 L97.85,10.9873047 C97.85,10.2304688 97.5277344,9.66894531 96.7074219,9.66894531 C95.9701172,9.66894531 95.5306641,10.2109375 95.5306641,11.0166016 L95.5306641,14 L94.3441406,14 L94.3441406,11.0019531 Z M103.301523,14 L102.046641,14 L105.230234,6.16796875 L106.685312,6.16796875 L109.854258,14 L108.570078,14 L107.857187,12.1640625 L104.02418,12.1640625 L103.301523,14 Z M107.432383,11.0654297 L105.943125,7.34960938 L104.45875,11.0654297 L107.432383,11.0654297 Z M116.322695,8.60449219 C116.322695,9.95703125 115.326602,11.0996094 113.436953,11.0996094 L112.040469,11.0996094 L112.040469,14 L110.81,14 L110.81,6.16796875 L113.583437,6.16796875 C115.546328,6.16796875 116.322695,7.38867188 116.322695,8.60449219 Z M115.072695,8.63378906 C115.072695,8.04296875 114.760195,7.30566406 113.476016,7.30566406 L112.040469,7.30566406 L112.040469,9.97167969 L113.476016,9.97167969 C114.662539,9.97167969 115.072695,9.24902344 115.072695,8.63378906 Z M118.811641,14 L117.581172,14 L117.581172,6.16796875 L118.811641,6.16796875 L118.811641,14 Z" id="CustomAPI" fill="#322D47" fill-rule="nonzero"></path>
                        <path d="M63.5546875,27.0664062 C61.8203125,27.0664062 60.4335938,25.7734375 60.4335938,23.8867188 C60.4335938,21.984375 61.875,20.6679688 63.5859375,20.6679688 C65.296875,20.6679688 66.171875,21.8632812 66.3828125,22.7304688 L65.7539062,22.953125 C65.6523438,22.5429688 65.1210938,21.2929688 63.5703125,21.2929688 C62.2382812,21.2929688 61.1171875,22.3320312 61.1171875,23.8476562 C61.1171875,25.3359375 62.15625,26.4414062 63.578125,26.4414062 C65.0859375,26.4414062 65.5976562,25.2851562 65.7734375,24.7617188 L66.40625,24.9882812 C66.1835938,25.7617188 65.3671875,27.0664062 63.5546875,27.0664062 Z M67.98725,22.7304688 L67.98725,23.5742188 C68.3114687,22.9140625 68.877875,22.6601562 69.3661562,22.6601562 C69.4052187,22.6601562 69.5263125,22.6640625 69.5770937,22.6757812 L69.5770937,23.3359375 C69.4911562,23.3242188 69.4169375,23.3203125 69.3349062,23.3203125 C68.3231875,23.3203125 67.9989687,24.1523438 67.9989687,24.9140625 L67.9989687,27 L67.377875,27 L67.377875,22.7304688 L67.98725,22.7304688 Z M73.9979375,25.0585938 L70.5409062,25.0585938 C70.5877812,25.890625 71.2362187,26.5195312 72.0721562,26.5195312 C72.7010625,26.5195312 73.19325,26.2109375 73.3924687,25.6054688 L73.9471562,25.78125 C73.6971562,26.609375 72.9237187,27.0742188 72.0799687,27.0742188 C70.8377812,27.0742188 69.912,26.0859375 69.912,24.859375 C69.912,23.6953125 70.7909062,22.6523438 71.990125,22.6523438 C73.3104375,22.6523438 74.00575,23.5976562 74.00575,24.8476562 C74.00575,24.9179688 74.0018437,24.9882812 73.9979375,25.0585938 Z M70.5487187,24.5273438 L73.3729375,24.5273438 C73.2909062,23.75 72.802625,23.203125 71.990125,23.203125 C71.2479375,23.203125 70.6502812,23.8164062 70.5487187,24.5273438 Z M77.6140937,24.5351562 L77.6140937,24.2460938 C77.6140937,23.5625 77.2351875,23.2109375 76.5281562,23.2109375 C75.8055,23.2109375 75.4734687,23.671875 75.4031562,24.0820312 L74.8055,23.953125 C74.8406562,23.59375 75.3133125,22.6523438 76.5437812,22.6523438 C77.446125,22.6523438 77.8914375,23.0625 78.0984687,23.5351562 C78.2000312,23.765625 78.227375,24.1054688 78.227375,24.2421875 L78.227375,25.4453125 C78.227375,26.1679688 78.2351875,26.5742188 78.2976875,27 L77.6726875,27 C77.6375312,26.8164062 77.618,26.4648438 77.618,26.25 L77.6140937,26.25 C77.27425,26.7734375 76.8133125,27.0742188 76.1726875,27.0742188 C75.3094062,27.0742188 74.7390937,26.5351562 74.7390937,25.8164062 L74.7390937,25.7695312 C74.7390937,24.84375 75.6687812,24.5351562 76.4305,24.5351562 L77.6140937,24.5351562 Z M77.6140937,25.0507812 L76.4226875,25.0507812 C75.96175,25.0507812 75.368,25.1953125 75.368,25.765625 C75.368,26.25 75.77425,26.5234375 76.2820625,26.5234375 C77.0437812,26.5234375 77.6140937,25.9804688 77.6140937,25.1992188 L77.6140937,25.0507812 Z M80.9919687,27.0351562 C80.0661875,27.0351562 79.7810312,26.5195312 79.7810312,25.8945312 L79.7810312,23.28125 L78.9919687,23.28125 L78.9919687,22.7304688 L79.7810312,22.7304688 L79.7810312,21.4960938 L80.402125,21.4960938 L80.402125,22.7304688 L81.4841562,22.7304688 L81.4841562,23.28125 L80.402125,23.28125 L80.402125,25.8789062 C80.402125,26.265625 80.6286875,26.4804688 81.0935312,26.4804688 C81.23025,26.4804688 81.3825937,26.46875 81.48025,26.4492188 L81.48025,26.9648438 C81.35525,27.0078125 81.1013437,27.0351562 80.9919687,27.0351562 Z M86.18625,25.0585938 L82.7292187,25.0585938 C82.7760937,25.890625 83.4245312,26.5195312 84.2604687,26.5195312 C84.889375,26.5195312 85.3815625,26.2109375 85.5807812,25.6054688 L86.1354687,25.78125 C85.8854687,26.609375 85.1120312,27.0742188 84.2682812,27.0742188 C83.0260937,27.0742188 82.1003125,26.0859375 82.1003125,24.859375 C82.1003125,23.6953125 82.9792187,22.6523438 84.1784375,22.6523438 C85.49875,22.6523438 86.1940625,23.5976562 86.1940625,24.8476562 C86.1940625,24.9179688 86.1901562,24.9882812 86.18625,25.0585938 Z M82.7370312,24.5273438 L85.56125,24.5273438 C85.4792187,23.75 84.9909375,23.203125 84.1784375,23.203125 C83.43625,23.203125 82.8385937,23.8164062 82.7370312,24.5273438 Z M91.9927812,24.5351562 L91.9927812,24.2460938 C91.9927812,23.5625 91.613875,23.2109375 90.9068437,23.2109375 C90.1841875,23.2109375 89.8521562,23.671875 89.7818437,24.0820312 L89.1841875,23.953125 C89.2193437,23.59375 89.692,22.6523438 90.9224687,22.6523438 C91.8248125,22.6523438 92.270125,23.0625 92.4771562,23.5351562 C92.5787187,23.765625 92.6060625,24.1054688 92.6060625,24.2421875 L92.6060625,25.4453125 C92.6060625,26.1679688 92.613875,26.5742188 92.676375,27 L92.051375,27 C92.0162187,26.8164062 91.9966875,26.4648438 91.9966875,26.25 L91.9927812,26.25 C91.6529375,26.7734375 91.192,27.0742188 90.551375,27.0742188 C89.6880937,27.0742188 89.1177812,26.5351562 89.1177812,25.8164062 L89.1177812,25.7695312 C89.1177812,24.84375 90.0474687,24.5351562 90.8091875,24.5351562 L91.9927812,24.5351562 Z M91.9927812,25.0507812 L90.801375,25.0507812 C90.3404375,25.0507812 89.7466875,25.1953125 89.7466875,25.765625 C89.7466875,26.25 90.1529375,26.5234375 90.66075,26.5234375 C91.4224687,26.5234375 91.9927812,25.9804688 91.9927812,25.1992188 L91.9927812,25.0507812 Z M96.4360312,24.84375 C96.4360312,25.7304688 97.0141562,26.5195312 97.9829062,26.5195312 C98.9243125,26.5195312 99.2836875,25.8164062 99.4086875,25.4921875 L99.9868125,25.6875 C99.7954062,26.328125 99.0961875,27.0742188 97.9750937,27.0742188 C96.7368125,27.0742188 95.7993125,26.15625 95.7993125,24.8789062 C95.7993125,23.5820312 96.7954062,22.6523438 98.0024375,22.6523438 C98.9985312,22.6523438 99.7875937,23.2929688 99.963375,24.015625 L99.3891562,24.203125 C99.2915,23.8710938 98.8657187,23.2070312 97.979,23.2070312 C97.07275,23.2070312 96.4360312,23.9492188 96.4360312,24.84375 Z M101.552187,22.7304688 L101.552187,25.2148438 C101.552187,25.9765625 101.942812,26.5117188 102.735781,26.5117188 C103.477969,26.5117188 104.009219,25.9257812 104.009219,25.1640625 L104.009219,22.7304688 L104.626406,22.7304688 L104.626406,27 L104.017031,27 L104.017031,26.21875 C103.677187,26.796875 103.177187,27.0820312 102.548281,27.0820312 C101.505312,27.0820312 100.931094,26.3671875 100.931094,25.3710938 L100.931094,22.7304688 L101.552187,22.7304688 Z M108.812875,25.7851562 C108.812875,26.5664062 108.117562,27.0703125 107.29725,27.0703125 C106.137094,27.0703125 105.730844,26.2734375 105.67225,25.8007812 L106.242562,25.6523438 C106.312875,26.0429688 106.605844,26.5234375 107.293344,26.5234375 C107.750375,26.5234375 108.180062,26.2695312 108.180062,25.8203125 C108.180062,25.4453125 107.793344,25.2539062 107.480844,25.1835938 L106.8285,25.0390625 C106.301156,24.921875 105.766,24.65625 105.766,23.9257812 C105.766,22.984375 106.676156,22.6523438 107.211312,22.6523438 C108.308969,22.6523438 108.680062,23.3867188 108.750375,23.796875 L108.183969,23.9570312 C108.117562,23.6796875 107.891,23.1992188 107.215219,23.1992188 C106.746469,23.1992188 106.391,23.5078125 106.391,23.8828125 C106.391,24.25 106.687875,24.3867188 107.008187,24.4609375 L107.699594,24.6171875 C108.258187,24.7421875 108.812875,25.1015625 108.812875,25.7851562 Z M111.319656,27.0351562 C110.393875,27.0351562 110.108719,26.5195312 110.108719,25.8945312 L110.108719,23.28125 L109.319656,23.28125 L109.319656,22.7304688 L110.108719,22.7304688 L110.108719,21.4960938 L110.729812,21.4960938 L110.729812,22.7304688 L111.811844,22.7304688 L111.811844,23.28125 L110.729812,23.28125 L110.729812,25.8789062 C110.729812,26.265625 110.956375,26.4804688 111.421219,26.4804688 C111.557937,26.4804688 111.710281,26.46875 111.807937,26.4492188 L111.807937,26.9648438 C111.682937,27.0078125 111.429031,27.0351562 111.319656,27.0351562 Z M114.623312,27.0742188 C113.388937,27.0742188 112.428,26.0976562 112.428,24.8789062 C112.428,23.6171875 113.381125,22.6523438 114.638937,22.6523438 C115.873312,22.6523438 116.842062,23.6210938 116.842062,24.8476562 C116.842062,26.109375 115.873312,27.0742188 114.623312,27.0742188 Z M114.638937,26.5195312 C115.553,26.5195312 116.205344,25.7695312 116.205344,24.8789062 C116.205344,23.9804688 115.553,23.203125 114.623312,23.203125 C113.701437,23.203125 113.064719,23.953125 113.064719,24.8476562 C113.064719,25.7460938 113.70925,26.5195312 114.638937,26.5195312 Z M120.809781,27 L120.809781,24.4921875 C120.809781,23.7890625 120.473844,23.21875 119.708219,23.21875 C118.958219,23.21875 118.520719,23.8710938 118.520719,24.5664062 L118.520719,27 L117.899625,27 L117.899625,22.7304688 L118.509,22.7304688 L118.509,23.46875 C118.856656,22.953125 119.251187,22.6484375 119.891812,22.6484375 C120.509,22.6484375 120.997281,22.9453125 121.259,23.5078125 C121.614469,22.9492188 122.087125,22.6523438 122.759,22.6523438 C123.794156,22.6523438 124.337125,23.3710938 124.337125,24.359375 L124.337125,27 L123.716031,27 L123.716031,24.515625 C123.716031,23.8007812 123.391812,23.2226562 122.610562,23.2226562 C121.85275,23.2226562 121.423062,23.8320312 121.423062,24.5429688 L121.423062,27 L120.809781,27 Z M127.686625,21.1992188 C127.686625,20.9375 127.893656,20.7304688 128.155375,20.7304688 C128.417094,20.7304688 128.624125,20.9375 128.624125,21.1992188 C128.624125,21.4570312 128.417094,21.6679688 128.155375,21.6679688 C127.893656,21.6679688 127.686625,21.4570312 127.686625,21.1992188 Z M127.842875,22.7304688 L128.467875,22.7304688 L128.467875,27 L127.842875,27 L127.842875,22.7304688 Z M132.916062,27 L132.916062,24.515625 C132.916062,23.7539062 132.525437,23.21875 131.732469,23.21875 C130.990281,23.21875 130.459031,23.8046875 130.459031,24.5664062 L130.459031,27 L129.837937,27 L129.837937,22.7304688 L130.447312,22.7304688 L130.447312,23.5117188 C130.787156,22.9335938 131.291062,22.6484375 131.919969,22.6484375 C132.97075,22.6484375 133.537156,23.3632812 133.537156,24.359375 L133.537156,27 L132.916062,27 Z M136.30175,27.0351562 C135.375969,27.0351562 135.090812,26.5195312 135.090812,25.8945312 L135.090812,23.28125 L134.30175,23.28125 L134.30175,22.7304688 L135.090812,22.7304688 L135.090812,21.4960938 L135.711906,21.4960938 L135.711906,22.7304688 L136.793937,22.7304688 L136.793937,23.28125 L135.711906,23.28125 L135.711906,25.8789062 C135.711906,26.265625 135.938469,26.4804688 136.403312,26.4804688 C136.540031,26.4804688 136.692375,26.46875 136.790031,26.4492188 L136.790031,26.9648438 C136.665031,27.0078125 136.411125,27.0351562 136.30175,27.0351562 Z M141.496031,25.0585938 L138.039,25.0585938 C138.085875,25.890625 138.734312,26.5195312 139.57025,26.5195312 C140.199156,26.5195312 140.691344,26.2109375 140.890562,25.6054688 L141.44525,25.78125 C141.19525,26.609375 140.421812,27.0742188 139.578062,27.0742188 C138.335875,27.0742188 137.410094,26.0859375 137.410094,24.859375 C137.410094,23.6953125 138.289,22.6523438 139.488219,22.6523438 C140.808531,22.6523438 141.503844,23.5976562 141.503844,24.8476562 C141.503844,24.9179688 141.499937,24.9882812 141.496031,25.0585938 Z M138.046812,24.5273438 L140.871031,24.5273438 C140.789,23.75 140.300719,23.203125 139.488219,23.203125 C138.746031,23.203125 138.148375,23.8164062 138.046812,24.5273438 Z M145.889531,26.9375 L145.889531,26.046875 C145.561406,26.59375 145.041875,27.0195312 144.233281,27.0195312 C143.010625,27.0195312 142.233281,26.0078125 142.233281,24.84375 C142.233281,23.7265625 143.02625,22.6523438 144.233281,22.6523438 C145.065312,22.6523438 145.5575,23.1171875 145.897344,23.625 L145.897344,22.7304688 L146.510625,22.7304688 L146.510625,26.8984375 C146.510625,28.4023438 145.596562,29.1367188 144.287969,29.1367188 C143.202031,29.1367188 142.405156,28.484375 142.248906,27.671875 L142.823125,27.4804688 C142.916875,27.9179688 143.319219,28.5898438 144.280156,28.5898438 C145.15125,28.5898438 145.889531,28.1328125 145.889531,26.9375 Z M144.362187,26.46875 C145.260625,26.46875 145.897344,25.7070312 145.897344,24.8320312 C145.897344,23.9882812 145.245,23.2070312 144.362187,23.2070312 C143.420781,23.2070312 142.87,23.9296875 142.87,24.8554688 C142.87,25.734375 143.424687,26.46875 144.362187,26.46875 Z M148.490062,22.7304688 L148.490062,23.5742188 C148.814281,22.9140625 149.380687,22.6601562 149.868969,22.6601562 C149.908031,22.6601562 150.029125,22.6640625 150.079906,22.6757812 L150.079906,23.3359375 C149.993969,23.3242188 149.91975,23.3203125 149.837719,23.3203125 C148.826,23.3203125 148.501781,24.1523438 148.501781,24.9140625 L148.501781,27 L147.880687,27 L147.880687,22.7304688 L148.490062,22.7304688 Z M153.348406,24.5351562 L153.348406,24.2460938 C153.348406,23.5625 152.9695,23.2109375 152.262469,23.2109375 C151.539812,23.2109375 151.207781,23.671875 151.137469,24.0820312 L150.539812,23.953125 C150.574969,23.59375 151.047625,22.6523438 152.278094,22.6523438 C153.180437,22.6523438 153.62575,23.0625 153.832781,23.5351562 C153.934344,23.765625 153.961687,24.1054688 153.961687,24.2421875 L153.961687,25.4453125 C153.961687,26.1679688 153.9695,26.5742188 154.032,27 L153.407,27 C153.371844,26.8164062 153.352312,26.4648438 153.352312,26.25 L153.348406,26.25 C153.008562,26.7734375 152.547625,27.0742188 151.907,27.0742188 C151.043719,27.0742188 150.473406,26.5351562 150.473406,25.8164062 L150.473406,25.7695312 C150.473406,24.84375 151.403094,24.5351562 152.164812,24.5351562 L153.348406,24.5351562 Z M153.348406,25.0507812 L152.157,25.0507812 C151.696062,25.0507812 151.102312,25.1953125 151.102312,25.765625 C151.102312,26.25 151.508562,26.5234375 152.016375,26.5234375 C152.778094,26.5234375 153.348406,25.9804688 153.348406,25.1992188 L153.348406,25.0507812 Z M156.726281,27.0351562 C155.8005,27.0351562 155.515344,26.5195312 155.515344,25.8945312 L155.515344,23.28125 L154.726281,23.28125 L154.726281,22.7304688 L155.515344,22.7304688 L155.515344,21.4960938 L156.136437,21.4960938 L156.136437,22.7304688 L157.218469,22.7304688 L157.218469,23.28125 L156.136437,23.28125 L156.136437,25.8789062 C156.136437,26.265625 156.363,26.4804688 156.827844,26.4804688 C156.964562,26.4804688 157.116906,26.46875 157.214562,26.4492188 L157.214562,26.9648438 C157.089562,27.0078125 156.835656,27.0351562 156.726281,27.0351562 Z M158.076812,21.1992188 C158.076812,20.9375 158.283844,20.7304688 158.545562,20.7304688 C158.807281,20.7304688 159.014312,20.9375 159.014312,21.1992188 C159.014312,21.4570312 158.807281,21.6679688 158.545562,21.6679688 C158.283844,21.6679688 158.076812,21.4570312 158.076812,21.1992188 Z M158.233062,22.7304688 L158.858062,22.7304688 L158.858062,27 L158.233062,27 L158.233062,22.7304688 Z M162.110937,27.0742188 C160.876562,27.0742188 159.915625,26.0976562 159.915625,24.8789062 C159.915625,23.6171875 160.86875,22.6523438 162.126562,22.6523438 C163.360937,22.6523438 164.329687,23.6210938 164.329687,24.8476562 C164.329687,26.109375 163.360937,27.0742188 162.110937,27.0742188 Z M162.126562,26.5195312 C163.040625,26.5195312 163.692969,25.7695312 163.692969,24.8789062 C163.692969,23.9804688 163.040625,23.203125 162.110937,23.203125 C161.189062,23.203125 160.552344,23.953125 160.552344,24.8476562 C160.552344,25.7460938 161.196875,26.5195312 162.126562,26.5195312 Z M168.465375,27 L168.465375,24.515625 C168.465375,23.7539062 168.07475,23.21875 167.281781,23.21875 C166.539594,23.21875 166.008344,23.8046875 166.008344,24.5664062 L166.008344,27 L165.38725,27 L165.38725,22.7304688 L165.996625,22.7304688 L165.996625,23.5117188 C166.336469,22.9335938 166.840375,22.6484375 167.469281,22.6484375 C168.520062,22.6484375 169.086469,23.3632812 169.086469,24.359375 L169.086469,27 L168.465375,27 Z M173.158625,22.7304688 L173.158625,25.2148438 C173.158625,25.9765625 173.54925,26.5117188 174.342219,26.5117188 C175.084406,26.5117188 175.615656,25.9257812 175.615656,25.1640625 L175.615656,22.7304688 L176.232844,22.7304688 L176.232844,27 L175.623469,27 L175.623469,26.21875 C175.283625,26.796875 174.783625,27.0820312 174.154719,27.0820312 C173.11175,27.0820312 172.537531,26.3671875 172.537531,25.3710938 L172.537531,22.7304688 L173.158625,22.7304688 Z M180.419312,25.7851562 C180.419312,26.5664062 179.724,27.0703125 178.903687,27.0703125 C177.743531,27.0703125 177.337281,26.2734375 177.278687,25.8007812 L177.849,25.6523438 C177.919312,26.0429688 178.212281,26.5234375 178.899781,26.5234375 C179.356812,26.5234375 179.7865,26.2695312 179.7865,25.8203125 C179.7865,25.4453125 179.399781,25.2539062 179.087281,25.1835938 L178.434937,25.0390625 C177.907594,24.921875 177.372437,24.65625 177.372437,23.9257812 C177.372437,22.984375 178.282594,22.6523438 178.81775,22.6523438 C179.915406,22.6523438 180.2865,23.3867188 180.356812,23.796875 L179.790406,23.9570312 C179.724,23.6796875 179.497437,23.1992188 178.821656,23.1992188 C178.352906,23.1992188 177.997437,23.5078125 177.997437,23.8828125 C177.997437,24.25 178.294312,24.3867188 178.614625,24.4609375 L179.306031,24.6171875 C179.864625,24.7421875 180.419312,25.1015625 180.419312,25.7851562 Z M181.332344,21.1992188 C181.332344,20.9375 181.539375,20.7304688 181.801094,20.7304688 C182.062812,20.7304688 182.269844,20.9375 182.269844,21.1992188 C182.269844,21.4570312 182.062812,21.6679688 181.801094,21.6679688 C181.539375,21.6679688 181.332344,21.4570312 181.332344,21.1992188 Z M181.488594,22.7304688 L182.113594,22.7304688 L182.113594,27 L181.488594,27 L181.488594,22.7304688 Z M186.561781,27 L186.561781,24.515625 C186.561781,23.7539062 186.171156,23.21875 185.378187,23.21875 C184.636,23.21875 184.10475,23.8046875 184.10475,24.5664062 L184.10475,27 L183.483656,27 L183.483656,22.7304688 L184.093031,22.7304688 L184.093031,23.5117188 C184.432875,22.9335938 184.936781,22.6484375 185.565687,22.6484375 C186.616469,22.6484375 187.182875,23.3632812 187.182875,24.359375 L187.182875,27 L186.561781,27 Z M191.849812,26.9375 L191.849812,26.046875 C191.521687,26.59375 191.002156,27.0195312 190.193562,27.0195312 C188.970906,27.0195312 188.193562,26.0078125 188.193562,24.84375 C188.193562,23.7265625 188.986531,22.6523438 190.193562,22.6523438 C191.025594,22.6523438 191.517781,23.1171875 191.857625,23.625 L191.857625,22.7304688 L192.470906,22.7304688 L192.470906,26.8984375 C192.470906,28.4023438 191.556844,29.1367188 190.24825,29.1367188 C189.162312,29.1367188 188.365437,28.484375 188.209187,27.671875 L188.783406,27.4804688 C188.877156,27.9179688 189.2795,28.5898438 190.240437,28.5898438 C191.111531,28.5898438 191.849812,28.1328125 191.849812,26.9375 Z M190.322469,26.46875 C191.220906,26.46875 191.857625,25.7070312 191.857625,24.8320312 C191.857625,23.9882812 191.205281,23.2070312 190.322469,23.2070312 C189.381062,23.2070312 188.830281,23.9296875 188.830281,24.8554688 C188.830281,25.734375 189.384969,26.46875 190.322469,26.46875 Z M65.9765625,32.734375 L65.9765625,39 L65.2578125,39 L61.5195312,33.6679688 L61.5195312,39 L60.8710938,39 L60.8710938,32.734375 L61.6289062,32.734375 L65.328125,38 L65.328125,32.734375 L65.9765625,32.734375 Z M69.3935,39.0742188 C68.159125,39.0742188 67.1981875,38.0976562 67.1981875,36.8789062 C67.1981875,35.6171875 68.1513125,34.6523438 69.409125,34.6523438 C70.6435,34.6523438 71.61225,35.6210938 71.61225,36.8476562 C71.61225,38.109375 70.6435,39.0742188 69.3935,39.0742188 Z M69.409125,38.5195312 C70.3231875,38.5195312 70.9755312,37.7695312 70.9755312,36.8789062 C70.9755312,35.9804688 70.3231875,35.203125 69.3935,35.203125 C68.471625,35.203125 67.8349062,35.953125 67.8349062,36.8476562 C67.8349062,37.7460938 68.4794375,38.5195312 69.409125,38.5195312 Z M75.5799687,39 L75.5799687,36.4921875 C75.5799687,35.7890625 75.2440312,35.21875 74.4784062,35.21875 C73.7284062,35.21875 73.2909062,35.8710938 73.2909062,36.5664062 L73.2909062,39 L72.6698125,39 L72.6698125,34.7304688 L73.2791875,34.7304688 L73.2791875,35.46875 C73.6268437,34.953125 74.021375,34.6484375 74.662,34.6484375 C75.2791875,34.6484375 75.7674687,34.9453125 76.0291875,35.5078125 C76.3846562,34.9492188 76.8573125,34.6523438 77.5291875,34.6523438 C78.5643437,34.6523438 79.1073125,35.3710938 79.1073125,36.359375 L79.1073125,39 L78.4862187,39 L78.4862187,36.515625 C78.4862187,35.8007812 78.162,35.2226562 77.38075,35.2226562 C76.6229375,35.2226562 76.19325,35.8320312 76.19325,36.5429688 L76.19325,39 L75.5799687,39 Z M82.3055,39.0742188 C81.071125,39.0742188 80.1101875,38.0976562 80.1101875,36.8789062 C80.1101875,35.6171875 81.0633125,34.6523438 82.321125,34.6523438 C83.5555,34.6523438 84.52425,35.6210938 84.52425,36.8476562 C84.52425,38.109375 83.5555,39.0742188 82.3055,39.0742188 Z M82.321125,38.5195312 C83.2351875,38.5195312 83.8875312,37.7695312 83.8875312,36.8789062 C83.8875312,35.9804688 83.2351875,35.203125 82.3055,35.203125 C81.383625,35.203125 80.7469062,35.953125 80.7469062,36.8476562 C80.7469062,37.7460938 81.3914375,38.5195312 82.321125,38.5195312 Z M85.2732187,36.859375 C85.2732187,35.7460938 86.0661875,34.6523438 87.2732187,34.6523438 C88.1013437,34.6523438 88.5857187,35.1210938 88.9294687,35.625 L88.9294687,32.484375 L89.5505625,32.484375 L89.5505625,39 L88.9372812,39 L88.9411875,38.0859375 C88.6091562,38.6328125 88.0974375,39.0625 87.2732187,39.0625 C86.0505625,39.0625 85.2732187,38.0273438 85.2732187,36.859375 Z M87.402125,38.515625 C88.3044687,38.515625 88.9372812,37.7265625 88.9372812,36.8515625 C88.9372812,36.0039062 88.2888437,35.2109375 87.402125,35.2109375 C86.464625,35.2109375 85.9099375,35.9492188 85.9099375,36.875 C85.9099375,37.7539062 86.464625,38.515625 87.402125,38.515625 Z M90.8620312,34.53125 C91.2096875,34.4648438 91.49875,34.078125 91.5026562,33.6992188 C91.4284375,33.7421875 91.3659375,33.75 91.2995312,33.75 C90.9948437,33.75 90.7878125,33.5195312 90.7878125,33.21875 C90.7878125,32.9140625 91.0534375,32.6914062 91.3464062,32.6914062 C91.7565625,32.6914062 91.9596875,33.0585938 91.9596875,33.4296875 C91.9596875,34.1171875 91.576875,34.7578125 90.8620312,34.8554688 L90.8620312,34.53125 Z M95.5602187,37.7851562 C95.5602187,38.5664062 94.8649062,39.0703125 94.0445937,39.0703125 C92.8844375,39.0703125 92.4781875,38.2734375 92.4195937,37.8007812 L92.9899062,37.6523438 C93.0602187,38.0429688 93.3531875,38.5234375 94.0406875,38.5234375 C94.4977187,38.5234375 94.9274062,38.2695312 94.9274062,37.8203125 C94.9274062,37.4453125 94.5406875,37.2539062 94.2281875,37.1835938 L93.5758437,37.0390625 C93.0485,36.921875 92.5133437,36.65625 92.5133437,35.9257812 C92.5133437,34.984375 93.4235,34.6523438 93.9586562,34.6523438 C95.0563125,34.6523438 95.4274062,35.3867188 95.4977187,35.796875 L94.9313125,35.9570312 C94.8649062,35.6796875 94.6383437,35.1992188 93.9625625,35.1992188 C93.4938125,35.1992188 93.1383437,35.5078125 93.1383437,35.8828125 C93.1383437,36.25 93.4352187,36.3867188 93.7555312,36.4609375 L94.4469375,36.6171875 C95.0055312,36.7421875 95.5602187,37.1015625 95.5602187,37.7851562 Z M102.675344,37.3984375 L99.2651875,37.3984375 L98.5776875,39 L97.9058125,39 L100.605031,32.734375 L101.351125,32.734375 L104.05425,39 L103.358937,39 L102.675344,37.3984375 Z M100.964406,33.4140625 L99.5112812,36.8007812 L102.421437,36.8007812 L100.964406,33.4140625 Z M105.564937,36.5507812 L105.564937,39 L104.908687,39 L104.908687,32.734375 L107.002437,32.734375 C108.529781,32.734375 109.201656,33.640625 109.201656,34.6132812 C109.201656,35.6835938 108.4165,36.5507812 106.896969,36.5507812 L105.564937,36.5507812 Z M105.564937,33.3515625 L105.564937,35.9414062 L106.920406,35.9414062 C108.07275,35.9414062 108.533687,35.2695312 108.533687,34.6367188 C108.533687,34.0234375 108.178219,33.3515625 106.951656,33.3515625 L105.564937,33.3515625 Z M110.313906,32.734375 L110.970156,32.734375 L110.970156,39 L110.313906,39 L110.313906,32.734375 Z" id="CreateacustomintegrationusingNomod’sAPI" fill="#322D47" fill-rule="nonzero"></path>
                    </g>
                </g>
            </g>
            <path d="M23.1171875,34 L21.3945312,34 L21.3945312,23.0351562 L23.1171875,23.0351562 L23.1171875,34 Z M30.5938984,29.8164062 C30.5938984,28.75 30.094875,27.9501953 28.9464375,27.9501953 C27.8868672,27.9501953 27.2169453,28.7089844 27.2169453,29.8369141 L27.2169453,34 L25.5489766,34 L25.5489766,26.5283203 L27.1759297,26.5283203 L27.1759297,27.5332031 C27.8937031,26.5693359 28.8712422,26.3710938 29.4591328,26.3710938 C31.3595234,26.3710938 32.2618672,27.6972656 32.2618672,29.3994141 L32.2618672,34 L30.5938984,34 L30.5938984,29.8164062 Z M38.4876016,28.0253906 L36.5872109,28.0253906 L36.5872109,31.59375 C36.5872109,32.2363281 36.9085,32.5576172 37.7424844,32.5576172 C37.892875,32.5576172 38.0979531,32.5439453 38.4192422,32.5029297 L38.4192422,33.9179688 C37.9612344,34.0546875 37.4280312,34.0683594 37.2229531,34.0683594 C35.7532266,34.0683594 34.9260781,33.5009766 34.9260781,31.6826172 L34.9260781,28.0253906 L33.4768594,28.0253906 L33.4768594,26.5283203 L34.9260781,26.5283203 L34.9260781,24.2109375 L36.5872109,24.2109375 L36.5872109,26.5283203 L38.4876016,26.5283203 L38.4876016,28.0253906 Z M41.2270078,30.7460938 C41.2680234,31.8945312 42.3207578,32.7011719 43.4213437,32.7011719 C44.3236875,32.7011719 45.1029844,32.3457031 45.4037656,31.4433594 L46.8119687,31.8740234 C46.3881406,33.3095703 44.92525,34.1367188 43.4418516,34.1367188 C41.2406797,34.1367188 39.5248594,32.46875 39.5248594,30.2539062 C39.5248594,28.1279297 41.1176328,26.3710938 43.284625,26.3710938 C45.6156797,26.3710938 46.9350156,27.984375 46.9350156,30.2333984 C46.9350156,30.4042969 46.9281797,30.5751953 46.9076719,30.7460938 L41.2270078,30.7460938 Z M43.2982969,27.7998047 C42.2729062,27.7998047 41.4662656,28.4697266 41.315875,29.4951172 L45.2397031,29.4951172 C45.1850156,28.421875 44.3305234,27.7998047 43.2982969,27.7998047 Z M51.6910234,34.0546875 C49.5377031,34.0546875 48.0543047,32.2431641 48.0543047,30.2333984 C48.0543047,28.4150391 49.4009844,26.3984375 51.738875,26.3984375 C52.3882891,26.3984375 53.5709062,26.7197266 54.1793047,27.6630859 L54.1793047,26.5283203 L55.8062578,26.5283203 L55.8062578,33.9589844 C55.8062578,36.3242188 54.0494219,37.7392578 51.7662187,37.7392578 C50.1392656,37.7392578 48.3961016,36.9394531 48.0748125,35.2167969 L49.6470781,34.7724609 C49.8043047,35.53125 50.6519609,36.2490234 51.6978594,36.2490234 C52.9283281,36.2490234 54.1382891,35.5927734 54.1382891,34.0273438 L54.1382891,32.796875 C53.5298906,33.7675781 52.2925859,34.0546875 51.6910234,34.0546875 Z M54.1656328,30.2128906 C54.1656328,28.9208984 53.2906328,27.8886719 51.9371172,27.8886719 C50.5836016,27.8886719 49.7086016,28.9208984 49.7086016,30.2128906 C49.7086016,31.4980469 50.5904375,32.5644531 51.9439531,32.5644531 C53.2906328,32.5644531 54.1656328,31.4912109 54.1656328,30.2128906 Z M62.0525,28.2099609 C61.9157812,28.1826172 61.6013281,28.1689453 61.5808203,28.1689453 C60.3025,28.1689453 59.6257422,28.9208984 59.6257422,30.1992188 L59.6257422,34 L57.9577734,34 L57.9577734,26.5283203 L59.5915625,26.5283203 L59.5915625,27.6767578 C60.0427344,26.8632812 60.8562109,26.4599609 61.6423437,26.4599609 C61.7038672,26.4599609 61.9294531,26.4736328 62.0525,26.5009766 L62.0525,28.2099609 Z M69.2010859,34 L67.5672969,34 C67.5262812,33.8154297 67.4989375,33.2412109 67.4989375,32.9746094 C66.9520625,33.8837891 66.0018672,34.1298828 65.3046016,34.1298828 C63.8417109,34.1298828 62.7821406,33.2207031 62.7821406,31.9287109 L62.7821406,31.8466797 C62.7821406,30.1103516 64.5868281,29.5634766 65.8924922,29.5634766 L66.8153437,29.5634766 C67.3212031,29.5634766 67.5126094,29.296875 67.5126094,28.9345703 C67.5126094,28.3398438 67.0272578,27.7929688 66.0428828,27.7929688 C65.1337031,27.7929688 64.5321406,28.3125 64.4090937,29.0302734 L62.8983516,28.6884766 C62.959875,28.0595703 63.5340937,27.1162109 64.5731562,26.6582031 C65.0038203,26.4667969 65.5438594,26.3710938 66.0907344,26.3710938 C67.3485469,26.3710938 68.3944453,26.8154297 68.8934687,27.9023438 C69.0780391,28.2988281 69.1463984,28.7294922 69.1463984,29.2353516 L69.1463984,32.796875 C69.1463984,33.2548828 69.1600703,33.6513672 69.2010859,34 Z M67.4989375,30.9716797 L67.4989375,30.7324219 L65.8856562,30.7324219 C65.25675,30.7324219 64.4501094,31.0742188 64.4501094,31.7783203 C64.4501094,32.3867188 64.9354609,32.796875 65.6395625,32.796875 C66.7743281,32.796875 67.4989375,32.0996094 67.4989375,30.9716797 Z M75.3652969,28.0253906 L73.4649062,28.0253906 L73.4649062,31.59375 C73.4649062,32.2363281 73.7861953,32.5576172 74.6201797,32.5576172 C74.7705703,32.5576172 74.9756484,32.5439453 75.2969375,32.5029297 L75.2969375,33.9179688 C74.8389297,34.0546875 74.3057266,34.0683594 74.1006484,34.0683594 C72.6309219,34.0683594 71.8037734,33.5009766 71.8037734,31.6826172 L71.8037734,28.0253906 L70.3545547,28.0253906 L70.3545547,26.5283203 L71.8037734,26.5283203 L71.8037734,24.2109375 L73.4649062,24.2109375 L73.4649062,26.5283203 L75.3652969,26.5283203 L75.3652969,28.0253906 Z M76.7580234,24.1015625 C76.7580234,23.4931641 77.2502109,22.9941406 77.8517734,22.9941406 C78.4601719,22.9941406 78.9523594,23.4931641 78.9523594,24.1015625 C78.9523594,24.7099609 78.4601719,25.1953125 77.8517734,25.1953125 C77.2502109,25.1953125 76.7580234,24.7099609 76.7580234,24.1015625 Z M77.024625,34 L77.024625,26.5283203 L78.6925937,26.5283203 L78.6925937,34 L77.024625,34 Z M80.33825,30.2539062 C80.33825,28.0322266 82.1224297,26.3710938 84.2962578,26.3710938 C86.4427422,26.3710938 88.2200859,28.0253906 88.2200859,30.2197266 C88.2200859,32.4277344 86.4769219,34.1298828 84.2825859,34.1298828 C82.1224297,34.1298828 80.33825,32.4550781 80.33825,30.2539062 Z M82.0403984,30.2197266 C82.0403984,31.4980469 82.9427422,32.6191406 84.2962578,32.6191406 C85.6497734,32.6191406 86.5247734,31.5390625 86.5247734,30.2539062 C86.5247734,28.9550781 85.6361016,27.8818359 84.2825859,27.8818359 C82.9290703,27.8818359 82.0403984,28.9277344 82.0403984,30.2197266 Z M94.9106641,29.8164062 C94.9106641,28.75 94.4116406,27.9501953 93.2632031,27.9501953 C92.2036328,27.9501953 91.5337109,28.7089844 91.5337109,29.8369141 L91.5337109,34 L89.8657422,34 L89.8657422,26.5283203 L91.4926953,26.5283203 L91.4926953,27.5332031 C92.2104687,26.5693359 93.1880078,26.3710938 93.7758984,26.3710938 C95.6762891,26.3710938 96.5786328,27.6972656 96.5786328,29.3994141 L96.5786328,34 L94.9106641,34 L94.9106641,29.8164062 Z M101.088547,34.1298828 C99.0582734,34.1298828 98.231125,32.7900391 98.1354219,31.9560547 L99.5641328,31.5800781 C99.7008516,32.2158203 100.206711,32.7695312 101.061203,32.7695312 C101.751633,32.7695312 102.127609,32.4140625 102.127609,31.8945312 C102.127609,31.4912109 101.867844,31.2246094 101.238937,31.0742188 L100.281906,30.8486328 C98.9215547,30.5273438 98.3063203,29.6796875 98.3063203,28.7021484 C98.3063203,27.4648438 99.4205781,26.3642578 100.944992,26.3642578 C102.906906,26.3642578 103.576828,27.6425781 103.706711,28.3603516 L102.298508,28.7568359 C102.189133,28.2714844 101.826828,27.7109375 100.944992,27.7109375 C100.418625,27.7109375 99.9196016,28.0527344 99.9196016,28.5585938 C99.9196016,28.9960938 100.254562,29.2421875 100.671555,29.3310547 L101.696945,29.5498047 C103.064133,29.84375 103.816086,30.7324219 103.816086,31.7988281 C103.816086,32.9541016 102.947922,34.1298828 101.088547,34.1298828 Z" fill="#322D47" fill-rule="nonzero"></path>
            <g id="Entry" transform="translate(20.000000, 58.500000)">
                <g id="Xero-logo" fill-rule="nonzero">
                    <g id="g10" transform="translate(22.538764, 23.467218) scale(-1, 1) rotate(-180.000000) translate(-22.538764, -23.467218) translate(0.038764, 0.967218)">
                        <g id="g12">
                            <g id="g14-Clipped">
                                <g id="g14" transform="translate(0.002874, 0.962914)">
                                    <path d="M21.9666866,0.00695022979 C34.098574,0.00695022979 43.9332984,9.84167466 43.9332984,21.9736368 C43.9332984,34.1054495 34.098574,43.9402487 21.9666866,43.9402487 C9.83479916,43.9402487 -1.11022302e-14,34.1054495 -1.11022302e-14,21.9736368 C-1.11022302e-14,9.84167466 9.83479916,0.00695022979 21.9666866,0.00695022979" id="path20" fill="#1AB4D7"></path>
                                    <path d="M10.5150996,22.0370857 L14.2638891,25.7951421 C14.3881711,25.9218157 14.457524,26.089518 14.457524,26.2673841 C14.457524,26.638063 14.1561979,26.9390901 13.785519,26.9390901 C13.6049624,26.9390901 13.4356907,26.8683174 13.3080456,26.7391029 C13.307672,26.7383556 9.5626192,22.99547 9.5626192,22.99547 L5.80045242,26.7447079 C5.67333047,26.8700362 5.50488082,26.9390901 5.32626739,26.9390901 C4.95603688,26.9390901 4.65463606,26.6382125 4.65463606,26.2679072 C4.65463606,26.087276 4.72675403,25.91778 4.85619272,25.7900602 L8.60445905,22.042317 L4.85813579,18.2889688 C4.7264551,18.1593059 4.65463606,17.9894364 4.65463606,17.807983 C4.65463606,17.4373789 4.95603688,17.1367254 5.32626739,17.1367254 C5.50517976,17.1367254 5.67377887,17.2061529 5.80045242,17.3329012 L9.55678998,21.0841569 L13.2988534,17.3465775 C13.4315804,17.2093665 13.6027952,17.136277 13.785519,17.136277 C14.1558242,17.136277 14.4571503,17.4373789 14.4571503,17.807983 C14.4571503,17.9868207 14.3878722,18.1548219 14.2617965,18.2814955 L10.5150996,22.0370857 Z" id="path22" fill="#FFFFFF"></path>
                                    <path d="M32.8010484,22.0382067 C32.8010484,21.3651554 33.3483229,20.8176567 34.0221962,20.8176567 C34.6945002,20.8176567 35.2419989,21.3651554 35.2419989,22.0382067 C35.2419989,22.7114074 34.6945002,23.2588314 34.0221962,23.2588314 C33.3483229,23.2588314 32.8010484,22.7114074 32.8010484,22.0382067" id="path24" fill="#FFFFFF"></path>
                                    <path d="M30.4860987,22.0376088 C30.4860987,23.9866625 32.0716479,25.5725106 34.0209258,25.5725106 C35.9692321,25.5725106 37.5551549,23.9866625 37.5551549,22.0376088 C37.5551549,20.0890036 35.9692321,18.5038281 34.0209258,18.5038281 C32.0716479,18.5038281 30.4860987,20.0890036 30.4860987,22.0376088 M29.0956044,22.0376088 C29.0956044,19.3222363 31.3051048,17.1130348 34.0209258,17.1130348 C36.7366719,17.1130348 38.9472934,19.3222363 38.9472934,22.0376088 C38.9472934,24.753355 36.7366719,26.9631544 34.0209258,26.9631544 C31.3051048,26.9631544 29.0956044,24.753355 29.0956044,22.0376088" id="path26" fill="#FFFFFF"></path>
                                    <path d="M28.7460004,26.8789296 L28.5393618,26.8795274 C27.9189978,26.8795274 27.3206802,26.6838747 26.8209362,26.2987722 C26.7550959,26.6000983 26.4857558,26.8268402 26.1649242,26.8268402 C25.7956653,26.8268402 25.4997947,26.5309697 25.4988979,26.1609634 C25.4988979,26.1596181 25.5011399,17.865528 25.5011399,17.865528 C25.5021115,17.4961943 25.8033628,17.1959892 26.172846,17.1959892 C26.5422544,17.1959892 26.8434311,17.4961943 26.8444026,17.86635 C26.8444026,17.8679942 26.8447015,22.9669965 26.8447015,22.9669965 C26.8447015,24.6670376 27.0001475,25.3536157 28.4564075,25.5355922 C28.5910028,25.5523325 28.737406,25.5497168 28.7380039,25.5497168 C29.1364837,25.5633931 29.4196495,25.8372172 29.4196495,26.2072982 C29.4196495,26.5776035 29.1173519,26.8789296 28.7460004,26.8789296" id="path28" fill="#FFFFFF"></path>
                                    <path d="M15.8489151,22.848469 C15.8489151,22.8668534 15.850335,22.8859852 15.8512318,22.9048929 C16.241192,24.4464239 17.6372914,25.5871584 19.2999657,25.5871584 C20.9827433,25.5871584 22.3916221,24.4183988 22.7616285,22.848469 L15.8489151,22.848469 Z M24.1371013,22.975292 C23.8476579,24.3456829 23.0974067,25.4713212 21.9549534,26.1942198 C20.2849552,27.2544662 18.0797146,27.1958002 16.4666635,26.0487134 C15.1509028,25.1126744 14.3913847,23.5814566 14.3913847,22.0041282 C14.3913847,21.6086377 14.4390647,21.2094105 14.538311,20.816461 C15.0351404,18.8620265 16.7153023,17.3825244 18.7184631,17.1373233 C19.3128946,17.0653547 19.8914825,17.099807 20.4906222,17.254954 C21.0054624,17.3802076 21.5036369,17.5890134 21.962651,17.8831651 C22.439078,18.1894236 22.8371094,18.5932843 23.2225856,19.0767363 C23.2303579,19.0856296 23.238205,19.0934766 23.2459772,19.1028183 C23.5135237,19.4346357 23.4639006,19.906504 23.1698984,20.1317512 C22.9219321,20.3217989 22.5056657,20.3988493 22.1781081,19.9793693 C22.107709,19.8790768 22.0291639,19.7758696 21.9426971,19.6726624 C21.6822503,19.3848631 21.359102,19.1060319 20.9719069,18.8897527 C20.479188,18.6265407 19.917714,18.4761019 19.3208164,18.4727389 C17.3671292,18.4944864 16.3216802,19.8582261 15.9498055,20.8316319 C15.884862,21.0133841 15.8347904,21.2019371 15.7998898,21.3960952 C15.7953311,21.4324157 15.791968,21.4674658 15.7906228,21.4997507 C16.1945582,21.4997507 22.8015362,21.5008717 22.8015362,21.5008717 C23.7626857,21.5210498 24.2799921,22.1994819 24.1371013,22.975292 L24.1371013,22.975292 Z" id="path30" fill="#FFFFFF"></path>
                                </g>
                            </g>
                        </g>
                    </g>
                </g>
                <path d="M61.4550781,15 L60.0195312,15 L62.9296875,10.9667969 L60.1904297,7.16796875 L61.6699219,7.16796875 L63.671875,10.0244141 L65.6835938,7.16796875 L67.1337891,7.16796875 L64.4091797,10.9570312 L67.2949219,15 L65.8349609,15 L63.6523438,11.9238281 L61.4550781,15 Z M68.6510547,12.6757812 C68.6803516,13.4960938 69.4323047,14.0722656 70.2184375,14.0722656 C70.8629687,14.0722656 71.4196094,13.8183594 71.6344531,13.1738281 L72.6403125,13.4814453 C72.3375781,14.5068359 71.2926562,15.0976562 70.2330859,15.0976562 C68.6608203,15.0976562 67.4352344,13.90625 67.4352344,12.3242188 C67.4352344,10.8056641 68.5729297,9.55078125 70.1207812,9.55078125 C71.7858203,9.55078125 72.7282031,10.703125 72.7282031,12.3095703 C72.7282031,12.4316406 72.7233203,12.5537109 72.7086719,12.6757812 L68.6510547,12.6757812 Z M70.1305469,10.5712891 C69.398125,10.5712891 68.8219531,11.0498047 68.7145312,11.7822266 L71.5172656,11.7822266 C71.4782031,11.015625 70.8678516,10.5712891 70.1305469,10.5712891 Z M76.8138281,10.8642578 C76.7161719,10.8447266 76.4915625,10.8349609 76.4769141,10.8349609 C75.5638281,10.8349609 75.0804297,11.3720703 75.0804297,12.2851562 L75.0804297,15 L73.8890234,15 L73.8890234,9.66308594 L75.0560156,9.66308594 L75.0560156,10.4833984 C75.3782812,9.90234375 75.9593359,9.61425781 76.5208594,9.61425781 C76.5648047,9.61425781 76.7259375,9.62402344 76.8138281,9.64355469 L76.8138281,10.8642578 Z M77.2861719,12.3242188 C77.2861719,10.7373047 78.5605859,9.55078125 80.1133203,9.55078125 C81.6465234,9.55078125 82.9160547,10.7324219 82.9160547,12.2998047 C82.9160547,13.8769531 81.6709375,15.0927734 80.1035547,15.0927734 C78.5605859,15.0927734 77.2861719,13.8964844 77.2861719,12.3242188 Z M78.5019922,12.2998047 C78.5019922,13.2128906 79.1465234,14.0136719 80.1133203,14.0136719 C81.0801172,14.0136719 81.7051172,13.2421875 81.7051172,12.3242188 C81.7051172,11.3964844 81.0703516,10.6298828 80.1035547,10.6298828 C79.1367578,10.6298828 78.5019922,11.3769531 78.5019922,12.2998047 Z" id="Xero" fill="#322D47" fill-rule="nonzero"></path>
                <path d="M62.6015625,28.0625 C61.375,28.0625 60.4804688,27.1757812 60.390625,26.2890625 L61.0078125,26.1171875 C61.1445312,26.8476562 61.828125,27.4453125 62.6015625,27.4453125 C63.3085938,27.4453125 64.0078125,27.0820312 64.0078125,26.3007812 C64.0078125,25.5625 63.3476562,25.28125 62.890625,25.1914062 L62.0585938,25.0273438 C61.7773438,24.9726562 61.3242188,24.8125 60.9960938,24.4960938 C60.7382812,24.2460938 60.5585938,23.8945312 60.5585938,23.4140625 C60.5585938,22.34375 61.5039062,21.6679688 62.546875,21.6679688 C63.8945312,21.6679688 64.484375,22.4960938 64.6132812,23.1679688 L64.015625,23.3554688 C63.90625,22.9101562 63.5039062,22.2734375 62.53125,22.2734375 C61.859375,22.2734375 61.21875,22.7109375 61.21875,23.3828125 C61.21875,23.84375 61.4960938,24.2460938 62.1289062,24.3710938 L62.9257812,24.5273438 C63.3632812,24.6132812 63.7929688,24.75 64.140625,25.0742188 C64.5703125,25.4726562 64.6796875,25.9609375 64.6796875,26.2265625 C64.6796875,27.3515625 63.7734375,28.0625 62.6015625,28.0625 Z M66.0185,30.1054688 L67.1239687,27.7109375 L65.1825625,23.7304688 L65.8974062,23.7304688 L67.4638125,27.03125 L68.9442812,23.7304688 L69.6161562,23.7304688 L66.6942812,30.1054688 L66.0185,30.1054688 Z M73.5018437,28 L73.5018437,25.515625 C73.5018437,24.7539062 73.1112187,24.21875 72.31825,24.21875 C71.5760625,24.21875 71.0448125,24.8046875 71.0448125,25.5664062 L71.0448125,28 L70.4237187,28 L70.4237187,23.7304688 L71.0330937,23.7304688 L71.0330937,24.5117188 C71.3729375,23.9335938 71.8768437,23.6484375 72.50575,23.6484375 C73.5565312,23.6484375 74.1229375,24.3632812 74.1229375,25.359375 L74.1229375,28 L73.5018437,28 Z M75.7625312,25.84375 C75.7625312,26.7304688 76.3406562,27.5195312 77.3094062,27.5195312 C78.2508125,27.5195312 78.6101875,26.8164062 78.7351875,26.4921875 L79.3133125,26.6875 C79.1219062,27.328125 78.4226875,28.0742188 77.3015937,28.0742188 C76.0633125,28.0742188 75.1258125,27.15625 75.1258125,25.8789062 C75.1258125,24.5820312 76.1219062,23.6523438 77.3289375,23.6523438 C78.3250312,23.6523438 79.1140937,24.2929688 79.289875,25.015625 L78.7156562,25.203125 C78.618,24.8710938 78.1922187,24.2070312 77.3055,24.2070312 C76.39925,24.2070312 75.7625312,24.9492188 75.7625312,25.84375 Z M82.6159375,30.1054688 L83.7214062,27.7109375 L81.78,23.7304688 L82.4948437,23.7304688 L84.06125,27.03125 L85.5417187,23.7304688 L86.2135937,23.7304688 L83.2917187,30.1054688 L82.6159375,30.1054688 Z M88.751625,28.0742188 C87.51725,28.0742188 86.5563125,27.0976562 86.5563125,25.8789062 C86.5563125,24.6171875 87.5094375,23.6523438 88.76725,23.6523438 C90.001625,23.6523438 90.970375,24.6210938 90.970375,25.8476562 C90.970375,27.109375 90.001625,28.0742188 88.751625,28.0742188 Z M88.76725,27.5195312 C89.6813125,27.5195312 90.3336562,26.7695312 90.3336562,25.8789062 C90.3336562,24.9804688 89.6813125,24.203125 88.751625,24.203125 C87.82975,24.203125 87.1930312,24.953125 87.1930312,25.8476562 C87.1930312,26.7460938 87.8375625,27.5195312 88.76725,27.5195312 Z M92.5943437,23.7304688 L92.5943437,26.2148438 C92.5943437,26.9765625 92.9849687,27.5117188 93.7779375,27.5117188 C94.520125,27.5117188 95.051375,26.9257812 95.051375,26.1640625 L95.051375,23.7304688 L95.6685625,23.7304688 L95.6685625,28 L95.0591875,28 L95.0591875,27.21875 C94.7193437,27.796875 94.2193437,28.0820312 93.5904375,28.0820312 C92.5474687,28.0820312 91.97325,27.3671875 91.97325,26.3710938 L91.97325,23.7304688 L92.5943437,23.7304688 Z M97.648,23.7304688 L97.648,24.5742188 C97.9722187,23.9140625 98.538625,23.6601562 99.0269062,23.6601562 C99.0659687,23.6601562 99.1870625,23.6640625 99.2378437,23.6757812 L99.2378437,24.3359375 C99.1519062,24.3242188 99.0776875,24.3203125 98.9956562,24.3203125 C97.9839375,24.3203125 97.6597187,25.1523438 97.6597187,25.9140625 L97.6597187,28 L97.038625,28 L97.038625,23.7304688 L97.648,23.7304688 Z M107.251406,21.734375 L107.251406,28 L106.532656,28 L102.794375,22.6679688 L102.794375,28 L102.145937,28 L102.145937,21.734375 L102.90375,21.734375 L106.602969,27 L106.602969,21.734375 L107.251406,21.734375 Z M110.668344,28.0742188 C109.433969,28.0742188 108.473031,27.0976562 108.473031,25.8789062 C108.473031,24.6171875 109.426156,23.6523438 110.683969,23.6523438 C111.918344,23.6523438 112.887094,24.6210938 112.887094,25.8476562 C112.887094,27.109375 111.918344,28.0742188 110.668344,28.0742188 Z M110.683969,27.5195312 C111.598031,27.5195312 112.250375,26.7695312 112.250375,25.8789062 C112.250375,24.9804688 111.598031,24.203125 110.668344,24.203125 C109.746469,24.203125 109.10975,24.953125 109.10975,25.8476562 C109.10975,26.7460938 109.754281,27.5195312 110.683969,27.5195312 Z M116.854812,28 L116.854812,25.4921875 C116.854812,24.7890625 116.518875,24.21875 115.75325,24.21875 C115.00325,24.21875 114.56575,24.8710938 114.56575,25.5664062 L114.56575,28 L113.944656,28 L113.944656,23.7304688 L114.554031,23.7304688 L114.554031,24.46875 C114.901687,23.953125 115.296219,23.6484375 115.936844,23.6484375 C116.554031,23.6484375 117.042312,23.9453125 117.304031,24.5078125 C117.6595,23.9492188 118.132156,23.6523438 118.804031,23.6523438 C119.839187,23.6523438 120.382156,24.3710938 120.382156,25.359375 L120.382156,28 L119.761062,28 L119.761062,25.515625 C119.761062,24.8007812 119.436844,24.2226562 118.655594,24.2226562 C117.897781,24.2226562 117.468094,24.8320312 117.468094,25.5429688 L117.468094,28 L116.854812,28 Z M123.580344,28.0742188 C122.345969,28.0742188 121.385031,27.0976562 121.385031,25.8789062 C121.385031,24.6171875 122.338156,23.6523438 123.595969,23.6523438 C124.830344,23.6523438 125.799094,24.6210938 125.799094,25.8476562 C125.799094,27.109375 124.830344,28.0742188 123.580344,28.0742188 Z M123.595969,27.5195312 C124.510031,27.5195312 125.162375,26.7695312 125.162375,25.8789062 C125.162375,24.9804688 124.510031,24.203125 123.580344,24.203125 C122.658469,24.203125 122.02175,24.953125 122.02175,25.8476562 C122.02175,26.7460938 122.666281,27.5195312 123.595969,27.5195312 Z M126.548062,25.859375 C126.548062,24.7460938 127.341031,23.6523438 128.548062,23.6523438 C129.376187,23.6523438 129.860562,24.1210938 130.204312,24.625 L130.204312,21.484375 L130.825406,21.484375 L130.825406,28 L130.212125,28 L130.216031,27.0859375 C129.884,27.6328125 129.372281,28.0625 128.548062,28.0625 C127.325406,28.0625 126.548062,27.0273438 126.548062,25.859375 Z M128.676969,27.515625 C129.579312,27.515625 130.212125,26.7265625 130.212125,25.8515625 C130.212125,25.0039062 129.563687,24.2109375 128.676969,24.2109375 C127.739469,24.2109375 127.184781,24.9492188 127.184781,25.875 C127.184781,26.7539062 127.739469,27.515625 128.676969,27.515625 Z M134.995219,23.7304688 L134.995219,24.5742188 C135.319437,23.9140625 135.885844,23.6601562 136.374125,23.6601562 C136.413187,23.6601562 136.534281,23.6640625 136.585062,23.6757812 L136.585062,24.3359375 C136.499125,24.3242188 136.424906,24.3203125 136.342875,24.3203125 C135.331156,24.3203125 135.006937,25.1523438 135.006937,25.9140625 L135.006937,28 L134.385844,28 L134.385844,23.7304688 L134.995219,23.7304688 Z M141.005906,26.0585938 L137.548875,26.0585938 C137.59575,26.890625 138.244187,27.5195312 139.080125,27.5195312 C139.709031,27.5195312 140.201219,27.2109375 140.400437,26.6054688 L140.955125,26.78125 C140.705125,27.609375 139.931687,28.0742188 139.087937,28.0742188 C137.84575,28.0742188 136.919969,27.0859375 136.919969,25.859375 C136.919969,24.6953125 137.798875,23.6523438 138.998094,23.6523438 C140.318406,23.6523438 141.013719,24.5976562 141.013719,25.8476562 C141.013719,25.9179688 141.009812,25.9882812 141.005906,26.0585938 Z M137.556687,25.5273438 L140.380906,25.5273438 C140.298875,24.75 139.810594,24.203125 138.998094,24.203125 C138.255906,24.203125 137.65825,24.8164062 137.556687,25.5273438 Z M142.372062,25.84375 C142.372062,26.7304688 142.950187,27.5195312 143.918937,27.5195312 C144.860344,27.5195312 145.219719,26.8164062 145.344719,26.4921875 L145.922844,26.6875 C145.731437,27.328125 145.032219,28.0742188 143.911125,28.0742188 C142.672844,28.0742188 141.735344,27.15625 141.735344,25.8789062 C141.735344,24.5820312 142.731437,23.6523438 143.938469,23.6523438 C144.934562,23.6523438 145.723625,24.2929688 145.899406,25.015625 L145.325187,25.203125 C145.227531,24.8710938 144.80175,24.2070312 143.915031,24.2070312 C143.008781,24.2070312 142.372062,24.9492188 142.372062,25.84375 Z M148.804625,28.0742188 C147.57025,28.0742188 146.609312,27.0976562 146.609312,25.8789062 C146.609312,24.6171875 147.562437,23.6523438 148.82025,23.6523438 C150.054625,23.6523438 151.023375,24.6210938 151.023375,25.8476562 C151.023375,27.109375 150.054625,28.0742188 148.804625,28.0742188 Z M148.82025,27.5195312 C149.734312,27.5195312 150.386656,26.7695312 150.386656,25.8789062 C150.386656,24.9804688 149.734312,24.203125 148.804625,24.203125 C147.88275,24.203125 147.246031,24.953125 147.246031,25.8476562 C147.246031,26.7460938 147.890562,27.5195312 148.82025,27.5195312 Z M152.690312,23.7304688 L152.690312,24.5742188 C153.014531,23.9140625 153.580937,23.6601562 154.069219,23.6601562 C154.108281,23.6601562 154.229375,23.6640625 154.280156,23.6757812 L154.280156,24.3359375 C154.194219,24.3242188 154.12,24.3203125 154.037969,24.3203125 C153.02625,24.3203125 152.702031,25.1523438 152.702031,25.9140625 L152.702031,28 L152.080937,28 L152.080937,23.7304688 L152.690312,23.7304688 Z M154.618969,25.859375 C154.618969,24.7460938 155.411937,23.6523438 156.618969,23.6523438 C157.447094,23.6523438 157.931469,24.1210938 158.275219,24.625 L158.275219,21.484375 L158.896312,21.484375 L158.896312,28 L158.283031,28 L158.286937,27.0859375 C157.954906,27.6328125 157.443187,28.0625 156.618969,28.0625 C155.396312,28.0625 154.618969,27.0273438 154.618969,25.859375 Z M156.747875,27.515625 C157.650219,27.515625 158.283031,26.7265625 158.283031,25.8515625 C158.283031,25.0039062 157.634594,24.2109375 156.747875,24.2109375 C155.810375,24.2109375 155.255687,24.9492188 155.255687,25.875 C155.255687,26.7539062 155.810375,27.515625 156.747875,27.515625 Z M163.082781,26.7851562 C163.082781,27.5664062 162.387469,28.0703125 161.567156,28.0703125 C160.407,28.0703125 160.00075,27.2734375 159.942156,26.8007812 L160.512469,26.6523438 C160.582781,27.0429688 160.87575,27.5234375 161.56325,27.5234375 C162.020281,27.5234375 162.449969,27.2695312 162.449969,26.8203125 C162.449969,26.4453125 162.06325,26.2539062 161.75075,26.1835938 L161.098406,26.0390625 C160.571062,25.921875 160.035906,25.65625 160.035906,24.9257812 C160.035906,23.984375 160.946062,23.6523438 161.481219,23.6523438 C162.578875,23.6523438 162.949969,24.3867188 163.020281,24.796875 L162.453875,24.9570312 C162.387469,24.6796875 162.160906,24.1992188 161.485125,24.1992188 C161.016375,24.1992188 160.660906,24.5078125 160.660906,24.8828125 C160.660906,25.25 160.957781,25.3867188 161.278094,25.4609375 L161.9695,25.6171875 C162.528094,25.7421875 163.082781,26.1015625 163.082781,26.7851562 Z M167.951812,28 L167.268219,28 L165.838531,23.7304688 L166.498687,23.7304688 L167.619781,27.2734375 L167.623687,27.2734375 L168.783844,23.7304688 L169.41275,23.7304688 L170.580719,27.2773438 L170.584625,27.2773438 L171.717437,23.7304688 L172.361969,23.7304688 L170.924469,28 L170.229156,28 L169.096344,24.5273438 L169.092437,24.5273438 L167.951812,28 Z M173.071875,22.1992188 C173.071875,21.9375 173.278906,21.7304688 173.540625,21.7304688 C173.802344,21.7304688 174.009375,21.9375 174.009375,22.1992188 C174.009375,22.4570312 173.802344,22.6679688 173.540625,22.6679688 C173.278906,22.6679688 173.071875,22.4570312 173.071875,22.1992188 Z M173.228125,23.7304688 L173.853125,23.7304688 L173.853125,28 L173.228125,28 L173.228125,23.7304688 Z M176.715375,28.0351562 C175.789594,28.0351562 175.504437,27.5195312 175.504437,26.8945312 L175.504437,24.28125 L174.715375,24.28125 L174.715375,23.7304688 L175.504437,23.7304688 L175.504437,22.4960938 L176.125531,22.4960938 L176.125531,23.7304688 L177.207562,23.7304688 L177.207562,24.28125 L176.125531,24.28125 L176.125531,26.8789062 C176.125531,27.265625 176.352094,27.4804688 176.816937,27.4804688 C176.953656,27.4804688 177.106,27.46875 177.203656,27.4492188 L177.203656,27.9648438 C177.078656,28.0078125 176.82475,28.0351562 176.715375,28.0351562 Z M181.300281,28 L181.300281,25.515625 C181.300281,24.7539062 180.909656,24.21875 180.116687,24.21875 C179.3745,24.21875 178.84325,24.8046875 178.84325,25.5664062 L178.84325,28 L178.222156,28 L178.222156,21.484375 L178.84325,21.484375 L178.84325,24.4960938 C179.183094,23.9335938 179.675281,23.6484375 180.304187,23.6484375 C181.354969,23.6484375 181.921375,24.3632812 181.921375,25.359375 L181.921375,28 L181.300281,28 Z M61.0078125,42.1054688 L62.1132812,39.7109375 L60.171875,35.7304688 L60.8867188,35.7304688 L62.453125,39.03125 L63.9335938,35.7304688 L64.6054688,35.7304688 L61.6835938,42.1054688 L61.0078125,42.1054688 Z M67.1435,40.0742188 C65.909125,40.0742188 64.9481875,39.0976562 64.9481875,37.8789062 C64.9481875,36.6171875 65.9013125,35.6523438 67.159125,35.6523438 C68.3935,35.6523438 69.36225,36.6210938 69.36225,37.8476562 C69.36225,39.109375 68.3935,40.0742188 67.1435,40.0742188 Z M67.159125,39.5195312 C68.0731875,39.5195312 68.7255312,38.7695312 68.7255312,37.8789062 C68.7255312,36.9804688 68.0731875,36.203125 67.1435,36.203125 C66.221625,36.203125 65.5849062,36.953125 65.5849062,37.8476562 C65.5849062,38.7460938 66.2294375,39.5195312 67.159125,39.5195312 Z M70.9862187,35.7304688 L70.9862187,38.2148438 C70.9862187,38.9765625 71.3768437,39.5117188 72.1698125,39.5117188 C72.912,39.5117188 73.44325,38.9257812 73.44325,38.1640625 L73.44325,35.7304688 L74.0604375,35.7304688 L74.0604375,40 L73.4510625,40 L73.4510625,39.21875 C73.1112187,39.796875 72.6112187,40.0820312 71.9823125,40.0820312 C70.9393437,40.0820312 70.365125,39.3671875 70.365125,38.3710938 L70.365125,35.7304688 L70.9862187,35.7304688 Z M76.039875,35.7304688 L76.039875,36.5742188 C76.3640937,35.9140625 76.9305,35.6601562 77.4187812,35.6601562 C77.4578437,35.6601562 77.5789375,35.6640625 77.6297187,35.6757812 L77.6297187,36.3359375 C77.5437812,36.3242188 77.4695625,36.3203125 77.3875312,36.3203125 C76.3758125,36.3203125 76.0515937,37.1523438 76.0515937,37.9140625 L76.0515937,40 L75.4305,40 L75.4305,35.7304688 L76.039875,35.7304688 Z M82.3659375,37.2617188 L80.3425,40 L79.5729687,40 L81.9753125,36.7929688 L79.6784375,33.734375 L80.4479687,33.734375 L82.3815625,36.3164062 L84.295625,33.734375 L85.06125,33.734375 L82.7682812,36.7851562 L85.1667187,40 L84.4010937,40 L82.3659375,37.2617188 Z M89.4742812,38.0585938 L86.01725,38.0585938 C86.064125,38.890625 86.7125625,39.5195312 87.5485,39.5195312 C88.1774062,39.5195312 88.6695937,39.2109375 88.8688125,38.6054688 L89.4235,38.78125 C89.1735,39.609375 88.4000625,40.0742188 87.5563125,40.0742188 C86.314125,40.0742188 85.3883437,39.0859375 85.3883437,37.859375 C85.3883437,36.6953125 86.26725,35.6523438 87.4664687,35.6523438 C88.7867812,35.6523438 89.4820937,36.5976562 89.4820937,37.8476562 C89.4820937,37.9179688 89.4781875,37.9882812 89.4742812,38.0585938 Z M86.0250625,37.5273438 L88.8492812,37.5273438 C88.76725,36.75 88.2789687,36.203125 87.4664687,36.203125 C86.7242812,36.203125 86.126625,36.8164062 86.0250625,37.5273438 Z M91.1255937,35.7304688 L91.1255937,36.5742188 C91.4498125,35.9140625 92.0162187,35.6601562 92.5045,35.6601562 C92.5435625,35.6601562 92.6646562,35.6640625 92.7154375,35.6757812 L92.7154375,36.3359375 C92.6295,36.3242188 92.5552812,36.3203125 92.47325,36.3203125 C91.4615312,36.3203125 91.1373125,37.1523438 91.1373125,37.9140625 L91.1373125,40 L90.5162187,40 L90.5162187,35.7304688 L91.1255937,35.7304688 Z M95.2456562,40.0742188 C94.0112812,40.0742188 93.0503437,39.0976562 93.0503437,37.8789062 C93.0503437,36.6171875 94.0034687,35.6523438 95.2612812,35.6523438 C96.4956562,35.6523438 97.4644062,36.6210938 97.4644062,37.8476562 C97.4644062,39.109375 96.4956562,40.0742188 95.2456562,40.0742188 Z M95.2612812,39.5195312 C96.1753437,39.5195312 96.8276875,38.7695312 96.8276875,37.8789062 C96.8276875,36.9804688 96.1753437,36.203125 95.2456562,36.203125 C94.3237812,36.203125 93.6870625,36.953125 93.6870625,37.8476562 C93.6870625,38.7460938 94.3315937,39.5195312 95.2612812,39.5195312 Z M103.286562,37.5351562 L103.286562,37.2460938 C103.286562,36.5625 102.907656,36.2109375 102.200625,36.2109375 C101.477969,36.2109375 101.145937,36.671875 101.075625,37.0820312 L100.477969,36.953125 C100.513125,36.59375 100.985781,35.6523438 102.21625,35.6523438 C103.118594,35.6523438 103.563906,36.0625 103.770937,36.5351562 C103.8725,36.765625 103.899844,37.1054688 103.899844,37.2421875 L103.899844,38.4453125 C103.899844,39.1679688 103.907656,39.5742188 103.970156,40 L103.345156,40 C103.31,39.8164062 103.290469,39.4648438 103.290469,39.25 L103.286562,39.25 C102.946719,39.7734375 102.485781,40.0742188 101.845156,40.0742188 C100.981875,40.0742188 100.411562,39.5351562 100.411562,38.8164062 L100.411562,38.7695312 C100.411562,37.84375 101.34125,37.5351562 102.102969,37.5351562 L103.286562,37.5351562 Z M103.286562,38.0507812 L102.095156,38.0507812 C101.634219,38.0507812 101.040469,38.1953125 101.040469,38.765625 C101.040469,39.25 101.446719,39.5234375 101.954531,39.5234375 C102.71625,39.5234375 103.286562,38.9804688 103.286562,38.1992188 L103.286562,38.0507812 Z M105.539437,37.84375 C105.539437,38.7304688 106.117562,39.5195312 107.086312,39.5195312 C108.027719,39.5195312 108.387094,38.8164062 108.512094,38.4921875 L109.090219,38.6875 C108.898812,39.328125 108.199594,40.0742188 107.0785,40.0742188 C105.840219,40.0742188 104.902719,39.15625 104.902719,37.8789062 C104.902719,36.5820312 105.898812,35.6523438 107.105844,35.6523438 C108.101937,35.6523438 108.891,36.2929688 109.066781,37.015625 L108.492562,37.203125 C108.394906,36.8710938 107.969125,36.2070312 107.082406,36.2070312 C106.176156,36.2070312 105.539437,36.9492188 105.539437,37.84375 Z M110.413406,37.84375 C110.413406,38.7304688 110.991531,39.5195312 111.960281,39.5195312 C112.901687,39.5195312 113.261062,38.8164062 113.386062,38.4921875 L113.964187,38.6875 C113.772781,39.328125 113.073562,40.0742188 111.952469,40.0742188 C110.714187,40.0742188 109.776687,39.15625 109.776687,37.8789062 C109.776687,36.5820312 110.772781,35.6523438 111.979812,35.6523438 C112.975906,35.6523438 113.764969,36.2929688 113.94075,37.015625 L113.366531,37.203125 C113.268875,36.8710938 112.843094,36.2070312 111.956375,36.2070312 C111.050125,36.2070312 110.413406,36.9492188 110.413406,37.84375 Z M116.845969,40.0742188 C115.611594,40.0742188 114.650656,39.0976562 114.650656,37.8789062 C114.650656,36.6171875 115.603781,35.6523438 116.861594,35.6523438 C118.095969,35.6523438 119.064719,36.6210938 119.064719,37.8476562 C119.064719,39.109375 118.095969,40.0742188 116.845969,40.0742188 Z M116.861594,39.5195312 C117.775656,39.5195312 118.428,38.7695312 118.428,37.8789062 C118.428,36.9804688 117.775656,36.203125 116.845969,36.203125 C115.924094,36.203125 115.287375,36.953125 115.287375,37.8476562 C115.287375,38.7460938 115.931906,39.5195312 116.861594,39.5195312 Z M120.688687,35.7304688 L120.688687,38.2148438 C120.688687,38.9765625 121.079312,39.5117188 121.872281,39.5117188 C122.614469,39.5117188 123.145719,38.9257812 123.145719,38.1640625 L123.145719,35.7304688 L123.762906,35.7304688 L123.762906,40 L123.153531,40 L123.153531,39.21875 C122.813687,39.796875 122.313687,40.0820312 121.684781,40.0820312 C120.641812,40.0820312 120.067594,39.3671875 120.067594,38.3710938 L120.067594,35.7304688 L120.688687,35.7304688 Z M128.211094,40 L128.211094,37.515625 C128.211094,36.7539062 127.820469,36.21875 127.0275,36.21875 C126.285312,36.21875 125.754062,36.8046875 125.754062,37.5664062 L125.754062,40 L125.132969,40 L125.132969,35.7304688 L125.742344,35.7304688 L125.742344,36.5117188 C126.082187,35.9335938 126.586094,35.6484375 127.215,35.6484375 C128.265781,35.6484375 128.832187,36.3632812 128.832187,37.359375 L128.832187,40 L128.211094,40 Z M131.596781,40.0351562 C130.671,40.0351562 130.385844,39.5195312 130.385844,38.8945312 L130.385844,36.28125 L129.596781,36.28125 L129.596781,35.7304688 L130.385844,35.7304688 L130.385844,34.4960938 L131.006937,34.4960938 L131.006937,35.7304688 L132.088969,35.7304688 L132.088969,36.28125 L131.006937,36.28125 L131.006937,38.8789062 C131.006937,39.265625 131.2335,39.4804688 131.698344,39.4804688 C131.835062,39.4804688 131.987406,39.46875 132.085062,39.4492188 L132.085062,39.9648438 C131.960062,40.0078125 131.706156,40.0351562 131.596781,40.0351562 Z" id="SyncyourNomodrecordswithyourXeroaccount" fill="#322D47" fill-rule="nonzero"></path>
                <rect id="Rectangle" fill="#DAE0EA" x="60" y="49" width="80" height="24" rx="3"></rect>
                <text id="Connect" font-family="GorditaMedium, Gordita" font-size="8" font-weight="400" letter-spacing="-0.0440000002" fill="#322D47">
                    <tspan x="83" y="63">Connect</tspan>
                </text>
            </g>
            <path d="M20,144 L224,144" id="Line-2" stroke="#E1E4EB" stroke-linecap="square"></path>
            <g id="Entry-2" transform="translate(20.000000, 154.500000)" fill-rule="nonzero">
                <g id="QB">
                    <circle id="Circle_2_" fill="#2CA01C" cx="22.9344839" cy="22.8612852" r="22.7472527"></circle>
                    <path d="M6.5035907,22.8606837 C6.5035907,27.7461845 10.4641356,31.706745 15.3497445,31.706745 L16.6134808,31.706745 L16.6134808,28.4210307 L15.3497445,28.4210307 C12.2837187,28.4210307 9.78930499,25.9266171 9.78930499,22.8606837 C9.78930499,19.7945653 12.2837187,17.3002441 15.3497445,17.3002441 L18.3865528,17.3002441 C18.3865528,17.3002441 18.3865528,34.1618211 18.3865528,34.4869648 C18.3865528,36.3015804 19.857644,37.7726791 21.6722671,37.7726791 L21.6722671,14.0145298 C21.6722671,14.0145298 18.2720037,14.0145298 15.3497445,14.0145298 C10.4641356,14.0145298 6.5035907,17.9751829 6.5035907,22.8606837 Z M30.5191307,14.0158411 L29.2553944,14.0158411 L29.2553944,17.3015554 L30.5191307,17.3015554 C33.5851565,17.3015554 36.0795702,19.7959691 36.0795702,22.8619949 C36.0795702,25.9280208 33.5851565,28.422342 30.5191307,28.422342 L27.4823148,28.422342 C27.4823148,28.422342 27.4823148,11.560765 27.4823148,11.2356213 C27.4823148,9.42089807 26.0112313,7.94990703 24.1966081,7.94990703 L24.1966081,31.7080563 C24.1966081,31.7080563 27.5968639,31.7080563 30.5191307,31.7080563 C35.4047315,31.7080563 39.3652845,27.7474032 39.3652845,22.8619949 C39.3652845,17.9764017 35.4047315,14.0158411 30.5191307,14.0158411 Z" id="qb" fill="#FFFFFF"></path>
                </g>
                <path d="M66.8701172,13.3261719 C66.1962891,13.8144531 65.3662109,14.0927734 64.4775391,14.0927734 C62.2607422,14.0927734 60.4785156,12.4082031 60.4785156,10.1035156 C60.4785156,7.81835938 62.2949219,6.05566406 64.5117188,6.05566406 C66.7285156,6.05566406 68.5205078,7.78417969 68.5205078,10.0693359 C68.5205078,11.0019531 68.2177734,11.8417969 67.7148438,12.5058594 L68.6083984,13.2675781 L67.8320312,14.1660156 L66.8701172,13.3261719 Z M61.7675781,10.0742188 C61.7675781,11.6611328 62.9638672,12.9453125 64.5019531,12.9453125 C65.0390625,12.9453125 65.5322266,12.7890625 65.9472656,12.5253906 L64.5019531,11.2802734 L65.2880859,10.3769531 L66.7724609,11.6855469 C67.0605469,11.2265625 67.2265625,10.6699219 67.2265625,10.0742188 C67.2265625,8.47753906 66.0302734,7.203125 64.4970703,7.203125 C62.9589844,7.203125 61.7675781,8.47753906 61.7675781,10.0742188 Z M70.8922656,11.6513672 C70.8922656,12.4082031 71.2487109,12.984375 72.0690234,12.984375 C72.8258594,12.984375 73.304375,12.4375 73.304375,11.6318359 L73.304375,8.66308594 L74.4957812,8.66308594 L74.4957812,14 L73.3336719,14 L73.3336719,13.2822266 C72.8209766,13.9707031 72.1227344,14.1123047 71.7028125,14.1123047 C70.3649219,14.1123047 69.7008594,13.1552734 69.7008594,11.9443359 L69.7008594,8.66308594 L70.8922656,8.66308594 L70.8922656,11.6513672 Z M75.8421484,6.9296875 C75.8421484,6.49511719 76.1937109,6.13867188 76.6233984,6.13867188 C77.0579687,6.13867188 77.4095312,6.49511719 77.4095312,6.9296875 C77.4095312,7.36425781 77.0579687,7.7109375 76.6233984,7.7109375 C76.1937109,7.7109375 75.8421484,7.36425781 75.8421484,6.9296875 Z M76.0325781,14 L76.0325781,8.66308594 L77.2239844,8.66308594 L77.2239844,14 L76.0325781,14 Z M81.1826562,14.0927734 C79.6103906,14.0927734 78.4043359,12.8916016 78.4043359,11.3193359 C78.4043359,9.79589844 79.6103906,8.55078125 81.2021875,8.55078125 C82.5254297,8.55078125 83.4482812,9.37109375 83.6728906,10.2744141 L82.5937891,10.6259766 C82.4717187,10.2109375 82.0810937,9.62988281 81.1973047,9.62988281 C80.3281641,9.62988281 79.6250391,10.2890625 79.6250391,11.2998047 C79.6250391,12.2958984 80.2988672,13.0087891 81.2070703,13.0087891 C82.1201562,13.0087891 82.4570703,12.4033203 82.6133203,11.9931641 L83.7021875,12.3447266 C83.4629297,13.1552734 82.6377344,14.0927734 81.1826562,14.0927734 Z M85.9909375,14 L84.7995312,14 L84.7995312,5.85546875 L85.9909375,5.85546875 L85.9909375,10.7626953 L86.0007031,10.7626953 L88.0758984,8.66308594 L89.6921094,8.66308594 L87.28,11.0751953 L89.8239453,14 L88.2516797,14 L86.0251172,11.3876953 L85.9909375,11.3876953 L85.9909375,14 Z M96.1214844,11.3095703 C96.1214844,12.7646484 95.0472656,14.0830078 93.4652344,14.0830078 C92.9525391,14.0830078 92.0736328,13.7949219 91.7074219,13.1845703 L91.7074219,14 L90.5453125,14 L90.5453125,5.85546875 L91.7367187,5.85546875 L91.7367187,9.44921875 C92.1029297,8.84375 92.9378906,8.55566406 93.4945312,8.55566406 C95.1351562,8.55566406 96.1214844,9.97167969 96.1214844,11.3095703 Z M91.7171875,11.3242188 C91.7171875,12.2373047 92.3519531,13.0039062 93.31875,13.0039062 C94.2806641,13.0039062 94.9203125,12.2421875 94.9203125,11.3242188 C94.9203125,10.3964844 94.2855469,9.63476562 93.31875,9.63476562 C92.3519531,9.63476562 91.7171875,10.3964844 91.7171875,11.3242188 Z M96.935625,11.3242188 C96.935625,9.73730469 98.2100391,8.55078125 99.7627734,8.55078125 C101.295977,8.55078125 102.565508,9.73242188 102.565508,11.2998047 C102.565508,12.8769531 101.320391,14.0927734 99.7530078,14.0927734 C98.2100391,14.0927734 96.935625,12.8964844 96.935625,11.3242188 Z M98.1514453,11.2998047 C98.1514453,12.2128906 98.7959766,13.0136719 99.7627734,13.0136719 C100.72957,13.0136719 101.35457,12.2421875 101.35457,11.3242188 C101.35457,10.3964844 100.719805,9.62988281 99.7530078,9.62988281 C98.7862109,9.62988281 98.1514453,10.3769531 98.1514453,11.2998047 Z M103.379648,11.3242188 C103.379648,9.73730469 104.654062,8.55078125 106.206797,8.55078125 C107.74,8.55078125 109.009531,9.73242188 109.009531,11.2998047 C109.009531,12.8769531 107.764414,14.0927734 106.197031,14.0927734 C104.654062,14.0927734 103.379648,12.8964844 103.379648,11.3242188 Z M104.595469,11.2998047 C104.595469,12.2128906 105.24,13.0136719 106.206797,13.0136719 C107.173594,13.0136719 107.798594,12.2421875 107.798594,11.3242188 C107.798594,10.3964844 107.163828,9.62988281 106.197031,9.62988281 C105.230234,9.62988281 104.595469,10.3769531 104.595469,11.2998047 Z M111.376406,14 L110.185,14 L110.185,5.85546875 L111.376406,5.85546875 L111.376406,10.7626953 L111.386172,10.7626953 L113.461367,8.66308594 L115.077578,8.66308594 L112.665469,11.0751953 L115.209414,14 L113.637148,14 L111.410586,11.3876953 L111.376406,11.3876953 L111.376406,14 Z M117.493281,14.0927734 C116.043086,14.0927734 115.452266,13.1357422 115.383906,12.5400391 L116.404414,12.2714844 C116.50207,12.7255859 116.863398,13.1210938 117.47375,13.1210938 C117.966914,13.1210938 118.235469,12.8671875 118.235469,12.4960938 C118.235469,12.2080078 118.049922,12.0175781 117.600703,11.9101562 L116.917109,11.7490234 C115.94543,11.5195312 115.505977,10.9140625 115.505977,10.2158203 C115.505977,9.33203125 116.301875,8.54589844 117.390742,8.54589844 C118.792109,8.54589844 119.270625,9.45898438 119.363398,9.97167969 L118.357539,10.2548828 C118.279414,9.90820312 118.020625,9.5078125 117.390742,9.5078125 C117.014766,9.5078125 116.65832,9.75195312 116.65832,10.1132812 C116.65832,10.4257812 116.897578,10.6015625 117.19543,10.6650391 L117.927852,10.8212891 C118.904414,11.03125 119.441523,11.6660156 119.441523,12.4277344 C119.441523,13.2529297 118.821406,14.0927734 117.493281,14.0927734 Z" id="Quickbooks" fill="#322D47"></path>
                <path d="M62.6015625,27.0625 C61.375,27.0625 60.4804688,26.1757812 60.390625,25.2890625 L61.0078125,25.1171875 C61.1445312,25.8476562 61.828125,26.4453125 62.6015625,26.4453125 C63.3085938,26.4453125 64.0078125,26.0820312 64.0078125,25.3007812 C64.0078125,24.5625 63.3476562,24.28125 62.890625,24.1914062 L62.0585938,24.0273438 C61.7773438,23.9726562 61.3242188,23.8125 60.9960938,23.4960938 C60.7382812,23.2460938 60.5585938,22.8945312 60.5585938,22.4140625 C60.5585938,21.34375 61.5039062,20.6679688 62.546875,20.6679688 C63.8945312,20.6679688 64.484375,21.4960938 64.6132812,22.1679688 L64.015625,22.3554688 C63.90625,21.9101562 63.5039062,21.2734375 62.53125,21.2734375 C61.859375,21.2734375 61.21875,21.7109375 61.21875,22.3828125 C61.21875,22.84375 61.4960938,23.2460938 62.1289062,23.3710938 L62.9257812,23.5273438 C63.3632812,23.6132812 63.7929688,23.75 64.140625,24.0742188 C64.5703125,24.4726562 64.6796875,24.9609375 64.6796875,25.2265625 C64.6796875,26.3515625 63.7734375,27.0625 62.6015625,27.0625 Z M66.0185,29.1054688 L67.1239687,26.7109375 L65.1825625,22.7304688 L65.8974062,22.7304688 L67.4638125,26.03125 L68.9442812,22.7304688 L69.6161562,22.7304688 L66.6942812,29.1054688 L66.0185,29.1054688 Z M73.5018437,27 L73.5018437,24.515625 C73.5018437,23.7539062 73.1112187,23.21875 72.31825,23.21875 C71.5760625,23.21875 71.0448125,23.8046875 71.0448125,24.5664062 L71.0448125,27 L70.4237187,27 L70.4237187,22.7304688 L71.0330937,22.7304688 L71.0330937,23.5117188 C71.3729375,22.9335938 71.8768437,22.6484375 72.50575,22.6484375 C73.5565312,22.6484375 74.1229375,23.3632812 74.1229375,24.359375 L74.1229375,27 L73.5018437,27 Z M75.7625312,24.84375 C75.7625312,25.7304688 76.3406562,26.5195312 77.3094062,26.5195312 C78.2508125,26.5195312 78.6101875,25.8164062 78.7351875,25.4921875 L79.3133125,25.6875 C79.1219062,26.328125 78.4226875,27.0742188 77.3015937,27.0742188 C76.0633125,27.0742188 75.1258125,26.15625 75.1258125,24.8789062 C75.1258125,23.5820312 76.1219062,22.6523438 77.3289375,22.6523438 C78.3250312,22.6523438 79.1140937,23.2929688 79.289875,24.015625 L78.7156562,24.203125 C78.618,23.8710938 78.1922187,23.2070312 77.3055,23.2070312 C76.39925,23.2070312 75.7625312,23.9492188 75.7625312,24.84375 Z M82.6159375,29.1054688 L83.7214062,26.7109375 L81.78,22.7304688 L82.4948437,22.7304688 L84.06125,26.03125 L85.5417187,22.7304688 L86.2135937,22.7304688 L83.2917187,29.1054688 L82.6159375,29.1054688 Z M88.751625,27.0742188 C87.51725,27.0742188 86.5563125,26.0976562 86.5563125,24.8789062 C86.5563125,23.6171875 87.5094375,22.6523438 88.76725,22.6523438 C90.001625,22.6523438 90.970375,23.6210938 90.970375,24.8476562 C90.970375,26.109375 90.001625,27.0742188 88.751625,27.0742188 Z M88.76725,26.5195312 C89.6813125,26.5195312 90.3336562,25.7695312 90.3336562,24.8789062 C90.3336562,23.9804688 89.6813125,23.203125 88.751625,23.203125 C87.82975,23.203125 87.1930312,23.953125 87.1930312,24.8476562 C87.1930312,25.7460938 87.8375625,26.5195312 88.76725,26.5195312 Z M92.5943437,22.7304688 L92.5943437,25.2148438 C92.5943437,25.9765625 92.9849687,26.5117188 93.7779375,26.5117188 C94.520125,26.5117188 95.051375,25.9257812 95.051375,25.1640625 L95.051375,22.7304688 L95.6685625,22.7304688 L95.6685625,27 L95.0591875,27 L95.0591875,26.21875 C94.7193437,26.796875 94.2193437,27.0820312 93.5904375,27.0820312 C92.5474687,27.0820312 91.97325,26.3671875 91.97325,25.3710938 L91.97325,22.7304688 L92.5943437,22.7304688 Z M97.648,22.7304688 L97.648,23.5742188 C97.9722187,22.9140625 98.538625,22.6601562 99.0269062,22.6601562 C99.0659687,22.6601562 99.1870625,22.6640625 99.2378437,22.6757812 L99.2378437,23.3359375 C99.1519062,23.3242188 99.0776875,23.3203125 98.9956562,23.3203125 C97.9839375,23.3203125 97.6597187,24.1523438 97.6597187,24.9140625 L97.6597187,27 L97.038625,27 L97.038625,22.7304688 L97.648,22.7304688 Z M107.251406,20.734375 L107.251406,27 L106.532656,27 L102.794375,21.6679688 L102.794375,27 L102.145937,27 L102.145937,20.734375 L102.90375,20.734375 L106.602969,26 L106.602969,20.734375 L107.251406,20.734375 Z M110.668344,27.0742188 C109.433969,27.0742188 108.473031,26.0976562 108.473031,24.8789062 C108.473031,23.6171875 109.426156,22.6523438 110.683969,22.6523438 C111.918344,22.6523438 112.887094,23.6210938 112.887094,24.8476562 C112.887094,26.109375 111.918344,27.0742188 110.668344,27.0742188 Z M110.683969,26.5195312 C111.598031,26.5195312 112.250375,25.7695312 112.250375,24.8789062 C112.250375,23.9804688 111.598031,23.203125 110.668344,23.203125 C109.746469,23.203125 109.10975,23.953125 109.10975,24.8476562 C109.10975,25.7460938 109.754281,26.5195312 110.683969,26.5195312 Z M116.854812,27 L116.854812,24.4921875 C116.854812,23.7890625 116.518875,23.21875 115.75325,23.21875 C115.00325,23.21875 114.56575,23.8710938 114.56575,24.5664062 L114.56575,27 L113.944656,27 L113.944656,22.7304688 L114.554031,22.7304688 L114.554031,23.46875 C114.901687,22.953125 115.296219,22.6484375 115.936844,22.6484375 C116.554031,22.6484375 117.042312,22.9453125 117.304031,23.5078125 C117.6595,22.9492188 118.132156,22.6523438 118.804031,22.6523438 C119.839187,22.6523438 120.382156,23.3710938 120.382156,24.359375 L120.382156,27 L119.761062,27 L119.761062,24.515625 C119.761062,23.8007812 119.436844,23.2226562 118.655594,23.2226562 C117.897781,23.2226562 117.468094,23.8320312 117.468094,24.5429688 L117.468094,27 L116.854812,27 Z M123.580344,27.0742188 C122.345969,27.0742188 121.385031,26.0976562 121.385031,24.8789062 C121.385031,23.6171875 122.338156,22.6523438 123.595969,22.6523438 C124.830344,22.6523438 125.799094,23.6210938 125.799094,24.8476562 C125.799094,26.109375 124.830344,27.0742188 123.580344,27.0742188 Z M123.595969,26.5195312 C124.510031,26.5195312 125.162375,25.7695312 125.162375,24.8789062 C125.162375,23.9804688 124.510031,23.203125 123.580344,23.203125 C122.658469,23.203125 122.02175,23.953125 122.02175,24.8476562 C122.02175,25.7460938 122.666281,26.5195312 123.595969,26.5195312 Z M126.548062,24.859375 C126.548062,23.7460938 127.341031,22.6523438 128.548062,22.6523438 C129.376187,22.6523438 129.860562,23.1210938 130.204312,23.625 L130.204312,20.484375 L130.825406,20.484375 L130.825406,27 L130.212125,27 L130.216031,26.0859375 C129.884,26.6328125 129.372281,27.0625 128.548062,27.0625 C127.325406,27.0625 126.548062,26.0273438 126.548062,24.859375 Z M128.676969,26.515625 C129.579312,26.515625 130.212125,25.7265625 130.212125,24.8515625 C130.212125,24.0039062 129.563687,23.2109375 128.676969,23.2109375 C127.739469,23.2109375 127.184781,23.9492188 127.184781,24.875 C127.184781,25.7539062 127.739469,26.515625 128.676969,26.515625 Z M134.995219,22.7304688 L134.995219,23.5742188 C135.319437,22.9140625 135.885844,22.6601562 136.374125,22.6601562 C136.413187,22.6601562 136.534281,22.6640625 136.585062,22.6757812 L136.585062,23.3359375 C136.499125,23.3242188 136.424906,23.3203125 136.342875,23.3203125 C135.331156,23.3203125 135.006937,24.1523438 135.006937,24.9140625 L135.006937,27 L134.385844,27 L134.385844,22.7304688 L134.995219,22.7304688 Z M141.005906,25.0585938 L137.548875,25.0585938 C137.59575,25.890625 138.244187,26.5195312 139.080125,26.5195312 C139.709031,26.5195312 140.201219,26.2109375 140.400437,25.6054688 L140.955125,25.78125 C140.705125,26.609375 139.931687,27.0742188 139.087937,27.0742188 C137.84575,27.0742188 136.919969,26.0859375 136.919969,24.859375 C136.919969,23.6953125 137.798875,22.6523438 138.998094,22.6523438 C140.318406,22.6523438 141.013719,23.5976562 141.013719,24.8476562 C141.013719,24.9179688 141.009812,24.9882812 141.005906,25.0585938 Z M137.556687,24.5273438 L140.380906,24.5273438 C140.298875,23.75 139.810594,23.203125 138.998094,23.203125 C138.255906,23.203125 137.65825,23.8164062 137.556687,24.5273438 Z M142.372062,24.84375 C142.372062,25.7304688 142.950187,26.5195312 143.918937,26.5195312 C144.860344,26.5195312 145.219719,25.8164062 145.344719,25.4921875 L145.922844,25.6875 C145.731437,26.328125 145.032219,27.0742188 143.911125,27.0742188 C142.672844,27.0742188 141.735344,26.15625 141.735344,24.8789062 C141.735344,23.5820312 142.731437,22.6523438 143.938469,22.6523438 C144.934562,22.6523438 145.723625,23.2929688 145.899406,24.015625 L145.325187,24.203125 C145.227531,23.8710938 144.80175,23.2070312 143.915031,23.2070312 C143.008781,23.2070312 142.372062,23.9492188 142.372062,24.84375 Z M148.804625,27.0742188 C147.57025,27.0742188 146.609312,26.0976562 146.609312,24.8789062 C146.609312,23.6171875 147.562437,22.6523438 148.82025,22.6523438 C150.054625,22.6523438 151.023375,23.6210938 151.023375,24.8476562 C151.023375,26.109375 150.054625,27.0742188 148.804625,27.0742188 Z M148.82025,26.5195312 C149.734312,26.5195312 150.386656,25.7695312 150.386656,24.8789062 C150.386656,23.9804688 149.734312,23.203125 148.804625,23.203125 C147.88275,23.203125 147.246031,23.953125 147.246031,24.8476562 C147.246031,25.7460938 147.890562,26.5195312 148.82025,26.5195312 Z M152.690312,22.7304688 L152.690312,23.5742188 C153.014531,22.9140625 153.580937,22.6601562 154.069219,22.6601562 C154.108281,22.6601562 154.229375,22.6640625 154.280156,22.6757812 L154.280156,23.3359375 C154.194219,23.3242188 154.12,23.3203125 154.037969,23.3203125 C153.02625,23.3203125 152.702031,24.1523438 152.702031,24.9140625 L152.702031,27 L152.080937,27 L152.080937,22.7304688 L152.690312,22.7304688 Z M154.618969,24.859375 C154.618969,23.7460938 155.411937,22.6523438 156.618969,22.6523438 C157.447094,22.6523438 157.931469,23.1210938 158.275219,23.625 L158.275219,20.484375 L158.896312,20.484375 L158.896312,27 L158.283031,27 L158.286937,26.0859375 C157.954906,26.6328125 157.443187,27.0625 156.618969,27.0625 C155.396312,27.0625 154.618969,26.0273438 154.618969,24.859375 Z M156.747875,26.515625 C157.650219,26.515625 158.283031,25.7265625 158.283031,24.8515625 C158.283031,24.0039062 157.634594,23.2109375 156.747875,23.2109375 C155.810375,23.2109375 155.255687,23.9492188 155.255687,24.875 C155.255687,25.7539062 155.810375,26.515625 156.747875,26.515625 Z M163.082781,25.7851562 C163.082781,26.5664062 162.387469,27.0703125 161.567156,27.0703125 C160.407,27.0703125 160.00075,26.2734375 159.942156,25.8007812 L160.512469,25.6523438 C160.582781,26.0429688 160.87575,26.5234375 161.56325,26.5234375 C162.020281,26.5234375 162.449969,26.2695312 162.449969,25.8203125 C162.449969,25.4453125 162.06325,25.2539062 161.75075,25.1835938 L161.098406,25.0390625 C160.571062,24.921875 160.035906,24.65625 160.035906,23.9257812 C160.035906,22.984375 160.946062,22.6523438 161.481219,22.6523438 C162.578875,22.6523438 162.949969,23.3867188 163.020281,23.796875 L162.453875,23.9570312 C162.387469,23.6796875 162.160906,23.1992188 161.485125,23.1992188 C161.016375,23.1992188 160.660906,23.5078125 160.660906,23.8828125 C160.660906,24.25 160.957781,24.3867188 161.278094,24.4609375 L161.9695,24.6171875 C162.528094,24.7421875 163.082781,25.1015625 163.082781,25.7851562 Z M167.951812,27 L167.268219,27 L165.838531,22.7304688 L166.498687,22.7304688 L167.619781,26.2734375 L167.623687,26.2734375 L168.783844,22.7304688 L169.41275,22.7304688 L170.580719,26.2773438 L170.584625,26.2773438 L171.717437,22.7304688 L172.361969,22.7304688 L170.924469,27 L170.229156,27 L169.096344,23.5273438 L169.092437,23.5273438 L167.951812,27 Z M173.071875,21.1992188 C173.071875,20.9375 173.278906,20.7304688 173.540625,20.7304688 C173.802344,20.7304688 174.009375,20.9375 174.009375,21.1992188 C174.009375,21.4570312 173.802344,21.6679688 173.540625,21.6679688 C173.278906,21.6679688 173.071875,21.4570312 173.071875,21.1992188 Z M173.228125,22.7304688 L173.853125,22.7304688 L173.853125,27 L173.228125,27 L173.228125,22.7304688 Z M176.715375,27.0351562 C175.789594,27.0351562 175.504437,26.5195312 175.504437,25.8945312 L175.504437,23.28125 L174.715375,23.28125 L174.715375,22.7304688 L175.504437,22.7304688 L175.504437,21.4960938 L176.125531,21.4960938 L176.125531,22.7304688 L177.207562,22.7304688 L177.207562,23.28125 L176.125531,23.28125 L176.125531,25.8789062 C176.125531,26.265625 176.352094,26.4804688 176.816937,26.4804688 C176.953656,26.4804688 177.106,26.46875 177.203656,26.4492188 L177.203656,26.9648438 C177.078656,27.0078125 176.82475,27.0351562 176.715375,27.0351562 Z M181.300281,27 L181.300281,24.515625 C181.300281,23.7539062 180.909656,23.21875 180.116687,23.21875 C179.3745,23.21875 178.84325,23.8046875 178.84325,24.5664062 L178.84325,27 L178.222156,27 L178.222156,20.484375 L178.84325,20.484375 L178.84325,23.4960938 C179.183094,22.9335938 179.675281,22.6484375 180.304187,22.6484375 C181.354969,22.6484375 181.921375,23.3632812 181.921375,24.359375 L181.921375,27 L181.300281,27 Z M61.0078125,41.1054688 L62.1132812,38.7109375 L60.171875,34.7304688 L60.8867188,34.7304688 L62.453125,38.03125 L63.9335938,34.7304688 L64.6054688,34.7304688 L61.6835938,41.1054688 L61.0078125,41.1054688 Z M67.1435,39.0742188 C65.909125,39.0742188 64.9481875,38.0976562 64.9481875,36.8789062 C64.9481875,35.6171875 65.9013125,34.6523438 67.159125,34.6523438 C68.3935,34.6523438 69.36225,35.6210938 69.36225,36.8476562 C69.36225,38.109375 68.3935,39.0742188 67.1435,39.0742188 Z M67.159125,38.5195312 C68.0731875,38.5195312 68.7255312,37.7695312 68.7255312,36.8789062 C68.7255312,35.9804688 68.0731875,35.203125 67.1435,35.203125 C66.221625,35.203125 65.5849062,35.953125 65.5849062,36.8476562 C65.5849062,37.7460938 66.2294375,38.5195312 67.159125,38.5195312 Z M70.9862187,34.7304688 L70.9862187,37.2148438 C70.9862187,37.9765625 71.3768437,38.5117188 72.1698125,38.5117188 C72.912,38.5117188 73.44325,37.9257812 73.44325,37.1640625 L73.44325,34.7304688 L74.0604375,34.7304688 L74.0604375,39 L73.4510625,39 L73.4510625,38.21875 C73.1112187,38.796875 72.6112187,39.0820312 71.9823125,39.0820312 C70.9393437,39.0820312 70.365125,38.3671875 70.365125,37.3710938 L70.365125,34.7304688 L70.9862187,34.7304688 Z M76.039875,34.7304688 L76.039875,35.5742188 C76.3640937,34.9140625 76.9305,34.6601562 77.4187812,34.6601562 C77.4578437,34.6601562 77.5789375,34.6640625 77.6297187,34.6757812 L77.6297187,35.3359375 C77.5437812,35.3242188 77.4695625,35.3203125 77.3875312,35.3203125 C76.3758125,35.3203125 76.0515937,36.1523438 76.0515937,36.9140625 L76.0515937,39 L75.4305,39 L75.4305,34.7304688 L76.039875,34.7304688 Z M85.9948437,39.1523438 L85.1784375,38.4140625 C84.6510937,38.8242188 83.983125,39.0664062 83.2370312,39.0664062 C81.43625,39.0664062 80.0964062,37.671875 80.0964062,35.8867188 C80.0964062,34.0898438 81.4401562,32.671875 83.2526562,32.671875 C85.0534375,32.671875 86.3932812,34.0664062 86.3932812,35.8515625 C86.3932812,36.6679688 86.1120312,37.4101562 85.6315625,37.9765625 L86.4245312,38.65625 L85.9948437,39.1523438 Z M80.78,35.8515625 C80.78,37.2617188 81.795625,38.4492188 83.2526562,38.4492188 C83.8073437,38.4492188 84.3034375,38.2773438 84.6979687,37.9882812 L83.5026562,36.9414062 L83.93625,36.453125 L85.1510937,37.5546875 C85.5065625,37.1054688 85.7135937,36.5234375 85.7135937,35.8867188 C85.7135937,34.4765625 84.6940625,33.2851562 83.2370312,33.2851562 C81.795625,33.2851562 80.78,34.4492188 80.78,35.8515625 Z M88.0719375,34.7304688 L88.0719375,37.2148438 C88.0719375,37.9765625 88.4625625,38.5117188 89.2555312,38.5117188 C89.9977187,38.5117188 90.5289687,37.9257812 90.5289687,37.1640625 L90.5289687,34.7304688 L91.1461562,34.7304688 L91.1461562,39 L90.5367812,39 L90.5367812,38.21875 C90.1969375,38.796875 89.6969375,39.0820312 89.0680312,39.0820312 C88.0250625,39.0820312 87.4508437,38.3671875 87.4508437,37.3710938 L87.4508437,34.7304688 L88.0719375,34.7304688 Z M92.3599687,33.1992188 C92.3599687,32.9375 92.567,32.7304688 92.8287187,32.7304688 C93.0904375,32.7304688 93.2974687,32.9375 93.2974687,33.1992188 C93.2974687,33.4570312 93.0904375,33.6679688 92.8287187,33.6679688 C92.567,33.6679688 92.3599687,33.4570312 92.3599687,33.1992188 Z M92.5162187,34.7304688 L93.1412187,34.7304688 L93.1412187,39 L92.5162187,39 L92.5162187,34.7304688 Z M94.8355,36.84375 C94.8355,37.7304688 95.413625,38.5195312 96.382375,38.5195312 C97.3237812,38.5195312 97.6831562,37.8164062 97.8081562,37.4921875 L98.3862812,37.6875 C98.194875,38.328125 97.4956562,39.0742188 96.3745625,39.0742188 C95.1362812,39.0742188 94.1987812,38.15625 94.1987812,36.8789062 C94.1987812,35.5820312 95.194875,34.6523438 96.4019062,34.6523438 C97.398,34.6523438 98.1870625,35.2929688 98.3628437,36.015625 L97.788625,36.203125 C97.6909687,35.8710938 97.2651875,35.2070312 96.3784687,35.2070312 C95.4722187,35.2070312 94.8355,35.9492188 94.8355,36.84375 Z M100.006344,36.8632812 L100.006344,39 L99.38525,39 L99.38525,32.4804688 L100.006344,32.4804688 L100.006344,36.4648438 L102.037594,34.7304688 L102.924312,34.7304688 L100.674312,36.6484375 L103.029781,39 L102.154781,39 L100.033687,36.8632812 L100.006344,36.8632812 Z M107.977969,36.859375 C107.977969,38.0117188 107.188906,39.0625 105.96625,39.0625 C105.165469,39.0625 104.661562,38.6601562 104.31,38.1015625 L104.31,39 L103.700625,39 L103.700625,32.484375 L104.321719,32.484375 L104.321719,35.6445312 C104.673281,35.1054688 105.169375,34.6523438 105.96625,34.6523438 C107.188906,34.6523438 107.977969,35.7460938 107.977969,36.859375 Z M105.845156,38.515625 C106.786562,38.515625 107.34125,37.7734375 107.34125,36.875 C107.34125,35.984375 106.786562,35.2109375 105.845156,35.2109375 C104.962344,35.2109375 104.313906,35.9921875 104.313906,36.8515625 C104.313906,37.7265625 104.935,38.515625 105.845156,38.515625 Z M110.92225,39.0742188 C109.687875,39.0742188 108.726937,38.0976562 108.726937,36.8789062 C108.726937,35.6171875 109.680062,34.6523438 110.937875,34.6523438 C112.17225,34.6523438 113.141,35.6210938 113.141,36.8476562 C113.141,38.109375 112.17225,39.0742188 110.92225,39.0742188 Z M110.937875,38.5195312 C111.851937,38.5195312 112.504281,37.7695312 112.504281,36.8789062 C112.504281,35.9804688 111.851937,35.203125 110.92225,35.203125 C110.000375,35.203125 109.363656,35.953125 109.363656,36.8476562 C109.363656,37.7460938 110.008187,38.5195312 110.937875,38.5195312 Z M116.081375,39.0742188 C114.847,39.0742188 113.886062,38.0976562 113.886062,36.8789062 C113.886062,35.6171875 114.839187,34.6523438 116.097,34.6523438 C117.331375,34.6523438 118.300125,35.6210938 118.300125,36.8476562 C118.300125,38.109375 117.331375,39.0742188 116.081375,39.0742188 Z M116.097,38.5195312 C117.011062,38.5195312 117.663406,37.7695312 117.663406,36.8789062 C117.663406,35.9804688 117.011062,35.203125 116.081375,35.203125 C115.1595,35.203125 114.522781,35.953125 114.522781,36.8476562 C114.522781,37.7460938 115.167312,38.5195312 116.097,38.5195312 Z M119.978781,36.8632812 L119.978781,39 L119.357687,39 L119.357687,32.4804688 L119.978781,32.4804688 L119.978781,36.4648438 L122.010031,34.7304688 L122.89675,34.7304688 L120.64675,36.6484375 L123.002219,39 L122.127219,39 L120.006125,36.8632812 L119.978781,36.8632812 Z M126.372281,37.7851562 C126.372281,38.5664062 125.676969,39.0703125 124.856656,39.0703125 C123.6965,39.0703125 123.29025,38.2734375 123.231656,37.8007812 L123.801969,37.6523438 C123.872281,38.0429688 124.16525,38.5234375 124.85275,38.5234375 C125.309781,38.5234375 125.739469,38.2695312 125.739469,37.8203125 C125.739469,37.4453125 125.35275,37.2539062 125.04025,37.1835938 L124.387906,37.0390625 C123.860562,36.921875 123.325406,36.65625 123.325406,35.9257812 C123.325406,34.984375 124.235562,34.6523438 124.770719,34.6523438 C125.868375,34.6523438 126.239469,35.3867188 126.309781,35.796875 L125.743375,35.9570312 C125.676969,35.6796875 125.450406,35.1992188 124.774625,35.1992188 C124.305875,35.1992188 123.950406,35.5078125 123.950406,35.8828125 C123.950406,36.25 124.247281,36.3867188 124.567594,36.4609375 L125.259,36.6171875 C125.817594,36.7421875 126.372281,37.1015625 126.372281,37.7851562 Z M132.206156,36.5351562 L132.206156,36.2460938 C132.206156,35.5625 131.82725,35.2109375 131.120219,35.2109375 C130.397562,35.2109375 130.065531,35.671875 129.995219,36.0820312 L129.397562,35.953125 C129.432719,35.59375 129.905375,34.6523438 131.135844,34.6523438 C132.038187,34.6523438 132.4835,35.0625 132.690531,35.5351562 C132.792094,35.765625 132.819437,36.1054688 132.819437,36.2421875 L132.819437,37.4453125 C132.819437,38.1679688 132.82725,38.5742188 132.88975,39 L132.26475,39 C132.229594,38.8164062 132.210062,38.4648438 132.210062,38.25 L132.206156,38.25 C131.866312,38.7734375 131.405375,39.0742188 130.76475,39.0742188 C129.901469,39.0742188 129.331156,38.5351562 129.331156,37.8164062 L129.331156,37.7695312 C129.331156,36.84375 130.260844,36.5351562 131.022562,36.5351562 L132.206156,36.5351562 Z M132.206156,37.0507812 L131.01475,37.0507812 C130.553812,37.0507812 129.960062,37.1953125 129.960062,37.765625 C129.960062,38.25 130.366312,38.5234375 130.874125,38.5234375 C131.635844,38.5234375 132.206156,37.9804688 132.206156,37.1992188 L132.206156,37.0507812 Z M134.459031,36.84375 C134.459031,37.7304688 135.037156,38.5195312 136.005906,38.5195312 C136.947312,38.5195312 137.306687,37.8164062 137.431687,37.4921875 L138.009812,37.6875 C137.818406,38.328125 137.119187,39.0742188 135.998094,39.0742188 C134.759812,39.0742188 133.822312,38.15625 133.822312,36.8789062 C133.822312,35.5820312 134.818406,34.6523438 136.025437,34.6523438 C137.021531,34.6523438 137.810594,35.2929688 137.986375,36.015625 L137.412156,36.203125 C137.3145,35.8710938 136.888719,35.2070312 136.002,35.2070312 C135.09575,35.2070312 134.459031,35.9492188 134.459031,36.84375 Z M139.333,36.84375 C139.333,37.7304688 139.911125,38.5195312 140.879875,38.5195312 C141.821281,38.5195312 142.180656,37.8164062 142.305656,37.4921875 L142.883781,37.6875 C142.692375,38.328125 141.993156,39.0742188 140.872062,39.0742188 C139.633781,39.0742188 138.696281,38.15625 138.696281,36.8789062 C138.696281,35.5820312 139.692375,34.6523438 140.899406,34.6523438 C141.8955,34.6523438 142.684562,35.2929688 142.860344,36.015625 L142.286125,36.203125 C142.188469,35.8710938 141.762687,35.2070312 140.875969,35.2070312 C139.969719,35.2070312 139.333,35.9492188 139.333,36.84375 Z M145.765562,39.0742188 C144.531187,39.0742188 143.57025,38.0976562 143.57025,36.8789062 C143.57025,35.6171875 144.523375,34.6523438 145.781187,34.6523438 C147.015562,34.6523438 147.984312,35.6210938 147.984312,36.8476562 C147.984312,38.109375 147.015562,39.0742188 145.765562,39.0742188 Z M145.781187,38.5195312 C146.69525,38.5195312 147.347594,37.7695312 147.347594,36.8789062 C147.347594,35.9804688 146.69525,35.203125 145.765562,35.203125 C144.843687,35.203125 144.206969,35.953125 144.206969,36.8476562 C144.206969,37.7460938 144.8515,38.5195312 145.781187,38.5195312 Z M149.608281,34.7304688 L149.608281,37.2148438 C149.608281,37.9765625 149.998906,38.5117188 150.791875,38.5117188 C151.534062,38.5117188 152.065312,37.9257812 152.065312,37.1640625 L152.065312,34.7304688 L152.6825,34.7304688 L152.6825,39 L152.073125,39 L152.073125,38.21875 C151.733281,38.796875 151.233281,39.0820312 150.604375,39.0820312 C149.561406,39.0820312 148.987187,38.3671875 148.987187,37.3710938 L148.987187,34.7304688 L149.608281,34.7304688 Z M157.130687,39 L157.130687,36.515625 C157.130687,35.7539062 156.740062,35.21875 155.947094,35.21875 C155.204906,35.21875 154.673656,35.8046875 154.673656,36.5664062 L154.673656,39 L154.052562,39 L154.052562,34.7304688 L154.661937,34.7304688 L154.661937,35.5117188 C155.001781,34.9335938 155.505687,34.6484375 156.134594,34.6484375 C157.185375,34.6484375 157.751781,35.3632812 157.751781,36.359375 L157.751781,39 L157.130687,39 Z M160.516375,39.0351562 C159.590594,39.0351562 159.305437,38.5195312 159.305437,37.8945312 L159.305437,35.28125 L158.516375,35.28125 L158.516375,34.7304688 L159.305437,34.7304688 L159.305437,33.4960938 L159.926531,33.4960938 L159.926531,34.7304688 L161.008562,34.7304688 L161.008562,35.28125 L159.926531,35.28125 L159.926531,37.8789062 C159.926531,38.265625 160.153094,38.4804688 160.617937,38.4804688 C160.754656,38.4804688 160.907,38.46875 161.004656,38.4492188 L161.004656,38.9648438 C160.879656,39.0078125 160.62575,39.0351562 160.516375,39.0351562 Z" id="SyncyourNomodrecordswithyourQuickbooksaccount" fill="#322D47"></path>
            </g>
            <path d="M20,208.5 L224,208.5" id="Line-2" stroke="#E1E4EB" stroke-linecap="square"></path>
            <rect id="Rectangle" fill="url(#linearGradient-3)" x="10" y="149" width="220" height="111"></rect>
        </g>
    </g>
</svg>