<?xml version="1.0" encoding="UTF-8"?>
<svg width="336px" height="260px" viewBox="0 0 336 260" version="1.1" xmlns="http://www.w3.org/2000/svg" xmlns:xlink="http://www.w3.org/1999/xlink">
    <!-- Generator: Sketch 57.1 (83088) - https://sketch.com -->
    <title>Payments</title>
    <desc>Created with Sketch.</desc>
    <defs>
        <rect id="path-1" x="0" y="0" width="336" height="260" rx="10"></rect>
        <circle id="path-3" cx="10" cy="11" r="10"></circle>
    </defs>
    <g id="Payments" stroke="none" stroke-width="1" fill="none" fill-rule="evenodd">
        <g>
            <g id="Angela-May-+-£125.00-+-Paid-Mask">
                <mask id="mask-2" fill="white">
                    <use xlink:href="#path-1"></use>
                </mask>
                <use id="Mask" fill="#FFFFFF" xlink:href="#path-1"></use>
            </g>
            <path d="M29.1123047,26.4462891 C29.1123047,28.3398438 27.7177734,29.9394531 25.0722656,29.9394531 L23.1171875,29.9394531 L23.1171875,34 L21.3945312,34 L21.3945312,23.0351562 L25.2773438,23.0351562 C28.0253906,23.0351562 29.1123047,24.7441406 29.1123047,26.4462891 Z M27.3623047,26.4873047 C27.3623047,25.6601562 26.9248047,24.6279297 25.1269531,24.6279297 L23.1171875,24.6279297 L23.1171875,28.3603516 L25.1269531,28.3603516 C26.7880859,28.3603516 27.3623047,27.3486328 27.3623047,26.4873047 Z M36.3429219,34 L34.7091328,34 C34.6681172,33.8154297 34.6407734,33.2412109 34.6407734,32.9746094 C34.0938984,33.8837891 33.1437031,34.1298828 32.4464375,34.1298828 C30.9835469,34.1298828 29.9239766,33.2207031 29.9239766,31.9287109 L29.9239766,31.8466797 C29.9239766,30.1103516 31.7286641,29.5634766 33.0343281,29.5634766 L33.9571797,29.5634766 C34.4630391,29.5634766 34.6544453,29.296875 34.6544453,28.9345703 C34.6544453,28.3398438 34.1690937,27.7929688 33.1847187,27.7929688 C32.2755391,27.7929688 31.6739766,28.3125 31.5509297,29.0302734 L30.0401875,28.6884766 C30.1017109,28.0595703 30.6759297,27.1162109 31.7149922,26.6582031 C32.1456562,26.4667969 32.6856953,26.3710938 33.2325703,26.3710938 C34.4903828,26.3710938 35.5362812,26.8154297 36.0353047,27.9023438 C36.219875,28.2988281 36.2882344,28.7294922 36.2882344,29.2353516 L36.2882344,32.796875 C36.2882344,33.2548828 36.3019062,33.6513672 36.3429219,34 Z M34.6407734,30.9716797 L34.6407734,30.7324219 L33.0274922,30.7324219 C32.3985859,30.7324219 31.5919453,31.0742188 31.5919453,31.7783203 C31.5919453,32.3867188 32.0772969,32.796875 32.7813984,32.796875 C33.9161641,32.796875 34.6407734,32.0996094 34.6407734,30.9716797 Z M37.1956094,26.5283203 L39.096,26.5283203 L41.4202187,31.4228516 L43.5735391,26.5283203 L45.3782266,26.5283203 L40.2512734,37.6845703 L38.4670937,37.6845703 L40.5247109,33.1591797 L37.1956094,26.5283203 Z M51.48775,29.8027344 C51.48775,28.7431641 51.0365781,27.9365234 49.8881406,27.9365234 C48.8559141,27.9365234 48.2406797,28.7089844 48.2406797,29.8369141 L48.2406797,34 L46.5727109,34 L46.5727109,26.5283203 L48.1996641,26.5283203 L48.1996641,27.5332031 C48.9174375,26.5761719 49.8402891,26.3574219 50.4350156,26.3574219 C51.5697812,26.3574219 52.3148984,26.8359375 52.7387266,27.5810547 C53.4633359,26.78125 54.1947812,26.3574219 55.3363828,26.3574219 C57.2367734,26.3574219 58.0639219,27.6904297 58.0639219,29.3857422 L58.0639219,34 L56.3959531,34 L56.3959531,29.7822266 C56.3959531,28.7226562 55.9447812,27.9365234 54.7963437,27.9365234 C53.7641172,27.9365234 53.1488828,28.6953125 53.1488828,29.8232422 L53.1488828,34 L51.48775,34 L51.48775,29.8027344 Z M61.3365312,30.7460938 C61.3775469,31.8945312 62.4302812,32.7011719 63.5308672,32.7011719 C64.4332109,32.7011719 65.2125078,32.3457031 65.5132891,31.4433594 L66.9214922,31.8740234 C66.4976641,33.3095703 65.0347734,34.1367188 63.551375,34.1367188 C61.3502031,34.1367188 59.6343828,32.46875 59.6343828,30.2539062 C59.6343828,28.1279297 61.2271562,26.3710938 63.3941484,26.3710938 C65.7252031,26.3710938 67.0445391,27.984375 67.0445391,30.2333984 C67.0445391,30.4042969 67.0377031,30.5751953 67.0171953,30.7460938 L61.3365312,30.7460938 Z M63.4078203,27.7998047 C62.3824297,27.7998047 61.5757891,28.4697266 61.4253984,29.4951172 L65.3492266,29.4951172 C65.2945391,28.421875 64.4400469,27.7998047 63.4078203,27.7998047 Z M73.7146094,29.8164062 C73.7146094,28.75 73.2155859,27.9501953 72.0671484,27.9501953 C71.0075781,27.9501953 70.3376562,28.7089844 70.3376562,29.8369141 L70.3376562,34 L68.6696875,34 L68.6696875,26.5283203 L70.2966406,26.5283203 L70.2966406,27.5332031 C71.0144141,26.5693359 71.9919531,26.3710938 72.5798437,26.3710938 C74.4802344,26.3710938 75.3825781,27.6972656 75.3825781,29.3994141 L75.3825781,34 L73.7146094,34 L73.7146094,29.8164062 Z M81.6083125,28.0253906 L79.7079219,28.0253906 L79.7079219,31.59375 C79.7079219,32.2363281 80.0292109,32.5576172 80.8631953,32.5576172 C81.0135859,32.5576172 81.2186641,32.5439453 81.5399531,32.5029297 L81.5399531,33.9179688 C81.0819453,34.0546875 80.5487422,34.0683594 80.3436641,34.0683594 C78.8739375,34.0683594 78.0467891,33.5009766 78.0467891,31.6826172 L78.0467891,28.0253906 L76.5975703,28.0253906 L76.5975703,26.5283203 L78.0467891,26.5283203 L78.0467891,24.2109375 L79.7079219,24.2109375 L79.7079219,26.5283203 L81.6083125,26.5283203 L81.6083125,28.0253906 Z M85.7080703,34.1298828 C83.6777969,34.1298828 82.8506484,32.7900391 82.7549453,31.9560547 L84.1836562,31.5800781 C84.320375,32.2158203 84.8262344,32.7695312 85.6807266,32.7695312 C86.3711562,32.7695312 86.7471328,32.4140625 86.7471328,31.8945312 C86.7471328,31.4912109 86.4873672,31.2246094 85.8584609,31.0742188 L84.9014297,30.8486328 C83.5410781,30.5273438 82.9258437,29.6796875 82.9258437,28.7021484 C82.9258437,27.4648438 84.0401016,26.3642578 85.5645156,26.3642578 C87.5264297,26.3642578 88.1963516,27.6425781 88.3262344,28.3603516 L86.9180312,28.7568359 C86.8086562,28.2714844 86.4463516,27.7109375 85.5645156,27.7109375 C85.0381484,27.7109375 84.539125,28.0527344 84.539125,28.5585938 C84.539125,28.9960938 84.8740859,29.2421875 85.2910781,29.3310547 L86.3164687,29.5498047 C87.6836562,29.84375 88.4356094,30.7324219 88.4356094,31.7988281 C88.4356094,32.9541016 87.5674453,34.1298828 85.7080703,34.1298828 Z" fill="#322D47" fill-rule="nonzero"></path>
            <path d="M62.3617168,140.5 L62.3617168,197.087107" id="Line-4" stroke="#E1E4EB" stroke-linecap="square"></path>
            <g id="Icon" transform="translate(52.000000, 158.000000)">
                <mask id="mask-4" fill="white">
                    <use xlink:href="#path-3"></use>
                </mask>
                <use id="Mask" fill="#E8FFD5" xlink:href="#path-3"></use>
                <g id="sort" transform="translate(6.000000, 7.000000)" fill="#64A42F" fill-rule="nonzero">
                    <path d="M0.333333333,3.33333333 L7.66666667,3.33333333 C7.76666667,3.33333333 7.83333333,3.3 7.9,3.23333333 C7.96666667,3.16666667 8,3.06666667 8,3 C8,2.9 7.96666667,2.83333333 7.9,2.76666667 L7.9,2.76666667 L5.23333333,0.1 C5.16666667,0.0333333333 5.1,0 5,0 C4.9,0 4.83333333,0.0333333333 4.76666667,0.1 L4.3,0.566666667 C4.23333333,0.633333333 4.2,0.733333333 4.2,0.8 C4.2,0.9 4.23333333,0.966666667 4.3,1.03333333 L4.96666667,1.7 C5.06666667,1.8 5,2 4.83333333,2 L0.333333333,2 C0.166666667,2 0,2.16666667 0,2.33333333 L0,3 C0,3.16666667 0.166666667,3.33333333 0.333333333,3.33333333 Z" id="Path"></path>
                    <path d="M7.66666667,4.66666667 L0.333333333,4.66666667 C0.233333333,4.66666667 0.166666667,4.7 0.1,4.76666667 C0.0333333333,4.83333333 0,4.93333333 0,5 C0,5.1 0.0333333333,5.16666667 0.1,5.23333333 L0.1,5.23333333 L2.76666667,7.9 C2.83333333,7.96666667 2.9,8 3,8 C3.1,8 3.16666667,7.96666667 3.23333333,7.9 L3.7,7.43333333 C3.76666667,7.36666667 3.8,7.26666667 3.8,7.2 C3.8,7.1 3.76666667,7.03333333 3.7,6.96666667 L3.03333333,6.3 C2.93333333,6.2 3,6 3.16666667,6 L7.66666667,6 C7.83333333,6 8,5.83333333 8,5.66666667 L8,5 C8,4.83333333 7.83333333,4.66666667 7.66666667,4.66666667 Z" id="Path"></path>
                </g>
                <g id="Group-5" transform="translate(29.000000, 0.000000)" fill-rule="nonzero">
                    <path d="M4.80859375,2.734375 L4.80859375,3.625 L1.78125,3.625 L1.78125,5.3671875 L4.53515625,5.3671875 L4.53515625,6.2578125 L1.78125,6.2578125 L1.78125,8.10546875 L4.83984375,8.10546875 L4.83984375,9 L0.796875,9 L0.796875,2.734375 L4.80859375,2.734375 Z M6.45990625,9 L5.37396875,9 L6.9950625,6.83984375 L5.4325625,4.73046875 L6.52240625,4.73046875 L7.54584375,6.14453125 L8.581,4.73046875 L9.65521875,4.73046875 L8.0888125,6.82421875 L9.706,9 L8.61225,9 L7.534125,7.51171875 L6.45990625,9 Z M12.1385625,9.07421875 C10.88075,9.07421875 9.91590625,8.11328125 9.91590625,6.85546875 C9.91590625,5.63671875 10.88075,4.640625 12.1541875,4.640625 C13.2127812,4.640625 13.9510625,5.296875 14.13075,6.01953125 L13.2674687,6.30078125 C13.1698125,5.96875 12.8573125,5.50390625 12.1502812,5.50390625 C11.4549687,5.50390625 10.8924687,6.03125 10.8924687,6.83984375 C10.8924687,7.63671875 11.4315312,8.20703125 12.1580937,8.20703125 C12.8885625,8.20703125 13.1580937,7.72265625 13.2830937,7.39453125 L14.1541875,7.67578125 C13.9627812,8.32421875 13.302625,9.07421875 12.1385625,9.07421875 Z M17.914875,6.609375 C17.914875,6 17.6297187,5.54296875 16.9734687,5.54296875 C16.368,5.54296875 15.9851875,5.9765625 15.9851875,6.62109375 L15.9851875,9 L15.0320625,9 L15.0320625,2.484375 L15.9851875,2.484375 L15.9851875,5.26953125 C16.3953437,4.75 16.9305,4.640625 17.2664375,4.640625 C18.352375,4.640625 18.868,5.3984375 18.868,6.37109375 L18.868,9 L17.914875,9 L17.914875,6.609375 Z M23.4568125,9 L22.5232187,9 C22.4997812,8.89453125 22.4841562,8.56640625 22.4841562,8.4140625 C22.1716562,8.93359375 21.6286875,9.07421875 21.23025,9.07421875 C20.3943125,9.07421875 19.7888437,8.5546875 19.7888437,7.81640625 L19.7888437,7.76953125 C19.7888437,6.77734375 20.8200937,6.46484375 21.5661875,6.46484375 L22.0935312,6.46484375 C22.3825937,6.46484375 22.4919687,6.3125 22.4919687,6.10546875 C22.4919687,5.765625 22.214625,5.453125 21.652125,5.453125 C21.1325937,5.453125 20.7888437,5.75 20.7185312,6.16015625 L19.85525,5.96484375 C19.8904062,5.60546875 20.2185312,5.06640625 20.8122812,4.8046875 C21.058375,4.6953125 21.3669687,4.640625 21.6794687,4.640625 C22.3982187,4.640625 22.995875,4.89453125 23.2810312,5.515625 C23.3865,5.7421875 23.4255625,5.98828125 23.4255625,6.27734375 L23.4255625,8.3125 C23.4255625,8.57421875 23.433375,8.80078125 23.4568125,9 Z M22.4841562,7.26953125 L22.4841562,7.1328125 L21.5622812,7.1328125 C21.2029062,7.1328125 20.7419687,7.328125 20.7419687,7.73046875 C20.7419687,8.078125 21.0193125,8.3125 21.4216562,8.3125 C22.0700937,8.3125 22.4841562,7.9140625 22.4841562,7.26953125 Z M27.4870312,6.609375 C27.4870312,6 27.201875,5.54296875 26.545625,5.54296875 C25.9401562,5.54296875 25.5573437,5.9765625 25.5573437,6.62109375 L25.5573437,9 L24.6042187,9 L24.6042187,4.73046875 L25.5339062,4.73046875 L25.5339062,5.3046875 C25.9440625,4.75390625 26.5026562,4.640625 26.8385937,4.640625 C27.9245312,4.640625 28.4401562,5.3984375 28.4401562,6.37109375 L28.4401562,9 L27.4870312,9 L27.4870312,6.609375 Z M31.4117812,9.03125 C30.1813125,9.03125 29.3336562,7.99609375 29.3336562,6.84765625 C29.3336562,5.80859375 30.1031875,4.65625 31.439125,4.65625 C31.8102187,4.65625 32.486,4.83984375 32.8336562,5.37890625 L32.8336562,4.73046875 L33.7633437,4.73046875 L33.7633437,8.9765625 C33.7633437,10.328125 32.7594375,11.1367188 31.45475,11.1367188 C30.5250625,11.1367188 29.5289687,10.6796875 29.345375,9.6953125 L30.2438125,9.44140625 C30.3336562,9.875 30.8180312,10.2851562 31.4156875,10.2851562 C32.1188125,10.2851562 32.8102187,9.91015625 32.8102187,9.015625 L32.8102187,8.3125 C32.4625625,8.8671875 31.7555312,9.03125 31.4117812,9.03125 Z M32.8258437,6.8359375 C32.8258437,6.09765625 32.3258437,5.5078125 31.5524062,5.5078125 C30.7789687,5.5078125 30.2789687,6.09765625 30.2789687,6.8359375 C30.2789687,7.5703125 30.782875,8.1796875 31.5563125,8.1796875 C32.3258437,8.1796875 32.8258437,7.56640625 32.8258437,6.8359375 Z M35.6802812,7.140625 C35.7037187,7.796875 36.3052812,8.2578125 36.9341875,8.2578125 C37.4498125,8.2578125 37.895125,8.0546875 38.067,7.5390625 L38.8716875,7.78515625 C38.6295,8.60546875 37.7935625,9.078125 36.9459062,9.078125 C35.6880937,9.078125 34.707625,8.125 34.707625,6.859375 C34.707625,5.64453125 35.6177812,4.640625 36.8560625,4.640625 C38.1880937,4.640625 38.942,5.5625 38.942,6.84765625 C38.942,6.9453125 38.9380937,7.04296875 38.926375,7.140625 L35.6802812,7.140625 Z M36.863875,5.45703125 C36.2779375,5.45703125 35.817,5.83984375 35.7310625,6.42578125 L37.97325,6.42578125 C37.942,5.8125 37.4537187,5.45703125 36.863875,5.45703125 Z M43.0844687,6.62109375 L43.0844687,9 L42.1000937,9 L42.1000937,2.734375 L44.4555625,2.734375 C46.0297812,2.734375 46.588375,3.69140625 46.588375,4.66796875 C46.588375,5.46484375 46.1782187,6.12890625 45.354,6.421875 L46.7407187,9 L45.6547812,9 L44.3891562,6.62109375 L43.0844687,6.62109375 Z M44.3500937,5.73828125 C45.2993125,5.73828125 45.588375,5.1796875 45.588375,4.69140625 C45.588375,4.21484375 45.3774375,3.64453125 44.3500937,3.64453125 L43.0844687,3.64453125 L43.0844687,5.73828125 L44.3500937,5.73828125 Z M51.0560937,9 L50.1225,9 C50.0990625,8.89453125 50.0834375,8.56640625 50.0834375,8.4140625 C49.7709375,8.93359375 49.2279687,9.07421875 48.8295312,9.07421875 C47.9935937,9.07421875 47.388125,8.5546875 47.388125,7.81640625 L47.388125,7.76953125 C47.388125,6.77734375 48.419375,6.46484375 49.1654687,6.46484375 L49.6928125,6.46484375 C49.981875,6.46484375 50.09125,6.3125 50.09125,6.10546875 C50.09125,5.765625 49.8139062,5.453125 49.2514062,5.453125 C48.731875,5.453125 48.388125,5.75 48.3178125,6.16015625 L47.4545312,5.96484375 C47.4896875,5.60546875 47.8178125,5.06640625 48.4115625,4.8046875 C48.6576562,4.6953125 48.96625,4.640625 49.27875,4.640625 C49.9975,4.640625 50.5951562,4.89453125 50.8803125,5.515625 C50.9857812,5.7421875 51.0248437,5.98828125 51.0248437,6.27734375 L51.0248437,8.3125 C51.0248437,8.57421875 51.0326562,8.80078125 51.0560937,9 Z M50.0834375,7.26953125 L50.0834375,7.1328125 L49.1615625,7.1328125 C48.8021875,7.1328125 48.34125,7.328125 48.34125,7.73046875 C48.34125,8.078125 48.6185937,8.3125 49.0209375,8.3125 C49.669375,8.3125 50.0834375,7.9140625 50.0834375,7.26953125 Z M54.5785,5.5859375 L53.4925625,5.5859375 L53.4925625,7.625 C53.4925625,7.9921875 53.6761562,8.17578125 54.1527187,8.17578125 C54.2386562,8.17578125 54.3558437,8.16796875 54.5394375,8.14453125 L54.5394375,8.953125 C54.2777187,9.03125 53.9730312,9.0390625 53.8558437,9.0390625 C53.016,9.0390625 52.5433437,8.71484375 52.5433437,7.67578125 L52.5433437,5.5859375 L51.7152187,5.5859375 L51.7152187,4.73046875 L52.5433437,4.73046875 L52.5433437,3.40625 L53.4925625,3.40625 L53.4925625,4.73046875 L54.5785,4.73046875 L54.5785,5.5859375 Z M56.143875,7.140625 C56.1673125,7.796875 56.768875,8.2578125 57.3977812,8.2578125 C57.9134062,8.2578125 58.3587187,8.0546875 58.5305937,7.5390625 L59.3352812,7.78515625 C59.0930937,8.60546875 58.2571562,9.078125 57.4095,9.078125 C56.1516875,9.078125 55.1712187,8.125 55.1712187,6.859375 C55.1712187,5.64453125 56.081375,4.640625 57.3196562,4.640625 C58.6516875,4.640625 59.4055937,5.5625 59.4055937,6.84765625 C59.4055937,6.9453125 59.4016875,7.04296875 59.3899687,7.140625 L56.143875,7.140625 Z M57.3274687,5.45703125 C56.7415312,5.45703125 56.2805937,5.83984375 56.1946562,6.42578125 L58.4368437,6.42578125 C58.4055937,5.8125 57.9173125,5.45703125 57.3274687,5.45703125 Z" id="ExchangeRate" fill="#322D47"></path>
                    <path d="M5.55761719,16.0932617 L5.00732422,16.2880859 C4.86376953,15.84375 4.34423828,14.9960938 3.1171875,14.9960938 C1.859375,14.9960938 0.970703125,16.0454102 0.970703125,17.2451172 C0.970703125,18.4892578 1.79101562,19.5180664 3.13085938,19.5180664 C4.10498047,19.5180664 4.99707031,18.9199219 5.06201172,17.8808594 L2.77197266,17.8808594 L2.77197266,17.3476562 L5.67382812,17.3476562 L5.67382812,17.5561523 C5.67382812,18.9404297 4.71337891,20.0546875 3.1171875,20.0546875 C1.45263672,20.0546875 0.375976562,18.8447266 0.375976562,17.2758789 C0.375976562,15.6967773 1.56201172,14.4628906 3.13769531,14.4628906 C4.48095703,14.4628906 5.26708984,15.2353516 5.55761719,16.0932617 Z M6.72566016,20 L6.72566016,14.5175781 L8.69441016,14.5175781 C9.69245703,14.5175781 10.458082,14.9995117 10.458082,15.8950195 C10.458082,16.1445312 10.3931406,16.8110352 9.62409766,17.1494141 C10.4375742,17.3579102 10.7041758,18.0756836 10.7041758,18.4960938 C10.7041758,19.5488281 9.79841406,20 8.7661875,20 L6.72566016,20 Z M7.29646094,15.0439453 L7.29646094,16.9545898 L8.602125,16.9545898 C9.50788672,16.9545898 9.87360937,16.5 9.87360937,15.9633789 C9.87360937,15.293457 9.27546484,15.0439453 8.64655859,15.0439453 L7.29646094,15.0439453 Z M7.29646094,17.4672852 L7.29646094,19.4736328 L8.77985937,19.4736328 C9.37116797,19.4736328 10.1128672,19.234375 10.1128672,18.4550781 C10.1128672,17.6757812 9.30622656,17.4672852 8.67390234,17.4672852 L7.29646094,17.4672852 Z M12.39175,17.8569336 L12.39175,20 L11.8175312,20 L11.8175312,14.5175781 L13.6495625,14.5175781 C14.9859883,14.5175781 15.5738789,15.3105469 15.5738789,16.1616211 C15.5738789,17.0981445 14.8868672,17.8569336 13.5572773,17.8569336 L12.39175,17.8569336 Z M12.39175,15.0576172 L12.39175,17.3237305 L13.5777852,17.3237305 C14.5860859,17.3237305 14.9894062,16.7358398 14.9894062,16.1821289 C14.9894062,15.6455078 14.6783711,15.0576172 13.6051289,15.0576172 L12.39175,15.0576172 Z M19.1267617,20 L19.1267617,15.1259766 L17.8074258,15.9121094 L17.5476602,15.4746094 L19.1404336,14.5175781 L19.6975625,14.5175781 L19.6975625,20 L19.1267617,20 Z M22.8813047,16.2983398 L26.124957,16.2983398 L26.124957,16.8417969 L22.8813047,16.8417969 L22.8813047,16.2983398 Z M22.8813047,17.8842773 L26.124957,17.8842773 L26.124957,18.4208984 L22.8813047,18.4208984 L22.8813047,17.8842773 Z M29.3086992,14.5175781 L32.7369219,14.5175781 L32.7369219,15.0507812 L29.882918,15.0507812 L29.882918,16.9477539 L32.4942461,16.9477539 L32.4942461,17.4775391 L29.882918,17.4775391 L29.882918,19.4667969 L32.7642656,19.4667969 L32.7642656,20 L29.3086992,20 L29.3086992,14.5175781 Z M37.9620937,14.5175781 L37.9620937,17.8569336 C37.9620937,19.2412109 37.2067227,20.0546875 35.9010586,20.0546875 C34.5714687,20.0546875 33.8434414,19.1865234 33.8434414,17.8945312 L33.8434414,14.5175781 L34.4176602,14.5175781 L34.4176602,17.8671875 C34.4176602,19.0600586 35.0773281,19.5146484 35.9249844,19.5146484 C36.8683437,19.5146484 37.387875,18.9199219 37.387875,17.8979492 L37.387875,14.5175781 L37.9620937,14.5175781 Z M42.6882422,20 L41.068125,17.7817383 L39.9504492,17.7817383 L39.9504492,20 L39.3762305,20 L39.3762305,14.5175781 L41.2766211,14.5175781 C42.6096289,14.5175781 43.2009375,15.2626953 43.2009375,16.1171875 C43.2009375,17.050293 42.5105078,17.5766602 41.6970312,17.6860352 L43.3855078,20 L42.6882422,20 Z M39.9504492,17.2587891 L41.2253516,17.2587891 C42.2165625,17.2587891 42.6164648,16.6914062 42.6164648,16.1376953 C42.6164648,15.5976562 42.2815039,15.0576172 41.2356055,15.0576172 L39.9504492,15.0576172 L39.9504492,17.2587891 Z M47.2015742,20 L47.2015742,15.1259766 L45.8822383,15.9121094 L45.6224727,15.4746094 L47.2152461,14.5175781 L47.772375,14.5175781 L47.772375,20 L47.2015742,20 Z M48.9711797,19.559082 C48.9711797,19.2822266 49.1967656,19.0566406 49.4736211,19.0566406 C49.7504766,19.0566406 49.9760625,19.2822266 49.9760625,19.559082 C49.9760625,19.8359375 49.7504766,20.0615234 49.4736211,20.0615234 C49.1967656,20.0615234 48.9711797,19.8359375 48.9711797,19.559082 Z M52.8633437,20.0581055 C51.3560195,20.0581055 50.5938125,18.6362305 50.5938125,17.2792969 C50.5938125,15.9155273 51.3731094,14.4628906 52.8872695,14.4628906 C54.3945937,14.4628906 55.1533828,15.8916016 55.1533828,17.2485352 C55.1533828,18.6088867 54.3809219,20.0581055 52.8633437,20.0581055 Z M52.8701797,14.9926758 C51.6875625,14.9926758 51.1851211,16.2641602 51.1851211,17.2485352 C51.1851211,18.2329102 51.6875625,19.5283203 52.8770156,19.5283203 C54.0596328,19.5283203 54.5620742,18.2602539 54.5620742,17.2792969 C54.5620742,16.2983398 54.0527969,14.9926758 52.8701797,14.9926758 Z M57.8663477,20.0581055 C56.9298242,20.0581055 55.9420312,19.5454102 55.9420312,18.5029297 C55.9420312,17.925293 56.3453516,17.4091797 57.0904687,17.1733398 C56.410293,16.9785156 56.0719141,16.387207 56.0719141,15.9189453 C56.0719141,14.965332 57.059707,14.4628906 57.8663477,14.4628906 C58.6900781,14.4628906 59.6641992,14.9448242 59.6641992,15.9189453 C59.6641992,16.4384766 59.2916406,16.9785156 58.6422266,17.1733398 C59.3975977,17.3886719 59.7906641,17.925293 59.7906641,18.5029297 C59.7906641,19.5078125 58.8199609,20.0581055 57.8663477,20.0581055 Z M57.8663477,14.9790039 C57.3468164,14.9790039 56.6392969,15.300293 56.6392969,15.9394531 C56.6392969,16.6298828 57.394668,16.9477539 57.8663477,16.9477539 C58.3380273,16.9477539 59.0968164,16.6264648 59.0968164,15.949707 C59.0968164,15.3071289 58.3995508,14.9790039 57.8663477,14.9790039 Z M57.8663477,19.5351562 C58.4439844,19.5351562 59.2096094,19.2207031 59.2096094,18.5029297 C59.2096094,17.7817383 58.4576562,17.4399414 57.8663477,17.4399414 C57.2921289,17.4399414 56.5230859,17.7749023 56.5230859,18.4858398 C56.5230859,19.2275391 57.2716211,19.5351562 57.8663477,19.5351562 Z M63.7922031,20 L63.2350742,20 L63.2350742,18.684082 L60.3810703,18.684082 L60.3810703,18.0551758 L63.0675937,14.5175781 L63.7922031,14.5175781 L63.7922031,18.1884766 L64.7116367,18.1884766 L64.7116367,18.684082 L63.7922031,18.684082 L63.7922031,20 Z M60.8937656,18.1884766 L63.2350742,18.1884766 L63.2350742,15.1157227 L60.8937656,18.1884766 Z M68.5217695,20 L67.9646406,20 L67.9646406,18.684082 L65.1106367,18.684082 L65.1106367,18.0551758 L67.7971602,14.5175781 L68.5217695,14.5175781 L68.5217695,18.1884766 L69.4412031,18.1884766 L69.4412031,18.684082 L68.5217695,18.684082 L68.5217695,20 Z M65.623332,18.1884766 L67.9646406,18.1884766 L67.9646406,15.1157227 L65.623332,18.1884766 Z M72.3079766,20.0581055 C70.8006523,20.0581055 70.0384453,18.6362305 70.0384453,17.2792969 C70.0384453,15.9155273 70.8177422,14.4628906 72.3319023,14.4628906 C73.8392266,14.4628906 74.5980156,15.8916016 74.5980156,17.2485352 C74.5980156,18.6088867 73.8255547,20.0581055 72.3079766,20.0581055 Z M72.3148125,14.9926758 C71.1321953,14.9926758 70.6297539,16.2641602 70.6297539,17.2485352 C70.6297539,18.2329102 71.1321953,19.5283203 72.3216484,19.5283203 C73.5042656,19.5283203 74.006707,18.2602539 74.006707,17.2792969 C74.006707,16.2983398 73.4974297,14.9926758 72.3148125,14.9926758 Z" id="GBP1=EUR1.08440" fill="#8E90AB"></path>
                </g>
            </g>
            <g id="Value" transform="translate(20.000000, 93.000000)">
                <rect id="Rectangle" stroke="#E1E4EB" x="-0.5" y="-0.5" width="295" height="52" rx="4"></rect>
                <path d="M4,0 L89,0 L89,0 L89,51 L4,51 C1.790861,51 2.705415e-16,49.209139 0,47 L0,4 C-2.705415e-16,1.790861 1.790861,4.05812251e-16 4,0 Z" id="Rectangle" fill="#F1F3F7"></path>
                <path d="M89,0 L89,51" id="Line-3" stroke="#E1E4EB" stroke-linecap="square"></path>
                <g id="Drop-down" transform="translate(11.000000, 15.000000)" fill-rule="nonzero">
                    <g id="united-kingdom">
                        <circle id="Oval" fill="#F0F0F0" cx="10.5" cy="10.5" r="10.5"></circle>
                        <g id="Group" transform="translate(0.328125, 0.328125)" fill="#0052B4">
                            <path d="M1.84242188,3.77926172 C1.01763867,4.85235352 0.39571875,6.08917969 0.0335917969,7.43281055 L5.4959707,7.43281055 L1.84242188,3.77926172 Z" id="Path"></path>
                            <path d="M20.3101582,7.43281055 C19.9480312,6.0892207 19.3260703,4.85239453 18.5013281,3.77930273 L14.8478613,7.43281055 L20.3101582,7.43281055 Z" id="Path"></path>
                            <path d="M0.0335917969,12.9110625 C0.395759766,14.2546523 1.01767969,15.4914785 1.84242188,16.5645293 L5.49584766,12.9110625 L0.0335917969,12.9110625 L0.0335917969,12.9110625 Z" id="Path"></path>
                            <path d="M16.5644883,1.84246289 C15.4913965,1.01767969 14.2546113,0.395759766 12.9109805,0.0335917969 L12.9109805,5.49592969 L16.5644883,1.84246289 Z" id="Path"></path>
                            <path d="M3.77926172,18.5012871 C4.85235352,19.3260703 6.08917969,19.9479902 7.43276953,20.3101582 L7.43276953,14.8478613 L3.77926172,18.5012871 Z" id="Path"></path>
                            <path d="M7.43272852,0.0335917969 C6.08913867,0.395759766 4.8523125,1.01767969 3.77926172,1.84242188 L7.43272852,5.49588867 L7.43272852,0.0335917969 Z" id="Path"></path>
                            <path d="M12.9110215,20.3101582 C14.2546113,19.9479902 15.4914375,19.3260703 16.5644883,18.5013281 L12.9110215,14.8478613 L12.9110215,20.3101582 Z" id="Path"></path>
                            <path d="M14.8478613,12.9110625 L18.5013281,16.5645703 C19.3260703,15.4915195 19.9480312,14.2546523 20.3101582,12.9110625 L14.8478613,12.9110625 Z" id="Path"></path>
                        </g>
                        <g id="Group" fill="#D80027">
                            <path d="M20.9111191,9.13044727 L11.8696348,9.13044727 L11.8695938,9.13044727 L11.8695938,0.0888808594 C11.421252,0.030515625 10.9641738,0 10.5,0 C10.0357441,0 9.57874805,0.030515625 9.13044727,0.0888808594 L9.13044727,9.13036523 L9.13044727,9.13040625 L0.0888808594,9.13040625 C0.030515625,9.57874805 0,10.0358262 0,10.5 C0,10.9642559 0.030515625,11.421252 0.0888808594,11.8695527 L9.13036523,11.8695527 L9.13040625,11.8695527 L9.13040625,20.9111191 C9.57874805,20.9694844 10.0357441,21 10.5,21 C10.9641738,21 11.421252,20.9695254 11.8695527,20.9111191 L11.8695527,11.8696348 L11.8695527,11.8695938 L20.9111191,11.8695938 C20.9694844,11.421252 21,10.9642559 21,10.5 C21,10.0358262 20.9694844,9.57874805 20.9111191,9.13044727 Z" id="Path"></path>
                            <path d="M13.2391465,13.2391465 L13.2391465,13.2391465 L17.9246074,17.9246484 C18.1401035,17.7092344 18.3456738,17.4840176 18.5418105,17.2505566 L14.5304004,13.2391465 L13.2391465,13.2391465 L13.2391465,13.2391465 Z" id="Path"></path>
                            <path d="M7.76085352,13.2391875 L7.76077148,13.2391875 L3.07535156,17.9246074 C3.29076562,18.1401035 3.51598242,18.3456738 3.74944336,18.5418105 L7.76085352,14.5303184 L7.76085352,13.2391875 Z" id="Path"></path>
                            <path d="M7.76085352,7.76093555 L7.76085352,7.76085352 L3.07539258,3.07535156 C2.85989648,3.29076562 2.65432617,3.51598242 2.45818945,3.74944336 L6.46964063,7.76093555 L7.76085352,7.76093555 L7.76085352,7.76093555 Z" id="Path"></path>
                            <path d="M13.2391465,7.76093555 L13.2391465,7.76093555 L17.9246484,3.07539258 C17.7092344,2.85989648 17.4840176,2.65432617 17.2505566,2.45823047 L13.2391465,6.46968164 L13.2391465,7.76093555 L13.2391465,7.76093555 Z" id="Path"></path>
                        </g>
                    </g>
                    <path d="M62.8560854,11.846536 L59.8388493,14.8563313 C59.6469167,15.0478896 59.3357307,15.0478896 59.1438913,14.8563313 C58.9520362,14.6649436 58.9520362,14.354531 59.1438913,14.1631587 L61.8136794,11.4999497 L59.1439689,8.8368336 C58.9521139,8.64536834 58.9521139,8.33498673 59.1439689,8.14359894 C59.3358239,7.95213369 59.6469943,7.95213369 59.838927,8.14359894 L62.8561631,11.1534408 C62.9520906,11.2491811 63,11.3745267 63,11.4999342 C63,11.6254036 62.9519974,11.7508421 62.8560854,11.846536 Z" id="Back" fill="#322D47" transform="translate(61.000000, 11.500000) scale(-1, 1) rotate(90.000000) translate(-61.000000, -11.500000) "></path>
                    <path d="M34.0688477,9.32861328 C33.9150391,8.7265625 33.2558594,7.87841797 32.012207,7.87841797 C30.6367188,7.87841797 29.5820312,8.99023438 29.5820312,10.4667969 C29.5820312,11.9169922 30.5795898,13.0595703 32.003418,13.0595703 C33.2470703,13.0595703 33.9458008,12.3476562 34.1040039,11.4775391 L31.5727539,11.4775391 L31.5727539,10.4711914 L35.2949219,10.4711914 L35.2949219,10.8579102 C35.2949219,12.6420898 34.0600586,14.0791016 32.012207,14.0791016 C29.894043,14.0791016 28.4350586,12.5454102 28.4350586,10.4887695 C28.4350586,8.38818359 29.9819336,6.85009766 32.0253906,6.85009766 C33.7260742,6.85009766 34.8291016,7.86962891 35.1542969,8.99023438 L34.0688477,9.32861328 Z M39.2180781,6.95117188 C40.5628047,6.95117188 41.4856562,7.64990234 41.4856562,8.80566406 C41.4856562,9.18359375 41.3010859,9.95263672 40.466125,10.3305664 C41.5383906,10.6733398 41.8020625,11.4731445 41.8020625,12.0268555 C41.8020625,13.1606445 40.9890742,14 39.3015742,14 L36.5198359,14 L36.5198359,6.95117188 L39.2180781,6.95117188 Z M39.0115352,9.93505859 C39.969543,9.93505859 40.3782344,9.46484375 40.3782344,8.91992188 C40.3782344,8.38378906 40.0134883,7.94873047 39.0686641,7.94873047 L37.6184687,7.94873047 L37.6184687,9.93505859 L39.0115352,9.93505859 Z M39.3191523,13.0024414 C40.2376094,13.0024414 40.6990352,12.5541992 40.6990352,11.9433594 C40.6990352,11.3588867 40.2639766,10.90625 39.2532344,10.90625 L37.6228633,10.90625 L37.6228633,13.0024414 L39.3191523,13.0024414 Z M48.0411367,9.14404297 C48.0411367,10.3613281 47.1446523,11.3896484 45.4439687,11.3896484 L44.1871328,11.3896484 L44.1871328,14 L43.0797109,14 L43.0797109,6.95117188 L45.5758047,6.95117188 C47.3424062,6.95117188 48.0411367,8.04980469 48.0411367,9.14404297 Z M46.9161367,9.17041016 C46.9161367,8.63867188 46.6348867,7.97509766 45.479125,7.97509766 L44.1871328,7.97509766 L44.1871328,10.3745117 L45.479125,10.3745117 C46.5469961,10.3745117 46.9161367,9.72412109 46.9161367,9.17041016 Z" id="GBP" fill="#322D47"></path>
                </g>
                <path d="M245.345707,11.9511719 L246.193852,11.9511719 L243.460453,16.0249023 L243.460453,19 L242.713383,19 L242.713383,16.0292969 L239.984379,11.9511719 L240.872074,11.9511719 L243.100102,15.3217773 L245.345707,11.9511719 Z M248.222965,19.0834961 C246.834293,19.0834961 245.753238,17.9848633 245.753238,16.6137695 C245.753238,15.1943359 246.825504,14.1088867 248.240543,14.1088867 C249.629215,14.1088867 250.719059,15.1987305 250.719059,16.5786133 C250.719059,17.9980469 249.629215,19.0834961 248.222965,19.0834961 Z M248.240543,18.4594727 C249.268863,18.4594727 250.00275,17.6157227 250.00275,16.6137695 C250.00275,15.6030273 249.268863,14.7285156 248.222965,14.7285156 C247.185855,14.7285156 246.469547,15.5722656 246.469547,16.5786133 C246.469547,17.5893555 247.194645,18.4594727 248.240543,18.4594727 Z M252.546023,14.1967773 L252.546023,16.9916992 C252.546023,17.8486328 252.985477,18.4506836 253.877566,18.4506836 C254.712527,18.4506836 255.310184,17.7915039 255.310184,16.9345703 L255.310184,14.1967773 L256.00452,14.1967773 L256.00452,19 L255.318973,19 L255.318973,18.1210938 C254.936648,18.7714844 254.374148,19.0922852 253.666629,19.0922852 C252.493289,19.0922852 251.847293,18.2880859 251.847293,17.1674805 L251.847293,14.1967773 L252.546023,14.1967773 Z M262.141359,19.0703125 C260.761477,19.0703125 259.755129,18.0727539 259.654055,17.0751953 L260.348391,16.8818359 C260.502199,17.7036133 261.271242,18.3759766 262.141359,18.3759766 C262.93677,18.3759766 263.723391,17.9672852 263.723391,17.0883789 C263.723391,16.2578125 262.980715,15.9414062 262.466555,15.840332 L261.53052,15.6557617 C261.214113,15.5942383 260.704348,15.4140625 260.335207,15.0581055 C260.045168,14.7768555 259.84302,14.3813477 259.84302,13.8408203 C259.84302,12.6367188 260.906496,11.8764648 262.079836,11.8764648 C263.595949,11.8764648 264.259523,12.8081055 264.404543,13.5639648 L263.73218,13.7749023 C263.609133,13.2739258 263.156496,12.5576172 262.062258,12.5576172 C261.306398,12.5576172 260.585695,13.0498047 260.585695,13.8056641 C260.585695,14.3242188 260.897707,14.7768555 261.609621,14.9174805 L262.506105,15.0932617 C262.998293,15.1899414 263.481691,15.34375 263.872805,15.7084961 C264.356203,16.1567383 264.47925,16.7060547 264.47925,17.0048828 C264.47925,18.2705078 263.459719,19.0703125 262.141359,19.0703125 Z M269.975648,16.815918 L266.086488,16.815918 C266.139223,17.7519531 266.868715,18.4594727 267.809145,18.4594727 C268.516664,18.4594727 269.070375,18.1123047 269.294496,17.4311523 L269.91852,17.6289062 C269.63727,18.5605469 268.767152,19.0834961 267.817934,19.0834961 C266.420473,19.0834961 265.378969,17.9716797 265.378969,16.5917969 C265.378969,15.2822266 266.367738,14.1088867 267.716859,14.1088867 C269.202211,14.1088867 269.984438,15.1723633 269.984438,16.5786133 C269.984438,16.6577148 269.980043,16.7368164 269.975648,16.815918 Z M266.095277,16.2182617 L269.272523,16.2182617 C269.180238,15.34375 268.630922,14.7285156 267.716859,14.7285156 C266.881898,14.7285156 266.209535,15.418457 266.095277,16.2182617 Z M274.610719,19 L274.610719,16.2050781 C274.610719,15.3481445 274.171266,14.7460938 273.279176,14.7460938 C272.444215,14.7460938 271.846559,15.4052734 271.846559,16.262207 L271.846559,19 L271.147828,19 L271.147828,14.1967773 L271.833375,14.1967773 L271.833375,15.0756836 C272.215699,14.425293 272.782594,14.1044922 273.490113,14.1044922 C274.672242,14.1044922 275.309449,14.9086914 275.309449,16.0292969 L275.309449,19 L274.610719,19 Z M276.442078,16.5917969 C276.442078,15.3393555 277.334168,14.1088867 278.692078,14.1088867 C279.623719,14.1088867 280.168641,14.6362305 280.555359,15.203125 L280.555359,11.6699219 L281.25409,11.6699219 L281.25409,19 L280.564148,19 L280.568543,17.9716797 C280.195008,18.5869141 279.619324,19.0703125 278.692078,19.0703125 C277.31659,19.0703125 276.442078,17.9057617 276.442078,16.5917969 Z M278.837098,18.4550781 C279.852234,18.4550781 280.564148,17.5673828 280.564148,16.5830078 C280.564148,15.6293945 279.834656,14.7373047 278.837098,14.7373047 C277.78241,14.7373047 277.158387,15.5678711 277.158387,16.609375 C277.158387,17.5981445 277.78241,18.4550781 278.837098,18.4550781 Z" id="YouSend" fill="#8E90AB" fill-rule="nonzero"></path>
                <path d="M218.421516,36.046875 C218.421516,37.7695312 217.266242,39 215.584602,39 L210.191047,39 L210.191047,37.5097656 C211.107063,37.0722656 211.961555,36.1289062 211.961555,35.0488281 C211.961555,34.8027344 211.927375,34.5703125 211.879523,34.3310547 L210.259406,34.3310547 L210.259406,32.9091797 L211.407844,32.9091797 C211.182258,32.3076172 210.970344,31.6923828 210.970344,31.0429688 C210.970344,29.1425781 212.556281,27.8847656 214.381477,27.8847656 C216.281867,27.8847656 217.72425,29.0537109 217.744758,30.8037109 L216.069953,31.0908203 C216.056281,30.2089844 215.427375,29.4707031 214.401984,29.4707031 C213.465461,29.4707031 212.747688,30.1474609 212.747688,31.0908203 C212.747688,31.7128906 212.986945,32.3007812 213.226203,32.9091797 L216.254523,32.9091797 L216.254523,34.3310547 L213.691047,34.3310547 C213.718391,34.515625 213.738898,34.6933594 213.738898,34.8847656 C213.738898,35.7871094 213.431281,36.6621094 212.399055,37.4482422 L215.28382,37.4482422 C216.288703,37.4482422 216.767219,36.6279297 216.767219,35.9033203 L218.421516,36.046875 Z M219.780063,31.3642578 L218.987094,30.0517578 L222.323031,28.0351562 L223.963656,28.0351562 L223.963656,39 L222.241,39 L222.241,29.8876953 L219.780063,31.3642578 Z M226.32025,40.5039062 C227.058531,40.3535156 227.591734,39.6904297 227.605406,38.9384766 C227.482359,39.0273438 227.338805,39.0410156 227.19525,39.0410156 C226.57318,39.0410156 226.142516,38.5830078 226.142516,37.9746094 C226.142516,37.3183594 226.675719,36.8740234 227.311461,36.8740234 C228.172789,36.8740234 228.617125,37.5849609 228.617125,38.3779297 C228.617125,39.7929688 227.783141,41.0644531 226.32025,41.2832031 L226.32025,40.5039062 Z M234.15243,39.1230469 C232.197352,39.1230469 230.173914,38.0839844 230.173914,36.0126953 C230.173914,34.8984375 230.884852,33.7910156 232.217859,33.3466797 L232.217859,33.3398438 C231.124109,32.9775391 230.406336,31.9521484 230.406336,30.8994141 C230.406336,29.0263672 232.354578,27.8779297 234.15243,27.8779297 C236.018641,27.8779297 237.905359,29.0058594 237.905359,30.8994141 C237.905359,31.8837891 237.18075,32.9570312 236.100672,33.3398438 L236.100672,33.3466797 C237.440516,33.7910156 238.144617,34.8984375 238.144617,36.0126953 C238.144617,38.0429688 236.059656,39.1230469 234.15243,39.1230469 Z M232.11532,31.0224609 C232.11532,31.9863281 233.051844,32.6699219 234.15243,32.6699219 C235.348719,32.6699219 236.189539,31.9726562 236.189539,31.0224609 C236.189539,30.0585938 235.24618,29.375 234.145594,29.375 C232.956141,29.375 232.11532,30.0517578 232.11532,31.0224609 Z M231.889734,35.8417969 C231.889734,36.8398438 232.880945,37.6328125 234.15243,37.6328125 C235.423914,37.6328125 236.421961,36.921875 236.421961,35.8417969 C236.421961,34.8232422 235.389734,34.0576172 234.145594,34.0576172 C232.874109,34.0576172 231.889734,34.7822266 231.889734,35.8417969 Z M239.530508,38.5283203 C239.51,37.2841797 240.056875,35.7939453 242.141836,34.5703125 L243.837148,33.5722656 C244.835195,32.984375 245.498281,32.3623047 245.498281,31.3164062 C245.498281,30.3183594 244.732656,29.4638672 243.468008,29.4638672 C242.524648,29.4638672 241.895742,29.9423828 241.594961,30.5234375 C241.403555,30.8925781 241.383047,31.3164062 241.376211,31.6923828 L239.633047,31.4599609 C239.598867,29.9013672 240.78832,27.8779297 243.495352,27.8779297 C245.88793,27.8779297 247.275625,29.5185547 247.275625,31.2890625 C247.275625,32.5878906 246.51,33.8251953 245.23168,34.5703125 L243.22875,35.7392578 C242.832266,35.9716797 241.895742,36.5253906 241.670156,37.4414062 L247.371328,37.4414062 L247.371328,39 L239.537344,39 L239.530508,38.5283203 Z M253.391984,39.1298828 C250.62343,39.1298828 248.80507,36.6621094 248.80507,33.5175781 C248.80507,30.3798828 250.657609,27.8847656 253.426164,27.8847656 C256.194719,27.8847656 258.019914,30.3457031 258.019914,33.4902344 C258.019914,36.6279297 256.167375,39.1298828 253.391984,39.1298828 Z M253.391984,29.4707031 C251.662492,29.4707031 250.58925,31.2753906 250.58925,33.4902344 C250.58925,35.6982422 251.689836,37.5439453 253.426164,37.5439453 C255.162492,37.5439453 256.235734,35.71875 256.235734,33.5175781 C256.235734,31.3232422 255.128313,29.4707031 253.391984,29.4707031 Z M259.132367,37.8583984 C259.132367,37.1679688 259.686078,36.6142578 260.356,36.6142578 C261.04643,36.6142578 261.579633,37.1679688 261.579633,37.8583984 C261.579633,38.5146484 261.04643,39.0683594 260.356,39.0683594 C259.686078,39.0683594 259.132367,38.5146484 259.132367,37.8583984 Z M266.786813,39.1230469 C265.070992,39.1230469 263.177438,38.2138672 262.842477,36.0332031 L264.496773,35.6777344 C264.68818,37.1474609 266.00068,37.5712891 266.820992,37.5712891 C267.791695,37.5712891 269.008492,36.9082031 269.008492,35.4589844 C269.008492,34.078125 267.955758,33.3398438 266.820992,33.3398438 C266.123727,33.3398438 265.358102,33.5722656 264.777047,34.2490234 L263.211617,33.640625 L264.483102,28.0351562 L270.314156,28.0351562 L270.314156,29.5869141 L265.699898,29.5869141 L265.023141,32.5332031 C265.768258,31.8769531 266.971383,31.8496094 267.224313,31.8496094 C269.445992,31.8496094 270.806344,33.3671875 270.806344,35.4248047 C270.806344,37.7626953 268.926461,39.1230469 266.786813,39.1230469 Z M276.710789,39.1298828 C273.942234,39.1298828 272.123875,36.6621094 272.123875,33.5175781 C272.123875,30.3798828 273.976414,27.8847656 276.744969,27.8847656 C279.513523,27.8847656 281.338719,30.3457031 281.338719,33.4902344 C281.338719,36.6279297 279.48618,39.1298828 276.710789,39.1298828 Z M276.710789,29.4707031 C274.981297,29.4707031 273.908055,31.2753906 273.908055,33.4902344 C273.908055,35.6982422 275.008641,37.5439453 276.744969,37.5439453 C278.481297,37.5439453 279.554539,35.71875 279.554539,33.5175781 C279.554539,31.3232422 278.447117,29.4707031 276.710789,29.4707031 Z" id="£1,820.50" fill="#322D47" fill-rule="nonzero"></path>
            </g>
            <g id="Value" transform="translate(20.000000, 194.000000)">
                <rect id="Rectangle" stroke="#E1E4EB" x="-0.5" y="-0.5" width="295" height="52" rx="4"></rect>
                <path d="M4,0 L89,0 L89,0 L89,51 L4,51 C1.790861,51 2.705415e-16,49.209139 0,47 L0,4 C-2.705415e-16,1.790861 1.790861,4.05812251e-16 4,0 Z" id="Rectangle" fill="#F1F3F7"></path>
                <path d="M89,0 L89,51" id="Line-3" stroke="#E1E4EB" stroke-linecap="square"></path>
                <g id="Drop-down" transform="translate(11.000000, 15.000000)" fill-rule="nonzero">
                    <g id="european-union">
                        <circle id="Oval" fill="#0052B4" cx="10.5" cy="10.5" r="10.5"></circle>
                        <g id="Group" transform="translate(4.101562, 4.101562)" fill="#FFDA44">
                            <polygon id="Path" points="6.39847852 0.00713671875 6.73845703 1.0534043 7.83849609 1.0534043 6.94849805 1.70001563 7.28847656 2.7462832 6.39847852 2.09963086 5.50843945 2.7462832 5.84841797 1.70001563 4.95841992 1.0534043 6.0585 1.0534043"></polygon>
                            <polygon id="Path" points="1.87908984 1.87908984 2.85936328 2.37849609 3.63722461 1.60067578 3.46508203 2.68717969 4.44531445 3.18662695 3.35876953 3.35872852 3.18666797 4.44531445 2.6872207 3.46508203 1.6007168 3.63722461 2.37857812 2.85936328"></polygon>
                            <polygon id="Path" points="0.00717773437 6.3984375 1.05344531 6.05845898 1.05344531 4.95837891 1.70001563 5.84841797 2.74632422 5.50843945 2.09963086 6.3984375 2.74632422 7.28843555 1.70001563 6.94849805 1.05344531 7.83849609 1.05344531 6.73841602"></polygon>
                            <polygon id="Path" points="1.87908984 10.9177852 2.37853711 9.93751172 1.6007168 9.15965039 2.68726172 9.33183398 3.18662695 8.35160156 3.35876953 9.43814648 4.44527344 9.61024805 3.46516406 10.1096953 3.63722461 11.1961992 2.85936328 10.4183379"></polygon>
                            <polygon id="Path" points="6.39847852 12.7897383 6.05845898 11.7434707 4.95841992 11.7434707 5.84845898 11.0968594 5.50843945 10.0506738 6.39847852 10.6972441 7.28847656 10.0506738 6.94849805 11.0968594 7.83849609 11.7434707 6.73841602 11.7434707"></polygon>
                            <polygon id="Path" points="10.9178262 10.9177852 9.93759375 10.4183789 9.15969141 11.1962402 9.33183398 10.1096543 8.35168359 9.61024805 9.4381875 9.43814648 9.61028906 8.35160156 10.1096953 9.33183398 11.1961992 9.15965039 10.4183379 9.93759375"></polygon>
                            <polygon id="Path" points="12.7897383 6.3984375 11.7434707 6.73841602 11.7434707 7.83849609 11.0968594 6.94845703 10.0506738 7.28843555 10.6972852 6.3984375 10.0506738 5.50843945 11.0969004 5.84841797 11.7434707 4.95837891 11.7434707 6.0585"></polygon>
                            <polygon id="Path" points="10.9178262 1.87908984 10.4183789 2.85936328 11.1962402 3.63722461 10.1096543 3.46504102 9.61028906 4.44527344 9.4381875 3.35872852 8.35168359 3.18658594 9.33183398 2.68717969 9.15969141 1.6007168 9.93763477 2.37853711"></polygon>
                        </g>
                    </g>
                    <path d="M62.8560854,11.846536 L59.8388493,14.8563313 C59.6469167,15.0478896 59.3357307,15.0478896 59.1438913,14.8563313 C58.9520362,14.6649436 58.9520362,14.354531 59.1438913,14.1631587 L61.8136794,11.4999497 L59.1439689,8.8368336 C58.9521139,8.64536834 58.9521139,8.33498673 59.1439689,8.14359894 C59.3358239,7.95213369 59.6469943,7.95213369 59.838927,8.14359894 L62.8561631,11.1534408 C62.9520906,11.2491811 63,11.3745267 63,11.4999342 C63,11.6254036 62.9519974,11.7508421 62.8560854,11.846536 Z" id="Back" fill="#322D47" transform="translate(61.000000, 11.500000) scale(-1, 1) rotate(90.000000) translate(-61.000000, -11.500000) "></path>
                    <path d="M33.409668,6.95117188 L33.409668,7.953125 L30.0039062,7.953125 L30.0039062,9.91308594 L33.1020508,9.91308594 L33.1020508,10.9150391 L30.0039062,10.9150391 L30.0039062,12.9936523 L33.4448242,12.9936523 L33.4448242,14 L28.8964844,14 L28.8964844,6.95117188 L33.409668,6.95117188 Z M40.2200312,11.2666016 C40.2200312,12.9189453 39.2971797,14.0878906 37.4646602,14.0878906 C35.5969844,14.0878906 34.7356562,12.8706055 34.7356562,11.3149414 L34.7356562,6.95117188 L35.8430781,6.95117188 L35.8430781,11.2709961 C35.8430781,12.378418 36.528625,13.0463867 37.4866328,13.0463867 C38.5281367,13.0463867 39.1126094,12.3125 39.1126094,11.3105469 L39.1126094,6.95117188 L40.2200312,6.95117188 L40.2200312,11.2666016 Z M42.9918203,11.3237305 L42.9918203,14 L41.8843984,14 L41.8843984,6.95117188 L44.5343008,6.95117188 C46.3052969,6.95117188 46.9337148,8.02783203 46.9337148,9.12646484 C46.9337148,10.0229492 46.4722891,10.7700195 45.545043,11.0996094 L47.1051016,14 L45.8834219,14 L44.4595937,11.3237305 L42.9918203,11.3237305 Z M44.4156484,10.3305664 C45.4835195,10.3305664 45.8087148,9.70214844 45.8087148,9.15283203 C45.8087148,8.61669922 45.5714102,7.97509766 44.4156484,7.97509766 L42.9918203,7.97509766 L42.9918203,10.3305664 L44.4156484,10.3305664 Z" id="EUR" fill="#322D47"></path>
                </g>
                <path d="M225.737555,19 L224.994879,19 L224.994879,12.6455078 L222.63941,12.6455078 L222.63941,11.9511719 L228.088629,11.9511719 L228.088629,12.6455078 L225.737555,12.6455078 L225.737555,19 Z M232.490789,19 L232.490789,16.2050781 C232.490789,15.3481445 232.051336,14.7460938 231.159246,14.7460938 C230.324285,14.7460938 229.726629,15.4052734 229.726629,16.262207 L229.726629,19 L229.027898,19 L229.027898,11.6699219 L229.726629,11.6699219 L229.726629,15.0581055 C230.108953,14.425293 230.662664,14.1044922 231.370184,14.1044922 C232.552313,14.1044922 233.18952,14.9086914 233.18952,16.0292969 L233.18952,19 L232.490789,19 Z M238.914434,16.815918 L235.025273,16.815918 C235.078008,17.7519531 235.8075,18.4594727 236.74793,18.4594727 C237.455449,18.4594727 238.00916,18.1123047 238.233281,17.4311523 L238.857305,17.6289062 C238.576055,18.5605469 237.705938,19.0834961 236.756719,19.0834961 C235.359258,19.0834961 234.317754,17.9716797 234.317754,16.5917969 C234.317754,15.2822266 235.306523,14.1088867 236.655645,14.1088867 C238.140996,14.1088867 238.923223,15.1723633 238.923223,16.5786133 C238.923223,16.6577148 238.918828,16.7368164 238.914434,16.815918 Z M235.034063,16.2182617 L238.211309,16.2182617 C238.119023,15.34375 237.569707,14.7285156 236.655645,14.7285156 C235.820684,14.7285156 235.14832,15.418457 235.034063,16.2182617 Z M240.236027,21.3686523 L241.47968,18.6748047 L239.295598,14.1967773 L240.099797,14.1967773 L241.862004,17.9101562 L243.527531,14.1967773 L244.283391,14.1967773 L240.996281,21.3686523 L240.236027,21.3686523 Z M251.914371,19 L249.831363,16.1479492 L248.394352,16.1479492 L248.394352,19 L247.65607,19 L247.65607,11.9511719 L250.09943,11.9511719 C251.813297,11.9511719 252.573551,12.9091797 252.573551,14.0078125 C252.573551,15.2075195 251.685855,15.8842773 250.639957,16.0249023 L252.810855,19 L251.914371,19 Z M248.394352,15.4755859 L250.033512,15.4755859 C251.307926,15.4755859 251.822086,14.7460938 251.822086,14.0341797 C251.822086,13.3398438 251.391422,12.6455078 250.046695,12.6455078 L248.394352,12.6455078 L248.394352,15.4755859 Z M258.021609,16.815918 L254.132449,16.815918 C254.185184,17.7519531 254.914676,18.4594727 255.855105,18.4594727 C256.562625,18.4594727 257.116336,18.1123047 257.340457,17.4311523 L257.96448,17.6289062 C257.68323,18.5605469 256.813113,19.0834961 255.863895,19.0834961 C254.466434,19.0834961 253.42493,17.9716797 253.42493,16.5917969 C253.42493,15.2822266 254.413699,14.1088867 255.76282,14.1088867 C257.248172,14.1088867 258.030398,15.1723633 258.030398,16.5786133 C258.030398,16.6577148 258.026004,16.7368164 258.021609,16.815918 Z M254.141238,16.2182617 L257.318484,16.2182617 C257.226199,15.34375 256.676883,14.7285156 255.76282,14.7285156 C254.927859,14.7285156 254.255496,15.418457 254.141238,16.2182617 Z M259.558535,16.5742188 C259.558535,17.5717773 260.208926,18.4594727 261.29877,18.4594727 C262.357852,18.4594727 262.762148,17.668457 262.902773,17.3037109 L263.553164,17.5234375 C263.337832,18.2441406 262.551211,19.0834961 261.28998,19.0834961 C259.896914,19.0834961 258.842227,18.0507812 258.842227,16.6137695 C258.842227,15.1547852 259.962832,14.1088867 261.320742,14.1088867 C262.441348,14.1088867 263.329043,14.8295898 263.526797,15.6425781 L262.880801,15.8535156 C262.770938,15.4799805 262.291934,14.7329102 261.294375,14.7329102 C260.274844,14.7329102 259.558535,15.5678711 259.558535,16.5742188 Z M268.922121,16.815918 L265.032961,16.815918 C265.085695,17.7519531 265.815188,18.4594727 266.755617,18.4594727 C267.463137,18.4594727 268.016848,18.1123047 268.240969,17.4311523 L268.864992,17.6289062 C268.583742,18.5605469 267.713625,19.0834961 266.764406,19.0834961 C265.366945,19.0834961 264.325441,17.9716797 264.325441,16.5917969 C264.325441,15.2822266 265.314211,14.1088867 266.663332,14.1088867 C268.148684,14.1088867 268.93091,15.1723633 268.93091,16.5786133 C268.93091,16.6577148 268.926516,16.7368164 268.922121,16.815918 Z M265.04175,16.2182617 L268.218996,16.2182617 C268.126711,15.34375 267.577395,14.7285156 266.663332,14.7285156 C265.828371,14.7285156 265.156008,15.418457 265.04175,16.2182617 Z M269.91852,12.4741211 C269.91852,12.1796875 270.15143,11.9467773 270.445863,11.9467773 C270.740297,11.9467773 270.973207,12.1796875 270.973207,12.4741211 C270.973207,12.7641602 270.740297,13.0014648 270.445863,13.0014648 C270.15143,13.0014648 269.91852,12.7641602 269.91852,12.4741211 Z M270.094301,14.1967773 L270.797426,14.1967773 L270.797426,19 L270.094301,19 L270.094301,14.1967773 Z M273.79773,19 L271.754273,14.1967773 L272.527711,14.1967773 L274.17566,18.222168 L275.841188,14.1967773 L276.592652,14.1967773 L274.540406,19 L273.79773,19 Z M281.62323,16.815918 L277.73407,16.815918 C277.786805,17.7519531 278.516297,18.4594727 279.456727,18.4594727 C280.164246,18.4594727 280.717957,18.1123047 280.942078,17.4311523 L281.566102,17.6289062 C281.284852,18.5605469 280.414734,19.0834961 279.465516,19.0834961 C278.068055,19.0834961 277.026551,17.9716797 277.026551,16.5917969 C277.026551,15.2822266 278.01532,14.1088867 279.364441,14.1088867 C280.849793,14.1088867 281.63202,15.1723633 281.63202,16.5786133 C281.63202,16.6577148 281.627625,16.7368164 281.62323,16.815918 Z M277.742859,16.2182617 L280.920105,16.2182617 C280.82782,15.34375 280.278504,14.7285156 279.364441,14.7285156 C278.52948,14.7285156 277.857117,15.418457 277.742859,16.2182617 Z" id="TheyReceive" fill="#8E90AB" fill-rule="nonzero"></path>
                <path d="M218.85218,39.1298828 C216.568977,39.1298828 214.299445,37.7353516 213.581672,35.2539062 L212.330695,35.2539062 L212.330695,34.0507812 L213.362922,34.0507812 C213.34925,33.8867188 213.342414,33.7226562 213.342414,33.5517578 C213.342414,33.3466797 213.356086,33.1416016 213.376594,32.9365234 L212.330695,32.9365234 L212.330695,31.7333984 L213.629523,31.7333984 C214.374641,29.4160156 216.527961,27.8779297 218.920539,27.8779297 C222.010383,27.8779297 223.623664,29.9697266 223.992805,31.4667969 L222.297492,32.0478516 C222.147102,31.3642578 221.374641,29.4980469 218.900031,29.4980469 C217.437141,29.4980469 216.035773,30.4072266 215.488898,31.7333984 L219.952766,31.7333984 L219.563117,32.9365234 L215.188117,32.9365234 C215.167609,33.1210938 215.153938,33.3056641 215.153938,33.4970703 C215.153938,33.6884766 215.167609,33.8730469 215.188117,34.0507812 L219.28968,34.0507812 L218.906867,35.2539062 L215.509406,35.2539062 C216.076789,36.6689453 217.47132,37.5166016 218.893195,37.5166016 C221.169563,37.5166016 222.092414,35.71875 222.324836,34.9121094 L224.020148,35.5 C223.66468,36.8466797 222.071906,39.1298828 218.85218,39.1298828 Z M225.467563,31.3642578 L224.674594,30.0517578 L228.010531,28.0351562 L229.651156,28.0351562 L229.651156,39 L227.9285,39 L227.9285,29.8876953 L225.467563,31.3642578 Z M232.00775,40.5039062 C232.746031,40.3535156 233.279234,39.6904297 233.292906,38.9384766 C233.169859,39.0273438 233.026305,39.0410156 232.88275,39.0410156 C232.26068,39.0410156 231.830016,38.5830078 231.830016,37.9746094 C231.830016,37.3183594 232.363219,36.8740234 232.998961,36.8740234 C233.860289,36.8740234 234.304625,37.5849609 234.304625,38.3779297 C234.304625,39.7929688 233.470641,41.0644531 232.00775,41.2832031 L232.00775,40.5039062 Z M238.766688,37.6123047 C240.872156,37.6123047 242.150477,35.7460938 242.273523,33.7636719 L242.24618,33.7636719 C241.569422,34.7480469 240.434656,35.2060547 239.33407,35.2060547 C237.331141,35.2060547 235.731531,33.7294922 235.731531,31.6240234 C235.731531,29.3476562 237.58407,27.8779297 239.757898,27.8779297 C242.519617,27.8779297 243.914148,30.3935547 243.914148,32.9365234 C243.914148,36.1152344 242.321375,39.1367188 238.800867,39.1367188 C237.925867,39.1367188 236.825281,38.9794922 236.045984,38.5419922 L236.613367,37.0585938 C237.276453,37.4550781 238.001063,37.6123047 238.766688,37.6123047 Z M239.696375,33.7021484 C240.892664,33.7021484 242.013758,32.8476562 242.013758,31.5898438 C242.013758,30.2636719 240.967859,29.4365234 239.696375,29.4365234 C238.431727,29.4365234 237.488367,30.2705078 237.488367,31.5625 C237.488367,32.8681641 238.411219,33.7021484 239.696375,33.7021484 Z M244.807852,29.59375 L244.807852,28.0351562 L252.635,28.0351562 L252.635,29.4570312 L247.60375,39 L245.621328,39 L250.652578,29.59375 L244.807852,29.59375 Z M257.541398,39.1162109 C255.162492,39.1162109 253.706438,37.5849609 253.508195,35.8076172 L255.176164,35.5068359 C255.271867,36.6416016 256.099016,37.5644531 257.541398,37.5644531 C258.600969,37.5644531 259.756242,36.9150391 259.756242,35.5615234 C259.756242,34.3720703 258.771867,33.7431641 257.664445,33.7431641 C257.664445,33.7431641 257.021867,33.7294922 256.604875,33.9550781 L255.791398,32.6835938 L259.031633,29.5869141 L253.856828,29.5869141 L253.856828,28.0351562 L261.27382,28.0351562 L261.27382,29.484375 L258.27968,32.3212891 C260.337297,32.4375 261.56093,33.8183594 261.56093,35.5273438 C261.56093,37.8378906 259.674211,39.1162109 257.541398,39.1162109 Z M263.083539,37.8583984 C263.083539,37.1679688 263.63725,36.6142578 264.307172,36.6142578 C264.997602,36.6142578 265.530805,37.1679688 265.530805,37.8583984 C265.530805,38.5146484 264.997602,39.0683594 264.307172,39.0683594 C263.63725,39.0683594 263.083539,38.5146484 263.083539,37.8583984 Z M270.881539,39.1162109 C268.502633,39.1162109 267.046578,37.5849609 266.848336,35.8076172 L268.516305,35.5068359 C268.612008,36.6416016 269.439156,37.5644531 270.881539,37.5644531 C271.941109,37.5644531 273.096383,36.9150391 273.096383,35.5615234 C273.096383,34.3720703 272.112008,33.7431641 271.004586,33.7431641 C271.004586,33.7431641 270.362008,33.7294922 269.945016,33.9550781 L269.131539,32.6835938 L272.371773,29.5869141 L267.196969,29.5869141 L267.196969,28.0351562 L274.613961,28.0351562 L274.613961,29.484375 L271.61982,32.3212891 C273.677438,32.4375 274.90107,33.8183594 274.90107,35.5273438 C274.90107,37.8378906 273.014352,39.1162109 270.881539,39.1162109 Z M276.498875,31.3642578 L275.705906,30.0517578 L279.041844,28.0351562 L280.682469,28.0351562 L280.682469,39 L278.959813,39 L278.959813,29.8876953 L276.498875,31.3642578 Z" id="€1,973.31" fill="#322D47" fill-rule="nonzero"></path>
            </g>
            <g id="YOUR-ACCOUNT-BALANCE" transform="translate(21.175781, 55.850098)" fill-rule="nonzero">
                <path d="M2.64550781,4.33300781 L1.42108547e-14,0.101074219 L1.27880859,0.101074219 L3.21240234,3.26513672 L5.15478516,0.101074219 L6.42041016,0.101074219 L3.76171875,4.30664062 L3.76171875,7.14990234 L2.64550781,7.14990234 L2.64550781,4.33300781 Z M6.45440625,3.64306641 C6.45440625,1.58642578 8.08917187,0 10.0842891,0 C12.0838008,0 13.6921992,1.55566406 13.6921992,3.61230469 C13.6921992,5.69091797 12.0486445,7.23339844 10.0535273,7.23339844 C8.05841016,7.23339844 6.45440625,5.71728516 6.45440625,3.64306641 Z M7.6145625,3.61669922 C7.6145625,5.04492188 8.68682812,6.20068359 10.0711055,6.20068359 C11.4509883,6.20068359 12.5276484,5.04492188 12.5276484,3.61669922 C12.5276484,2.1796875 11.4509883,1.03271484 10.0711055,1.03271484 C8.68682812,1.03271484 7.6145625,2.1796875 7.6145625,3.61669922 Z M20.3751211,4.41650391 C20.3751211,6.06884766 19.4522695,7.23779297 17.61975,7.23779297 C15.7520742,7.23779297 14.8907461,6.02050781 14.8907461,4.46484375 L14.8907461,0.101074219 L15.998168,0.101074219 L15.998168,4.42089844 C15.998168,5.52832031 16.6837148,6.19628906 17.6417227,6.19628906 C18.6832266,6.19628906 19.2676992,5.46240234 19.2676992,4.46044922 L19.2676992,0.101074219 L20.3751211,0.101074219 L20.3751211,4.41650391 Z M23.1469102,4.47363281 L23.1469102,7.14990234 L22.0394883,7.14990234 L22.0394883,0.101074219 L24.6893906,0.101074219 C26.4603867,0.101074219 27.0888047,1.17773438 27.0888047,2.27636719 C27.0888047,3.17285156 26.6273789,3.91992188 25.7001328,4.24951172 L27.2601914,7.14990234 L26.0385117,7.14990234 L24.6146836,4.47363281 L23.1469102,4.47363281 Z M24.5707383,3.48046875 C25.6386094,3.48046875 25.9638047,2.85205078 25.9638047,2.30273438 C25.9638047,1.76660156 25.7265,1.125 24.5707383,1.125 L23.1469102,1.125 L23.1469102,3.48046875 L24.5707383,3.48046875 Z M30.7866797,7.14990234 L29.6572852,7.14990234 L32.5225195,0.101074219 L33.8320898,0.101074219 L36.6841406,7.14990234 L35.5283789,7.14990234 L34.8867773,5.49755859 L31.4370703,5.49755859 L30.7866797,7.14990234 Z M34.5044531,4.50878906 L33.1641211,1.16455078 L31.8281836,4.50878906 L34.5044531,4.50878906 Z M40.4403047,7.23339844 C38.6649141,7.23339844 36.8983125,5.92382812 36.8983125,3.64746094 C36.8983125,1.52490234 38.5682344,0 40.48425,0 C42.4705781,0 43.503293,1.34472656 43.7405977,2.30712891 L42.6551484,2.68066406 C42.5540742,2.24121094 42.0618867,1.04150391 40.4710664,1.04150391 C39.2318086,1.04150391 38.0628633,2.03466797 38.0628633,3.61230469 C38.0628633,5.18115234 39.2142305,6.19628906 40.4666719,6.19628906 C41.9256562,6.19628906 42.5233125,5.04052734 42.6727266,4.52197266 L43.7625703,4.89990234 C43.5340547,5.765625 42.5101289,7.23339844 40.4403047,7.23339844 Z M47.9845547,7.23339844 C46.2091641,7.23339844 44.4425625,5.92382812 44.4425625,3.64746094 C44.4425625,1.52490234 46.1124844,0 48.0285,0 C50.0148281,0 51.047543,1.34472656 51.2848477,2.30712891 L50.1993984,2.68066406 C50.0983242,2.24121094 49.6061367,1.04150391 48.0153164,1.04150391 C46.7760586,1.04150391 45.6071133,2.03466797 45.6071133,3.61230469 C45.6071133,5.18115234 46.7584805,6.19628906 48.0109219,6.19628906 C49.4699062,6.19628906 50.0675625,5.04052734 50.2169766,4.52197266 L51.3068203,4.89990234 C51.0783047,5.765625 50.0543789,7.23339844 47.9845547,7.23339844 Z M51.982418,3.64306641 C51.982418,1.58642578 53.6171836,0 55.6123008,0 C57.6118125,0 59.2202109,1.55566406 59.2202109,3.61230469 C59.2202109,5.69091797 57.5766562,7.23339844 55.5815391,7.23339844 C53.5864219,7.23339844 51.982418,5.71728516 51.982418,3.64306641 Z M53.1425742,3.61669922 C53.1425742,5.04492188 54.2148398,6.20068359 55.5991172,6.20068359 C56.979,6.20068359 58.0556602,5.04492188 58.0556602,3.61669922 C58.0556602,2.1796875 56.979,1.03271484 55.5991172,1.03271484 C54.2148398,1.03271484 53.1425742,2.1796875 53.1425742,3.61669922 Z M65.9031328,4.41650391 C65.9031328,6.06884766 64.9802812,7.23779297 63.1477617,7.23779297 C61.2800859,7.23779297 60.4187578,6.02050781 60.4187578,4.46484375 L60.4187578,0.101074219 L61.5261797,0.101074219 L61.5261797,4.42089844 C61.5261797,5.52832031 62.2117266,6.19628906 63.1697344,6.19628906 C64.2112383,6.19628906 64.7957109,5.46240234 64.7957109,4.46044922 L64.7957109,0.101074219 L65.9031328,0.101074219 L65.9031328,4.41650391 Z M72.274043,7.14990234 L68.6617383,1.75341797 L68.6617383,7.14990234 L67.5675,7.14990234 L67.5675,0.101074219 L68.8419141,0.101074219 L72.4190625,5.46679688 L72.4190625,0.101074219 L73.5133008,0.101074219 L73.5133008,7.14990234 L72.274043,7.14990234 Z M76.7728828,1.125 L74.5360664,1.125 L74.5360664,0.101074219 L80.1215156,0.101074219 L80.1215156,1.125 L77.8803047,1.125 L77.8803047,7.14990234 L76.7728828,7.14990234 L76.7728828,1.125 Z M85.8496641,0.101074219 C87.1943906,0.101074219 88.1172422,0.799804688 88.1172422,1.95556641 C88.1172422,2.33349609 87.9326719,3.10253906 87.0977109,3.48046875 C88.1699766,3.82324219 88.4336484,4.62304688 88.4336484,5.17675781 C88.4336484,6.31054688 87.6206602,7.14990234 85.9331602,7.14990234 L83.1514219,7.14990234 L83.1514219,0.101074219 L85.8496641,0.101074219 Z M85.6431211,3.08496094 C86.6011289,3.08496094 87.0098203,2.61474609 87.0098203,2.06982422 C87.0098203,1.53369141 86.6450742,1.09863281 85.70025,1.09863281 L84.2500547,1.09863281 L84.2500547,3.08496094 L85.6431211,3.08496094 Z M85.9507383,6.15234375 C86.8691953,6.15234375 87.3306211,5.70410156 87.3306211,5.09326172 C87.3306211,4.50878906 86.8955625,4.05615234 85.8848203,4.05615234 L84.2544492,4.05615234 L84.2544492,6.15234375 L85.9507383,6.15234375 Z M89.8607109,7.14990234 L88.7313164,7.14990234 L91.5965508,0.101074219 L92.9061211,0.101074219 L95.7581719,7.14990234 L94.6024102,7.14990234 L93.9608086,5.49755859 L90.5111016,5.49755859 L89.8607109,7.14990234 Z M93.5784844,4.50878906 L92.2381523,1.16455078 L90.9022148,4.50878906 L93.5784844,4.50878906 Z M97.7257617,0.101074219 L97.7257617,6.12158203 L100.907402,6.12158203 L100.907402,7.14990234 L96.6183398,7.14990234 L96.6183398,0.101074219 L97.7257617,0.101074219 Z M102.136711,7.14990234 L101.007316,7.14990234 L103.872551,0.101074219 L105.182121,0.101074219 L108.034172,7.14990234 L106.87841,7.14990234 L106.236809,5.49755859 L102.787102,5.49755859 L102.136711,7.14990234 Z M105.854484,4.50878906 L104.514152,1.16455078 L103.178215,4.50878906 L105.854484,4.50878906 Z M113.600883,7.14990234 L109.988578,1.75341797 L109.988578,7.14990234 L108.89434,7.14990234 L108.89434,0.101074219 L110.168754,0.101074219 L113.745902,5.46679688 L113.745902,0.101074219 L114.840141,0.101074219 L114.840141,7.14990234 L113.600883,7.14990234 Z M119.664176,7.23339844 C117.888785,7.23339844 116.122184,5.92382812 116.122184,3.64746094 C116.122184,1.52490234 117.792105,0 119.708121,0 C121.694449,0 122.727164,1.34472656 122.964469,2.30712891 L121.87902,2.68066406 C121.777945,2.24121094 121.285758,1.04150391 119.694937,1.04150391 C118.45568,1.04150391 117.286734,2.03466797 117.286734,3.61230469 C117.286734,5.18115234 118.438102,6.19628906 119.690543,6.19628906 C121.149527,6.19628906 121.747184,5.04052734 121.896598,4.52197266 L122.986441,4.89990234 C122.757926,5.765625 121.734,7.23339844 119.664176,7.23339844 Z M128.641043,0.101074219 L128.641043,1.10302734 L125.235281,1.10302734 L125.235281,3.06298828 L128.333426,3.06298828 L128.333426,4.06494141 L125.235281,4.06494141 L125.235281,6.14355469 L128.676199,6.14355469 L128.676199,7.14990234 L124.127859,7.14990234 L124.127859,0.101074219 L128.641043,0.101074219 Z M133.481496,7.14990234 L132.374074,7.14990234 L132.374074,0.101074219 L133.481496,0.101074219 L133.481496,7.14990234 Z M137.312367,7.22900391 C135.668812,7.22900391 134.807484,6.16552734 134.702016,5.17236328 L135.774281,4.87792969 C135.92809,5.69970703 136.49059,6.23144531 137.33434,6.23144531 C138.037465,6.23144531 138.608754,5.8359375 138.608754,5.24267578 C138.608754,4.66259766 138.164906,4.33740234 137.56725,4.21435547 L136.701527,4.03857422 C135.545766,3.80566406 134.917348,3.04101562 134.917348,2.11816406 C134.917348,0.958007813 135.97643,0 137.242055,0 C138.841664,0 139.496449,0.971191406 139.641469,1.73144531 L138.608754,2.05664062 C138.485707,1.55566406 138.011098,0.997558594 137.264027,0.997558594 C136.574086,0.997558594 136.051137,1.4765625 136.051137,2.01708984 C136.051137,2.41699219 136.371937,2.84326172 136.938832,2.953125 L137.830922,3.12890625 C139.087758,3.375 139.751332,4.12646484 139.751332,5.17236328 C139.751332,6.19189453 138.87682,7.22900391 137.312367,7.22900391 Z" id="YOURACCOUNTBALANCEIS" fill="#8E90AB"></path>
                <path d="M148.283191,5.25146484 C148.283191,6.35888672 147.540516,7.14990234 146.459461,7.14990234 L142.992176,7.14990234 L142.992176,6.19189453 C143.581043,5.91064453 144.130359,5.30419922 144.130359,4.60986328 C144.130359,4.45166016 144.108387,4.30224609 144.077625,4.1484375 L143.036121,4.1484375 L143.036121,3.234375 L143.774402,3.234375 C143.629383,2.84765625 143.493152,2.45214844 143.493152,2.03466797 C143.493152,0.812988281 144.512684,0.00439453125 145.686023,0.00439453125 C146.907703,0.00439453125 147.834949,0.755859375 147.848133,1.88085938 L146.771473,2.06542969 C146.762684,1.49853516 146.358387,1.02392578 145.699207,1.02392578 C145.097156,1.02392578 144.63573,1.45898438 144.63573,2.06542969 C144.63573,2.46533203 144.789539,2.84326172 144.943348,3.234375 L146.890125,3.234375 L146.890125,4.1484375 L145.242176,4.1484375 C145.259754,4.26708984 145.272937,4.38134766 145.272937,4.50439453 C145.272937,5.08447266 145.075184,5.64697266 144.411609,6.15234375 L146.266102,6.15234375 C146.912098,6.15234375 147.219715,5.625 147.219715,5.15917969 L148.283191,5.25146484 Z M151.635059,7.22900391 C150.378223,7.22900391 149.077441,6.56103516 149.077441,5.22949219 C149.077441,4.51318359 149.534473,3.80126953 150.391406,3.515625 L150.391406,3.51123047 C149.688281,3.27832031 149.226855,2.61914062 149.226855,1.94238281 C149.226855,0.73828125 150.479297,0 151.635059,0 C152.834766,0 154.047656,0.725097656 154.047656,1.94238281 C154.047656,2.57519531 153.581836,3.26513672 152.8875,3.51123047 L152.8875,3.515625 C153.748828,3.80126953 154.201465,4.51318359 154.201465,5.22949219 C154.201465,6.53466797 152.861133,7.22900391 151.635059,7.22900391 Z M150.325488,2.02148438 C150.325488,2.64111328 150.927539,3.08056641 151.635059,3.08056641 C152.404102,3.08056641 152.944629,2.63232422 152.944629,2.02148438 C152.944629,1.40185547 152.338184,0.962402344 151.630664,0.962402344 C150.866016,0.962402344 150.325488,1.39746094 150.325488,2.02148438 Z M150.180469,5.11962891 C150.180469,5.76123047 150.817676,6.27099609 151.635059,6.27099609 C152.452441,6.27099609 153.094043,5.81396484 153.094043,5.11962891 C153.094043,4.46484375 152.430469,3.97265625 151.630664,3.97265625 C150.813281,3.97265625 150.180469,4.43847656 150.180469,5.11962891 Z M155.312121,8.11669922 C155.78673,8.02001953 156.129504,7.59375 156.138293,7.11035156 C156.059191,7.16748047 155.966906,7.17626953 155.874621,7.17626953 C155.474719,7.17626953 155.197863,6.88183594 155.197863,6.49072266 C155.197863,6.06884766 155.540637,5.78320312 155.949328,5.78320312 C156.503039,5.78320312 156.788684,6.24023438 156.788684,6.75 C156.788684,7.65966797 156.252551,8.47705078 155.312121,8.61767578 L155.312121,8.11669922 Z M160.254809,7.22460938 C158.725512,7.22460938 157.789477,6.24023438 157.662035,5.09765625 L158.734301,4.90429688 C158.795824,5.63378906 159.327562,6.22705078 160.254809,6.22705078 C160.935961,6.22705078 161.678637,5.80957031 161.678637,4.93945312 C161.678637,4.17480469 161.045824,3.77050781 160.33391,3.77050781 C160.33391,3.77050781 159.920824,3.76171875 159.652758,3.90673828 L159.129809,3.08935547 L161.212816,1.09863281 L157.886156,1.09863281 L157.886156,0.101074219 L162.654223,0.101074219 L162.654223,1.03271484 L160.729418,2.85644531 C162.052172,2.93115234 162.838793,3.81884766 162.838793,4.91748047 C162.838793,6.40283203 161.625902,7.22460938 160.254809,7.22460938 Z M166.718004,7.23339844 C164.938219,7.23339844 163.769273,5.64697266 163.769273,3.62548828 C163.769273,1.60839844 164.960191,0.00439453125 166.739977,0.00439453125 C168.519762,0.00439453125 169.693102,1.58642578 169.693102,3.60791016 C169.693102,5.625 168.502184,7.23339844 166.718004,7.23339844 Z M166.718004,1.02392578 C165.606187,1.02392578 164.916246,2.18408203 164.916246,3.60791016 C164.916246,5.02734375 165.623766,6.21386719 166.739977,6.21386719 C167.856187,6.21386719 168.546129,5.04052734 168.546129,3.62548828 C168.546129,2.21484375 167.834215,1.02392578 166.718004,1.02392578 Z M170.214891,1.10302734 L170.214891,0.101074219 L175.246629,0.101074219 L175.246629,1.01513672 L172.012254,7.14990234 L170.73784,7.14990234 L173.972215,1.10302734 L170.214891,1.10302734 Z M175.170762,6.41601562 C175.170762,5.97216797 175.526719,5.61621094 175.957383,5.61621094 C176.40123,5.61621094 176.744004,5.97216797 176.744004,6.41601562 C176.744004,6.83789062 176.40123,7.19384766 175.957383,7.19384766 C175.526719,7.19384766 175.170762,6.83789062 175.170762,6.41601562 Z M180.416672,7.23339844 C178.636887,7.23339844 177.467941,5.64697266 177.467941,3.62548828 C177.467941,1.60839844 178.658859,0.00439453125 180.438645,0.00439453125 C182.21843,0.00439453125 183.39177,1.58642578 183.39177,3.60791016 C183.39177,5.625 182.200852,7.23339844 180.416672,7.23339844 Z M180.416672,1.02392578 C179.304855,1.02392578 178.614914,2.18408203 178.614914,3.60791016 C178.614914,5.02734375 179.322434,6.21386719 180.438645,6.21386719 C181.554855,6.21386719 182.244797,5.04052734 182.244797,3.62548828 C182.244797,2.21484375 181.532883,1.02392578 180.416672,1.02392578 Z M187.244613,7.23339844 C185.464828,7.23339844 184.295883,5.64697266 184.295883,3.62548828 C184.295883,1.60839844 185.486801,0.00439453125 187.266586,0.00439453125 C189.046371,0.00439453125 190.219711,1.58642578 190.219711,3.60791016 C190.219711,5.625 189.028793,7.23339844 187.244613,7.23339844 Z M187.244613,1.02392578 C186.132797,1.02392578 185.442855,2.18408203 185.442855,3.60791016 C185.442855,5.02734375 186.150375,6.21386719 187.266586,6.21386719 C188.382797,6.21386719 189.072738,5.04052734 189.072738,3.62548828 C189.072738,2.21484375 188.360824,1.02392578 187.244613,1.02392578 Z" id="£8,307.00" fill="#322D47"></path>
            </g>
            <rect id="Rectangle" fill="#F1F3F7" fill-rule="nonzero" x="21" y="74" width="231" height="5" rx="2.5"></rect>
        </g>
    </g>
</svg>