<?xml version="1.0" encoding="UTF-8"?>
<svg width="283px" height="408px" viewBox="0 0 283 408" version="1.1" xmlns="http://www.w3.org/2000/svg" xmlns:xlink="http://www.w3.org/1999/xlink">
    <!-- Generator: Sketch 57.1 (83088) - https://sketch.com -->
    <title>Rocket</title>
    <desc>Created with Sketch.</desc>
    <defs>
        <linearGradient x1="49.9999963%" y1="46.9521333%" x2="49.9999963%" y2="-0.434228662%" id="linearGradient-1">
            <stop stop-color="#691B3A" stop-opacity="0" offset="0%"></stop>
            <stop stop-color="#001B3A" offset="100%"></stop>
        </linearGradient>
        <linearGradient x1="56.3956824%" y1="43.0112627%" x2="44.7188938%" y2="56.9375533%" id="linearGradient-2">
            <stop stop-color="#FFFFFF" stop-opacity="0" offset="0%"></stop>
            <stop stop-color="#766EBC" offset="100%"></stop>
        </linearGradient>
        <linearGradient x1="51.3942138%" y1="48.0828043%" x2="46.8753922%" y2="54.1803954%" id="linearGradient-3">
            <stop stop-color="#691B3A" stop-opacity="0" offset="0%"></stop>
            <stop stop-color="#691B3A" offset="100%"></stop>
        </linearGradient>
        <linearGradient x1="90.0104435%" y1="50.0000403%" x2="-15.2482681%" y2="50.0000403%" id="linearGradient-4">
            <stop stop-color="#FFFFFF" stop-opacity="0" offset="0%"></stop>
            <stop stop-color="#766EBC" offset="100%"></stop>
        </linearGradient>
        <linearGradient x1="51.3942078%" y1="48.0828043%" x2="46.875399%" y2="54.1803954%" id="linearGradient-5">
            <stop stop-color="#691B3A" stop-opacity="0" offset="0%"></stop>
            <stop stop-color="#691B3A" offset="100%"></stop>
        </linearGradient>
        <linearGradient x1="90.0105949%" y1="50.0000403%" x2="-15.2482924%" y2="50.0000403%" id="linearGradient-6">
            <stop stop-color="#FFFFFF" stop-opacity="0" offset="0%"></stop>
            <stop stop-color="#766EBC" offset="100%"></stop>
        </linearGradient>
        <linearGradient x1="63.1884778%" y1="42.2861479%" x2="-11.2230218%" y2="73.147292%" id="linearGradient-7">
            <stop stop-color="#AE85FF" stop-opacity="0" offset="0%"></stop>
            <stop stop-color="#AE85FF" offset="100%"></stop>
        </linearGradient>
        <linearGradient x1="107.664702%" y1="34.0636232%" x2="-29.8657857%" y2="63.1270658%" id="linearGradient-8">
            <stop stop-color="#FFFFFF" stop-opacity="0" offset="0%"></stop>
            <stop stop-color="#766EBC" offset="100%"></stop>
        </linearGradient>
    </defs>
    <g id="Rocket" stroke="none" stroke-width="1" fill="none" fill-rule="evenodd">
        <g fill-rule="nonzero">
            <rect id="Rectangle" fill="#FFFFFF" x="19.0801665" y="78.2898071" width="257.829219" height="306.421121"></rect>
            <g id="Group" opacity="0.4" transform="translate(31.884211, 196.810526)" fill="#CED5FF">
                <path d="M19.3724609,17.3487979 C19.3724609,17.9316759 19.3127955,18.4996832 19.2082442,19.0527285 L1.09185848,19.0527285 C0.987307166,18.4996832 0.927641756,17.9316759 0.927641756,17.3487979 C0.927641756,12.2666561 5.05313009,8.14116779 10.1500513,8.14116779 C11.6896741,8.14116779 13.154487,8.52981402 14.4399387,9.2174257 C17.3697472,10.7419954 19.3724609,13.8062789 19.3724609,17.3487979 Z" id="Path"></path>
                <path d="M42.2868934,14.613404 C42.2868934,16.1530268 42.0478669,17.6477636 41.5993729,19.0527287 L14.0812166,19.0527287 C13.6329049,17.6477636 13.3935135,16.1530268 13.3935135,14.613404 C13.3935135,12.7000971 13.7671978,10.8765619 14.4399387,9.21742585 C16.5625307,3.91112829 21.7641857,0.159324173 27.8329049,0.159324173 C34.9925703,0.159324173 40.9415938,5.3759411 42.0925703,12.2218614 C42.2120837,12.9990627 42.2868934,13.791317 42.2868934,14.613404 Z" id="Path"></path>
                <path d="M54.4241494,19.0527287 L35.6204256,19.0527287 C36.4573833,15.8091753 38.9237355,13.2233097 42.0925705,12.2218615 C43.0193,11.937858 44.0058774,11.7733676 45.0223787,11.7733676 C49.5512927,11.7733676 53.3479827,14.8674837 54.4241494,19.0527287 Z" id="Path"></path>
            </g>
            <g id="Group" opacity="0.4" transform="translate(203.778947, 201.789474)" fill="#CED5FF">
                <path d="M16.2007523,14.2032844 C16.2007523,14.6837094 16.1515329,15.1519096 16.0653648,15.6077476 L1.13291262,15.6077476 C1.04669889,15.1519094 0.997525038,14.6837094 0.997525038,14.2032844 C0.997525038,10.0143446 4.39799665,6.61387301 8.59911582,6.61387301 C9.8681915,6.61387301 11.0755492,6.93423249 12.1351118,7.50100815 C14.5500097,8.75763072 16.2007523,11.2833747 16.2007523,14.2032844 Z" id="Path"></path>
                <path d="M35.0879985,11.9486347 C35.0879985,13.2176648 34.8909841,14.4497006 34.521314,15.6077475 L11.8394306,15.6077475 C11.4698974,14.4497004 11.2725637,13.2176648 11.2725637,11.9486347 C11.2725637,10.3716071 11.5805613,8.86852256 12.1351119,7.501008 C13.8846584,3.12723327 18.1721282,0.0348047979 23.1742599,0.0348047979 C29.0756605,0.0348047979 33.979171,4.3346364 34.9278418,9.97739577 C35.0263717,10.6180234 35.0879985,11.2710128 35.0879985,11.9486347 Z" id="Path"></path>
                <path d="M45.0921709,15.6077476 L29.5931711,15.6077476 C30.2830181,12.9342543 32.3159295,10.8028584 34.9278416,9.97739577 C35.691723,9.74329577 36.5049149,9.60772568 37.3427394,9.60772568 C41.0757041,9.60772568 44.2051726,12.1580566 45.0921709,15.6077476 Z" id="Path"></path>
            </g>
            <path d="M258.86416,121.26673 L223.379122,121.26673 C223.379122,117.350527 226.562919,114.16673 230.479122,114.16673 C231.764574,114.16673 232.960254,114.51049 233.991717,115.09346 C235.471675,111.909663 238.700175,109.712352 242.437017,109.712352 C245.845061,109.712352 248.834534,111.550941 250.448785,114.301205 C250.882317,114.211525 251.315666,114.16673 251.76416,114.16673 C255.680363,114.16673 258.86416,117.350527 258.86416,121.26673 Z" id="Path" fill="#CED5FF" opacity="0.4"></path>
            <path d="M0.363705669,392.171042 L0.363705669,97.8574123 C0.363705669,67.5291433 24.7846211,42.9556661 54.8915169,42.9556661 L271.488456,42.9556661 C277.530718,42.9556661 282.429849,47.8882794 282.429849,53.9718693 L282.429849,392.171042 C282.429849,398.254632 277.530718,403.187245 271.488456,403.187245 L11.3047112,403.187245 C5.26247204,403.187245 0.363705669,398.254632 0.363705669,392.171042 Z" id="Path" fill="#FFFFFF"></path>
            <g id="Group" transform="translate(0.494737, 145.989474)">
                <g transform="translate(50.821053, 0.000000)">
                    <rect id="Rectangle" fill="#2B94FF" x="70.8421467" y="0.0947324084" width="38.4776621" height="165.611453"></rect>
                    <rect id="Rectangle" fill="url(#linearGradient-1)" x="70.8421467" y="0.0947324084" width="38.4776621" height="165.611453"></rect>
                    <path d="M70.8421467,96.5260139 C70.8421467,96.5260139 67.1293897,165.706174 0.299786663,165.706174 L90.0809763,165.706174 L90.0809763,96.5260139 L70.8421467,96.5260139 Z" id="Path" fill="#2B94FF"></path>
                    <path d="M109.666577,96.5260139 C109.666577,96.5260139 113.379334,165.706174 180.208937,165.706174 L90.4277472,165.706174 L90.4277472,96.5260139 L109.666577,96.5260139 Z" id="Path" fill="#2B94FF"></path>
                </g>
                <path d="M268.838922,261.112788 L13.311907,261.112788 C6.07905124,261.112788 0.215671244,255.151461 0.215671244,247.797833 L0.215671244,164.112788 L281.935158,164.112788 L281.935158,247.797833 C281.935158,255.151461 276.071801,261.112788 268.838922,261.112788 Z" id="Path" fill="#2B94FF"></path>
            </g>
            <path d="M157.030628,17.3689261 C152.418032,8.19612371 147.022282,1.06166106 141.396766,1.06166106 C135.771432,1.06166106 130.375682,8.19612371 125.762926,17.3689261 C116.457291,35.8745281 111.694733,59.6442104 111.694733,83.8669482 L111.694733,162.060301 L141.396766,162.060301 L171.098822,162.060301 L171.098822,83.8669482 C171.098822,59.6442104 166.336424,35.8745281 157.030628,17.3689261 Z" id="Path" fill="#E5E1F9"></path>
            <path d="M171.093576,83.8601971 L171.093576,162.064817 L145.159746,162.064817 L145.159746,74.6526584 C145.159746,36.0435802 139.061103,16.1188038 133.127041,5.86483976 C135.772754,2.89032809 138.553126,1.06679294 141.39298,1.06679294 C147.028167,1.06679294 152.423962,8.19662564 157.027869,17.3743317 C166.34005,35.879181 171.093576,59.6455332 171.093576,83.8601971 Z" id="Path" fill="url(#linearGradient-2)"></path>
            <g id="Group" transform="translate(88.189474, 53.315789)">
                <path d="M23.720725,41.4251321 L23.720725,102.283314 L1.04611716,102.283314 L1.04611716,41.4251321 C1.04611716,36.9151258 1.24659844,32.4052792 1.72264432,27.9706759 C5.00483427,29.2483502 8.61272064,29.949966 12.3960452,29.949966 C16.1791872,29.949966 19.7870964,29.2483502 23.0692864,27.9956049 C23.5204034,32.4303679 23.720725,36.9402144 23.720725,41.4251321 Z" id="Path" fill="#2B94FF"></path>
                <path d="M23.5885989,41.4314955 L23.5885989,91.1678056 L15.8079663,96.2301502 C15.8079663,96.2301502 15.8079663,73.1373828 15.8079663,41.7089077 C15.8079663,37.3954825 15.6830249,33.4149155 15.4612182,29.7810965 C18.0827552,29.5037071 20.5928986,28.8934369 22.9371147,27.9919557 C23.3945724,32.4301626 23.5885989,36.9377741 23.5885989,41.4314955 Z" id="Path" fill="url(#linearGradient-3)"></path>
                <path d="M22.8441499,28.0751815 C20.5334613,28.941607 18.0541314,29.5161374 15.4762942,29.7785647 L15.4654377,29.7810964 C15.4654377,29.7807542 15.4654377,29.7804349 15.4654377,29.7800928 C14.4570559,29.8824317 13.436472,29.9475254 12.4003331,29.9475254 C8.61395231,29.9475254 5.00773092,29.254052 1.7208197,27.9641983 C1.87319915,26.2166134 2.09500569,24.4690284 2.34488877,22.7353335 C3.48195258,14.8852053 5.61791,5.73124214 9.45982792,2.56902172 C10.3476701,1.8477683 11.3184644,1.4317071 12.4003331,1.4317071 C18.1144127,1.4317071 21.0132706,13.0682845 22.4418875,22.7353335 C22.6914284,24.4829184 22.9135771,26.2443705 23.0659337,27.9919555 C22.9965293,28.0196444 22.9135771,28.0474015 22.8441499,28.0751815 Z" id="Path" fill="#E5E1F9"></path>
                <path d="M23.0659337,27.9919555 C22.9965293,28.0196444 22.9135771,28.0474015 22.8441499,28.0751815 L15.4654377,29.7810964 C16.7135758,16.424714 12.7748384,7.52047428 9.45982792,2.56902172 C10.3476701,1.8477683 11.3184644,1.4317071 12.4003331,1.4317071 C18.1144127,1.4317071 21.0132706,13.0682845 22.4418875,22.7353335 C22.6914284,24.4829185 22.9135771,26.2443707 23.0659337,27.9919555 Z" id="Path" fill="url(#linearGradient-4)"></path>
                <g fill="#231768" id="Shape">
                    <path d="M24.4681846,103.030911 L0.298406596,103.030911 L0.298406596,41.4248355 C0.298406596,36.6545231 0.527580097,32.1009765 0.979358478,27.8911904 L1.08372728,26.9204872 L1.99312279,27.2744654 C8.5515726,29.8260278 16.1559004,29.835516 22.8026623,27.2970908 L23.7142474,26.9496812 L23.8127775,27.9196545 C24.2477692,32.1965871 24.4681846,36.7406455 24.4681846,41.4248354 L24.4681846,103.030911 L24.4681846,103.030911 Z M1.79314344,101.536174 L22.9734478,101.536174 L22.9734478,41.4248355 C22.9734478,37.1384149 22.7866056,32.9731496 22.4187602,29.02684 C15.9778166,31.2528885 8.73330585,31.2441303 2.36753688,29.0064041 C1.98655416,32.8943256 1.79314344,37.0668893 1.79314344,41.4248355 L1.79314344,101.536174 L1.79314344,101.536174 Z"></path>
                    <path d="M23.7025243,28.3928039 C23.4142328,28.6070154 23.0157336,28.8219569 22.6796367,28.9353577 L22.017661,29.161703 C21.5746409,29.3061225 21.1287012,29.4422398 20.6798424,29.5682306 C19.7817595,29.818661 18.872364,30.0277637 17.9556698,30.1950823 C16.1219168,30.5298106 14.2578747,30.696673 12.3949277,30.6973121 C8.66939837,30.6979501 4.9358405,30.0234757 1.45590629,28.6688704 L1.45152716,28.6672283 L0.925668876,28.4753685 L0.977853278,27.9067227 C1.44313392,22.8476625 2.02373111,17.802287 3.31885347,12.8415744 C3.9658672,10.3660076 4.72746776,7.89053226 5.94632057,5.53238056 C6.56596493,4.36215423 7.2793952,3.19658056 8.32855742,2.20398187 C9.32772472,1.21302531 10.7826847,0.374607832 12.4044157,0.372849915 C14.0312557,0.367583166 15.4894999,1.21594483 16.490127,2.20681007 C17.5385593,3.20241945 18.2687762,4.36197172 18.8811221,5.53849314 C20.0901219,7.9055856 20.8761725,10.3731238 21.5323093,12.8499678 C22.1917306,15.327724 22.6281821,17.8411518 23.0193827,20.3502916 C23.4343037,22.7228577 23.595236,25.7890571 23.7025243,28.3928039 Z M22.4362311,27.5984513 C22.195015,26.4249406 21.9600027,25.3051652 21.7687815,24.1998956 L21.1589901,20.6629417 C20.7126856,18.2069898 20.1510646,15.7783161 19.513174,13.3895107 C18.8588617,11.0105582 18.0695268,8.66061724 16.9616115,6.55098019 C15.90953,4.45885951 14.2856093,2.5318678 12.4011315,2.50385972 C10.5104499,2.50796516 8.84857696,4.41461216 7.78481774,6.50673284 C6.67909199,8.6214789 5.86348241,10.9634827 5.20150666,13.3440774 C3.88193429,18.1224182 3.10099273,23.0871451 2.46748111,28.0343554 L1.99380723,27.2742146 L1.99782134,27.2758567 C5.29967171,28.5610347 8.8471172,29.2031221 12.3949276,29.2025751 C14.1691977,29.2019362 15.9427381,29.043102 17.6870842,28.7246129 C18.5592573,28.565414 19.4241319,28.3665293 20.2780586,28.1285063 C20.7046571,28.0086281 21.1287011,27.879262 21.5501906,27.7420497 L22.1789581,27.5269259 C22.2698249,27.4849593 22.2979242,27.5410667 22.4362311,27.5984513 Z"></path>
                </g>
            </g>
            <path d="M156.039649,17.8671641 C154.23436,14.3165255 152.275803,10.8178887 149.838827,7.75314903 C148.618514,6.23615167 147.28544,4.79806969 145.75494,3.73485769 C144.236848,2.67091597 142.518776,1.97190019 140.819681,2.17370431 C139.109273,2.31000413 137.464187,3.30643457 136.013971,4.49499849 C134.557186,5.71157049 133.27958,7.20767576 132.104884,8.77904716 C129.77994,11.9560015 127.819193,15.4519925 126.086159,19.0516225 C119.10476,33.466199 115.294933,49.3175804 113.58562,65.2643898 C112.710892,73.2652096 112.531713,81.2746964 112.577694,89.3625511 L112.532443,113.589896 L112.441942,162.0447 L112.441942,162.060118 L111.694938,161.312932 L171.085548,161.312932 L171.098685,161.312887 L170.351317,162.060118 L170.155716,88.6843361 C170.304606,76.4727265 169.508702,64.3104733 167.247621,52.3538558 C165.017193,40.4183127 161.4099,28.713403 156.039649,17.8671641 Z M158.021562,16.8706424 C163.561139,27.9402161 167.074646,39.885156 169.295221,51.9773434 C171.520174,64.0799313 172.25769,76.4477291 172.042019,88.6843361 L171.846053,162.060118 L171.844229,162.807669 L171.098685,162.807669 L171.085547,162.807669 L111.694938,162.807669 L110.947205,162.807669 L110.947205,162.060118 L110.947205,162.0447 L110.857068,113.589896 L110.811817,89.3625511 C110.734818,81.3033432 110.885167,73.1382154 111.739094,65.0724388 C113.40936,48.9477279 117.191088,32.8890687 124.254231,18.1605646 C126.009525,14.4833879 127.997641,10.8922424 130.430968,7.5397586 C131.666242,5.87770316 133.018293,4.268562 134.657541,2.8851276 C136.292044,1.54292985 138.249872,0.279921013 140.606199,0.0566775811 C142.976394,-0.221031072 145.231271,0.742920832 146.98766,1.97290391 C148.782001,3.21693661 150.221999,4.77982344 151.535003,6.39462083 C154.140939,9.652224 156.15606,13.2402674 158.021562,16.8706424 Z" id="Shape" fill="#231768"></path>
            <g id="Group" transform="translate(169.400000, 53.315789)">
                <path d="M24.3734523,41.4251321 L24.3734523,102.283314 L1.69882178,102.283314 L1.69882178,41.4251321 C1.69882178,36.9151258 1.89930306,32.4052792 2.37534895,27.9706759 C5.65753889,29.2483502 9.26547085,29.949966 13.0487498,29.949966 C16.8318918,29.949966 20.4398239,29.2483502 23.7220139,27.9956049 C24.173108,32.4303679 24.3734523,36.9402144 24.3734523,41.4251321 Z" id="Path" fill="#2B94FF"></path>
                <path d="M24.2413034,41.4314955 L24.2413034,91.1678056 L16.4606708,96.2301502 C16.4606708,96.2301502 16.4606708,73.1373828 16.4606708,41.7089077 C16.4606708,37.3954825 16.3357293,33.4149155 16.1139455,29.7810965 C18.7354825,29.5037071 21.245626,28.8934369 23.5898192,27.9919557 C24.0472997,32.4301626 24.2413034,36.9377741 24.2413034,41.4314955 Z" id="Path" fill="url(#linearGradient-5)"></path>
                <path d="M23.4968545,28.0751815 C21.1861888,28.941607 18.7068361,29.5161374 16.1289989,29.7785647 L16.1181879,29.7810964 C16.1181879,29.7807542 16.1181879,29.7804349 16.1181879,29.7800928 C15.1097605,29.8824317 14.0891993,29.9475254 13.0530376,29.9475254 C9.26670237,29.9475254 5.66045826,29.254052 2.37352417,27.9641983 C2.52592634,26.2166134 2.74771016,24.4690284 2.99759324,22.7353335 C4.13465705,14.8852053 6.27061447,5.73124214 10.1125553,2.56902172 C11.0003745,1.8477683 11.9711689,1.4317071 13.0530376,1.4317071 C18.7671399,1.4317071 21.6659751,13.0682845 23.0946147,22.7353335 C23.3441329,24.4829184 23.5662816,26.2443705 23.7186382,27.9919555 C23.6492567,28.0196444 23.5662816,28.0474015 23.4968545,28.0751815 Z" id="Path" fill="#E5E1F9"></path>
                <path d="M23.7186382,27.9919555 C23.6492567,28.0196444 23.5662816,28.0474015 23.4968543,28.0751815 L16.1181877,29.7810964 C17.3662803,16.424714 13.4275429,7.52047428 10.1125551,2.56902172 C11.0003744,1.8477683 11.9711687,1.4317071 13.0530375,1.4317071 C18.7671397,1.4317071 21.665975,13.0682845 23.0946145,22.7353335 C23.3441329,24.4829185 23.5662816,26.2443707 23.7186382,27.9919555 Z" id="Path" fill="url(#linearGradient-6)"></path>
                <g fill="#231768" id="Shape">
                    <path d="M25.120775,103.030911 L0.951726899,103.030911 L0.951726899,41.4248355 C0.951726899,36.6479543 1.1809004,32.0944079 1.63267878,27.8911904 L1.73704759,26.9204872 L2.64644309,27.2744654 C9.20270341,29.8252981 16.8070311,29.8347861 23.4552527,27.2970908 L24.3661079,26.9496812 L24.4653677,27.9196545 C24.9003595,32.1900184 25.120775,36.7340769 25.120775,41.4248354 L25.120775,103.030911 L25.120775,103.030911 Z M2.44646389,101.536174 L23.6260383,101.536174 L23.6260383,41.4248355 C23.6260383,37.1325761 23.4399261,32.9673109 23.0713507,29.02684 C16.6296772,31.2521587 9.38589642,31.2441303 3.02085733,29.0064041 C2.63914474,32.8892166 2.44646389,37.0617804 2.44646389,41.4248355 L2.44646389,101.536174 Z"></path>
                    <path d="M24.3551148,28.3928039 C24.0668232,28.6070154 23.668324,28.8219569 23.3322272,28.9353577 L22.6706163,29.161703 C22.2272312,29.3061225 21.7812917,29.4422398 21.3324327,29.5682306 C20.4347148,29.818661 19.5253191,30.0277637 18.6082601,30.1950823 C16.7745071,30.5298106 14.91083,30.696673 13.047518,30.6973121 C9.32198865,30.6979501 5.58879579,30.0234757 2.10886158,28.6688704 L2.10448245,28.6672283 L1.57825915,28.4753685 L1.63080842,27.9067227 C2.09608905,22.8476625 2.67668625,17.802287 3.97144374,12.8415744 C4.61882249,10.3660076 5.38005803,7.89053226 6.59927571,5.53238056 C7.21892007,4.36215423 7.93198547,3.19658056 8.98114769,2.20398187 C9.980315,1.21302531 11.4352749,0.374607832 13.057371,0.372849915 C14.6838462,0.367583166 16.1420904,1.21594483 17.1427174,2.20681007 C18.1915148,3.20241945 18.9213667,4.36197172 19.5337125,5.53849314 C20.7427123,7.9055856 21.5287629,10.3731238 22.1848998,12.8499678 C22.844321,15.327724 23.2811374,17.8411518 23.6723381,20.3502916 C24.0872591,22.7228577 24.2478266,25.7890571 24.3551148,28.3928039 Z M23.0888215,27.5984513 C22.8479704,26.4249406 22.6125931,25.3051652 22.4213719,24.1998956 L21.8115806,20.6629417 C21.3652761,18.2069898 20.8040199,15.7783161 20.1657644,13.3895107 C19.5114522,11.0105582 18.7224821,8.66061724 17.614202,6.55098019 C16.5624852,4.45885951 14.9381997,2.5318678 13.0537219,2.50385972 C11.1630403,2.50796516 9.5015324,4.41461216 8.43740817,6.50673284 C7.33168242,8.6214789 6.51607283,10.9634827 5.8544621,13.3440774 C4.53452486,18.1224182 3.75394817,23.0871451 3.12007168,28.0343554 L2.64676266,27.2742146 L2.65077678,27.2758567 C5.95226213,28.5610347 9.49970763,29.2031221 13.0475181,29.2025751 C14.8217883,29.2019362 16.5956935,29.043102 18.3400397,28.7246129 C19.2122129,28.565414 20.0770875,28.3665293 20.9306493,28.1285063 C21.3576127,28.0086281 21.7812918,27.879262 22.2027813,27.7420497 L22.8319136,27.5269259 C22.9227802,27.4849593 22.9505146,27.5410667 23.0888215,27.5984513 Z"></path>
                </g>
            </g>
            <path d="M111.694733,103.331234 L111.694733,162.060301 L81.3176321,162.060301 C81.3176321,162.060301 77.2673415,128.982999 88.7431233,120.88244 C100.218928,112.781881 111.694733,103.331234 111.694733,103.331234 Z" id="Path" fill="#234EE9"></path>
            <path d="M171.098822,103.331234 L171.098822,162.060301 L201.475945,162.060301 C201.475945,162.060301 205.526213,128.982999 194.050431,120.88244 C182.574604,112.781881 171.098822,103.331234 171.098822,103.331234 Z" id="Path" fill="#234EE9"></path>
            <path d="M165.02342,174.21115 L117.770135,174.21115 C114.414777,174.21115 111.694733,171.491083 111.694733,168.135725 L111.694733,168.135725 C111.694733,164.780368 114.414777,162.060301 117.770135,162.060301 L165.02342,162.060301 C168.378755,162.060301 171.098822,164.780368 171.098822,168.135725 L171.098822,168.135725 C171.098822,171.491083 168.378755,174.21115 165.02342,174.21115 Z" id="Path" fill="#234EE9"></path>
            <path d="M112.013518,102.655345 C112.233934,122.299585 112.474785,142.255722 112.441941,162.060118 L112.440847,162.807669 L111.694573,162.807669 L111.691654,162.807669 L81.3177691,163.400856 L80.1514657,163.423619 L79.9868841,162.223058 L79.9861542,162.218177 C79.3843912,156.122362 79.2241888,150.07271 79.5621102,143.979359 C79.7482224,140.939069 80.0554901,137.895883 80.6390068,134.878401 C81.2104809,131.864204 82.0352136,128.859221 83.4029562,126.018454 C84.1083581,124.609475 84.9469581,123.244287 86.0092576,122.0185 C86.5759876,121.432794 87.1423527,120.847818 87.8138166,120.362466 C88.46302,119.844819 89.0509157,119.478342 89.6723846,119.028844 C92.1235925,117.304022 94.5525399,115.542798 96.9632409,113.756029 C99.3743068,111.969077 101.767127,110.155943 104.14389,108.321551 L107.696809,105.554135 L109.463781,104.158566 L110.343982,103.457361 L110.782988,103.105938 L111.001579,102.929952 L111.056318,102.885887 C111.070185,102.878589 111.073104,102.863262 111.216885,102.769385 C111.446423,102.612649 111.820837,102.592395 112.013518,102.655345 Z M111.375628,104.007122 C111.496053,104.129737 111.797847,104.169149 111.954765,104.071988 C112.062053,104.007943 112.028845,104.022358 112.00622,104.044801 L111.951481,104.08996 L111.733985,104.270872 L111.298628,104.631419 L110.426455,105.35005 L108.676635,106.779465 L105.158384,109.614027 C102.804246,111.493396 100.433322,113.351964 98.0423268,115.186082 C95.6509668,117.020018 93.2395358,118.829868 90.8011005,120.606419 C90.211745,121.047341 89.5318879,121.496565 89.0169774,121.930827 C88.4695884,122.335986 88.0006585,122.843963 87.5258898,123.343729 C86.6340106,124.410864 85.9048885,125.633275 85.2856091,126.921463 C84.0817183,129.527947 83.3369044,132.382398 82.8391452,135.279911 C82.3271541,138.178244 82.0764499,141.137041 81.9436169,144.10024 C81.7093343,150.02162 81.9709862,156.030857 82.647924,161.893073 L82.6482889,161.897224 L81.3177688,160.719699 L111.691653,161.312932 L111.694573,161.312932 L110.947204,162.060118 C110.914726,142.711971 111.155577,123.515518 111.375628,104.007122 Z" id="Shape" fill="#231768"></path>
            <path d="M171.41763,104.007122 C171.638045,123.515518 171.878897,142.711971 171.846053,162.060118 L171.09905,161.312932 L171.101969,161.312932 L201.475854,160.642198 L200.068334,161.887782 L200.068699,161.883631 C200.751476,156.028576 201.019696,150.020526 200.791982,144.10316 C200.662434,141.141785 200.415014,138.184722 199.906672,135.288578 C199.412562,132.393255 198.671762,129.541267 197.47298,126.93825 C196.856255,125.651795 196.130418,124.4313 195.242188,123.36599 C194.769244,122.867318 194.302504,122.360254 193.757304,121.955824 C193.244948,121.522384 192.563996,121.071335 191.975735,120.630048 C189.53876,118.850669 187.129154,117.038173 184.739618,115.201592 C182.350448,113.364828 179.981348,111.503523 177.6294,109.621691 L174.114068,106.783297 L172.365708,105.351966 L171.494265,104.632332 L171.059273,104.271329 L170.841777,104.090234 L170.787403,104.044983 C170.764778,104.022449 170.731204,104.008035 170.838857,104.07217 C170.995776,104.169241 171.297569,104.129829 171.41763,104.007122 Z M170.77974,102.655345 C170.972785,102.592304 171.3472,102.612557 171.576738,102.769202 C171.720519,102.86317 171.723438,102.878497 171.737305,102.885705 L171.792044,102.929678 L172.011,103.10539 L172.450371,103.456358 L173.331302,104.156651 L175.099734,105.550303 L178.655572,108.313887 C181.034525,110.145725 183.429169,111.956214 185.841695,113.74061 C188.254585,115.524642 190.684993,117.283129 193.138025,119.005215 C193.760589,119.454348 194.34739,119.819 194.999148,120.337469 C195.672801,120.823641 196.240991,121.409439 196.809545,121.996149 C197.875859,123.223851 198.717743,124.590955 199.425335,126.001759 C200.798551,128.84581 201.626933,131.853438 202.202057,134.869734 C202.789223,137.889314 203.099775,140.934325 203.289536,143.976439 C203.634026,150.073805 203.480392,156.124643 202.884103,162.227574 L202.883374,162.232455 L202.70602,163.505499 L201.475854,163.478358 L171.10197,162.807669 L171.09905,162.807669 L170.352777,162.807669 L170.351317,162.060118 C170.318838,142.255722 170.559689,122.299585 170.77974,102.655345 Z" id="Shape" fill="#231768"></path>
            <path d="M165.023397,175.104033 L131.856004,175.948107 C129.092055,176.026885 126.328105,176.068578 123.564156,176.074371 L119.418232,176.104797 L118.381842,176.112415 C118.04611,176.115471 117.708553,176.123362 117.214079,176.094031 C116.310157,176.035096 115.410614,175.823895 114.572379,175.466587 C112.885327,174.757992 111.510285,173.413194 110.680809,171.800905 C109.83783,170.179402 109.625078,168.280236 109.987814,166.514451 C110.371716,164.739907 111.378547,163.125155 112.778403,161.997169 C114.178624,160.864712 115.983548,160.252686 117.770226,160.257357 C128.826024,160.419366 139.881821,160.711899 150.937619,160.989334 L159.229467,161.139775 L163.375391,161.21495 C164.091011,161.237895 164.702262,161.216729 165.50364,161.275893 C166.282027,161.343951 167.049101,161.541924 167.759612,161.862329 C169.176985,162.511578 170.358615,163.633771 171.065477,165.012735 C171.776352,166.392566 171.992024,168.004672 171.700448,169.527645 C171.392815,171.050618 170.569542,172.469495 169.369666,173.48107 C168.171978,174.495519 166.606446,175.069684 165.023397,175.104033 Z M165.023397,173.318176 C166.204662,173.333184 167.392862,172.956443 168.339844,172.216145 C169.279894,171.475574 169.978362,170.410492 170.241839,169.224984 C170.478676,168.041757 170.36044,166.753477 169.769989,165.683468 C169.19961,164.614691 168.267589,163.723633 167.143252,163.273908 C166.584186,163.047152 165.990451,162.91815 165.391972,162.887497 C164.813565,162.861085 164.041016,162.901774 163.375391,162.905606 L159.229467,162.980781 L150.937619,163.131222 C139.881821,163.408657 128.826023,163.701191 117.770226,163.863172 C116.792954,163.887303 115.843781,164.226137 115.099333,164.848427 C114.359263,165.472633 113.843987,166.341795 113.65678,167.275778 C113.491469,168.216146 113.612259,169.217366 114.070971,170.045703 C114.518735,170.881201 115.256981,171.549563 116.112367,171.939988 C116.543345,172.129886 117.004246,172.245613 117.477555,172.28539 C117.672791,172.30464 118.026404,172.310068 118.381842,172.30984 L119.418232,172.317458 L123.564156,172.347884 C126.328105,172.353677 129.092055,172.395324 131.856004,172.474148 L165.023397,173.318176 Z" id="Shape" fill="#231768"></path>
            <path d="M155.2489,43.3977282 C154.630715,43.3977282 154.051943,43.0109066 153.837366,42.3934519 C151.628834,36.0481188 146.745395,31.9478105 141.397039,31.9478105 C136.047954,31.9478105 131.164515,36.048119 128.955983,42.3934519 C128.684478,43.1729338 127.832011,43.5853002 127.053259,43.3137953 C126.273777,43.0422904 125.86141,42.1905532 126.132915,41.4110712 C128.765491,33.8461554 134.756846,28.9583368 141.397039,28.9583368 C148.036503,28.9583368 154.027858,33.8461554 156.660434,41.4110712 C156.931939,42.1905532 156.519572,43.0422904 155.74009,43.3137953 C155.577333,43.3707237 155.411657,43.3977282 155.2489,43.3977282 Z" id="Path" fill="#253582"></path>
            <path d="M50.2222431,159.356199 C48.5085507,159.356199 47.1145334,157.962182 47.1145334,156.249219 C47.1145334,154.535527 48.5085507,153.14151 50.2222431,153.14151 C51.9359356,153.14151 53.3299529,154.535527 53.3299529,156.249219 C53.3299529,157.962182 51.9359356,159.356199 50.2222431,159.356199 Z M50.2222431,154.636247 C49.3332834,154.636247 48.6092702,155.35953 48.6092702,156.249219 C48.6092702,157.138179 49.3332834,157.861462 50.2222431,157.861462 C51.1112029,157.861462 51.8352161,157.138179 51.8352161,156.249219 C51.8352161,155.35953 51.1112029,154.636247 50.2222431,154.636247 Z" id="Shape" fill="#2B94FF"></path>
            <path d="M32.8371691,283.424466 C31.1234766,283.424466 29.7294593,282.030449 29.7294593,280.316756 C29.7294593,278.603064 31.1234766,277.209047 32.8371691,277.209047 C34.5508616,277.209047 35.9448788,278.603064 35.9448788,280.316756 C35.9448788,282.030449 34.5508616,283.424466 32.8371691,283.424466 Z M32.8371691,278.703784 C31.9482093,278.703784 31.2241962,279.427067 31.2241962,280.316756 C31.2241962,281.206446 31.9482093,281.929729 32.8371691,281.929729 C33.7261288,281.929729 34.450142,281.206446 34.450142,280.316756 C34.450142,279.427067 33.7261288,278.703784 32.8371691,278.703784 Z" id="Shape" fill="#2B94FF"></path>
            <path d="M55.2553023,91.8390529 C52.8146773,91.8390529 50.8280202,89.8523958 50.8280202,87.411041 C50.8280202,84.9689563 52.8146773,82.9822993 55.2553023,82.9822993 C57.6973871,82.9822993 59.6840441,84.9689564 59.6840441,87.411041 C59.6840441,89.8523958 57.6973871,91.8390529 55.2553023,91.8390529 Z M55.2553023,84.477036 C53.6379505,84.477036 52.3227571,85.7929591 52.3227571,87.4110409 C52.3227571,89.0283928 53.6379503,90.3443159 55.2553023,90.3443159 C56.8726544,90.3443159 58.1893072,89.0283928 58.1893072,87.4110409 C58.1893072,85.7929591 56.8726542,84.477036 55.2553023,84.477036 Z" id="Shape" fill="#234EE9"></path>
            <path d="M193.773407,389.031538 C191.448828,389.031538 189.557782,387.139761 189.557782,384.815913 C189.557782,382.492064 191.448828,380.600288 193.773407,380.600288 C196.097985,380.600288 197.989032,382.492064 197.989032,384.815913 C197.989032,387.139761 196.097985,389.031538 193.773407,389.031538 Z M193.773407,382.095025 C192.272831,382.095025 191.052518,383.315337 191.052518,384.815913 C191.052518,386.316489 192.272831,387.536801 193.773407,387.536801 C195.273982,387.536801 196.494295,386.316489 196.494295,384.815913 C196.494295,383.315337 195.273982,382.095025 193.773407,382.095025 Z" id="Shape" fill="#FFFFFF"></path>
            <path d="M192.795907,253.97129 L195.182523,241.563076 L204.734825,249.833759 L192.795907,253.97129 Z M196.160524,244.387603 L194.75191,251.710208 L201.797901,249.268853 L196.160524,244.387603 Z" id="Shape" fill="#234EE9"></path>
            <path d="M93.2825973,184.006357 C94.866376,184.410466 95.9866988,184.958996 97.2157696,185.608473 C98.3944805,186.268989 99.5158982,187.011385 100.532947,187.868779 C102.594414,189.553369 104.311756,191.577248 105.728398,193.748786 C107.130809,195.937475 108.172672,198.297953 108.99631,200.700398 C109.413421,201.899909 109.680182,203.141388 110.024672,204.352942 L110.69942,208.060362 C110.7735,208.465703 110.504549,208.854122 110.099117,208.927928 C109.715944,208.997674 109.347734,208.761065 109.246285,208.392353 L109.228768,208.327716 L108.278136,204.825111 C107.848253,203.699177 107.499384,202.545555 107.011113,201.454928 C106.046249,199.269569 104.898557,197.182192 103.473156,195.327364 C102.034618,193.489506 100.375664,191.853086 98.4984846,190.57028 C97.5726673,189.912547 96.5742299,189.374098 95.5615602,188.914064 C94.5828286,188.479802 93.4063074,188.085955 92.5819395,187.955494 L92.4717318,187.938069 C91.3758591,187.764593 90.6277608,186.73541 90.8011006,185.639309 C90.9748054,184.543208 92.0038967,183.795247 93.0997694,183.968678 C93.1607119,183.978303 93.2238443,183.991577 93.2825973,184.006357 Z" id="Path" fill="#234EE9"></path>
            <path d="M182.403727,219.94737 C183.370416,214.767656 184.820997,209.756492 186.624826,204.834142 C188.449456,199.929309 190.655798,195.136234 193.466458,190.664158 C196.247194,186.186881 199.677134,182.024581 203.878526,178.666897 C205.992908,177.011364 208.288292,175.561376 210.748988,174.416056 C213.22939,173.312794 215.847369,172.526378 218.526655,172.042851 C219.323654,171.899025 220.086714,172.428624 220.230495,173.225713 C220.374276,174.022848 219.844768,174.78568 219.047405,174.929507 C219.039741,174.930921 219.031713,174.93229 219.023685,174.933612 L218.971865,174.941869 C216.537079,175.327504 214.149733,175.982318 211.864932,176.932951 C209.598376,177.926507 207.456261,179.208812 205.454642,180.701222 C201.476219,183.731659 198.108682,187.603569 195.329405,191.860431 C192.519475,196.107531 190.255109,200.732466 188.356764,205.497122 C186.480315,210.263831 184.926825,215.217017 183.875838,220.208474 L183.86927,220.238353 C183.784242,220.642098 183.388297,220.900465 182.984324,220.815483 C182.586555,220.731687 182.330012,220.344865 182.403727,219.94737 Z" id="Path" fill="#2B94FF"></path>
            <path d="M250.953431,148.523736 L243.611121,142.177673 L252.778061,138.992599 L250.953431,148.523736 Z M246.548045,142.739659 L249.97251,145.700669 L250.824978,141.253681 L246.548045,142.739659 Z" id="Shape" fill="#2B94FF"></path>
            <path d="M28.8830592,363.648746 L24.476213,355.004379 L34.1686472,355.510896 L28.8830592,363.648746 Z M26.9839844,356.630489 L29.0392476,360.665111 L31.5046876,356.868421 L26.9839844,356.630489 Z" id="Shape" fill="#FFFFFF"></path>
            <path d="M141.116046,264.362603 L135.658213,256.515234 L145.183511,255.710938 L141.116046,264.362603 Z M138.363045,257.788096 L140.864977,261.384807 L142.729749,257.418791 L138.363045,257.788096 Z" id="Shape" fill="#FFFFFF"></path>
            <circle id="Oval" fill="#234EE9" cx="243.33031" cy="73.6212862" r="1.49473684"></circle>
            <circle id="Oval" fill="#FFFFFF" cx="99.0900523" cy="362.157613" r="1.49473684"></circle>
            <circle id="Oval" fill="#FFFFFF" cx="174.122005" cy="325.023246" r="1.49473684"></circle>
            <circle id="Oval" fill="#234EE9" cx="268.767841" cy="193.977457" r="1.49473684"></circle>
            <circle id="Oval" fill="#234EE9" cx="30.5293316" cy="126.595607" r="1.24561399"></circle>
            <circle id="Oval" fill="#234EE9" cx="67.5046361" cy="249.935345" r="1.49473684"></circle>
            <g id="Group" transform="translate(213.747368, 286.989474)">
                <path d="M43.1905755,18.1107749 C44.5074108,24.3882317 42.8849043,30.5652428 39.3025627,35.298424 C36.1044426,39.5058381 34.8590415,44.8864438 35.9423242,50.050557 L36.1460441,51.021762 C36.5634739,53.0116578 35.2718183,54.9891005 33.2818769,55.4065302 L25.7014519,56.9966497 C23.7116473,57.4140337 21.7342502,56.1223782 21.3168206,54.1324825 L21.1180728,53.1849978 C20.0000308,47.8550257 16.4466095,43.5305614 11.7402961,40.783353 C5.56853092,37.1813054 1.22896787,30.5237326 1.19475895,22.344829 C1.15607389,14.1423876 6.16294965,6.4146237 13.6848041,3.13033544 C14.3181789,2.84906872 14.956708,2.59152227 15.6049991,2.38123357 C27.8756354,-1.72605424 40.61657,5.84000186 43.1905755,18.1107749 Z" id="Path" fill="#E5E1F9"></path>
                <path d="M24.9403989,58.1589844 C22.7245682,58.1589844 20.7298829,56.6073192 20.2576686,54.3549959 L20.0591489,53.4061883 C19.0548726,48.6198192 15.9062912,44.4684211 11.1950966,41.7168791 C4.28923723,37.6880962 0.146597385,30.4479647 0.112058774,22.3495272 C0.0714225853,13.7095396 5.3519017,5.58774679 13.2518194,2.13846634 C14.0101356,1.80273439 14.6531352,1.55166539 15.2713198,1.35168589 C21.3400389,-0.678762242 27.9926397,-0.0335731347 33.5117803,3.13106502 C39.0323807,6.29570318 42.9465767,11.6747122 44.2493626,17.888672 C45.5718543,24.1902139 44.0829564,30.7734787 40.1651109,35.9510487 C37.1391446,39.9316613 35.9867083,44.9895355 37.0012026,49.8284541 L37.2048314,50.7991573 C37.7463816,53.3813736 36.0859683,55.9227182 33.5037521,56.465728 L25.9242393,58.0568052 C25.5943462,58.1254113 25.2644532,58.1589844 24.9403989,58.1589844 Z M22.4749588,2.32822781 C20.2992701,2.32822781 18.1031455,2.68585526 15.9486226,3.40694905 C15.3932052,3.58649265 14.8158923,3.81274679 14.1225329,4.11928458 C6.99844775,7.22991371 2.23981296,14.5517887 2.27681853,22.340769 C2.30768911,29.6641037 6.04891034,36.2094162 12.2854955,39.8484581 C17.5331312,42.9109169 21.0459087,47.5688323 22.1771793,52.9624383 L22.3756991,53.9112459 C22.6734787,55.3256991 24.0667661,56.2350946 25.4797596,55.937315 L33.0592723,54.3462378 C34.4737255,54.0499178 35.383121,52.6573603 35.0868011,51.2429071 L34.8831724,50.2722039 C33.7394943,44.81875 35.0364413,39.1229852 38.4412007,34.6431538 C41.9795231,29.967722 43.3246402,24.0223478 42.1313323,18.3324218 L42.1313323,18.3324218 C40.9548109,12.7227795 37.4208677,7.86634455 32.4352489,5.00824419 C29.3333778,3.23032482 25.9300782,2.32822781 22.4749588,2.32822781 Z" id="Shape" fill="#231768"></path>
                <path d="M43.1905755,18.1107749 C44.5074108,24.3882317 42.8849043,30.5652428 39.3025627,35.298424 C36.1044426,39.5058381 34.8590415,44.8864438 35.9423242,50.050557 L36.1460441,51.021762 C36.5634739,53.0116578 35.2718183,54.9891005 33.2818769,55.4065302 L27.1464219,56.6935329 C40.9807205,19.3657555 25.6232208,6.63567734 15.604999,2.38123328 C27.8756354,-1.72605424 40.61657,5.84000186 43.1905755,18.1107749 Z" id="Path" fill="url(#linearGradient-7)"></path>
                <path d="M35.5590152,60.7784231 L26.3265245,62.7151309 C24.7864912,63.0381817 23.2621497,62.0424811 22.939099,60.5024478 L22.939099,60.5024478 C22.6160483,58.9624144 23.6117488,57.438073 25.1517822,57.1150222 L34.3843184,55.1783144 C35.9243518,54.8552637 37.4486932,55.8509642 37.771744,57.3909976 L37.771744,57.3909976 C38.0947947,58.9310309 37.0990484,60.4553724 35.5590152,60.7784231 Z" id="Path" fill="#234EE9"></path>
                <path d="M36.7337576,66.3785317 L27.5012669,68.3152395 C25.9612336,68.6382902 24.4368921,67.6425897 24.1138414,66.1025563 L24.1138414,66.1025563 C23.7907906,64.562523 24.7864912,63.0381815 26.3265245,62.7151308 L35.5590152,60.778423 C37.0990486,60.4553722 38.62339,61.4510728 38.9464408,62.9911061 L38.9464408,62.9911061 C39.2694914,64.5311395 38.2737908,66.0554809 36.7337576,66.3785317 Z" id="Path" fill="#234EE9"></path>
                <path d="M25.7352077,63.8591282 C24.9783511,63.8591282 24.2353618,63.638713 23.584334,63.2124793 C22.7012131,62.6358963 22.0961658,61.7513156 21.8801297,60.7236841 C21.6640936,59.6960525 21.863343,58.6436059 22.440656,57.760485 C23.0186988,56.8759044 23.9025494,56.2715869 24.930181,56.0555508 L34.1620786,54.1185237 C36.2881374,53.6791528 38.3835425,55.0410566 38.8309417,57.1693049 C39.2768812,59.2975532 37.9084088,61.3907688 35.7808904,61.8374382 L26.5482629,63.7744653 C26.2782175,63.831394 26.0059827,63.8591282 25.7352077,63.8591282 Z M34.9707545,56.2000617 C34.8503289,56.2000617 34.7284436,56.2117393 34.6058286,56.2380139 L25.373931,58.175041 C24.9119347,58.2713814 24.5141654,58.5443461 24.2528784,58.9443049 C23.9915913,59.3428042 23.9010897,59.8172079 23.99816,60.2799341 C24.0952303,60.7412006 24.3689248,61.1396997 24.7688836,61.4009867 C25.1673829,61.6622737 25.644706,61.7527754 26.1037829,61.6564348 L35.3371402,59.717948 L35.3371402,59.717948 C36.2968955,59.5179685 36.9136205,58.5735401 36.7129113,57.6130549 C36.5370169,56.7766447 35.7954872,56.2000617 34.9707545,56.2000617 Z" id="Shape" fill="#231768"></path>
                <path d="M26.9139186,69.4585526 C25.0878289,69.4585526 23.4442023,68.1813117 23.0544614,66.3245682 C22.608522,64.1977795 23.9769943,62.1031043 26.103783,61.656435 L35.3371404,59.7179481 C37.4617394,59.2727384 39.559334,60.640481 40.0052736,62.7687293 C40.2213097,63.7963609 40.0220603,64.8488075 39.4447473,65.733388 C38.8681642,66.6165089 37.9843135,67.2222861 36.955952,67.4383222 L27.7233246,69.3753493 C27.4518195,69.432278 27.1810444,69.4585526 26.9139186,69.4585526 Z M36.1465461,61.7994861 C36.0261205,61.7994861 35.9035053,61.8111637 35.7808902,61.8374383 L26.5482628,63.7744654 C25.5892372,63.9759045 24.9717825,64.9203331 25.1724917,65.8808182 C25.3746607,66.8413034 26.3263878,67.4616776 27.2795744,67.2558594 L36.5122019,65.3188323 L36.5122019,65.3188323 C36.9734684,65.2224919 37.3719675,64.9495272 37.6325246,64.5495684 C37.8938117,64.1496095 37.9843133,63.6752058 37.887243,63.2124796 C37.7120786,62.3760692 36.9705489,61.7994861 36.1465461,61.7994861 Z" id="Shape" fill="#231768"></path>
                <path d="M29.7742085,73.0815378 C29.2728002,73.0815378 28.8232113,72.7312088 28.7159231,72.2203124 C28.5933081,71.6364308 28.967722,71.0627671 29.5523335,70.9386923 L35.0006784,69.7942844 C35.5911286,69.6833469 36.1596833,70.0468132 36.2822985,70.6321545 C36.4049136,71.2160361 36.0304996,71.7896998 35.4458882,71.9137746 L29.9975432,73.0581825 C29.9223684,73.0727797 29.8479235,73.0815378 29.7742085,73.0815378 Z" id="Path" fill="#231768"></path>
                <path d="M29.1443462,56.524116 C28.6436678,56.524116 28.1933491,56.173787 28.0867908,55.6628906 L22.5399158,29.2203536 C22.4173007,28.6350122 22.7917147,28.0613487 23.377056,27.9387335 C23.9580182,27.8263363 24.5360609,28.1912622 24.6579462,28.7766036 L30.2048212,55.2191406 C30.3274363,55.8044819 29.9530223,56.3766859 29.367681,56.5007607 C29.2932361,56.5153577 29.2180613,56.524116 29.1443462,56.524116 Z" id="Path" fill="#231768"></path>
                <path d="M22.9734478,30.0188117 C22.2136718,30.0188117 21.4699526,29.799856 20.8189248,29.3750822 C19.9336143,28.7970393 19.3263774,27.9080797 19.1096115,26.8731496 C18.6622122,24.7376028 20.0350637,22.6356291 22.1706107,22.1875 C23.2033513,21.9714639 24.2616366,22.1685239 25.1476769,22.7480263 C26.0322575,23.3260692 26.6387645,24.2135692 26.8562603,25.2484992 L26.8562603,25.2484992 C27.3036596,27.3840461 25.9308081,29.4860197 23.7952611,29.9341489 C23.5215666,29.9910773 23.2464124,30.0188117 22.9734478,30.0188117 Z M22.987315,24.2675782 C22.8639701,24.2675782 22.7391654,24.2807156 22.6150906,24.3055304 C21.6473069,24.5084293 21.0254729,25.461616 21.2276419,26.4293996 C21.326172,26.8979647 21.6013261,27.3008429 22.0020148,27.5621299 C22.4034334,27.8248765 22.8844058,27.9109991 23.3507814,27.8161184 C24.318565,27.6132196 24.940399,26.6600329 24.73823,25.6922492 C24.6397,25.2236842 24.3645458,24.8222658 23.9638571,24.559519 C23.6682669,24.366838 23.3310752,24.2675782 22.987315,24.2675782 Z" id="Shape" fill="#231768"></path>
            </g>
            <g id="Group" transform="translate(46.831579, 273.536842)">
                <g>
                    <path d="M79.3798638,1.81505058 L49.8868192,44.611472 L1.93419889,44.611472 L30.3345638,3.40320847 C31.0148313,2.4131187 32.1492951,1.81505058 33.3663461,1.81505058 L79.3798638,1.81505058 Z" id="Path" fill="#E5E1F9"></path>
                    <polygon id="Path" fill="#234EE9" points="33.3653654 1.81505058 39.6708303 1.54336317 10.3290476 44.4692877 1.93609197 44.611472 30.9769704 2.49426916"></polygon>
                    <path d="M79.3798638,1.81505058 L49.8868192,44.611472 L32.0254256,44.611472 C35.0164274,38.1765496 39.4918569,31.4322155 44.9365755,24.543599 C52.0726575,15.5099475 49.3505606,7.56934034 44.7099792,1.81505058 L79.3798638,1.81505058 Z" id="Path" fill="url(#linearGradient-8)"></path>
                    <path d="M49.8890316,45.6931126 L1.9362972,45.6931126 C1.53414872,45.6931126 1.16557352,45.4712376 0.978001533,45.1150698 C0.791159427,44.7589021 0.816704181,44.3282893 1.04514795,43.9969365 L29.4334703,2.7982523 C30.3253495,1.50495456 31.7952713,0.732771269 33.3651829,0.732771269 L79.3779707,0.732771269 C79.7801192,0.732771269 80.1486944,0.954646269 80.3362664,1.31081411 C80.5231085,1.6669818 80.4975637,2.09759455 80.26912,2.42894737 L50.7801808,45.2260073 C50.5780119,45.5179481 50.2451994,45.6931126 49.8890316,45.6931126 Z M3.99593949,43.5298314 L49.3204769,43.5298314 L77.3183284,2.89605263 L33.3651829,2.89605263 C32.5068769,2.89605263 31.70331,3.31936674 31.2157688,4.02732313 L3.99593949,43.5298314 Z" id="Shape" fill="#231768"></path>
                    <polygon id="Path" fill="#E5E1F9" points="49.8886896 44.611472 54.4928239 55.2676302 84.2268792 11.7836882 79.3779709 1.81505058"></polygon>
                    <path d="M54.492938,56.3489515 C54.4586349,56.3489515 54.4243319,56.3474917 54.389299,56.3445724 C53.9966387,56.3066201 53.6557977,56.0584705 53.4996095,55.6964637 L48.8957033,45.040625 C48.7475434,44.6990543 48.7862255,44.3049342 48.9978826,43.9969367 L78.4868218,1.19987668 C78.7057774,0.884580629 79.0699735,0.697738524 79.4597144,0.735690789 C79.8428868,0.764884794 80.1829977,0.995518055 80.3508637,1.34146787 L85.2,11.3112459 C85.3700555,11.6601151 85.3394017,12.0746711 85.1204461,12.3943462 L55.3862767,55.8774671 C55.1833778,56.1752466 54.8483758,56.3489515 54.492938,56.3489515 Z M51.1202919,44.7326274 L54.7075143,53.0354235 L82.9790604,11.6922286 L79.2166735,3.95579773 L51.1202919,44.7326274 Z" id="Shape" fill="#231768"></path>
                    <path d="M49.8886896,44.611472 L54.4928239,55.2676302 L8.13971981,55.265167 C6.5838578,55.3223691 5.17086438,54.3632981 4.64959045,52.8962499 L1.93609197,44.611472 L49.8886896,44.611472 L49.8886896,44.611472 Z" id="Path" fill="#E5E1F9"></path>
                    <path d="M7.97071336,56.3504126 C6.03879514,56.351871 4.29371917,55.1271793 3.63028366,53.2587583 L0.907935743,44.9486637 C0.799917688,44.6187707 0.856846086,44.2567641 1.05974495,43.9765009 C1.2633737,43.6962378 1.58961751,43.5298315 1.9362972,43.5298315 L49.8890316,43.5298315 C50.321104,43.5298315 50.7108449,43.7852797 50.8823602,44.1823192 L55.4862664,54.8381579 C55.6307771,55.1724301 55.5972039,55.5577919 55.3972245,55.8614103 C55.197245,56.1664885 54.857134,56.3489515 54.4929378,56.3489515 L8.14003894,56.3474917 C8.08384042,56.3504126 8.02691203,56.3504126 7.97071336,56.3504126 Z M3.42957443,45.6931126 L5.67824832,52.55956 C6.03441601,53.5623765 7.00803856,54.2294613 8.10062707,54.1842105 L52.8463919,54.1856703 L49.1774261,45.6931126 L3.42957443,45.6931126 L3.42957443,45.6931126 Z" id="Shape" fill="#231768"></path>
                    <path d="M51.5472553,49.00956 L51.5465254,49.00956 L9.11731089,48.9526316 C8.80785373,48.9526316 8.55678458,48.7015624 8.55751287,48.3906455 C8.55824434,48.082648 8.80858361,47.8315789 9.11804077,47.8315789 L9.11877065,47.8315789 L51.5479853,47.8885073 C51.8574425,47.8885073 52.1085116,48.1395765 52.1077833,48.4504934 C52.1070519,48.758491 51.8567126,49.00956 51.5472553,49.00956 Z" id="Path" fill="#231768"></path>
                    <path d="M52.2581312,52.2194491 C52.2574013,52.2194491 52.2566714,52.2194491 52.2552118,52.2194491 L16.8493628,52.0472039 C16.5399056,52.0457442 16.2902962,51.7932154 16.2917494,51.4837583 C16.2932156,51.1757607 16.5442846,50.9261513 16.8522821,50.9261513 C16.853012,50.9261513 16.8537419,50.9261513 16.8552015,50.9261513 L52.2610506,51.0983964 C52.5705077,51.0998562 52.8201171,51.3523849 52.8186639,51.6618421 C52.8171978,51.9698397 52.5661287,52.2194491 52.2581312,52.2194491 Z" id="Path" fill="#231768"></path>
                    <path d="M11.2382607,44.1034951 C11.0273335,44.1034951 10.8142167,44.0421876 10.6273746,43.9151932 C10.1339947,43.5765419 10.0084601,42.9036184 10.3463816,42.4102385 L38.5354543,1.26118421 C38.8741056,0.767804314 39.5484889,0.645189107 40.0396793,0.979461293 C40.5330592,1.31811261 40.6585938,1.99103611 40.3206724,2.48441601 L12.1315996,43.6334703 C11.922132,43.9400083 11.5827508,44.1034951 11.2382607,44.1034951 Z" id="Path" fill="#231768"></path>
                </g>
                <path d="M62.8044921,32.9411389 C62.6964741,32.9411389 62.5869963,32.9104852 62.4899259,32.8447985 C62.2344778,32.669634 62.1673314,32.3222245 62.341766,32.0653166 L80.5070517,5.32645961 C80.6785669,5.07247109 81.0274361,5.0024053 81.2858038,5.17756977 C81.5412519,5.35273424 81.6083983,5.70014382 81.4339637,5.95705172 L63.268678,32.6959087 C63.16066,32.8550165 62.9840357,32.9411389 62.8044921,32.9411389 Z" id="Path" fill="#231768"></path>
                <path d="M57.8590152,45.1719983 C57.7509972,45.1719983 57.6415194,45.1413446 57.5444491,45.0756579 C57.2890009,44.9004934 57.2218545,44.5530838 57.3962891,44.2961759 L82.2222039,7.75248761 C82.3944491,7.49557971 82.7411287,7.42697368 83.000956,7.60359777 C83.2564041,7.77876224 83.3235506,8.12617182 83.149116,8.38307971 L58.3232011,44.9267681 C58.2151829,45.0858758 58.0385588,45.1719983 57.8590152,45.1719983 Z" id="Path" fill="#231768"></path>
            </g>
        </g>
    </g>
</svg>