<?xml version="1.0" encoding="UTF-8"?>
<svg width="28px" height="28px" viewBox="0 0 28 28" version="1.1" xmlns="http://www.w3.org/2000/svg" xmlns:xlink="http://www.w3.org/1999/xlink">
    <!-- Generator: Sketch 57.1 (83088) - https://sketch.com -->
    <title>Cross</title>
    <desc>Created with Sketch.</desc>
    <g id="Nomod-Coming-Soon-Business" stroke="none" stroke-width="1" fill="none" fill-rule="evenodd">
        <g id="Nomod-Coming-Soon-(768x1024)---Expanded-Menu" transform="translate(-691.000000, -40.000000)" fill="#FFFFFF" fill-rule="nonzero">
            <g id="Pink">
                <g id="close" transform="translate(691.000000, 40.000000)">
                    <path d="M16.4663333,13.9918333 L27.4703333,2.98783333 C28.154,2.30475 28.154,1.19641667 27.4703333,0.513333333 C26.7866667,-0.170333333 25.6795,-0.170333333 24.9958333,0.513333333 L13.9918333,11.5173333 L2.98725,0.513333333 C2.30358333,-0.170333333 1.19641667,-0.170333333 0.51275,0.513333333 C-0.170916667,1.19641667 -0.170916667,2.30475 0.51275,2.98783333 L11.5173333,13.9918333 L0.51275,24.9958333 C-0.170916667,25.6789167 -0.170916667,26.78725 0.51275,27.4703333 C0.854583333,27.8115833 1.30258333,27.9825 1.75,27.9825 C2.19741667,27.9825 2.64541667,27.8115833 2.98725,27.46975 L13.9918333,16.46575 L24.9958333,27.46975 C25.3376667,27.8115833 25.7856667,27.9825 26.2330833,27.9825 C26.6805,27.9825 27.1285,27.8115833 27.4703333,27.46975 C28.154,26.7866667 28.154,25.6783333 27.4703333,24.99525 L16.4663333,13.9918333 Z" id="Cross"></path>
                </g>
            </g>
        </g>
    </g>
</svg>