<?xml version="1.0" encoding="UTF-8"?>
<svg width="363px" height="439px" viewBox="0 0 363 439" version="1.1" xmlns="http://www.w3.org/2000/svg" xmlns:xlink="http://www.w3.org/1999/xlink">
    <!-- Generator: Sketch 57.1 (83088) - https://sketch.com -->
    <title>Luggage</title>
    <desc>Created with Sketch.</desc>
    <defs>
        <filter x="-33.4%" y="-26.3%" width="166.8%" height="152.6%" filterUnits="objectBoundingBox" id="filter-1">
            <feOffset dx="0" dy="9" in="SourceAlpha" result="shadowOffsetOuter1"></feOffset>
            <feGaussianBlur stdDeviation="20" in="shadowOffsetOuter1" result="shadowBlurOuter1"></feGaussianBlur>
            <feColorMatrix values="0 0 0 0 0   0 0 0 0 0   0 0 0 0 0  0 0 0 0.15 0" type="matrix" in="shadowBlurOuter1" result="shadowMatrixOuter1"></feColorMatrix>
            <feMerge>
                <feMergeNode in="shadowMatrixOuter1"></feMergeNode>
                <feMergeNode in="SourceGraphic"></feMergeNode>
            </feMerge>
        </filter>
        <linearGradient x1="73.0846569%" y1="44.8408526%" x2="112.558335%" y2="38.068415%" id="linearGradient-2">
            <stop stop-color="#691B3A" stop-opacity="0" offset="0%"></stop>
            <stop stop-color="#001B3A" offset="100%"></stop>
        </linearGradient>
        <linearGradient x1="8.22681288%" y1="49.3577347%" x2="119.226841%" y2="51.0643948%" id="linearGradient-3">
            <stop stop-color="#FFFFFF" stop-opacity="0" offset="0%"></stop>
            <stop stop-color="#766EBC" offset="100%"></stop>
        </linearGradient>
        <linearGradient x1="73.4405629%" y1="51.9008156%" x2="8.14752993%" y2="47.213695%" id="linearGradient-4">
            <stop stop-color="#FFFFFF" stop-opacity="0" offset="0%"></stop>
            <stop stop-color="#766EBC" offset="100%"></stop>
        </linearGradient>
        <linearGradient x1="91.7739404%" y1="49.3577268%" x2="-19.2267162%" y2="51.0644185%" id="linearGradient-5">
            <stop stop-color="#FFFFFF" stop-opacity="0" offset="0%"></stop>
            <stop stop-color="#766EBC" offset="100%"></stop>
        </linearGradient>
        <linearGradient x1="26.5599531%" y1="51.9008509%" x2="91.853126%" y2="47.2137192%" id="linearGradient-6">
            <stop stop-color="#FFFFFF" stop-opacity="0" offset="0%"></stop>
            <stop stop-color="#766EBC" offset="100%"></stop>
        </linearGradient>
        <linearGradient x1="91.7733831%" y1="49.3576946%" x2="-19.2259507%" y2="51.0643647%" id="linearGradient-7">
            <stop stop-color="#FFFFFF" stop-opacity="0" offset="0%"></stop>
            <stop stop-color="#766EBC" offset="100%"></stop>
        </linearGradient>
        <linearGradient x1="26.5596246%" y1="51.9008779%" x2="91.8523978%" y2="47.2137273%" id="linearGradient-8">
            <stop stop-color="#FFFFFF" stop-opacity="0" offset="0%"></stop>
            <stop stop-color="#766EBC" offset="100%"></stop>
        </linearGradient>
        <linearGradient x1="189.539236%" y1="-29.3531296%" x2="-13.4780782%" y2="98.4356515%" id="linearGradient-9">
            <stop stop-color="#FFFFFF" stop-opacity="0" offset="0%"></stop>
            <stop stop-color="#766EBC" offset="100%"></stop>
        </linearGradient>
        <linearGradient x1="105.804386%" y1="-14.3238986%" x2="-14.797057%" y2="124.733033%" id="linearGradient-10">
            <stop stop-color="#FFFFFF" stop-opacity="0" offset="0%"></stop>
            <stop stop-color="#766EBC" offset="100%"></stop>
        </linearGradient>
        <linearGradient x1="104.178555%" y1="-3.41416781%" x2="-63.8422557%" y2="135.140059%" id="linearGradient-11">
            <stop stop-color="#FFFFFF" stop-opacity="0" offset="0%"></stop>
            <stop stop-color="#766EBC" offset="100%"></stop>
        </linearGradient>
        <linearGradient x1="92.400076%" y1="63.7032883%" x2="25.475746%" y2="32.7265322%" id="linearGradient-12">
            <stop stop-color="#FFFFFF" stop-opacity="0" offset="0%"></stop>
            <stop stop-color="#766EBC" offset="100%"></stop>
        </linearGradient>
    </defs>
    <g id="Nomod-Coming-Soon-Business" stroke="none" stroke-width="1" fill="none" fill-rule="evenodd">
        <g id="Nomod-Handbook-(1920x1080)" transform="translate(-1358.000000, -90.000000)" fill-rule="nonzero">
            <g id="Pop-Up-Graphics" transform="translate(1094.000000, 118.000000)">
                <g id="Luggage" filter="url(#filter-1)" transform="translate(304.000000, 3.000000)">
                    <path d="M94.9401382,335.68613 C92.6284563,335.68613 90.7465845,333.804258 90.7465845,331.492576 C90.7465845,329.180894 92.6284563,327.299022 94.9401382,327.299022 C97.2518201,327.299022 99.1322397,329.180894 99.1322397,331.492576 C99.1322397,333.804258 97.2518201,335.68613 94.9401382,335.68613 Z M94.9401382,328.785933 C93.447419,328.785933 92.2334955,329.999857 92.2334955,331.492576 C92.2334955,332.985295 93.4474189,334.199219 94.9401382,334.199219 C96.4314054,334.199219 97.6453287,332.985295 97.6453287,331.492576 C97.6453287,329.999857 96.4314054,328.785933 94.9401382,328.785933 Z" id="Shape" fill="#FFFFFF"></path>
                    <path d="M282.936002,11.082973 L282.936002,303.855671 C282.936002,334.025153 258.476389,358.469973 228.32179,358.469973 L11.3815758,358.469973 C5.32974637,358.469973 0.422867525,353.563185 0.422867525,347.511447 L0.422867525,11.082973 C0.422867525,5.03123441 5.32974637,0.124446272 11.3815758,0.124446272 L271.977657,0.124446272 C278.029486,0.124446272 282.936002,5.03123441 282.936002,11.082973 Z" id="Path" fill="#FFFFFF"></path>
                    <path d="M31.1475363,291.068272 C31.1475363,291.068272 19.2522483,208.792561 65.8421413,156.255024 C112.432034,103.717487 67.824659,71.005468 110.449471,36.3108628 C152.255184,2.28293564 250.219059,12.5202869 251.210364,58.1188984 C252.201668,103.71751 185.78628,150.30738 220.480839,188.967066 C255.17549,227.626752 275.000939,257.364972 266.079473,287.103192 L31.1475363,291.068272 Z" id="Path" fill="#EBEFFF" opacity="0.56"></path>
                    <path d="M282.936002,277.686073 L282.936002,303.855671 C282.936002,334.025153 258.476389,358.469973 228.32179,358.469973 L11.3815758,358.469973 C5.32974637,358.469973 0.422867525,353.563185 0.422867525,347.511447 L0.422867525,277.686073 L282.936002,277.686073 L282.936002,277.686073 Z" id="Path" fill="#2B94FF"></path>
                    <path d="M282.936002,277.686073 L282.936002,303.855671 C282.936002,334.025153 258.476389,358.469973 228.32179,358.469973 L11.3815758,358.469973 C5.32974637,358.469973 0.422867525,353.563185 0.422867525,347.511447 L0.422867525,277.686073 L282.936002,277.686073 L282.936002,277.686073 Z" id="Path" fill="url(#linearGradient-2)" opacity="0.38"></path>
                    <g id="Group" transform="translate(105.570681, 209.654450)">
                        <path d="M117.342453,88.3509553 L31.468442,88.3509553 C27.1867664,88.3509553 23.7157949,84.8799837 23.7157949,80.5983535 L23.7157949,9.59331659 C23.7157949,5.31168635 27.1867664,1.84071477 31.468442,1.84071477 L117.342453,1.84071477 C121.624128,1.84071477 125.095009,5.31168635 125.095009,9.59331659 L125.095009,80.5983535 C125.095009,84.8799837 121.624128,88.3509553 117.342453,88.3509553 Z" id="Path" fill="#E5E1F9"></path>
                        <path d="M117.342453,88.3509553 L31.468442,88.3509553 C27.1867664,88.3509553 23.7157949,84.8799837 23.7157949,80.5983535 L23.7157949,9.59331659 C23.7157949,5.31168635 27.1867664,1.84071477 31.468442,1.84071477 L117.342453,1.84071477 C121.624128,1.84071477 125.095009,5.31168635 125.095009,9.59331659 L125.095009,80.5983535 C125.095009,84.8799837 121.624128,88.3509553 117.342453,88.3509553 Z" id="Path" fill="url(#linearGradient-3)"></path>
                        <path d="M117.342543,89.4266606 L31.4690772,89.4266606 C26.6003149,89.4266606 22.6405432,85.4668889 22.6405432,80.5981266 L22.6405432,9.5937704 C22.6405432,4.72500807 26.6003149,0.765236364 31.4690772,0.765236364 L117.342543,0.765236364 C122.211306,0.765236364 126.171077,4.72500807 126.171077,9.5937704 L126.171077,80.5981266 C126.171077,85.4668889 122.211306,89.4266606 117.342543,89.4266606 Z M31.4690772,2.91719165 C27.7881013,2.91719165 24.7924983,5.9127945 24.7924983,9.59377054 L24.7924983,80.5981267 C24.7924983,84.2791026 27.7881012,87.2747056 31.4690772,87.2747056 L117.342543,87.2747056 C121.023519,87.2747056 124.019122,84.2791028 124.019122,80.5981267 L124.019122,9.59377054 C124.019122,5.91279465 121.023519,2.91719165 117.342543,2.91719165 L31.4690772,2.91719165 Z" id="Shape" fill="#231768"></path>
                        <path d="M102.784991,9.5861018 L102.784991,80.5921369 C102.784991,84.8703185 99.3179222,88.3576711 95.0395138,88.3576711 L9.17112992,88.3576711 C4.89322053,88.3576711 1.4058226,84.8703185 1.4058226,80.5921369 L1.4058226,9.5861018 C1.4058226,5.30792015 4.89322053,1.84071492 9.17112992,1.84071492 L95.0395138,1.84071492 C99.3179222,1.84071492 102.784991,5.30792015 102.784991,9.5861018 Z" id="Path" fill="#E5E1F9"></path>
                        <path d="M102.784991,9.5861018 L102.784991,80.5921369 C102.784991,84.8703185 99.3179222,88.3576711 95.0395138,88.3576711 L42.5248014,88.3576711 C63.8956075,73.6982932 62.6793246,44.1360904 63.0847219,24.6510131 C63.3283053,13.1951099 66.0449308,6.13917997 68.8433257,1.84071477 L95.0395138,1.84071477 C99.3179222,1.84071477 102.784991,5.30792015 102.784991,9.5861018 Z" id="Path" fill="url(#linearGradient-4)"></path>
                        <path d="M95.0388785,89.4322874 L49.732018,89.477619 L27.0784061,89.5003075 L15.7515549,89.5116517 L10.0881519,89.5173238 C9.20965475,89.5309823 8.03058072,89.5210933 6.99308277,89.2438825 C5.93816001,88.9821484 4.93260746,88.5236147 4.04285672,87.9009072 C2.25645806,86.66366 0.951780798,84.7462583 0.47223743,82.6190334 C0.212681504,81.5571226 0.229017154,80.4202039 0.23192124,79.5377589 L0.229017154,76.7060575 L0.217763617,65.379297 L0.194893587,42.725776 L0.172386662,20.0722551 L0.16657849,14.4088521 L0.163674404,11.5771961 C0.177832027,10.603362 0.122653652,9.77369034 0.216674603,8.61199563 C0.443196274,6.42546327 1.5235299,4.34869766 3.15746219,2.89037417 C4.78304503,1.4181653 6.97347978,0.586633225 9.1650037,0.587675907 L54.4722725,0.633008492 L77.1255212,0.65569697 L88.4523271,0.667041208 L94.1157301,0.672713328 C94.9942273,0.660869933 96.1736642,0.672441074 97.2100732,0.951690691 C98.2639068,1.21514916 99.2680074,1.67508954 100.15558,2.29865927 C101.937985,3.53767618 103.236491,5.45439739 103.711316,7.57731122 C103.96833,8.63722539 103.95018,9.77024175 103.94546,10.6539119 L103.942556,13.485568 L103.931303,24.8123285 L103.908796,47.4658495 L103.885926,70.1194158 L103.880118,75.7827734 L103.877577,78.6144748 C103.861967,79.5841795 103.913878,80.4295063 103.82022,81.561479 C103.593698,83.7065823 102.530427,85.7407843 100.926625,87.1674347 C99.3318983,88.6078794 97.1904706,89.4303361 95.0388785,89.4322874 Z M95.0388785,87.2696232 C96.6684545,87.2666283 98.2787907,86.6563994 99.4879949,85.5633148 C100.700829,84.4788064 101.499463,82.9451572 101.666813,81.3275607 C101.734334,80.5774801 101.697306,79.5315875 101.706019,78.6144745 L101.703115,75.7827731 L101.697307,70.1194155 L101.6748,47.4658492 L101.65193,24.8123282 L101.640676,13.4855677 L101.637772,10.6539116 C101.640313,9.65384963 101.646484,8.88139833 101.457716,8.09946321 C101.107044,6.53373255 100.141786,5.11420628 98.8193205,4.2008596 C98.1611736,3.74123683 97.4206223,3.40444926 96.6437693,3.2120965 C95.8484026,3.01030528 95.1209198,2.99755443 94.1157302,3.00867176 L88.4523273,3.01434388 L77.1255214,3.02568812 L54.4722727,3.0483766 L9.16500385,3.0937082 C7.57572245,3.09969793 6.01403039,3.70085143 4.83604538,4.76212687 C3.65297825,5.81500765 2.87140609,7.30604795 2.7047821,8.88226074 C2.63726117,9.60261945 2.67102164,10.6641671 2.66085726,11.5771962 L2.65795317,14.4088523 L2.65250796,20.0722552 L2.62963793,42.7257762 L2.607131,65.3792971 L2.59587747,76.7060577 L2.59297338,79.5377591 C2.58861718,80.5390463 2.58063083,81.3075045 2.76685781,82.087443 C3.11244849,83.6489083 4.07189803,85.0677085 5.39036996,85.9828249 C6.04633874,86.4433099 6.78543803,86.7815948 7.56120187,86.9756266 C8.35547954,87.179142 9.08296235,87.1938442 10.0881519,87.1845872 L15.7515549,87.1902594 L27.0784061,87.2016036 L49.732018,87.2242467 L95.0388785,87.2696232 Z" id="Shape" fill="#231768"></path>
                        <g transform="translate(45.607330, 0.000000)">
                            <path d="M8.14934891,20.0889535 L4.8268506,20.0889535 C3.01476853,20.0889535 1.54582685,18.6200118 1.54582685,16.8080205 L1.54582685,1.84071492 L11.4302818,1.84071492 L11.4302818,16.8080205 C11.4302818,18.6200117 9.96143083,20.0889535 8.14934891,20.0889535 Z" id="Path" fill="#2B94FF"></path>
                            <path d="M8.14943961,21.1652487 L4.82712285,21.1652487 C2.4239611,21.1652487 0.469486182,19.2107739 0.469486182,16.807612 L0.469486182,1.84121393 C0.469486182,1.24732071 0.951570681,0.765236364 1.54546375,0.765236364 L11.4296464,0.765236364 C12.0235397,0.765236364 12.505624,1.24732086 12.505624,1.84121393 L12.505624,16.807612 C12.505624,19.2107739 10.5511494,21.1652487 8.14943961,21.1652487 Z M2.62144146,2.91719165 L2.62144146,16.8076122 C2.62144146,18.0229876 3.61174738,19.0132936 4.82712285,19.0132936 L8.14943961,19.0132936 C9.36481508,19.0132936 10.353669,18.0229876 10.353669,16.8076122 L10.353669,2.91719165 L2.62144146,2.91719165 Z" id="Shape" fill="#231768"></path>
                        </g>
                    </g>
                    <path d="M214.959829,147.160808 L200.903239,147.160808 L200.903239,140.996943 L218.746171,140.996943 L218.746171,143.374558 C218.746171,145.465662 217.050979,147.160808 214.959829,147.160808 Z" id="Path" fill="#E5E1F9"></path>
                    <path d="M214.959829,147.160808 L200.903239,147.160808 L200.903239,140.996943 L218.746171,140.996943 L218.746171,143.374558 C218.746171,145.465662 217.050979,147.160808 214.959829,147.160808 Z" id="Path" fill="#E5E1F9"></path>
                    <path d="M214.960283,148.23733 L200.902875,148.23733 C200.308982,148.23733 199.826898,147.755246 199.826898,147.160627 L199.826898,140.996625 C199.826898,140.402006 200.308982,139.919922 200.902875,139.919922 L218.745807,139.919922 C219.339701,139.919922 219.821785,140.402006 219.821785,140.996625 L219.821785,143.374376 C219.821785,146.055608 217.640789,148.23733 214.960283,148.23733 Z M201.978853,146.083923 L214.960283,146.083923 C216.454454,146.083923 217.66983,144.868548 217.66983,143.374376 L217.66983,142.073329 L201.978853,142.073329 L201.978853,146.083923 L201.978853,146.083923 Z" id="Shape" fill="#231768"></path>
                    <g id="Group" transform="translate(123.413613, 145.717277)">
                        <path d="M7.08887359,64.2026277 L69.3863966,64.2026277 C72.4924469,64.2026277 75.0105032,61.684617 75.0105032,58.5784758 L75.0105032,7.06768244 C75.0105032,3.96154128 72.4924471,1.44353052 69.3863966,1.44353052 L7.08887359,1.44353052 C3.98273244,1.44353052 1.46467632,3.96154128 1.46467632,7.06768244 L1.46467632,58.5784758 C1.46467632,61.684617 3.98273244,64.2026277 7.08887359,64.2026277 Z" id="Path" fill="#E5E1F9"></path>
                        <path d="M7.08887359,64.2026277 L69.3863966,64.2026277 C72.4924469,64.2026277 75.0105032,61.684617 75.0105032,58.5784758 L75.0105032,7.06768244 C75.0105032,3.96154128 72.4924471,1.44353052 69.3863966,1.44353052 L7.08887359,1.44353052 C3.98273244,1.44353052 1.46467632,3.96154128 1.46467632,7.06768244 L1.46467632,58.5784758 C1.46467632,61.684617 3.98273244,64.2026277 7.08887359,64.2026277 Z" id="Path" fill="url(#linearGradient-5)"></path>
                        <path d="M7.0889643,63.4815431 L39.9571028,63.32286 L56.391172,63.2434958 L64.6080251,63.2238022 L68.7166332,63.2140915 C69.4539174,63.2197183 69.9537895,63.2078749 70.5146483,63.0640301 C71.0598974,62.9266742 71.5790094,62.6880368 72.039676,62.3635465 C72.9657282,61.7186497 73.6376696,60.7203119 73.8783489,59.6240963 C74.0074302,59.0764421 74.0017741,58.5432634 73.997781,57.8090648 L73.9926988,55.7548061 L73.9734589,47.5377715 L73.9346163,31.1037023 L73.9843495,14.6696785 L73.997055,10.5611611 L74.0035892,8.5069024 C73.999233,7.84675897 74.0257332,7.06818174 73.9807192,6.56186595 C73.7872319,4.2863494 71.6835578,2.38537399 69.3863965,2.41877135 L36.5182579,2.31685475 L20.0841887,2.24983298 L11.8673357,2.21616337 L7.75872759,2.19937391 C7.03451198,2.18907334 6.48853685,2.19620649 5.90081491,2.34349098 C5.32543552,2.4838872 4.77546729,2.73146368 4.28648545,3.07042927 C3.30380278,3.74400427 2.58358027,4.79452547 2.31857912,5.9575813 C2.17591403,6.53826971 2.17881826,7.1176877 2.17845516,7.83709345 L2.17010586,9.89135214 L2.13634539,18.1083867 L2.06918757,34.5424559 L2.09859183,50.9764798 C2.12618102,53.682351 2.09677676,56.5287092 2.17300994,59.119187 C2.40570289,61.5545667 4.66765182,63.5420758 7.0889643,63.4815431 Z M7.0889643,64.9237125 C5.54360788,64.9158169 4.00950486,64.3206532 2.8729037,63.2827468 C1.72976832,62.2543696 0.97900703,60.7960914 0.82617756,59.2654825 C0.763012838,56.3826867 0.834163908,53.7476034 0.830896718,50.9764801 L0.860300978,34.5424562 L0.792780052,18.108387 L0.759382693,9.89135244 L0.751033391,7.83709375 C0.745225219,7.18992808 0.730341537,6.38702885 0.91112315,5.63159376 C1.24509734,4.11868175 2.16720177,2.74893399 3.43702956,1.86099832 C4.0694024,1.41421711 4.78526871,1.08378236 5.53743661,0.893471583 C6.27871408,0.691998117 7.11619053,0.681289087 7.75872774,0.687732616 L11.8673358,0.670852459 L20.0841889,0.637273548 L36.5182581,0.570206427 L69.3863966,0.468268472 C70.9923766,0.464115179 72.5994458,1.07207517 73.7952184,2.14841569 C74.9982513,3.21422888 75.7979742,4.73739597 75.9704065,6.3457357 C76.0422835,7.20481161 76.0045299,7.79820567 76.0175985,8.5069024 L76.0241328,10.5611611 L76.0368383,14.6696785 L76.0865714,31.1037023 L76.0477289,47.5377715 L76.028126,55.7548061 L76.0234069,57.8090648 C76.0244959,58.4413923 76.0361124,59.2905306 75.8422622,60.0790908 C75.483966,61.6587975 74.5136258,63.0807288 73.1871677,63.9972972 C72.5264798,64.458599 71.78012,64.7979731 70.997459,64.9912786 C70.2293184,65.1963824 69.3461021,65.2021906 68.7166335,65.1911639 L64.6080254,65.1814532 L56.3911723,65.1617597 L39.9571031,65.0823955 L7.0889643,64.9237125 Z" id="Shape" fill="#231768"></path>
                        <path d="M17.6495355,7.06246427 L17.6495355,58.5739835 C17.6495355,61.6775836 20.1647784,64.2075284 23.2685598,64.2075284 L85.5619989,64.2075284 C88.6654174,64.2075284 91.1953624,61.6775834 91.1953624,58.5739835 L91.1953624,7.06246427 C91.1953624,3.95886424 88.6654174,1.44353066 85.5619989,1.44353066 L23.2685598,1.44353066 C20.1647782,1.44353066 17.6495355,3.95886424 17.6495355,7.06246427 Z" id="Path" fill="#E5E1F9"></path>
                        <path d="M17.6495355,7.06246427 L17.6495355,58.5739835 C17.6495355,61.6775836 20.1647784,64.2075284 23.2685598,64.2075284 L61.3654811,64.2075284 C45.8620018,53.5728114 46.7443106,32.1268157 46.4501774,17.9913599 C46.2735705,9.68062191 44.3027599,4.56187817 42.2726872,1.44353066 L23.2685598,1.44353066 C20.1647782,1.44353066 17.6495355,3.95886424 17.6495355,7.06246427 Z" id="Path" fill="url(#linearGradient-6)"></path>
                        <path d="M23.2689228,63.1125834 L56.1370613,63.062215 L72.5711305,63.0369854 L80.7879836,63.024416 L84.8965916,63.0181086 C85.6444033,63.024053 86.1065219,63.0125727 86.6474148,62.8755797 C87.169794,62.7445766 87.667125,62.5165575 88.1089148,62.2059978 C88.9975763,61.5887356 89.6430178,60.6318724 89.8742586,59.5813967 C89.9984099,59.0565672 89.9936907,58.5527472 89.9904235,57.8090648 L89.9871563,55.7548061 L89.9744508,47.5377715 L89.9494028,31.1037023 L89.9243547,14.6696785 L89.9178205,10.5611611 L89.9149164,8.5069024 C89.9083822,7.85347475 89.927985,7.04925946 89.8858752,6.59172401 C89.7000114,4.4536996 87.7197625,2.67274615 85.5663552,2.70804929 L52.6982167,2.65768092 L36.2641475,2.63245131 L28.0472945,2.61988186 L23.9386864,2.61357453 C23.1919637,2.60549748 22.7265781,2.61479975 22.1831439,2.75038596 C21.6578607,2.87998244 21.1565364,3.10727552 20.7107535,3.41797123 C19.8144686,4.03550573 19.1599518,4.99667979 18.9225398,6.05582255 C18.7951213,6.58478133 18.7976625,7.09558938 18.7991146,7.8370936 L18.7958474,9.89135229 L18.7835048,18.1083869 L18.7580938,34.5424561 L18.7330458,50.9764799 L18.7265115,55.0849973 L18.7236075,57.139256 C18.7290527,57.7974936 18.7025525,58.5833312 18.7508335,59.0759885 C18.954485,61.3129346 21.0298439,63.1585048 23.2689228,63.1125834 Z M23.2689228,65.2926722 C21.6349905,65.2906302 20.0046885,64.6655632 18.7962104,63.5690298 C17.5801088,62.4830693 16.7767558,60.9363516 16.6086797,59.3086813 C16.5400697,58.4360378 16.5781864,57.8498586 16.5662068,57.139256 L16.5629396,55.0849973 L16.5567683,50.9764799 L16.5313573,34.5424561 L16.5063093,18.1083869 L16.4936038,9.89135229 L16.4903366,7.8370936 C16.4867064,7.21202655 16.4714598,6.34051739 16.6674881,5.53335266 C17.0286883,3.91652757 18.0164533,2.45743252 19.3730417,1.51350187 C20.0486133,1.03840556 20.8131238,0.687641914 21.6157508,0.486622105 C22.4009531,0.273259745 23.3190189,0.264910442 23.9386862,0.273532147 L28.0472943,0.267179319 L36.2641474,0.254564515 L52.6982165,0.229425757 L85.5663551,0.178959651 C87.2423972,0.176516408 88.9191651,0.813971359 90.164308,1.93782151 C91.4167111,3.05059983 92.2480163,4.64001728 92.4251677,6.31587778 C92.5003119,7.22373389 92.455298,7.79148989 92.4665514,8.50690254 L92.4632842,10.5611612 L92.457113,14.6696786 L92.431702,31.1037025 L92.4066539,47.5377717 L92.3939484,55.7548062 L92.3910443,57.8090649 C92.3928594,58.431954 92.4055649,59.3104058 92.2066325,60.1217905 C91.8388979,61.7472373 90.8420577,63.2106431 89.4778459,64.154846 C88.7986441,64.6300785 88.0305035,64.9800707 87.2246094,65.1797291 C86.436503,65.3916847 85.5155329,65.3978106 84.8965918,65.387147 L80.7879837,65.3808396 L72.5711307,65.3682702 L56.1370615,65.3430859 L23.2689228,65.2926722 Z" id="Shape" fill="#231768"></path>
                        <g transform="translate(49.068063, 0.000000)">
                            <path d="M4.14926572,14.681794 L6.55959707,14.681794 C7.87407575,14.681794 8.93979809,13.6161623 8.93979809,12.3015929 L8.93979809,1.44353066 L1.76906455,1.44353066 L1.76906455,12.3015929 C1.76906455,13.6161623 2.83469634,14.681794 4.14926572,14.681794 Z" id="Path" fill="#2B94FF"></path>
                            <path d="M6.55896186,15.7584976 L4.14853966,15.7584976 C2.24198284,15.7584976 0.692633177,14.2076958 0.692633177,12.3018652 L0.692633177,1.44334911 C0.692633177,0.848729985 1.17471768,0.366645487 1.76861074,0.366645487 L8.9403426,0.366645487 C9.53423582,0.366645487 10.0163202,0.848729985 10.0163202,1.44334911 L10.0163202,12.3018652 C10.0163202,14.207696 8.46551869,15.7584976 6.55896186,15.7584976 Z M2.84458846,2.52005274 L2.84458846,12.3018652 C2.84458846,13.0206356 3.42976927,13.6050903 4.14853966,13.6050903 L6.55896186,13.6050903 C7.27918437,13.6050903 7.86436518,13.0206356 7.86436518,12.3018652 L7.86436518,2.52005274 L2.84458846,2.52005274 Z" id="Shape" fill="#231768"></path>
                        </g>
                    </g>
                    <g id="Group" transform="translate(49.068063, 249.314136)">
                        <path d="M5.8102427,48.9372124 L52.9663488,48.9372124 C55.3175541,48.9372124 57.2235664,47.0312001 57.2235664,44.6799949 L57.2235664,5.68887595 C57.2235664,3.33771608 55.3175541,1.43170391 52.9663488,1.43170391 L5.8102427,1.43170391 C3.45903748,1.43170391 1.55302515,3.33771623 1.55302515,5.68887595 L1.55302515,44.6799949 C1.55302515,47.0312001 3.45903748,48.9372124 5.8102427,48.9372124 Z" id="Path" fill="#E5E1F9"></path>
                        <path d="M5.8102427,48.9372124 L52.9663488,48.9372124 C55.3175541,48.9372124 57.2235664,47.0312001 57.2235664,44.6799949 L57.2235664,5.68887595 C57.2235664,3.33771608 55.3175541,1.43170391 52.9663488,1.43170391 L5.8102427,1.43170391 C3.45903748,1.43170391 1.55302515,3.33771623 1.55302515,5.68887595 L1.55302515,44.6799949 C1.55302515,47.0312001 3.45903748,48.9372124 5.8102427,48.9372124 Z" id="Path" fill="url(#linearGradient-7)"></path>
                        <path d="M52.966848,50.0138253 L5.80969804,50.0138253 C2.86927341,50.0138253 0.477728147,47.620828 0.477728147,44.6804033 L0.477728147,5.68819539 C0.477728147,2.74777076 2.86927341,0.356225495 5.80969804,0.356225495 L52.966848,0.356225495 C55.9072726,0.356225495 58.2988179,2.74777076 58.2988179,5.68819539 L58.2988179,44.6804033 C58.2988179,47.620828 55.9072726,50.0138253 52.966848,50.0138253 Z M5.80969819,2.50818063 C4.05705999,2.50818063 2.62968343,3.93555705 2.62968343,5.68819539 L2.62968343,44.6804033 C2.62968343,46.4344936 4.05705985,47.8618701 5.80969819,47.8618701 L52.9668481,47.8618701 C54.7194863,47.8618701 56.1468629,46.4344936 56.1468629,44.6804033 L56.1468629,5.68819539 C56.1468629,3.93555719 54.7194865,2.50818063 52.9668481,2.50818063 L5.80969819,2.50818063 Z" id="Shape" fill="#231768"></path>
                        <path d="M13.804159,5.6849282 L13.804159,44.6765916 C13.804159,47.0258911 15.7080385,48.9408879 18.0574742,48.9408879 L65.2105402,48.9408879 C67.5596581,48.9408879 69.4747004,47.0258911 69.4747004,44.6765916 L69.4747004,5.6849282 C69.4747004,3.33562875 67.5596582,1.43170391 65.2105402,1.43170391 L18.0574742,1.43170391 C15.7080385,1.43170391 13.804159,3.33562875 13.804159,5.6849282 Z" id="Path" fill="#E5E1F9"></path>
                        <path d="M13.804159,5.6849282 L13.804159,44.6765916 C13.804159,47.0258911 15.7080385,48.9408879 18.0574742,48.9408879 L46.8949622,48.9408879 C35.1595824,40.8909765 35.8274855,24.6574279 35.6048208,13.9575495 C35.471095,7.66676525 33.9792833,3.79212054 32.4426392,1.43170376 L18.0574742,1.43170376 C15.7080385,1.43170376 13.804159,3.33562875 13.804159,5.6849282 Z" id="Path" fill="url(#linearGradient-8)"></path>
                        <path d="M18.0577916,47.7554159 L42.9374137,47.8061018 L55.3768617,47.8314675 L61.5967673,47.8441276 L64.70672,47.850435 C65.2831884,47.8566062 65.5964707,47.8495729 65.9870753,47.7536913 C66.360981,47.6617577 66.7178253,47.5004427 67.0354636,47.2793664 C67.6747337,46.8404355 68.1430235,46.1548356 68.3063804,45.4001719 C68.4563058,44.7589506 68.3615588,43.5325938 68.3858808,42.5426055 L68.3735383,36.3227453 L68.3481273,23.8829797 L68.3230792,11.4432141 L68.3169079,8.33326136 L68.3136407,6.77828493 C68.3089216,6.28844099 68.3230792,5.66164957 68.2911338,5.34950175 C68.1510098,3.82769593 66.7363389,2.57202576 65.2138524,2.60460636 L40.3342303,2.65574614 L27.8944193,2.6813387 L21.6745138,2.69418041 L18.5645611,2.70057858 C17.9782912,2.69672154 17.7005844,2.70620535 17.3303088,2.79804828 C16.9792729,2.88639711 16.6452987,3.03981658 16.3479892,3.24895879 C15.7501029,3.66520124 15.3181145,4.30914522 15.1580248,5.01339503 C15.0135446,5.58487203 15.0977643,6.84439924 15.070901,7.82626515 L15.0581955,14.0461254 L15.0331475,26.485891 L15.0077364,38.9256566 L15.0012022,42.0356093 L14.9982981,43.5905857 C15.0008393,44.0796583 14.9848666,44.7094898 15.0146338,45.0156934 C15.1438672,46.5209367 16.5392983,47.7789211 18.0577916,47.7554159 Z M18.0577916,50.119009 C15.3678477,50.1735973 12.8833703,47.9656924 12.639424,45.2736612 C12.5806155,44.5463144 12.6132869,44.1376499 12.6027595,43.5905857 L12.5998554,42.0356093 L12.5933211,38.9256566 L12.5679101,26.485891 L12.5428621,14.0461254 L12.5301566,7.82626515 L12.5268894,6.27128873 C12.5236222,5.81833623 12.5101906,5.0961626 12.6702804,4.43701733 C12.9639599,3.11568666 13.7749362,1.92762813 14.8821331,1.16189261 C15.4335534,0.776279487 16.0575768,0.49212916 16.7117306,0.330178978 C17.3473705,0.157882869 18.1166001,0.154025822 18.5645612,0.162783579 L21.6745139,0.169181757 L27.8944195,0.181978113 L40.3342305,0.207616027 L65.2138525,0.258710452 C67.9001663,0.213197445 70.3646777,2.42346194 70.5980967,5.09888528 C70.6547271,5.82028766 70.6198776,6.23203785 70.628227,6.77828523 L70.625323,8.33326166 L70.6187887,11.4432144 L70.5937407,23.88298 L70.5686926,36.3227456 L70.5563501,42.5426058 L70.5530829,44.0975822 C70.5541719,44.5603362 70.5646994,45.2523795 70.4086027,45.8871572 C70.1185534,47.158074 69.3435156,48.3044766 68.2777024,49.0475238 C67.7466109,49.4212482 67.1450943,49.6974575 66.5138107,49.8558229 C65.8988626,50.0241259 65.1652086,50.0303879 64.7067201,50.0239444 L61.5967674,50.0302972 L55.3768619,50.0429573 L42.9374139,50.068323 L18.0577916,50.119009 Z" id="Shape" fill="#231768"></path>
                        <g transform="translate(37.172775, 0.000000)">
                            <path d="M3.55441969,11.4523804 L5.37893502,11.4523804 C6.37396025,11.4523804 7.18058032,10.6457602 7.18058032,9.65068978 L7.18058032,1.43170391 L1.75272905,1.43170391 L1.75272905,9.65068978 C1.75272905,10.6457602 2.55934912,11.4523804 3.55441969,11.4523804 Z" id="Path" fill="#2B94FF"></path>
                            <path d="M5.37843586,12.5288571 L3.5546466,12.5288571 C1.96754338,12.5288571 0.67666063,11.2379744 0.67666063,9.65087118 L0.67666063,1.43220291 C0.67666063,0.838309696 1.15874513,0.356225347 1.7526382,0.356225347 L7.18044412,0.356225347 C7.77433733,0.356225347 8.25642168,0.838309845 8.25642168,1.43220291 L8.25642168,9.65087118 C8.25642168,11.2379746 6.96553908,12.5288571 5.37843586,12.5288571 Z M2.82861591,2.50818063 L2.82861591,9.65087118 C2.82861591,10.0516401 3.15387769,10.3769019 3.5546466,10.3769019 L5.37843586,10.3769019 C5.77920477,10.3769019 6.10446655,10.0516401 6.10446655,9.65087118 L6.10446655,2.50818063 L2.82861591,2.50818063 Z" id="Shape" fill="#231768"></path>
                        </g>
                    </g>
                    <path d="M202.711146,147.160808 L134.875551,147.160808 C133.821082,147.160808 132.966181,146.305998 132.966181,145.251529 L132.966181,142.906223 C132.966181,141.851754 133.821082,140.996943 134.875551,140.996943 L202.711146,140.996943 C203.765706,140.996943 204.620516,141.851754 204.620516,142.906223 L204.620516,145.251529 C204.620516,146.305998 203.765706,147.160808 202.711146,147.160808 Z" id="Path" fill="#E5E1F9"></path>
                    <path d="M202.711055,148.237285 L164.622392,148.203298 L145.57788,148.186327 L136.055623,148.177841 L134.860214,148.176253 C134.25543,148.171534 133.644112,147.975959 133.156219,147.614396 C132.662518,147.260456 132.292243,146.744066 132.099845,146.166146 C132.006913,145.876278 131.956454,145.572797 131.953549,145.270678 L131.953549,144.66898 L131.954638,143.478743 L131.95609,142.871781 C131.959358,142.569843 132.013447,142.266816 132.108194,141.978128 C132.483189,140.813121 133.651009,139.970472 134.87546,139.98835 L172.964486,139.954408 L192.008636,139.937437 L201.530892,139.928906 L202.726665,139.928362 C203.342339,139.932355 203.965636,140.130924 204.46333,140.49875 C204.96647,140.85877 205.344732,141.384507 205.541123,141.973681 C205.636596,142.269085 205.688507,142.578556 205.691411,142.886665 L205.692863,143.488726 L205.693952,144.679053 L205.693952,145.286741 C205.690322,145.595032 205.635507,145.904775 205.538945,146.199906 C205.157053,147.390778 203.964547,148.254074 202.711055,148.237285 Z M202.711055,146.084286 C203.060639,146.091274 203.392798,145.846329 203.501703,145.516802 C203.526751,145.434942 203.544901,145.350541 203.545628,145.261512 L203.54708,144.679054 L203.548169,143.488726 L203.548169,142.900641 C203.546717,142.811521 203.531107,142.726394 203.506422,142.643899 C203.451243,142.482538 203.347421,142.328801 203.202941,142.228609 C203.061728,142.122699 202.893289,142.071242 202.715774,142.066432 L201.530892,142.064889 L192.008636,142.056449 L172.964486,142.039387 L134.87546,142.005445 C134.497561,141.999637 134.140354,142.265183 134.024552,142.620666 C133.997689,142.708969 133.978812,142.799995 133.978086,142.895468 L133.978086,143.478743 L133.979175,144.66898 L133.980264,145.257519 C133.982079,145.352538 133.999141,145.443655 134.026004,145.531777 C134.085539,145.704391 134.196984,145.867384 134.351266,145.973748 C134.501917,146.08592 134.682336,146.140281 134.870741,146.144365 L136.055623,146.143821 L145.57788,146.13529 L164.622392,146.118319 L202.711055,146.084286 Z" id="Shape" fill="#231768"></path>
                    <path d="M148.095482,140.996943 L157.070039,102.55366 C157.419169,101.05815 158.752434,100.000232 160.28817,100.000232 L226.186171,100.000232 C228.411092,100.000232 230.000373,102.154411 229.343679,104.280229 L218.002715,140.996943 L148.095482,140.996943 Z" id="Path" fill="#E5E1F9"></path>
                    <path d="M173.603756,104.163565 L191.178783,140.994357 L152.727467,140.994357 L160.949766,106.572354 C161.277206,105.189537 162.511095,104.208216 163.938835,104.208216 L173.603756,104.163565 Z" id="Path" fill="url(#linearGradient-9)"></path>
                    <polygon id="Path" fill="url(#linearGradient-10)" points="187.714164 104.104121 205.319321 140.994357 200.99254 140.994357 184.294559 104.119005"></polygon>
                    <path d="M222.924477,107.940377 L213.036301,140.994357 L210.27085,140.994357 L193.557985,104.089237 L219.980423,103.970259 C222.047069,103.970259 223.53398,105.96276 222.924477,107.940377 Z" id="Path" fill="url(#linearGradient-11)"></path>
                    <path d="M218.002352,142.073329 L148.095754,142.073329 C147.767588,142.073329 147.456847,141.923041 147.252107,141.666026 C147.048818,141.408285 146.973311,141.072133 147.047366,140.751953 L156.021106,102.308624 C156.487218,100.31567 158.24276,98.9238689 160.288715,98.9238689 L226.186171,98.9238689 C227.591766,98.9238689 228.876841,99.5729404 229.711776,100.704822 C230.546711,101.835978 230.787754,103.254642 230.372464,104.597799 L219.030412,141.314627 C218.891014,141.765492 218.474272,142.073329 218.002352,142.073329 Z M149.45198,139.919922 L217.208074,139.919922 L228.316345,103.962522 C228.526894,103.280053 228.403469,102.558379 227.979467,101.982637 C227.555465,101.406894 226.900585,101.077276 226.186171,101.077276 L160.288715,101.077276 C159.247587,101.077276 158.354569,101.785156 158.117883,102.798695 L149.45198,139.919922 Z" id="Shape" fill="#231768"></path>
                    <path d="M213.029041,142.073329 L152.723474,142.073329 C152.393856,142.073329 152.083115,141.922315 151.878374,141.663848 C151.673634,141.404655 151.599579,141.06705 151.676538,140.746145 L159.903918,106.324301 C160.342441,104.443881 162.002147,103.126135 163.940649,103.126135 L219.981512,102.888723 C221.315956,102.888723 222.531332,103.502945 223.321253,104.573114 C224.111175,105.64401 224.339148,106.987167 223.94564,108.259173 L214.060005,141.305189 C213.923511,141.761136 213.505317,142.073329 213.029041,142.073329 Z M154.08696,139.919922 L212.227503,139.919922 L221.886616,107.632608 C222.078289,107.011852 221.967932,106.365684 221.588944,105.850928 C221.208504,105.336899 220.624775,105.04213 219.985868,105.04213 L163.945006,105.279542 C163.008426,105.279542 162.209792,105.912641 161.999243,106.818727 L154.08696,139.919922 Z" id="Shape" fill="#231768"></path>
                    <path d="M251.295218,308.721347 L243.166578,303.511351 L251.743905,299.076755 L251.295218,308.721347 Z M246.137496,303.647844 L249.930281,306.078595 L250.137925,301.580109 L246.137496,303.647844 Z" id="Shape" fill="#FFFFFF"></path>
                    <path d="M73.9191428,153.707564 L66.6152733,147.394726 L75.7371237,144.226328 L73.9191428,153.707564 Z M69.5368211,147.95377 L72.9433574,150.899277 L73.7913614,146.475571 L69.5368211,147.95377 Z" id="Shape" fill="#2B94FF"></path>
                    <path d="M160.130985,44.358619 C158.426264,44.358619 157.039546,42.9719002 157.039546,41.26718 C157.039546,39.5624597 158.426264,38.1757409 160.130985,38.1757409 C161.835705,38.1757409 163.222424,39.5624597 163.222424,41.26718 C163.222424,42.9719002 161.835705,44.358619 160.130985,44.358619 Z M160.130985,39.6626519 C159.246679,39.6626519 158.526457,40.3821484 158.526457,41.26718 C158.526457,42.1522115 159.246679,42.871708 160.130985,42.871708 C161.01529,42.871708 161.735513,42.1522115 161.735513,41.26718 C161.735513,40.3821484 161.01529,39.6626519 160.130985,39.6626519 Z" id="Shape" fill="#2B94FF"></path>
                    <g id="Group" transform="translate(108.057592, 74.345550)">
                        <path d="M29.5132577,39.5887557 C28.6681578,35.6337032 27.420837,31.6961662 25.9201315,27.916813 C24.4012751,24.1375506 22.5927324,20.472275 20.3558317,17.1134753 C18.143616,13.7464169 15.4688733,10.6928223 12.323708,8.31271197 C10.741324,7.14080753 9.05112444,6.13661624 7.2658148,5.3607617 C5.46634753,4.61903057 3.588832,4.110809 1.67501488,3.81349936 L1.63109005,3.80678358 C0.83463435,3.68308612 0.289748232,2.93727104 0.413173443,2.14099675 C0.536961757,1.34472245 1.28259528,0.799473382 2.07905098,0.923170846 C2.08957846,0.924804366 2.10700312,0.927799303 2.1175306,0.929705076 C4.27493095,1.32439356 6.38187223,1.96348218 8.37591578,2.85695376 C10.3547125,3.78382285 12.1970156,4.95491038 13.8915715,6.28908261 C17.2585845,8.99463626 19.9949944,12.3371004 22.2090253,15.9234201 C24.4470151,19.5061097 26.1974752,23.3385538 27.6426395,27.2573047 C29.071468,31.1914839 30.2160555,35.1866497 30.9772988,39.3290181 C31.0513539,39.7326912 30.7841746,40.1200286 30.3805015,40.1941744 C29.9844517,40.2670497 29.6040116,40.0109424 29.5197921,39.6197027 L29.5132577,39.5887557 Z" id="Path" fill="#2B94FF"></path>
                        <path d="M3.33399523,23.1670289 C5.76075308,24.0919921 7.86842027,25.3011056 9.89041596,26.7548006 C11.898617,28.1970607 13.7191392,29.9022348 15.2920848,31.808247 C16.8716101,33.7055469 18.2285615,35.8037758 19.2105182,38.0677212 C20.2846807,40.2960003 20.8818409,42.7022477 21.378446,45.098603 C21.4619395,45.5001888 21.2038357,45.8932436 20.8019776,45.9765557 C20.4073798,46.0583249 20.0207685,45.8102947 19.9285626,45.4202346 L19.9158571,45.3661453 C19.3833136,43.098842 18.7680024,40.8392528 17.7040045,38.7724246 C16.7318039,36.668206 15.4126061,34.7389607 13.8926607,33.0015692 C12.3792495,31.2564635 10.6393168,29.7034837 8.72804084,28.4012567 C6.84253897,27.1004819 4.72035105,25.9812147 2.65769771,25.2518261 L2.57856029,25.2237831 C2.00790006,25.0220372 1.70913845,24.3960172 1.91097502,23.8255385 C2.11281159,23.2550599 2.73865005,22.9562074 3.30894718,23.1579533 C3.31584451,23.1603132 3.327461,23.1645787 3.33399523,23.1670289 Z" id="Path" fill="#234EE9"></path>
                    </g>
                    <path d="M251.458394,160.963515 C249.029095,160.963515 247.052839,158.987259 247.052839,156.55796 C247.052839,154.129388 249.029095,152.153132 251.458394,152.153132 C253.887693,152.153132 255.863948,154.129388 255.863948,156.55796 C255.863948,158.987259 253.887693,160.963515 251.458394,160.963515 Z M251.458394,153.640043 C249.84951,153.640043 248.53975,154.949076 248.53975,156.55796 C248.53975,158.16757 249.84951,159.476604 251.458394,159.476604 C253.067278,159.476604 254.377037,158.16757 254.377037,156.55796 C254.377037,154.949076 253.067278,153.640043 251.458394,153.640043 Z" id="Shape" fill="#234EE9"></path>
                    <path d="M60.3902856,200.366656 C58.6855654,200.366656 57.2988466,198.979938 57.2988466,197.275217 C57.2988466,195.570497 58.6855654,194.183778 60.3902856,194.183778 C62.0950059,194.183778 63.4817247,195.570497 63.4817247,197.275217 C63.4817247,198.979938 62.0950059,200.366656 60.3902856,200.366656 Z M60.3902856,195.670689 C59.5059801,195.670689 58.7857576,196.390186 58.7857576,197.275218 C58.7857576,198.160249 59.5059801,198.879746 60.3902856,198.879746 C61.2745911,198.879746 61.9948137,198.160249 61.9948137,197.275218 C61.9948137,196.390186 61.2745911,195.670689 60.3902856,195.670689 Z" id="Shape" fill="#234EE9"></path>
                    <circle id="Oval" fill="#234EE9" cx="15.7827742" cy="165.17649" r="1.48691099"></circle>
                    <circle id="Oval" fill="#234EE9" cx="257.405856" cy="95.5394994" r="1.23909245"></circle>
                    <circle id="Oval" fill="#234EE9" cx="81.7025101" cy="23.4243161" r="1.48691099"></circle>
                    <circle id="Oval" fill="#234EE9" cx="255.120039" cy="208.517305" r="1.23909245"></circle>
                    <circle id="Oval" fill="#FFFFFF" cx="83.1894211" cy="328.042206" r="2.91864361"></circle>
                    <circle id="Oval" fill="#FFFFFF" cx="155.455528" cy="313.831333" r="1.48691099"></circle>
                    <circle id="Oval" fill="#FFFFFF" cx="209.824705" cy="339.287424" r="2.46269634"></circle>
                    <path d="M24.7039226,300.733557 C22.3922407,300.733557 20.5103689,298.851685 20.5103689,296.540003 C20.5103689,294.228321 22.3922407,292.34645 24.7039226,292.34645 C27.0156045,292.34645 28.8974763,294.228321 28.8974763,296.540003 C28.8974763,298.851685 27.0156045,300.733557 24.7039226,300.733557 Z M24.7039226,293.833361 C23.2112034,293.833361 21.9972799,295.047284 21.9972799,296.540003 C21.9972799,298.032723 23.2112033,299.246646 24.7039226,299.246646 C26.1966419,299.246646 27.4105653,298.032723 27.4105653,296.540003 C27.4105653,295.047284 26.1966419,293.833361 24.7039226,293.833361 Z" id="Shape" fill="#FFFFFF"></path>
                    <g id="Group" transform="translate(23.790576, 40.146597)">
                        <g>
                            <path d="M45.5919636,45.063799 L42.3204691,51.5926533 L36.0315906,64.1429571 L25.9649019,84.2698911 C24.7691293,86.6384077 22.0410687,87.7347821 19.5391213,86.8258823 L4.67727168,81.3976907 C3.90509263,81.1245897 3.22230608,80.6654432 2.69870167,80.0993207 C1.53083583,78.8579896 0.994662121,77.089651 1.41426246,75.3214711 L6.67725946,53.432347 L9.97675168,39.7840805 L11.6868263,32.6931877 C12.3870375,29.6582883 15.561834,27.9620991 18.5003527,29.0296818 L42.7331267,37.87918 C43.2699356,38.065679 43.745395,38.3377137 44.1584158,38.6789256 C46.029261,40.131078 46.7099603,42.7816574 45.5919636,45.063799 Z" id="Path" fill="#E5E1F9"></path>
                            <path d="M45.5919636,45.063799 L42.3204691,51.5926533 L36.0315906,64.1429571 L25.9649019,84.2698911 C24.7691293,86.6384077 22.0410687,87.7347821 19.5391213,86.8258823 L4.67727168,81.3976907 C3.90509263,81.1245897 3.22230608,80.6654432 2.69870167,80.0993207 C24.8006207,70.9673739 37.9893779,50.6792839 44.1584159,38.6789256 C46.029261,40.131078 46.7099603,42.7816574 45.5919636,45.063799 Z" id="Path" fill="url(#linearGradient-12)"></path>
                            <path d="M21.3075507,88.2149153 C20.5960406,88.2149153 19.8743659,88.0929422 19.1715682,87.8381053 L4.30826647,82.4088473 C3.39782388,82.0872156 2.56434053,81.5397884 1.9080088,80.8297304 C0.457399397,79.2883671 -0.121973242,77.1327818 0.367371546,75.0730325 L10.6392547,32.4412324 C11.0385716,30.7154574 12.1610152,29.2350806 13.716173,28.3899807 C15.2902078,27.5354426 17.1691752,27.4011268 18.8680873,28.0175269 L43.1015421,36.8678418 C43.7288326,37.0856511 44.3212737,37.4174471 44.8440159,37.8487094 C47.133917,39.6267588 47.865756,42.8684862 46.5589005,45.5373751 C46.5574484,45.5402792 46.5559964,45.5431833 46.5545443,45.5460875 L26.9270288,84.7510225 C25.8292704,86.9276629 23.6206847,88.2149153 21.3075507,88.2149153 Z M16.6987075,29.788316 C16.0205948,29.788316 15.3482904,29.953851 14.7442328,30.2820169 C13.7147212,30.8410606 13.0017589,31.7834484 12.7345796,32.9356593 L2.46124437,75.5732678 C2.14033879,76.9236849 2.52223091,78.340897 3.48349568,79.3616963 C3.90894968,79.8227259 4.44330832,80.1733987 5.03574942,80.3824955 L19.9077635,85.8146576 C21.902896,86.5399624 24.0446868,85.6846982 25.0030473,83.7846756 L44.6262066,44.5870009 C45.485827,42.8307326 45.011003,40.7041885 43.4979548,39.5294707 C43.14946,39.2419624 42.7806363,39.0357698 42.3798674,38.8963719 L18.1318921,30.0409747 C17.6657805,29.8718096 17.1807919,29.788316 16.6987075,29.788316 Z" id="Shape" fill="#231768"></path>
                            <polygon id="Path" fill="#234EE9" points="42.3230555 51.5897946 36.0350847 64.1409832 6.67340241 53.4267432 9.97584407 39.7860999"></polygon>
                            <path d="M36.0343586,65.217891 C35.9109334,65.217891 35.7860561,65.196836 35.665535,65.1525482 L6.304851,54.4377863 C5.78936914,54.2497444 5.49895684,53.7052212 5.62673825,53.1730408 L8.92872611,39.5323749 C9.00132915,39.2347023 9.19735755,38.9813175 9.46744095,38.8368375 C9.73752436,38.6916314 10.056978,38.6676724 10.3444862,38.7743988 L42.6920606,50.578207 C42.9810208,50.6834814 43.2104466,50.9070989 43.3237074,51.191703 C43.4369682,51.4770331 43.4224475,51.7972127 43.2859538,52.0716523 L36.9970754,64.623272 C36.8097595,64.9971776 36.4307715,65.217891 36.0343586,65.217891 Z M7.94568063,52.7446825 L35.5014521,62.8009346 L40.8203534,52.1870909 L10.7379949,41.2102319 L7.94568063,52.7446825 Z" id="Shape" fill="#231768"></path>
                            <path d="M30.0344405,24.6233332 C29.7759736,24.6233332 29.5175067,24.5311273 29.3127659,24.3445374 C28.8713392,23.9459465 28.8379418,23.2649297 29.2358066,22.824229 C30.7924166,21.1049882 33.3625654,17.2664635 33.1011944,10.8694065 C32.783193,3.05441138 38.9181529,1.01644314 38.9805916,0.996840297 C39.5483476,0.814606568 40.1524052,1.13115594 40.3324609,1.69745997 C40.5110645,2.26231188 40.1988711,2.86636947 39.6354714,3.04715109 C39.4205663,3.11902807 35.0033951,4.6705559 35.2531497,10.7822827 C35.5450141,17.9438501 32.6089457,22.3058429 30.8330745,24.2690301 C30.6196212,24.5035381 30.3277569,24.6233332 30.0344405,24.6233332 Z" id="Path" fill="#231768"></path>
                            <path d="M36.5861421,27.2334138 C36.159236,27.2334138 35.7555628,26.977851 35.5871238,26.5574792 C35.3649583,26.0064218 35.6335897,25.3791313 36.1853732,25.157692 C38.0643408,24.40262 39.5076899,21.0127823 38.5609458,16.8519001 C37.1146926,10.4889665 41.5754255,6.88857999 44.1354099,5.87431503 C44.681385,5.65432774 45.3130318,5.92586326 45.532293,6.47837262 C45.7515542,7.03015607 45.4814708,7.65454241 44.9311395,7.87452971 C44.6857411,7.97399587 39.2695516,10.2508283 40.6606266,16.3741718 C41.9210159,21.9130605 39.7080742,26.0630523 36.986911,27.1557286 C36.8562255,27.2087287 36.7197317,27.2334138 36.5861421,27.2334138 Z" id="Path" fill="#231768"></path>
                            <path d="M45.2665658,46.0223639 C45.1445927,46.0223639 45.0197154,46.0013089 44.8977421,45.9570211 L11.3101071,33.7008958 C10.7510634,33.4968812 10.4635553,32.879029 10.668296,32.3207113 C10.8701326,31.7616676 11.4843545,31.4727074 12.0477545,31.6781741 L45.6353895,43.9342994 C46.1944332,44.138314 46.4819413,44.7561662 46.2772006,45.3144839 C46.1189259,45.7515542 45.7065404,46.0223639 45.2665658,46.0223639 Z" id="Path" fill="#231768"></path>
                        </g>
                        <path d="M41.6935869,37.0846755 L19.9048594,29.2957495 L21.7598226,26.813768 C22.2571083,26.1484062 23.1301602,25.8851519 23.9123678,26.1647645 L40.5790845,32.122709 C41.3612466,32.4023216 41.8696042,33.1593675 41.8323951,33.9891979 L41.6935869,37.0846755 Z" id="Path" fill="#E5E1F9"></path>
                        <path d="M41.6930424,38.1616288 C41.5710693,38.1616288 41.4490961,38.1405739 41.3300271,38.0984641 L19.541844,30.3096062 C19.2209384,30.1948934 18.9726359,29.9342483 18.8738957,29.6068085 C18.7751555,29.2800946 18.8375941,28.9257917 19.0423347,28.6520781 L20.8966173,26.1697789 C21.6836346,25.1206645 23.0355039,24.709005 24.2741124,25.1511578 L40.9423265,31.1089661 C42.1765787,31.5503928 42.9679523,32.7272887 42.9084178,34.0377743 L42.7690198,37.1335693 C42.7530472,37.4748038 42.5773478,37.7884491 42.2927437,37.9786692 C42.1126881,38.0991902 41.9035913,38.1616288 41.6930424,38.1616288 Z M21.6400728,28.7725989 L40.6838596,35.5805894 L40.7564626,33.940486 C40.7738874,33.5803747 40.5560782,33.257291 40.2177478,33.1360439 L23.5495337,27.1782356 C23.2141075,27.0562625 22.8380236,27.1680712 22.6202143,27.4592094 L21.6400728,28.7725989 Z" id="Shape" fill="#231768"></path>
                    </g>
                </g>
            </g>
        </g>
    </g>
</svg>