<?xml version="1.0" encoding="UTF-8"?>
<svg width="126px" height="105px" viewBox="0 0 126 105" version="1.1" xmlns="http://www.w3.org/2000/svg" xmlns:xlink="http://www.w3.org/1999/xlink">
    <!-- Generator: Sketch 58 (84663) - https://sketch.com -->
    <title>Periscope</title>
    <desc>Created with Sketch.</desc>
    <g id="Periscope" stroke="none" stroke-width="1" fill="none" fill-rule="evenodd">
        <g fill-rule="nonzero">
            <path d="M51.8927917,5.0541077 C50.7463073,5.0541077 49.8136901,4.1214905 49.8136901,2.9750061 C49.8136901,1.8285217 50.7463073,0.8959045 51.8927917,0.8959045 C53.0392761,0.8959045 53.9718933,1.8285217 53.9718933,2.9750061 C53.9718933,4.1214905 53.0392761,5.0541077 51.8927917,5.0541077 Z M51.8927917,1.8959045 C51.2980651,1.8959045 50.8136901,2.3797912 50.8136901,2.9750061 C50.8136901,3.570221 51.2980651,4.0541077 51.8927917,4.0541077 C52.4875183,4.0541077 52.9718933,3.570221 52.9718933,2.9750061 C52.9718933,2.3797912 52.4875183,1.8959045 51.8927917,1.8959045 Z" id="Shape" fill="#DEE6F0"></path>
            <path d="M114.734589,24.0385742 C113.588104,24.0385742 112.655487,23.105957 112.655487,21.9594726 C112.655487,20.8129882 113.588104,19.880371 114.734589,19.880371 C115.881073,19.880371 116.81369,20.8129882 116.81369,21.9594726 C116.81369,23.105957 115.881073,24.0385742 114.734589,24.0385742 Z M114.734589,20.8803711 C114.139862,20.8803711 113.655487,21.3642578 113.655487,21.9594727 C113.655487,22.5546876 114.139862,23.0385743 114.734589,23.0385743 C115.329315,23.0385743 115.81369,22.5546876 115.81369,21.9594727 C115.81369,21.3642578 115.329315,20.8803711 114.734589,20.8803711 Z" id="Shape" fill="#DEE6F0"></path>
            <path d="M35.9140625,59.3867188 C35.8735352,59.3867188 35.8325195,59.3798829 35.7929687,59.366211 L31.9682617,58.0654298 C31.8413086,58.0214845 31.7470703,57.9140626 31.7211914,57.7832032 C31.6948242,57.6513673 31.7412109,57.5156251 31.8417969,57.4277344 L34.8823242,54.765625 C34.9833984,54.6777344 35.1240234,54.6494141 35.2504883,54.6928711 C35.3769531,54.7358399 35.4711914,54.84375 35.4970703,54.9750977 L36.2817383,58.9384766 C36.3081055,59.0703125 36.2617188,59.2060547 36.1611328,59.2939454 C36.0917969,59.3544922 36.003418,59.3867188 35.9140625,59.3867188 Z M32.824707,57.5644531 L35.4199218,58.4472656 L34.8876952,55.7578125 L32.824707,57.5644531 Z" id="Shape" fill="#DEE6F0"></path>
            <path d="M97.6289062,53.1606445 C97.5175781,53.1606445 97.4101562,53.1108398 97.3388671,53.0229492 L94.7802733,49.8950195 C94.6953124,49.7915039 94.6718749,49.6503906 94.7197264,49.5249023 C94.7666014,49.3999023 94.8779295,49.309082 95.0097655,49.2875976 L98.9980467,48.6362304 C99.1298826,48.6152343 99.2636717,48.665039 99.3486326,48.7690429 C99.4335935,48.8725585 99.457031,49.0136718 99.4091795,49.1391601 L97.979492,52.918457 C97.932617,53.043457 97.8212889,53.1342773 97.6894529,53.1557617 C97.6689453,53.1591797 97.6494141,53.1606445 97.6289062,53.1606445 Z M95.7714844,49.9233398 L97.5078125,52.0454101 L98.4785156,49.480957 L95.7714844,49.9233398 Z" id="Shape" fill="#DEE6F0"></path>
            <path d="M2.5595703,45.7084961 C2.512207,45.7084961 2.4648437,45.699707 2.4199219,45.6816406 C2.2954102,45.6313476 2.2070313,45.5190429 2.1884766,45.3862304 L1.6181641,41.3862304 C1.5991211,41.2539062 1.6523438,41.1210937 1.7578125,41.0385742 C1.8623047,40.9550781 2.0048828,40.9345703 2.1289063,40.9853515 L5.8779297,42.4912109 C6.0024414,42.5415039 6.0908203,42.6538086 6.109375,42.7866211 C6.128418,42.9189453 6.0751953,43.0517578 5.9697266,43.1342773 L2.7910157,45.6284179 C2.7241211,45.6811523 2.6420898,45.7084961 2.5595703,45.7084961 Z M2.4521484,41.9233398 L2.8393554,44.6376953 L4.9956054,42.9453125 L2.4521484,41.9233398 Z" id="Shape" fill="#DEE6F0"></path>
            <circle id="Oval" fill="#DEE6F0" cx="16.11026" cy="23.238678" r="1.2792307"></circle>
            <circle id="Oval" fill="#DEE6F0" cx="1.9891357" cy="69.8020935" r="1.2792307"></circle>
            <circle id="Oval" fill="#DEE6F0" cx="124.34201" cy="55.8549805" r="1.2792307"></circle>
            <circle id="Oval" fill="#DEE6F0" cx="94.0183411" cy="13.4176025" r="1.2792307"></circle>
            <path d="M48.1865234,96.5683594 C48.1220703,96.5683594 48.0561523,96.5605469 47.9912109,96.5429688 C39.2075195,94.1777344 34.1699218,90.53125 34.1699218,86.5371094 C34.1699218,83.4550782 37.0483398,80.6308594 42.4941406,78.3701172 C42.8769531,78.2109375 43.3154297,78.3916016 43.4746094,78.7753906 C43.6333008,79.1572265 43.4516602,79.5966797 43.069336,79.7548828 C38.2978516,81.7363281 35.6699218,84.1445312 35.6699218,86.5371094 C35.6699218,89.7529297 40.421875,92.9511719 48.3808594,95.09375 C48.7807617,95.2021484 49.0180664,95.6132812 48.9101563,96.0136719 C48.8203125,96.3476562 48.5170898,96.5683594 48.1865234,96.5683594 Z" id="Path" fill="#DEE6F0"></path>
            <path d="M70.2265625,99.1669922 C69.8125,99.1669922 69.4765625,98.8310547 69.4765625,98.4169922 C69.4765625,98.0029297 69.8125,97.6669922 70.2265625,97.6669922 C90.8964844,97.6669922 104.782227,91.9121094 104.782227,86.5371094 C104.782227,84.0371094 101.944336,81.5429688 96.7910157,79.5166016 C90.1523438,76.9042969 80.4697266,75.40625 70.2265626,75.40625 C68.341797,75.40625 66.4453126,75.4570312 64.5888673,75.5585938 C64.1782228,75.5869141 63.8217775,75.2636719 63.7993165,74.850586 C63.7768556,74.4365235 64.0937501,74.0830079 64.5078126,74.0605469 C66.3906251,73.9580078 68.3144532,73.90625 70.2265626,73.90625 C80.6503907,73.90625 90.5332032,75.4423828 97.3398438,78.1201172 C103.19043,80.421875 106.282227,83.3320313 106.282227,86.5371094 C106.282227,93.6191406 90.4443359,99.1669922 70.2265625,99.1669922 Z" id="Path" fill="#DEE6F0"></path>
            <path d="M83.9628906,104.905273 C83.578125,104.905273 83.2509765,104.611328 83.2167968,104.220703 C83.180664,103.808594 83.4853515,103.444336 83.8984374,103.408203 C91.7480468,102.716797 99.1572265,101.40625 105.325195,99.6171875 C116.933594,96.2509766 123.591797,91.4833984 123.591797,86.5371094 C123.591797,86.1230469 123.927734,85.7871094 124.341797,85.7871094 C124.755859,85.7871094 125.091797,86.1230469 125.091797,86.5371094 C125.091797,92.2832032 118.220703,97.4394532 105.743164,101.058594 C99.4833984,102.873047 91.9746093,104.202149 84.0292968,104.902344 C84.0068359,104.904297 83.9853516,104.905273 83.9628906,104.905273 Z" id="Path" fill="#DEE6F0"></path>
            <path d="M104.216797,73.1162109 C104.152344,73.1162109 104.085938,73.1074218 104.020508,73.0898437 C101.734375,72.4687499 99.28125,71.9072265 96.7304687,71.4199218 C88.6914062,69.8876952 79.5263671,69.0771484 70.2265625,69.0771484 C58.203125,69.0771484 46.8374023,70.3798828 37.3579102,72.84375 C36.9575196,72.9492188 36.5473633,72.7080078 36.4433594,72.3066406 C36.3393555,71.90625 36.5800782,71.4960937 36.9809571,71.3925781 C46.5810548,68.8964843 58.0776368,67.5771484 70.2265626,67.5771484 C79.6191407,67.5771484 88.881836,68.3964843 97.0117188,69.9472656 C99.600586,70.4414062 102.09082,71.0117187 104.413086,71.6425781 C104.813477,71.7509765 105.048828,72.1630859 104.94043,72.5625 C104.849609,72.8964844 104.547852,73.1162109 104.216797,73.1162109 Z" id="Path" fill="#DEE6F0"></path>
            <path d="M51.8935547,104.425781 C51.8632813,104.425781 51.8330078,104.423828 51.8022461,104.419922 C41.6625977,103.191406 32.8837891,100.990234 26.4150391,98.0537109 C19.1831055,94.7705078 15.3603516,90.7880859 15.3603516,86.5371093 C15.3603516,82.5839843 18.7001954,78.8310546 25.0180664,75.6845702 C25.3891602,75.4990233 25.8393555,75.6503905 26.0239258,76.0214843 C26.2084961,76.3916015 26.0576172,76.8417968 25.6870117,77.0263671 C19.9125976,79.9033202 16.8603516,83.1914062 16.8603516,86.5371093 C16.8603516,90.1044921 20.4736327,93.7089843 27.0351562,96.6884765 C33.3662109,99.5615234 41.9926757,101.720703 51.9829101,102.931641 C52.3940429,102.981445 52.6870117,103.354492 52.637207,103.765625 C52.5908203,104.146484 52.2675781,104.425781 51.8935547,104.425781 Z" id="Path" fill="#DEE6F0"></path>
            <path d="M60.8925781,92.5996094 C60.8432617,92.5996094 60.7939453,92.5947266 60.7451172,92.584961 C54.6425781,91.3623048 51.1425781,89.1591798 51.1425781,86.5400391 C51.1425781,83.9091797 54.6430664,81.7060547 60.746582,80.4951172 C60.9643554,80.4501953 61.1948242,80.5078125 61.3686523,80.6503906 C61.5419921,80.7929687 61.6425781,81.0058594 61.6425781,81.2304687 L61.6425781,91.8496093 C61.6425781,92.0742187 61.5419922,92.2871093 61.368164,92.4296874 C61.2329102,92.5400391 61.0644531,92.5996094 60.8925781,92.5996094 Z M60.1425781,82.15625 C55.6196289,83.1855469 52.6425781,84.90625 52.6425781,86.5400391 C52.6425781,87.9023438 54.9702148,89.7441407 60.1425781,90.921875 L60.1425781,82.15625 Z" id="Shape" fill="#DEE6F0"></path>
            <path d="M78.5625,92.7802734 C78.3867188,92.7802734 78.2158203,92.71875 78.0791016,92.6035156 C77.9101563,92.4609375 77.8125,92.2509765 77.8125,92.0302734 L77.8125,81.0498046 C77.8125,80.8291015 77.9101562,80.6191405 78.0791016,80.4765624 C78.2470704,80.3339843 78.4726563,80.2753905 78.6884766,80.3105468 C85.3408204,81.4414062 89.3125,83.7705077 89.3125,86.540039 C89.3125,89.2978515 85.3408203,91.6269531 78.6894531,92.7695312 C78.6474609,92.7763672 78.6044922,92.7802734 78.5625,92.7802734 Z M79.3125,81.9482422 L79.3125,91.1289063 C84.3603516,90.1328125 87.8125,88.2890625 87.8125,86.5400391 C87.8125,85.0410156 85.1748047,83.0810547 79.3125,81.9482422 Z" id="Shape" fill="#DEE6F0"></path>
            <path d="M60.8927917,19 L43.8927917,19 L43.8927917,36.5664062 L57.0407409,36.5664062 C59.1681823,36.5664062 60.8927917,38.2910156 60.8927917,40.418457 L60.8927917,91.8499756 C63.6227722,92.3999634 66.8127136,92.709961 70.2228698,92.709961 C73.2328796,92.709961 76.0627136,92.4699708 78.5627136,92.0299683 L78.5627136,36.5664063 L78.5627136,29.1528321 C78.5627136,23.5455628 74.0171509,19 68.4098816,19 L60.8927917,19 L60.8927917,19 Z" id="Path" fill="#FFFFFF"></path>
            <path d="M60.8927917,19 L43.8927917,19 L43.8927917,36.5664062 L57.0407409,36.5664062 C59.1681823,36.5664062 60.8927917,38.2910156 60.8927917,40.418457 L60.8927917,91.8499756 C63.6227722,92.3999634 66.8127136,92.709961 70.2228698,92.709961 C73.2328796,92.709961 76.0627136,92.4699708 78.5627136,92.0299683 L78.5627136,36.5664063 L78.5627136,29.1528321 C78.5627136,23.5455628 74.0171509,19 68.4098816,19 L60.8927917,19 L60.8927917,19 Z" id="Path" fill="#F4F7FA"></path>
            <path d="M70.2226562,93.4599609 C66.859375,93.4599609 63.5820312,93.1572265 60.7441406,92.5849609 C60.3940429,92.5146484 60.1425781,92.2070312 60.1425781,91.8496093 L60.1425781,40.418457 C60.1425781,38.7080078 58.7509765,37.3164062 57.0405273,37.3164062 L43.8925781,37.3164062 C43.4785156,37.3164062 43.1425781,36.9804687 43.1425781,36.5664062 L43.1425781,19 C43.1425781,18.5859375 43.4785156,18.25 43.8925781,18.25 L68.4101562,18.25 C74.421875,18.25 79.3125,23.1411133 79.3125,29.152832 L79.3125,92.0302734 C79.3125,92.3945312 79.0507812,92.7060546 78.6923828,92.7685546 C76.0839844,93.2275391 73.234375,93.4599609 70.2226562,93.4599609 Z M61.6425781,91.2304688 C64.2426758,91.7080079 67.1933593,91.959961 70.2226562,91.959961 C72.9091796,91.959961 75.4589843,91.7705079 77.8125,91.3955079 L77.8125,29.152832 C77.8125,23.9682617 73.5947266,19.75 68.4101562,19.75 L44.6425781,19.75 L44.6425781,35.8164062 L57.0405273,35.8164062 C59.578125,35.8164062 61.6425781,37.8808593 61.6425781,40.418457 L61.6425781,91.2304688 Z" id="Shape" fill="#DEE6F0"></path>
            <ellipse id="Oval" fill="#F4F7FA" cx="43.7033386" cy="27.7832031" rx="4.7608757" ry="8.7832031"></ellipse>
            <ellipse id="Oval" fill="#F4F7FA" cx="43.7033386" cy="27.7832031" rx="4.7608757" ry="8.7832031"></ellipse>
            <path d="M43.703125,37.3164062 C40.612793,37.3164062 38.1923828,33.1289062 38.1923828,27.7832031 C38.1923828,22.4375 40.612793,18.25 43.703125,18.25 C46.793457,18.25 49.2143555,22.4375 49.2143555,27.7832031 C49.2143555,33.1289062 46.793457,37.3164062 43.703125,37.3164062 Z M43.703125,19.75 C41.5292969,19.75 39.6923828,23.4287109 39.6923828,27.7832031 C39.6923828,32.1376953 41.5292969,35.8164062 43.703125,35.8164062 C45.8774414,35.8164062 47.7143555,32.1376953 47.7143555,27.7832031 C47.7143555,23.4287109 45.8774414,19.75 43.703125,19.75 Z" id="Shape" fill="#DEE6F0"></path>
            <ellipse id="Oval" fill="#DEE6F0" cx="43.7033386" cy="27.7832031" rx="1.1894767" ry="2.1944315"></ellipse>
            <g id="Group" transform="translate(57.000000, 42.000000)">
                <path d="M22.6427917,4 L2.6427917,4 C1.81781,4 1.1427917,3.3250122 1.1427917,2.5 L1.1427917,2.5 C1.1427917,1.6749878 1.81781,1 2.6427917,1 L22.6427917,1 C23.4678039,1 24.1427917,1.6749878 24.1427917,2.5 L24.1427917,2.5 C24.1427917,3.3250122 23.467804,4 22.6427917,4 Z" id="Path" fill="#F4F7FA"></path>
                <path d="M22.6425781,4.75 L2.6425781,4.75 C1.4018554,4.75 0.3925781,3.7407227 0.3925781,2.5 C0.3925781,1.2592773 1.4018554,0.25 2.6425781,0.25 L22.6425781,0.25 C23.8828125,0.25 24.8925781,1.2592773 24.8925781,2.5 C24.8925781,3.7407227 23.8828125,4.75 22.6425781,4.75 Z M2.6425781,1.75 C2.2290039,1.75 1.8925781,2.0864258 1.8925781,2.5 C1.8925781,2.9135742 2.2290039,3.25 2.6425781,3.25 L22.6425781,3.25 C23.055664,3.25 23.3925781,2.9135742 23.3925781,2.5 C23.3925781,2.0864258 23.055664,1.75 22.6425781,1.75 L2.6425781,1.75 Z" id="Shape" fill="#DEE6F0"></path>
            </g>
            <g id="Group" transform="translate(57.000000, 52.000000)">
                <path d="M22.6427917,3.8549805 L2.6427917,3.8549805 C1.81781,3.8549805 1.1427917,3.1799927 1.1427917,2.3549805 L1.1427917,2.3549805 C1.1427917,1.5299683 1.81781,0.8549805 2.6427917,0.8549805 L22.6427917,0.8549805 C23.4678039,0.8549805 24.1427917,1.5299683 24.1427917,2.3549805 L24.1427917,2.3549805 C24.1427917,3.1799927 23.467804,3.8549805 22.6427917,3.8549805 Z" id="Path" fill="#F4F7FA"></path>
                <path d="M22.6425781,4.6054688 L2.6425781,4.6054688 C1.4018554,4.6054688 0.3925781,3.5957032 0.3925781,2.3549805 C0.3925781,1.1142578 1.4018554,0.1049805 2.6425781,0.1049805 L22.6425781,0.1049805 C23.8828125,0.1049805 24.8925781,1.1142578 24.8925781,2.3549805 C24.8925781,3.5957032 23.8828125,4.6054688 22.6425781,4.6054688 Z M2.6425781,1.6049805 C2.2290039,1.6049805 1.8925781,1.9414063 1.8925781,2.3549805 C1.8925781,2.7685547 2.2290039,3.1054688 2.6425781,3.1054688 L22.6425781,3.1054688 C23.055664,3.1054688 23.3925781,2.7685547 23.3925781,2.3549805 C23.3925781,1.9414063 23.055664,1.6049805 22.6425781,1.6049805 L2.6425781,1.6049805 Z" id="Shape" fill="#DEE6F0"></path>
            </g>
            <g id="Group" transform="translate(57.000000, 61.000000)">
                <path d="M22.6427917,4.7099609 L2.6427917,4.7099609 C1.81781,4.7099609 1.1427917,4.0349731 1.1427917,3.2099609 L1.1427917,3.2099609 C1.1427917,2.3849487 1.81781,1.7099609 2.6427917,1.7099609 L22.6427917,1.7099609 C23.4678039,1.7099609 24.1427917,2.3849487 24.1427917,3.2099609 L24.1427917,3.2099609 C24.1427917,4.0349731 23.467804,4.7099609 22.6427917,4.7099609 Z" id="Path" fill="#F4F7FA"></path>
                <path d="M22.6425781,5.4599609 L2.6425781,5.4599609 C1.4018554,5.4599609 0.3925781,4.4501953 0.3925781,3.2099609 C0.3925781,1.9697265 1.4018554,0.9599609 2.6425781,0.9599609 L22.6425781,0.9599609 C23.8828125,0.9599609 24.8925781,1.9697265 24.8925781,3.2099609 C24.8925781,4.4501953 23.8828125,5.4599609 22.6425781,5.4599609 Z M2.6425781,2.4599609 C2.2290039,2.4599609 1.8925781,2.796875 1.8925781,3.2099609 C1.8925781,3.6230468 2.2290039,3.9599609 2.6425781,3.9599609 L22.6425781,3.9599609 C23.055664,3.9599609 23.3925781,3.6230468 23.3925781,3.2099609 C23.3925781,2.796875 23.055664,2.4599609 22.6425781,2.4599609 L2.6425781,2.4599609 Z" id="Shape" fill="#DEE6F0"></path>
            </g>
            <g id="Group" transform="translate(57.000000, 71.000000)">
                <path d="M22.6427917,4.5649414 L2.6427917,4.5649414 C1.81781,4.5649414 1.1427917,3.8899536 1.1427917,3.0649414 L1.1427917,3.0649414 C1.1427917,2.2399292 1.81781,1.5649414 2.6427917,1.5649414 L22.6427917,1.5649414 C23.4678039,1.5649414 24.1427917,2.2399292 24.1427917,3.0649414 L24.1427917,3.0649414 C24.1427917,3.8899536 23.467804,4.5649414 22.6427917,4.5649414 Z" id="Path" fill="#F4F7FA"></path>
                <path d="M22.6425781,5.3144531 L2.6425781,5.3144531 C1.4018554,5.3144531 0.3925781,4.305664 0.3925781,3.0654297 C0.3925781,1.8242188 1.4018554,0.8144531 2.6425781,0.8144531 L22.6425781,0.8144531 C23.8828125,0.8144531 24.8925781,1.8242187 24.8925781,3.0644531 C24.8925781,4.3046875 23.8828125,5.3144531 22.6425781,5.3144531 Z M2.6425781,2.3144531 C2.2290039,2.3144531 1.8925781,2.6513672 1.8925781,3.0644531 C1.8925781,3.477539 2.2290039,3.8144531 2.6425781,3.8144531 L22.6425781,3.8144531 C23.055664,3.8144531 23.3925781,3.4785156 23.3925781,3.0654297 C23.3925781,2.6513672 23.055664,2.3144531 22.6425781,2.3144531 L2.6425781,2.3144531 Z" id="Shape" fill="#DEE6F0"></path>
            </g>
        </g>
    </g>
</svg>